<svg xmlns="http://www.w3.org/2000/svg" viewBox="0 0 356 58"><defs><style>.a,.b{isolation:isolate;}.b{font-size:35px;fill:#27688e;font-family:Montserrat-Bold, Montserrat;font-weight:700;letter-spacing:-0.01em;}.c{letter-spacing:-0.01em;}.d{letter-spacing:0em;}.e{letter-spacing:-0.05em;}.f{letter-spacing:-0.02em;}.g,.h{fill:#4ac4dd;}.h,.i,.j{mix-blend-mode:multiply;}.i{fill:#58bd8a;}.j{fill:#825ea7;}</style></defs><title>logo</title><g class="a"><g class="a"><text class="b" transform="translate(83.66 42)">P<tspan class="c" x="25.24" y="0">e</tspan><tspan class="d" x="46.8" y="0">ak </tspan><tspan class="e" x="101.39" y="0">W</tspan><tspan class="d" x="140.17" y="0">ebsi</tspan><tspan class="f" x="215.53" y="0">t</tspan><tspan class="d" x="230.16" y="0">es</tspan></text></g><polygon class="g" points="30.27 1 0.94 33.15 30.27 55.84 60 33.15 30.27 1"/><polygon class="h" points="60 33.15 30.27 1 30.27 1 30.27 55.84 30.27 55.84 60 33.15"/><polygon class="i" points="9.39 5.09 0.94 33.15 30.27 55.84 9.39 5.09"/><polygon class="i" points="51.14 5.09 60 33.15 30.27 55.84 51.14 5.09"/><polygon class="j" points="30.27 55.82 51.14 5.09 30.27 22.61 30.27 22.61 9.39 5.09 30.25 55.8 30.25 55.85 30.26 55.83 30.27 55.84 30.27 55.82"/></g></svg>