<svg xmlns="http://www.w3.org/2000/svg" viewBox="0 0 30.58 30.11"><defs><style>.a{fill:#fff;fill-rule:evenodd;}</style></defs><title>Unbenannt-4</title><path class="a" d="M15,3.54a41.57,41.57,0,0,1,5.58.16,7.2,7.2,0,0,1,2.64.46A5.46,5.46,0,0,1,25.87,6.8a7,7,0,0,1,.46,2.64c0,1.4.16,1.86.16,5.58a41.71,41.71,0,0,1-.16,5.59,7,7,0,0,1-.46,2.64,5.44,5.44,0,0,1-2.64,2.63,7.16,7.16,0,0,1-2.63.47c-1.4,0-1.87.15-5.59.15a43.49,43.49,0,0,1-5.59-.15,7.16,7.16,0,0,1-2.63-.47,5.44,5.44,0,0,1-2.64-2.63,7.25,7.25,0,0,1-.47-2.64c0-1.4-.15-1.86-.15-5.59a43.34,43.34,0,0,1,.15-5.58A7.21,7.21,0,0,1,4.15,6.8,5.76,5.76,0,0,1,5.23,5.25,2.68,2.68,0,0,1,6.79,4.16,7.36,7.36,0,0,1,9.42,3.7,41.71,41.71,0,0,1,15,3.54m0-2.48a44,44,0,0,0-5.74.16,9.29,9.29,0,0,0-3.42.62A6,6,0,0,0,3.37,3.39,6.13,6.13,0,0,0,1.82,5.87,7,7,0,0,0,1.2,9.28,45.85,45.85,0,0,0,1.05,15a45.75,45.75,0,0,0,.15,5.74,9.72,9.72,0,0,0,.62,3.42,6.13,6.13,0,0,0,1.55,2.48,6.13,6.13,0,0,0,2.48,1.55,9.72,9.72,0,0,0,3.42.62A45.81,45.81,0,0,0,15,29a45.86,45.86,0,0,0,5.74-.16,9.71,9.71,0,0,0,3.41-.62,6.52,6.52,0,0,0,4-4,9.72,9.72,0,0,0,.62-3.42c0-1.55.15-2,.15-5.74a45.85,45.85,0,0,0-.15-5.74,9.71,9.71,0,0,0-.62-3.41,6.15,6.15,0,0,0-1.56-2.48,6,6,0,0,0-2.48-1.55,9.27,9.27,0,0,0-3.41-.62A44,44,0,0,0,15,1.06m0,6.83a7,7,0,0,0-7.14,6.9V15A7.14,7.14,0,1,0,15,7.89h0m0,11.79a4.58,4.58,0,0,1-4.66-4.49V15a4.58,4.58,0,0,1,4.49-4.65H15a4.56,4.56,0,0,1,4.65,4.49V15a4.57,4.57,0,0,1-4.49,4.66H15M22.45,5.87a1.71,1.71,0,1,0,1.71,1.71h0a1.73,1.73,0,0,0-1.71-1.71"/></svg>