<svg xmlns="http://www.w3.org/2000/svg" viewBox="0 0 38.58 38.11"><defs><style>.a{fill:#27688e;}.b{fill:#fff;}</style></defs><title>Unbenannt-4</title><rect class="a" x="4.21" y="3.73" width="30" height="30" rx="4"/><path class="b" d="M21.14,19.24l4.53,2.87V16.25Z"/><path class="b" d="M12.21,16.25v5.86l4.54-2.87Z"/><path class="b" d="M24.83,14.54H13.05a.82.82,0,0,0-.81.71l6.7,4.42,6.71-4.42A.84.84,0,0,0,24.83,14.54Z"/><path class="b" d="M20.36,19.74l-1.19.79a.43.43,0,0,1-.46,0l-1.19-.79-5.28,3.35a.84.84,0,0,0,.81.71H24.83a.85.85,0,0,0,.82-.71Z"/></svg>