<svg xmlns="http://www.w3.org/2000/svg" viewBox="0 0 35.58 30.11"><defs><style>.a{fill:#fff;fill-rule:evenodd;}</style></defs><title>Unbenannt-4</title><path class="a" d="M12.16,28A18.67,18.67,0,0,0,31,9.5V8.26a14.54,14.54,0,0,0,3.23-3.41,14.53,14.53,0,0,1-3.77,1.08,6.93,6.93,0,0,0,2.87-3.59A16.44,16.44,0,0,1,29.21,4,6.42,6.42,0,0,0,24.36,1.8a6.75,6.75,0,0,0-6.64,6.64,3.51,3.51,0,0,0,.18,1.44,18.54,18.54,0,0,1-13.63-7,6.92,6.92,0,0,0-.9,3.41,7.13,7.13,0,0,0,2.87,5.56A6.08,6.08,0,0,1,3.19,11h0a6.54,6.54,0,0,0,5.38,6.45,5.41,5.41,0,0,1-1.79.18,3,3,0,0,1-1.26-.18,6.8,6.8,0,0,0,6.28,4.67A13.57,13.57,0,0,1,3.55,25a4.86,4.86,0,0,1-1.61-.18A16.93,16.93,0,0,0,12.16,28"/></svg>