<svg xmlns="http://www.w3.org/2000/svg" viewBox="0 0 38.58 38.11"><defs><style>.a{fill:#27688e;}.b{fill:#fff;fill-rule:evenodd;}</style></defs><title>Unbenannt-4</title><rect class="a" x="4.21" y="3.73" width="30" height="30" rx="4"/><path class="b" d="M17.06,25a8.1,8.1,0,0,0,8.17-8V16.4a6.55,6.55,0,0,0,1.4-1.48,6.59,6.59,0,0,1-1.63.46,3,3,0,0,0,1.24-1.55,7.09,7.09,0,0,1-1.79.7,2.76,2.76,0,0,0-2.1-.93,2.92,2.92,0,0,0-2.88,2.87,1.68,1.68,0,0,0,.08.63,8.07,8.07,0,0,1-5.91-3A3,3,0,0,0,14.5,18a2.61,2.61,0,0,1-1.33-.39h0a2.84,2.84,0,0,0,2.34,2.8,2.31,2.31,0,0,1-.78.08,1.23,1.23,0,0,1-.54-.08,2.93,2.93,0,0,0,2.72,2,5.88,5.88,0,0,1-3.58,1.25,2.35,2.35,0,0,1-.7-.08A7.34,7.34,0,0,0,17.06,25"/></svg>