<svg xmlns="http://www.w3.org/2000/svg" xmlns:xlink="http://www.w3.org/1999/xlink" viewBox="0 0 79.84 78.86"><defs><style>.a{fill:none;}.b{clip-path:url(#a);}.c{fill:#27688e;}</style><clipPath id="a"><rect class="a" x="1.46" y="1.08" width="76.92" height="76.92"/></clipPath></defs><title>Peak Website_assets</title><g class="b"><path class="c" d="M13,12.62A35,35,0,0,1,39.92,1.08,35,35,0,0,1,66.84,12.62,34.92,34.92,0,0,1,78.38,39.54,34.92,34.92,0,0,1,66.84,66.46,34.89,34.89,0,0,1,39.92,78,34.89,34.89,0,0,1,13,66.46,38.39,38.39,0,0,1,1.46,39.54,34.92,34.92,0,0,1,13,12.62ZM57.23,56.85l4.48-4.49-16-16L39.92,10.7H33.51V39.54A5.81,5.81,0,0,0,35.44,44a2.21,2.21,0,0,0,1.28.64Z"/></g></svg>