<svg xmlns="http://www.w3.org/2000/svg" viewBox="0 0 81 80"><defs><style>.a{fill:#fff;}</style></defs><title>Unbenannt-4</title><path class="a" d="M13.63,12.91A34.73,34.73,0,0,1,40.39,1.44,34.73,34.73,0,0,1,67.15,12.91,34.73,34.73,0,0,1,78.62,39.67,34.73,34.73,0,0,1,67.15,66.43,34.73,34.73,0,0,1,40.39,77.9,34.73,34.73,0,0,1,13.63,66.43,38.15,38.15,0,0,1,2.16,39.68,34.7,34.7,0,0,1,13.63,12.91Zm44,44,4.45-4.46L46.12,36.49,40.39,11H34V39.68a5.79,5.79,0,0,0,1.91,4.45,2.15,2.15,0,0,0,1.27.64Z"/></svg>