<svg xmlns="http://www.w3.org/2000/svg" viewBox="0 0 307 383"><defs><style>.a{fill:#fff;}.b{fill:#63494b;}</style></defs><title>Unbenannt-4</title><path class="a" d="M303,224.14c-.12-2.85-.31-5.7-.5-8.56-.08-1.3-1.28-4.48.64-4.16-3.05-6.43-3.05-14.66-4.13-21.68a119.68,119.68,0,0,0-5.53-22.54c-2.2-6.15-5-12.46-9.07-17.5-4.56-5.68-8-12-13.45-16.87s-9.85-11-15.2-16a134.28,134.28,0,0,0-18-14.12C231,98.21,224,94.12,217.1,89.87c-2.68-1.65-16.44-4.53-16.38-7.74.07-3.83,2.68-6.21,5.91-7.74s5.23-5.52,7.2-8.5c4.8-7.21,7.11-13.8,4.44-22.33-1.28-4.12-.91-8.05-3.32-11.86-2.22-3.5-5.3-6.53-8.16-9.51C200.59,15.73,195.06,11.1,186.54,8a54,54,0,0,0-27.23-2.85c-4.39.73-8.67,2-13,2.94-2.67.6-7.1,1.74-9.27,3.43-3.37,2.62-6.16,6.5-9.34,9.58-3,2.91-5.82,5.9-7.46,9.81-3,7.21-2.6,16.18-1.4,23.77a26.7,26.7,0,0,0,5,11.81c2.08,2.65,6.16,4.84,7.34,8,1.35,3.64.24,3.47-3.11,3.71a105.78,105.78,0,0,0-13.22,2.36C99.63,83.8,85.46,92,72.15,100.15c-7.58,4.62-12.87,11.21-19.53,16.81-6.43,5.4-11.48,11.41-16.77,17.9-6,7.34-11.31,14.67-15.56,23.17-.86,1.7-7.95,18.49-6.65,18.78-2.05-.45-7.52,25.35-5.9,28.05-4,.62-1.64,20.36-1.9,23.68C5.06,239,8,250.24,10.14,260.33c1.17,5.37,2.46,10.73,4.07,16,.77,2.48,1.54,6.55,3.6,8.37,5.5,14.25,12.56,27.8,22.64,39.38,4.46,5.12,9.32,10.64,14.73,14.76,6,4.56,12.21,8.73,18,13.5,2.4,2,5.09,2,7.68,3.43,2.42,1.37,7.66,3.13,9.38,5.1.75.87,3.53,2.11,4.85,2.72,3.08,1.43,6.23,2.67,9.4,3.89,6.14,2.37,12.57,4.86,19.18,5.33,1.58.11,17.68,1.57,18,2.46.63,1.86,13.16.57,15.52.54.43,2.06,26.67-2.38,30.78-3.08,9.48-1.64,17.67-4.87,26.15-9.31,9.5-5,19.24-9.15,28.2-15.12,4.65-3.1,8.65-7.18,12.8-10.89,3.75-3.36,7.83-6.17,10.81-10.31,6.14-8.55,13.25-16.2,18.8-25.21,5.34-8.67,8-18.62,10.93-28.33a160.25,160.25,0,0,0,6.33-32.4C302.4,235.43,303.3,229.88,303,224.14ZM194.05,56.3c-6-7.82-14.77-10.72-24.22-11.47-10.4-.82-18.86.05-27.27,6.66-2.49,1.95-7.45,8.73-8.87,3.39-1-3.88-2-7.54-2-11.55,1.68-2.86,1.56-6.46,3.23-9.5a24.93,24.93,0,0,1,8.49-8.74c7.84-5,18.46-5.91,27.5-6.48,7.5-.47,18.2,4.56,24.21,8.87,7,5.05,10.38,13.83,10.43,22.3,0,4.2-.8,8.51-3.53,11.82C198.51,65.8,196,58.86,194.05,56.3Z"/><path class="b" d="M17.81,284.68c-2.06-1.82-2.84-5.89-3.6-8.37-1.62-5.25-2.9-10.61-4.07-16C8,250.24,5.06,239,5.84,228.54c.25-3.31-2.12-23.06,1.9-23.68-1.62-2.7,3.85-28.5,5.9-28.05-1.3-.28,5.79-17.07,6.64-18.78,4.26-8.5,9.58-15.83,15.56-23.17,5.3-6.49,10.35-12.5,16.78-17.9,6.66-5.59,11.95-12.19,19.52-16.81C85.46,92,99.63,83.8,114.84,80.64a104,104,0,0,1,13.22-2.35c3.35-.25,4.47-.08,3.11-3.71-1.19-3.2-5.27-5.4-7.34-8a26.7,26.7,0,0,1-5-11.81c-1.19-7.58-1.61-16.56,1.4-23.76,1.64-3.92,4.45-6.91,7.46-9.82,3.17-3.08,6-7,9.34-9.58,2.17-1.69,6.6-2.83,9.27-3.43,4.34-1,8.62-2.21,13-2.94a54,54,0,0,1,27.22,2.86c8.52,3,14.05,7.68,20.25,14.15,2.86,3,5.94,6,8.16,9.5,2.41,3.81,2,7.74,3.32,11.86,2.67,8.53.36,15.13-4.43,22.33-2,3-3.86,6.91-7.21,8.5s-5.85,3.92-5.91,7.74c-.06,3.21,13.7,6.09,16.38,7.74,6.91,4.25,13.93,8.34,20.69,12.82a134.28,134.28,0,0,1,18,14.12c5.36,5,9.72,11.17,15.2,16s8.89,11.19,13.44,16.87c4.05,5,6.88,11.35,9.08,17.5a119.87,119.87,0,0,1,5.53,22.54c1.07,7,1.08,15.26,4.13,21.68-1.92-.31-.72,2.87-.64,4.17.18,2.85.38,5.7.5,8.55.26,5.75-.64,11.29-1.07,17a161.19,161.19,0,0,1-6.34,32.41c-2.89,9.7-5.59,19.66-10.93,28.32-5.54,9-12.65,16.66-18.8,25.21-3,4.14-7,6.95-10.81,10.31-4.15,3.71-8.15,7.79-12.8,10.89-9,6-18.7,10.16-28.2,15.12-8.48,4.44-16.67,7.67-26.14,9.31-4.11.71-30.36,5.14-30.79,3.08-2.36,0-14.89,1.33-15.52-.54-.3-.89-16.4-2.35-18-2.46-6.62-.47-13-3-19.18-5.33-3.17-1.22-6.33-2.46-9.41-3.89-1.32-.61-4.09-1.85-4.85-2.72-1.72-2-7-3.72-9.38-5.1-2.58-1.47-5.27-1.45-7.67-3.42-5.8-4.78-12-8.95-18-13.51-5.41-4.12-10.27-9.64-14.73-14.76C30.37,312.48,23.31,298.93,17.81,284.68Zm30.83,36.6c1.51,1,3.94,3.59,5.16,1.92-1.73-1.34-4-4.25-6.29-3.64l1.17,1.77c-1.2-.89-3.78-3.8-4.89-2.52C45.46,320.45,46.43,322.67,48.64,321.28Zm65.44,40.22,4.3.92c-3.86,3.47,2.79,1.3,4.39.86,0-1.44-7.29-3.18-8.8-3.71l.15,2c-1.55.11-6.77-.36-6.69,1.34,3.12.24,4.28.58,6.65-1.39ZM56.39,123.64c-.47,1-.27,1.65.59,1.79l4.21-7.55c-2.4-1.59-4,4.08-4.83,5.79a4.32,4.32,0,0,1-.43-2.55c-5.76,2.41-6.74,8.07-7.72,13.64,3.42-1.55,6-8.14,8.18-11.12Zm165.66-20.76,2.89-1.29-7.35-.23c.84,1.5,3.08,1.31,4.48,1.52-1.82,2.63,13.37,6.49,16.59,4.42-2.81-4-8-2.88-11.87-5l3.37.26c0-.89-4.45-.8-5.39-.87.12,1.57-1.44,1.06-2.72,1.21Zm68.54,103.7,2.42.72c-.08-.63-.17-1.25-.26-1.87,1.23,1.59,5.48,8.61,7.11,7.7q-2.76-6.78-5.54-13.57c1.1-.54,3.3,4.23,3.95,5.28,1.15-.59-1.37-5.39-1.83-6.61q-1.94-2.08.36-2.88l-2-5c-.84.28-.47,2.22-.49,2.89-3-5.06-4.54-17.49-13.42-16.51a43.2,43.2,0,0,0,7,9.38c-1.4-.7-3.19-2.33-4.48-1.23l4.13,6.6c-4.86-2.48-.35,7.61.82,8.3-2.49-1.47,1.55,5.83,2.23,6.82-1.36-.87-1.87-.38-2.28.92-.7,2.22.87,3.78,2.22,6.1l-2.52-.45c.91,1.22,1.49,1.18.38,2.41l6.12,4.74c1.05-1.09-2.27-5.47-3-6.75l5.08,4.66c-.58-4.87-1.8-8.72-6.05-11.66ZM125.44,56.69l2.21-.53c.65,3.69,2.34,6.63,4,10,3.29-4.45-1.22-7-3-10.89-1.86-4.15-1.6-10-1.77-14.46-.37-9.63,7.86-15.34,14.33-21.26-1.89.95-3.68,2-5.49,3.08-.82-1.43,11.21-8.9,7.32-3.42,3.37,2.38,9.71-1.4,13.68-2.28,5.43-1.2,11-.94,16.51-1.19-4-2.06-12.26-1.23-16.53-.5-2.51.42-4.92,1.13-7.46,1.34-6.35.52,2.78-2,4.32-2.34,11-2.12,26.74-2.52,35.77,4.88-2.64-1.43-12.24-6.3-15-3.08,8.29,2.21,17.16,4.75,23.65,10.66,7.76,7.07,9,14.83,10.81,24.72l.84-5.78c1.41,2.4.75,3,.5,5.77s.92,6.55-.45,9c-2.42,4.32-9.75,8.51-7.4,14.22,1.8-1.48,8.27-5.36,6.8-7.28-1.37,1.14-4.17,4.66-5.72,3.48,4.45-4.76,8.62-10,9.23-16.75.59,1.92,1.59,4.23,1.45,0q-.16-5.7-.35-11.4c-.18-5.86,1,.64,1.15,2.32l.84,11.4c4-10.61-2.67-27.63-10.71-33.83-4.29-3.3-10.08-9.7-15.22-11-7.18-1.77-13.59-4.71-21.16-4.76-12.35-.09-28.65,4.17-37.49,13a41.41,41.41,0,0,0-9.41,14.35c-2.45,6.65-1.19,12.85-.65,19.66l2.14-4.44c1.92.52,1.91,5.44,2.26,7.32l-1.65-3.32c-2.47,3.17,5.85,15.67,8.13,17.83C131.18,65.61,128.31,61.59,125.44,56.69ZM24.58,261.92c.08,8.26,6.22,17.27,9.86,24.38,4.63,9.07,9.36,18.22,15.91,26.08,13.32,16,30.88,26.94,48.84,37a17.42,17.42,0,0,0,3.38,1.94c1.45.45,2.51-.61,3.88-.32,4.16.85,8.37,2.53,12.58,3.51,8,1.85,15.11,3.23,23.12,4.47,10.34,1.59,20.33,1.14,30.74.83a64.53,64.53,0,0,0,15.24-2.49c2.94-.78,9.34-.56,8.13-4.29,12.79,2.2,28.19-12.11,37.32-19.76,4.68-3.93,9.57-7.86,14-12.07,2.61-2.48,4.85-5.12,8.18-6.53,3.09-1.3,5.89-7.35,7.76-10,3.89-5.59,5.86-12.94,9.86-18.57,2.34-3.3,5-6.12,6.44-10a92.47,92.47,0,0,0,3.29-13.24c3.9-18.5,4.44-36.56,3.11-55.38a50,50,0,0,0-2-9.21c-.94-3.52-.29-6.71-2.1-10-1-1.79.24-1.69,0-3.36a27.69,27.69,0,0,0-1.72-5.46c-1.51-4-3-8-4.6-11.92a96,96,0,0,0-28.81-38.78c-12.4-10.19-25.29-21.66-40.66-27.1-8.51-3-17.1-6.07-25.81-8.48-3.64-1-7.4-1.95-11.1-2.7-3.28-.67-5.16,1.55-8.07,2.41-.21-3.74-8.63-1.67-11.8-1.58-4.9.14-10-.09-14.89.75-10.08,1.75-21.19,3.61-30.71,7.42-9.25,3.71-17.84,10.48-26.42,15.58-3.68,2.2-6.49,3.69-9.76,6.74a132.73,132.73,0,0,0-11.79,12.16c-12.43,15-24.24,32.3-29.82,51.28a129.68,129.68,0,0,0-5.47,30c-.41,8.72-2.33,21.2,2.71,28.94l-2.3-2.3a98.59,98.59,0,0,0,4.48,20.79ZM131.65,43.33c0,4,1,7.67,2,11.55,1.42,5.34,6.38-1.44,8.87-3.39,8.41-6.61,16.87-7.48,27.27-6.66,9.45.75,18.19,3.65,24.22,11.48,2,2.55,4.45,9.5,7.92,5.29,2.73-3.31,3.57-7.62,3.54-11.81,0-8.47-3.38-17.26-10.43-22.31-6-4.31-16.72-9.33-24.22-8.86-9,.56-19.66,1.5-27.5,6.47a24.93,24.93,0,0,0-8.49,8.74C133.21,36.87,133.33,40.47,131.65,43.33ZM104.76,355.82c.8-1.89-8.63-5.19-10.43-6.09A109.46,109.46,0,0,1,81.2,341.6c-8.57-6-17.63-12.24-24.91-19.78a116.3,116.3,0,0,1-18-23.83c-2.41-4.25-4.88-8.4-7.55-12.5-1.23-1.89-6.25-8.63-5.77-10.77l1.76.55q-3.51-7.56-7-15.11c.74.9,1.5,2.91,2.77,2.37q-1.17-6.46-2.33-12.94c-.39-2.18-.79-4.37-1.18-6.55a5.17,5.17,0,0,0,.31-4c-1-3.26-3.53-6.07-4.83-9.27-1.24-3-5.08-8-5-11.22,1.73,1.9,1.94-.78,1.79-2.24-.23-2.12-1.75-3.8-2.55-5.7L8,219.35c-.24,3,1.46,4.71,3,7.19-1.18.73-4.71-7.2-3.26-.39.59,2.75.82,10,2.73,12l-1-2.66c-2.83,1.85,1.08,12.79,2.09,15.7a53.48,53.48,0,0,0,8.63,15.65l-2.68-1.35q3.93,11.46,7.87,22.93c.57-.92,1.12-1.73,1.77-2.6a10.42,10.42,0,0,0,1.94,8.36c.76,1,5.81,4.63,2.79,4.75l4.36,4.69-2,.22L36,306.16l.23-.92,4.48,3.12c-1.31-.39-4.15-2-4.76-.54l6.94,3.48c-1,2-3.74-3.17-5.06.25l9.53,3.81c-.11.29-9.86-1.81-4.4.68,3.77,1.72,6.35,1.89,9.52,4.26.63,4,4.86,3.29,6.12,6.05,1.42,3.13,5.21,1.19,4.89,5.25-.68-.16-6.78-4.2-6.72-2.73.06,1.84,4.85,3.86,6.35,4.41l-2,1.29c-.9-1.63-1.74-1.89-2.5-.79,2.18,2.57,4.83,3.26,8.07,4.19,2.16.61,3.86.57,6.13,1.46,2.54,1,3.31,2.56,5.62,4,1.24.75,3.8.65,4.7,1.57,2.47,2.51-4.1.53-4.5.41l-3.89-1.14c-1,1.37-.58,2,1.32,2.06l9.59,3.49c-6.12-.49,2.2,2.19,4,2.77l-.48.66c2.68.94,7.42,3.81,10.07,2.66-1.35-1.47-3.12-2.08-4.89-2.95.36-.64,9.16,2.54,10.33,2.9Zm32.17-282.3c3-1.45,6.56-1.79,9.43-3.63s4.81-4.76,7.49-6.79c-.36,1.8-1,2.63-1,4.7,2.32-.14,4.2-1.67,6.5-1.74s4.75.6,7.11.91c2.88.37,8.91-6.44,9.55-9-2.94-.28-4.14-2.78-6.9-2.9a32.12,32.12,0,0,0,1.81-4c-3.88-.6-4.65,1.82-8,3.13.39-1.74,1.33-2.32,2.59-3.52l-2.51-1,6.53-1.92c-5.53-4.56-19.63,2.1-24.65,4.9a18.8,18.8,0,0,0-8.39,9.27c-1.09,2.42-3.92,8.24-2.17,10.9l4.2-4.19c-.18.76-.37,1.53-.54,2.29l4.8-2.24C143.44,70,138.15,72.69,136.93,73.52ZM148.39,78c-4.58,0-8.86,1.5-13.37,2.26-5.14.86-10.32,1.49-15.47,2.3a108.83,108.83,0,0,0-14.15,3.2c-3.92,1.17-4.41,3-5.89,6.43-1.58-2.31-2.09.76-3.12,2.32s-4,5.54.25,3c4.09-2.47,6.6-3.22,10.87-5.23,3.41-1.6,6.86-1.8,10-2.45,2.69-.54,11.54-.84,13.33-2.79-1.16,1.26,3.18.53,3.71.28,1.58-.75,2.91-2,4.65-2.43-3.63,2.69-2.57,3,1.38,2,1.43-.35,7-2.46,8-1.55s14.76-6.55,14.54-7.54l-5.71.8.72-1.09-6.39.6c-.78.07-4.56,1.37-3.37-.08Zm87.24,39.47a79.83,79.83,0,0,1,9,6.27l4.52,3.92c2.59,2.24,3.14,2.34,6.57,2-3.55,2.22,1.23,4.83,3.32,7.15l3,3.38q1.11,2.88,2.49.77c1.38-.53,2.24,1.49,3.5,1.6-1.6,0-2.42-.54-3.84.23a22.64,22.64,0,0,0,8.31,4.18c-1,2.67-4.63-2.54-6-.79,1,.88,5.67,5.45,5.89,4.51L284,155.16c1.77-1.7-1.36-4.3-2.33-6.22-.39-.77-1.88-.92-2.57-1.17-1.55-.57-.4-.91-.81-2.21a9.64,9.64,0,0,0-4.44-5.11c-2.25-3.27-5.31-5.4-7.89-8.38-4.15-4.79-12.11-6-18.05-6.52.35-2,3.06-.38,4.57,0l8.78,1.91c-2.84-5.15-7.94-6.19-13.36-6.58-2.64-.18-5.07.16-6.48-2C240.26,117,237.43,117.62,235.63,117.46ZM282,170.67c-.34.49-2.3-.55-2.85-.71.51,3.08,3,5.08,5.47,6.89,1.8,1.35,3.66,2.6,5.48,3.92,1.6-1.06-1.45-5.15-2.23-6.74l1.76.47c-2.13-3.39-.81-8.55-4.58-10.92,4.38-2-5.18-5-6.83-5.76.35-.68,7.63,2.4,8.7,2.79-.13-2.45-4.18-4.7-6-5.77-1-.57-7-3.89-6.16-1.38-1.56-.62-3.43-2.37-4.38-.58l6.69,4.18-3.59,0c2.79,4.94,5.86,6.88,10.29,10.19-2.27-.46-4.38-1.21-6.68-1.51,1.13,2.3,2.84,3.35,4.87,4.9ZM136.32,360.83l.77-.17c-4.82-2.69-12.78-2.29-18.38-3.45l1.69,1.38c-3-1.29-5.75-2.87-9-3.4-1.58-.26-9.88-1.16-4.18,1L117.53,360c3.39,1.27,9.77,3.6,3.39-.51,2.5.88,7.77,5.9,10.22,3.08l-1.88-1.6c2.52,1.08,7.66,6,9.29,1.77,4.27,2.59,6,2.51.38,4.1.08,3.73,7.34-.43,8.8-1.42-1.38-.41-2.56-1.05-4-.65-.2-.62,1-1,1.49-1.21C142,362.49,139.9,360.71,136.32,360.83ZM14.17,198.68,13,198.9l2.58,11.81c.25,1.13,2,10.61,2.85,5.6.3-1.75-5.12-13.31-2.79-13.89l1.06,4.74c2.13-3,3.39-23.46-.37-25.13-2.65,6.24-2.57,13.05-1.49,19.64Zm3.89,34c2-6-2.06-10.78-3.08-16.42l1.53,3.16c1-.47-2.34-13.26-3.77-12.95.26,1.16,2.47,8.93,1.72,9.22-3-7-2,.26-1.65,3.77-2.65-1.54-.25,6.08.2,7.26,1.3,3.42,3.13,7.32,6,9.69C18.71,235.15,18.38,233.91,18.06,232.67ZM24,174.59c1.74.17,3-11.05,3.36-13.19,1.13.3.12,5.46,0,6.66,2-3.79,4.08-7.63,4-12,0-3,5.81-10.95,3.68-12.12-3,4.71-6.18,9.34-8.9,14.22-3,5.34-1.73,10.65-2.19,16.46Zm-4.83,20.16,1.21.06c0-3.39,0-6.78,0-10.17.46,0,.63,4.71.69,5.37,1.53-.08,2.29-21.11,2.51-23.88-4.31,4.3-1.53,10.48-3.5,15.6,0-2.51-.07-5-.11-7.53-3.2,6.57-1.36,13.64-.82,20.55ZM88.89,97.87a3.87,3.87,0,0,1,1,2.2c4.17-2.59,6.91-7.64,10.1-11.38-5,.77-8,4.2-10.86,8l1-2.65c-3.69-.76-7.17,7-6.43,9.79Zm-27,21.07a14.06,14.06,0,0,0,6.58-5.21c1.47-2.2.86-4.29,2.24-6.36,2.78-4.17,2.19-4.31-2-1.8-3.88,2.34-3.93,3.86-5.08,7.9l5.47-4.07c-2.12,3.53-7.47,4.71-7.24,9.54ZM197.47,91.73c3.3,1.6,6.33,3.4,10.15,3.08,3.65-.31,7.24-.67,10.9-.89-5.05-5.37-14.58-2.69-21.05-2.19Zm-11.7-6.14c-.11-1.08,4.17-1.06,5.21-1.19-1.72-3-13.25-.75-14.8,1.8l8.31-1c.11,1-3.84,1.34-4.81,1.55.3,1.82,7.87.2,9.78,0l4.81-.45c2.58-.25,3.7-1.33.57-1.24s-6.05.28-9.07.47Zm-17.48-3.81,3.84-1.6c-1.7-3.64-15.69,1.26-17.56,3.48C159.25,85.37,164,83.63,168.29,81.78Zm40.26,15.71,16.24.1c-2.47-1.85-6-2.41-9-2.7-2.55-.23-9.06-1-7.26,2.6ZM216.09,353l-1-1.09c2.45-1.09,2.42-1.83,4.49,0,1.38,1.24,3-1.5,4-2.44-3.48,0-7.45-1.74-10.43.87l1.41,1.5c-2.44.53-5.83-1.68-5.27,2.61C211.84,354.48,214.64,355.89,216.09,353ZM35,150.84c3.48-1.29,8.52-14.42,6.69-17.7Zm256.1,93.79a22.77,22.77,0,0,0,2.68,3.49c.05-4.74-1.73-5.3-5.43-8.1-.2,2.53-1.55,7.48,0,9.44,2.6,3.18,2.45-3,2.72-4.83ZM45.21,140.34c.81-3.16,3.85-9.42,2.45-12.36-4.64,3-4.68,8.21-5.82,13.21C43.4,139.65,43.19,139.6,45.21,140.34Zm234.39,140c1.22,1.17,2.16-.48,3.3-1.34,2.62-2,.06-1.16-.95-2.82.93-.55,4.72-3.41,5.41-2.67,1.57,1.69,1.35-1.55,1.12-2.31-.29-.93-4.22-1.34-4.77-.39a78.52,78.52,0,0,0-4.11,9.52ZM153.21,362.43c2.85,2.75,14.19,6,17.43,2.69l-10.87-2.07,1.16-1.16Zm2.47,3.46c.31-.84,4.69,1.23,5.6,1.56.59-1.81-5.46-2.92-7.18-3.51-.64,2.59-4.1-2.11-6.85.42l3.53,1.27a2,2,0,0,0,1,1.85c1.5.64,3.15-1,4.65-.16-1.57.65-2.82.39-2.32,2.24l6-1.43ZM177.83,362c-.05.92,11.11,3.2,11,3.46-1.11,2.63,4-.87,4.37-1.07-.52-2.35-5-1.19-7.17-1.17,1.88-.79,3.87-2.07,0-1.8ZM229.6,101c-1.94-3.94-14.81-4.56-15.65-.55Zm47.24,190.46c1,4.43,2.48.66,3.93,3.24,2-4.6.4-3.65-3.41-4.2-3.24-.48-4.42,2.68-6.63,4.29C273.71,295.16,276.27,294.92,276.84,291.45ZM90.54,103.36c-3.05-1.88-11.59,4.27-13.67,6.89-3.42,4.32,3.57-.49,4.77-1.24ZM201.6,356.6c-.17,1.1,6.21,1.1,7.52,1.2-1.44,2.87,8.64-.65,1.71-2.44-1.51-.4-9.41-1.5-7.88,1.47ZM179.82,81.36c-5.1-2.13-9,1-13.79,2.83C168.53,86,178,83.72,179.82,81.36Zm-21.59-8.73,17.16,3c-2.37-3.24-14.89-4.85-17.16-3ZM139,24.92c-3.34-2.86-14.46,18.06-10,19.17C129.83,36.62,133,29.66,139,24.92ZM191.8,89.83c.12,2.3,4.87,1,6.85.86l9-.46c-5.07-2.92-10.52-1.34-15.89-.4Zm97.12,139.66c-.06,1.92-.12,3.84-.19,5.75,1.74-2.34,5.59,2.82,6.86,4,.5-6.25-3.46-5.65-6.66-9.8ZM63.9,112c-2.47-3.32-9.13,5.77-10.86,7.76q-2.7,1.44-.39,2.69l3.25-3.15C58.5,116.79,61.17,114.39,63.9,112ZM272.59,302.44l.72.78c4.65-5.13-6-5.78-6.53.57ZM240.86,117.36c4.07,3.87,9.26,2.54,14,3.7C254.38,119.07,243.06,116.28,240.86,117.36Zm-163.66-12c2.29,2.59,8.14-6.54,7.24-8.73C83.27,93.76,77.36,105.1,77.2,105.35ZM192,58.81c-.83-2.57-8.57-8.24-10.42-7.63C181.45,53.41,189.81,59.54,192,58.81ZM241.2,336.66a6.87,6.87,0,0,0-9.27,2.91h0C235.5,340.81,239.7,339.52,241.2,336.66ZM211.77,101.24l.34-.88c-2.83-1-4.3-1.19-5.93-3.45-1.3-1.81-4.08-1-5.67-.33C203.77,99.68,207.46,100.12,211.77,101.24Zm77,124.17c-.32,1.22,4,6.2,4.61,5.46,2.38-3-1.6-6.24-4.61-5.46Zm-55.29-114.9c.41,2.06,12,4.38,14,2.87ZM188.73,79.7c-1.11-2.73-1.37-2.26-4.31-2.07l1.36-2.81c-2.06,1.32-2.92,1.7-5,.76a5.22,5.22,0,0,0-5.49.72ZM172,47c-4,1.87,2.47,2.65,4.57,3.8.7.39,4.66,1.5,3.61-.7C179.37,48.47,173.62,47.52,172,47ZM295.33,226.09c1-4.18-2.2-5.58-5.7-6.68C290.47,223,292.46,224,295.33,226.09ZM11.46,212.29c-.29-4.88-.54-9-.82-13.54C8.44,201.45,8.71,209.64,11.46,212.29ZM237.2,115.43,252,117.66c-1.74-2.3-12.86-4.21-14.85-2.23ZM191,93.69c1-3.93-2-1.16-4.27-2.62-1.6-1-5.39-3.65-6.13-.12Zm9.4,1.14c-1.05-1.42-7.18-3-8.18-1l7,3.64,1.16-2.69ZM17.58,170.63c3-1.57,7.05-11.39,5.91-13.7ZM245.73,330.69c-.52,1.3-3.67-1.63-3.86.4-.13,1.28,2.89,1.24,3.65.94,1.54-.59,5.3-1.46,4.55-3.24C248.13,328.83,240.81,328,245.73,330.69ZM126.58,367.3l-.06-1.08-12,1.35c4,2.31,8,.38,12.06-.27Zm147.83-77.7c1-.06,9.38.33,7.87-2.44-1.82-3.36-6.61,1.14-7.87,2.44ZM229.59,109.54l12.58,1C241.15,108.87,231.83,107.56,229.59,109.54ZM115.92,92.68c-1.16-3.25-7.77,1.5-9.18,3.26C110,95.38,112.86,94,115.92,92.68ZM277.34,285.6c1.15-.13,8.13-.85,5.71-4.05C281.56,279.58,277.42,284,277.34,285.6Zm-13.27,22.49c.37-.09,9.19-1.55,6.76-3.46s-6.24.83-6.77,3.46ZM107.58,359.48l-5.81.11c2.07,2.25,7.76,1.93,9.92,0l-4.55-2.25Zm129.1-17.74c-4.05-1.16-8.52-1.68-8.32,1.51,7.63.41,7.63.41,8.32-1.51ZM26.3,293.53c.36-1-4.68-8.41-5.08-8.23-1.31.59.48,2.9.92,3.9C23.32,291.9,23.57,292.72,26.3,293.53Zm262.5-54.67,6.35,2.41c1.13-2-4.46-4.39-6.2-5.54l-.78,3.44.63-.31ZM174.55,70.26c-2.65.16-9.41-2.88-10.88.26,2.17,1.28,9.19,2.33,10.88-.25Zm6.67-5.16c1.21-1,4.67-4.51.58-5-.85-.11-2.45,3.19-2.87,3.85l2.29,1.17ZM45.6,325l.91-.89c-2.51-2.16-4.3-8.09-8.24-6.9ZM143.76,88.17c.23,1.62,10.9.73,12.61-.44-3.48-1.51-8.91.07-12.61.44ZM262.64,316.81c-.71-1.32-6.36-.75-6.95.87C254.65,320.48,261.55,317.68,262.64,316.81ZM227.36,108.24c-1.09,1.39,2,3,3.11,4,1.73,1.59,4.09,5.52,6,3.65Zm59.5,160.45-.3-7.65C284.74,263.87,282.15,268.73,286.86,268.69ZM139.16,76.51l15.71-1.1C152.33,74,141,74.8,139.16,76.51Zm-68.41,34c2.43,1.73,6.18-3.95,4.61-6.35ZM34.63,307.58c.6-1-2.3-2.16-3.18-2.7,6.56-.22-7.46-6.47,0-.4C27.57,305.66,33.16,307.08,34.63,307.58ZM175,65c-1.24-1.41-4.21-.19-6.14,2.54C170.92,69,173.22,68,175,65Zm94.31,243.63c-2.13.28-4.27.5-6.38.9-.75.15-.31,1.77.45,1.91,1.91.34,5.15-.91,5.93-2.81Zm21.46-46.82c.08-1.62-1.94-6-4.17-3.5-1.26,1.39,2.52,4.67,4.17,3.5ZM179.14,60.11l-1.06-2.21a23,23,0,0,0-3.37,5.39C177.43,63.07,177.62,62.42,179.14,60.11ZM292.66,176.05c1.8-.91-2.1-8-2.89-10-2.3,1,1.91,7.75,2.89,10ZM14.57,266.39c2.41-.89-1.22-7.47-2.05-9.77C10.54,257.3,13.9,264.36,14.57,266.39Zm3.49-93.94c-1.7-.47-3.52,8-4.12,9.86,2.31.67,3.48-7.56,4.12-9.86ZM174.35,68.38c1,3,4.5-1.24,5.37-2.18C177.35,64.9,176.3,66.79,174.35,68.38ZM18,211.46c2.35-5.92,2.45-8.52.71-9C18.46,205.49,18.23,208.48,18,211.46ZM197.07,75.88c.4,1.14,1.94-1,1.38-2.22-.87-2-4.54,1.43-5,2.38A4.63,4.63,0,0,0,197.07,75.88Zm-72,15.41c-.64-2.4-6.68.42-8.9,1,.56,2.13,6.87-.51,8.9-1Zm170,94c.47-4.55-.83-6.86-3.82-7.09ZM198,363.21l.22.69c.69-.52,1.36-1,2-1.61s-4.67-.7-4.7-.7C189.85,361.48,196,363.06,198,363.21ZM215.41,59.26l-.89-.58q-2.49,3.84-5,7.68C211.4,67.57,214.27,61.07,215.41,59.26Zm84.64,177.17-1.24-5.29c-2.82.82-.85,4.59,1.24,5.29Zm-43,87.76c-.72-1.52-4.91-.22-6.48,0C250.42,327.18,255.5,325.07,257,324.19ZM62.74,121.82l1.12,1c1.36-1.53,4.49-3.53,3.29-5.52ZM57,331.66l.76-1.12-6.2-3.76c-1.23,2,3.71,3.79,5.45,4.88Zm15.9,15.77-.6,1.6L78.11,351c.86-2.39-3.15-2.74-5.16-3.53Zm126,17,.12.9,5.82-.79c-.81-2.81-4.45-1.29-5.93-.12Zm-51.32,5.17,3.18-1.84c-1.94-1.8-2.46-.94-4.82.25Zm42-305.91,2.08-2.35C187.87,58.48,187.5,60,189.58,63.73Zm-1.45,296.6.06,1.15,6.41-.55c-.13-2-3.87-2-3.88-.4Zm-89.9-2.93c.33,2,4.45,2,5.37.29-2.35-1-3-1.12-5.37-.29Zm105.54,3.48c.12.61.25,1.22.38,1.83,2.1-.57,3.64-.29,3.91-2.55Zm42-26.4c-.25-1.82-4-1.27-5.61-1.39,1.17,2.83,3.2,1.85,5.61,1.39ZM224.86,107.91c.62-1.8-3.8-3.09-5.33-3.89-1.52,2.1,3.73,3.37,5.33,3.89ZM69.38,115l1,1.28c1.79-1.4,4-1.91,2.7-4.11Q71.2,113.57,69.38,115Zm9.3-14.14-1-1L73.57,104C75.33,105.75,77.19,102.33,78.68,100.85ZM253.57,320.6c.17,2.21,4.13.9,6,.77C259,319.07,255.58,320.42,253.57,320.6ZM292,254.35c0-2.42-2.26-5-4.29-2.72ZM173.58,365.17c.3-2.1-3.28-2.23-5.06-2.78C167.51,364.83,171.74,365,173.58,365.17ZM159.86,68.78l-.26-1-7.93,2C152.1,71.53,158.12,69.2,159.86,68.78ZM286.62,256.66c1.21,1.42,2.15.13,3.62-.6L288,254Zm12.56-36.93c1.87-2,1-5.5-1.51-6.21.52,2.11,1,4,1.51,6.21Zm-15.57,71.69c-.08,1-.89,4.11.24,4.55.77.35,1.28,0,1.51-1.11C286.67,293,285.14,292.76,283.61,291.42ZM186,88c0,.43.09.87.13,1.3l6.34-.8C192.21,86.43,187.7,87.8,186,88Zm-41.09-15.5c-.06,1.43,5.62.8,5.7.07C150.83,70.12,145.9,72.21,144.86,72.45ZM270.11,296.89c.29,2,4.93,1.56,5.13.19C275.46,295.53,270.64,296.84,270.11,296.89Zm22.95-27.18c1.07.28,1.45-.38,1.14-2,.64-2.7.07-2.27-1.94-3.61.27,1.86.53,3.73.8,5.6ZM177.8,367.21c1.26,2.38,4.18,1.59,5.2-.5ZM44.45,128.31c1.13,1,6.07-4.15,4.62-5.41ZM224.73,347.22V346l-5.5.08C219.3,347.51,223.39,347.12,224.73,347.22ZM195.06,80.05l2.62,2.16c.15-1.33.31-2.66.46-4Zm17.2,280c3.66,1,4.91-6.59,0,0C214.23,360.55,213.14,358.81,212.26,360ZM63.38,341.22c.91-1.45-4.08-4.73-4.73-4C57.78,338.17,62.7,340.76,63.38,341.22Zm84.47,29c2.46,1.24,2.77,1.07,5.24-.36a3.63,3.63,0,0,0-.5-1c-1.6.38-3.17.88-4.74,1.34Zm17.24-281.8c-.14-1.66-4.84-.76-6.35-.74.1,2.06,4.58.83,6.35.74Zm27.44-20.9c-.19-.4-.39-.8-.59-1.2l-3.69,1.82c1.14,1.88,2.58.2,4.28-.62Zm47.84,273,4.63-3.16c-1.88-1.19-4,.13-4.63,3.16Zm-115,28.11.27,1,5.49-1.49c-.53-1.95-4.1,0-5.76.46Zm44.22-1.12.06,1.26,4.91-.35c-.13-2.14-3.17-1-5-.92Zm48.53-14.79c-4.44,4.8,2,3.07,0,0-.92,1,.5.78,0,0ZM202,359.13c.27-2-3.49-1.6-5.15-1.86-.29,2.12,3.36,1.62,5.15,1.86ZM26.52,296.89l-.62.79c1.27.88,4.73,4.29,5.75,2.9ZM277.74,304c1.1-4.06,1.05-5.3-1.89-1.16l1.89,1.16Zm-110.52,68.7c.18,1.09,4.5.23,5.55.15-2.05-2.25-2.73-1.22-5.55-.15ZM298.33,220.37c-2,1,.12,3.14.86,4.77C301.32,224.15,299.11,222,298.33,220.37ZM184.88,57.07c-1.21,1.48-.14,1.88,1,3.31C187.68,58.27,186.71,58.59,184.88,57.07Zm79.56,257.12c.16-3.36-7.32,1.76,0,0C264.46,314,263.56,314.4,264.44,314.19ZM102,363.13c-.3,1.94,1.66,1.56,3.25,2,.4-2.7-1-1.78-3.25-2ZM174.78,55.05c2.5.61,4.3.71,2.63-2.14Z"/><path class="b" d="M67.38,140.42c13.31-11.93,26.14-21.73,43.14-27.9a200,200,0,0,1,26.29-7.39c10-2.17,18.85-1.38,28.94-.89,18.71.91,34.69,9,50.94,17.46a98.37,98.37,0,0,1,37.94,36.07c2,3.37,4,6.75,6.31,9.93,1.86,2.54,2.47,6.83,3.68,9.81,3.59,8.83,6.77,17.67,8.52,27.06.8,4.28,1.47,8.57,2.13,12.88.62,4.09-.14,7.22-.15,11.24,0,10-1.46,19.61-3.14,29.44-2.82,16.49-13.25,34.53-24.51,46.81-2.83,3.09-5.87,6-8.9,8.86-1.79,1.72-5.13,6.78-7.46,7.36-3.24.81-6.3,4-9.29,5.63-4,2.21-8.22,4.08-12.33,6.1-11.64,5.75-24.72,10.77-37.58,12.75-14.64,2.25-29.49.69-44-1.87,3.71-1.49.17-1.89-1.91-2.41-3-.75-6.88-.37-9.7-1.35,2.48-.72-4.11-2-5.28-2.34l-8-2.57c1-2.6-6.85-4.45-9.34-5.48A57.12,57.12,0,0,1,81.22,323c-3.9-2.94-7.53-6.27-11.32-9.34l-3.13-2.54a2.26,2.26,0,0,0,.91-2.13c-.36-1.24-1.93-1.49-2.63-2.45-2.79-3.79-6.55-6.74-9.22-10.63-2.41-3.53-4.5-7.41-6.62-11.14C44,275.7,40.87,265,38,255c-5.8-20.08-4.15-42.93.92-63.06,2.68-10.66,6.72-19.3,11.57-29.1a64.55,64.55,0,0,1,7.3-11.54C58.84,149.91,67.59,141,67.38,140.42Zm.38,159.14A64.26,64.26,0,0,1,75.27,292c2.75-2.31,6.09-6.31,9.54-7.36-1,2.72-3.75,4.42-5.87,6.33-3.52,3.19-7,6.36-10.56,9.57-3.71,3.41-2.2,5.47,1.49,8.4.8.64,1.3,1.83,2.34,2.15,1.26.4,1.58-1.64,2.34-1.17-1.61,1-1.78,1.82-.53,2.57,1.54-3.2,5.45-9.17,8.87-10.23-.17,4.44-5.58,6.51-7.49,10.31-1.1,2.18,1.47,3.19,3,4.43,3.52,2.92,3.27,2.49,6.32-.85l6.06-6.64c3.14-3.44,1.93.06.7,1.72-2.56,3.47-6.46,5.76-8.55,9.6,2.44,1.12,9.65,6.58,11.79,3.48,1.72-2.5,2.72-5.66,4.22-8.33,1-1.71,2.08-3,2-.23,0,1.61-.74,1.35-1.45,2.6-1.32,2.34-4,5.68-4.43,8.32-.39,2.18,4,3.33,5.3,4,3,1.43,4,2.84,5.79-.31,1.53-2.74,2.72-6.07,5.21-8,2.44,4.38-8.33,9.51-2.07,12.65.91.46,7.34,3.62,8.1,1.95,1.6-3.51,2.58-7.72,5-10.72,1,4.63-6,11.18.35,12.8.73.19,6.83,2.1,7.13,1,1-3.65,1.82-7.33,2.64-11,2.33,1.42.59,4.72.3,7.51-.45,4.35-.93,5.38,4.13,6.36,1.93.37,3.89.65,5.83,1,.28-1.61.65-3.21.83-4.84.5-4.64,1-9.28,1.44-13.91.27-2.51-.41-6.23,2.85-5.87-.69,4.13-1.26,8.16-1.65,12.36-.27,2.85-2.08,9.25-.87,11.83.62,1.33,8.52,1.06,10,1.18-.09-2.41-2.32-13.54,2.5-12.52q-.51,6.56-1,13.11l9.33-.81c3.43-.28,1.87-4.12,1.71-6.52,0-.69-1.18-9.46,1.38-6.33,1.8,2.21,1.37,8.65,1.71,11.45,3.51-.58,7-1.12,10.51-1.78,1.63-.31-.82-7-1-7.84-.44-1.83-.58-9.61,1-3.66q1.5,5.49,3,11c2.56-.83,5.13-1.66,7.69-2.51,3.27-1.08,2.29-1.15,1.73-4.22-.47-2.56-.86-5.23-3-7-2-1.57,2.23-3.37,3.13-2.49,2.14,2.08-.48,14.19,5.73,10.77,1.7-.95,6.85-2.33,5.79-5.23-.56-1.51-3.92-6.85-2.87-8.15,2.75-3.41,3.6,9.79,7.05,8.56,1.77-.63,8.35-2.22,8.79-4.19S214.2,320,213,318.52c.21.27-3.87-4.79-1.3-4.19s3.85,3.72,5.35,5.8c.52.73,3.37,5.05,4.7,4.49a63,63,0,0,0,8.06-4.71c-4.53-6.42-9.27-12.51-14.26-18.58-1.87-2.29-2.2-4.69,1.13-2.38,3.5,2.43,5.74,5.43,8.16,8.89,2.06,2.94,4,5.94,6.14,8.86,1.4,1.94,7.05-5,7.9-5.89,1.88-2-3.57-5.19-4.69-6.15a35.18,35.18,0,0,1-3.81-3.91c.69-.88,1.47-1,2.43-.16,2.54,2.13,5,4.37,7.52,6.52,1.63,1.37,5.77-3.65,6.72-4.71,4.19-4.65-5.56-8.85-9-10.4,1.06-8.29,11.06,7.44,13.16,4.6.93-1.24,6.69-7.3,4.41-8.78-3.5-2.28-7.26-4.2-10.84-6.35,2-2.77,2.32-.83,4.84.43,2.72,1.36,5.46,2.73,8.23,4,1.62.74,3.89-4.8,4.4-5.76s1.35-1.9,1.16-2.92c-.34-1.81-2.31-.26-1.76-2.41-3.46.32-9.07-2.19-10.92-5.15,5.7-2.27,11.7,8,15.74.84,2.11-3.74,2.67-6.7-1.94-8.35-1.87-.68-3.67-1.83-5.62-2.27-2.66-.61-4,.43-5.31-2.08,5.57-1.5,10.89,2.83,15.79,4.35.57-2.78,3.58-10,1-11.87-2.91-2.12-9.39-2.06-12.91-2.73,4.4-2.22,7.24-.63,12.08-.05,4.14.51,3.42-7,3.61-9.41.09-1.27-24.64-3-26.77-4,2.92-2.07,26,1.29,26.32-1.29.14-1,2-10.38-.45-10.09-3.83.45-9.32,2.84-12.3.12,2.11-1.43,4.72-1.14,7.23-1.33,5.3-.4,5.89-.84,5.62-6.26-.19-3.67.21-6.89-4.26-5.75-3.81,1-6.45,1.86-10.28,1.2,3.43-1.89,7.24-1.84,11-2.91,3.43-1,2-5.28,1.5-7.85-1.6-7.81-11.15,3.44-14.19-1.78,3.77-1,13.67-1.46,11.68-7-2.41-6.74-3.52-6.32-10-4-7.6,2.7-3.35-1.2,1-2.72,1.24-.44,5.62-1.29,4.84-3.61a89.23,89.23,0,0,0-3.33-8.33c-.73-1.63-11.62,4.64-13,5.29-2.28-2.59,8.25-5.71,9.85-6.89,3.77-2.78-.78-6-2-8.86-1.91-4.45-6.13.65-8.81,2.45-.4.27-4.17,3.43-4.74,2.69-.75-1,.21-2.27,1.05-2.83,3.23-2.17,10.84-4.64,7.82-9.28-.86-1.31-2.94-5.47-4.63-5.64s-4.91,3.55-6.2,4.66c-3.24,2.78-9.14,10-13.33,10.81s5.21-8.3,6-9c1.27-1.16,12-9.69,10.71-11.07-4-4.38-5-7-9.53-2.32-2.27,2.36-3.63,7.27-6.83,6.06a36.77,36.77,0,0,1,5.28-7.4c3.44-4.08,3.08-4.18-.92-7.75-2.69-2.4-3.55-4.51-6-1.26s-4.91,6.56-7.71,9.61c-2.58-3.79,10.92-11.66,5.91-14.67-1.12-.67-7-5.42-8.08-3.73-2,3.27-3.86,8.37-7.12,10.46-.81-2.58,1.5-5,2.76-7.29,2.62-4.73,3.29-5-1.8-7.31-3.26-1.46-4.52-3-6.13.59-1.42,3.18-2.39,6.76-4.94,9.16-.83-4.72,6.75-11.69.89-14.62-1.64-.82-4-2.58-5.94-2.67-2.88-.12-1.23,4.92-4.27,4.27-.51,3.66-.12,6.52-3.28,8.69-1.79-3.5,2.93-10.63,4.52-13.93-3.57-1-9.33-4.6-11.21-.32-.49,1.12-2.81,4.85-1.44,5.17-.63,2.75-.53,4.43-3,5.87-1-3.08.71-7,1.32-10.09.86-4.46-4.92-6.89-8.67-4.63-1.41.85-2.07,8.53-2.57,8.19A31.31,31.31,0,0,1,162.3,130c-4.73-4.83,6.68-23.59-1.74-24.58-1.85-.22-5.74-1.32-7.47-.42-1.08.57-.48,2.21-.89,3.11-1,2.29-.66,7.23-.9,10.23.82.36,1.23-.05,1.22-1.25.58,1.13-.8,1.79-1.92,1.73-2.27-.13-1.33-4.84-1.28-6,.19-5,1.47-8.3-4.3-6.92-3.12.74-4.89-.21-5.19,3.78-.26,3.39,1.44,7.11-.18,10.09-3.08-2.91-2.15-8.77-2.2-12.86-2.21.37-9.6.28-10.58,3-1.07,2.93,1.51,9.39,2.1,12.41-3.13-.71-3.81-2.14-4.69-5.31-.31-1.1.2-7.37-2.43-6.6-1.12.33-7.33,1.92-6.9,3.55,1,3.75,2.71,7.76,2.62,11.65-3.31-1.74-3.8-10.48-7.08-10.57-2.59-.08-8.07,1.68-7.64,4.9.25,1.85,5.92,11.93,3.54,11.65s-5.73-11-6.67-13.05c-2.5,1.18-5.69,2.11-7.75,4-3.11,2.9.8,6.89,2.58,9.37,1.23,1.71,4.65,5.35,1.37,6.27-2.23-3.61-4.49-7.19-6.66-10.83-1.91-3.2-4.21,0-6.29,1.55-3.7,2.79-4.26,2.64-2.1,6.82,3.49,6.78,11.53,10.46,14.38,17.42-3.68-.24-6.13-4.27-8.59-6.88A97.76,97.76,0,0,1,77,133.87c-2.7,2.45-9.92,6.1-6,9.42,1.9,1.61,9.16,5,8.26,7.94-1.92,6.36-6.58-.16-8.87-2.76-.84-.94-3.32-5-5.14-3.13-1.2,1.22-4.92,4.36-4.59,6.23.68,3.82,9,5.47,10.74,9.49-2.71.85-2.81,1.57-5.45-.23-2-1.33-5.72-5.45-8.08-5.57-1.24-.06-3.14,3.89-3.75,4.86-1.58,2.48-1.22,2.91,1,4.76,1.37,1.11,4.48,4.64,6.38,4.43,2.45-.27,2.85,1.88,2.1,3.75l-12.55-7.93c-1.49,3-3.14,6-4.34,9.15-1,2.6,4.09,2.71,5.47,3.35,1.72.81,8.7,3.37,8.13,5.26-3.53.15-6.29-1.81-9.57-3-5.52-2.05-7.47-2.12-8.14,4.62C42,191.75,55,186.9,54.59,194c-3.57-.56-9-3.26-12.42-2.75-2.64.39-4,6.93-3,8.83,1.17,2.14,12.12,2.48,14.61,2.9.63.11,1,.49.74,1.13-.42,1-4.43.68-5.37.56-1.75-.23-11.1-3.09-11.44-.56-.2,1.54-1.43,8,.45,9.1,2.55,1.48,8,.76,10.94,1.08,4.78.54,9.69.38,13.62,3.22-4,.66-8,0-12.14-.39-2.72-.25-10.14-2.26-12.42-.7-1.46,1-1.72,8.79-.53,10.09,1.84,2,9.72.54,12.34.52,2.13,0,1.56.74,1.3,1.81a28.88,28.88,0,0,0-4.16,0c-1.27.08-9.75-.24-9.83,1.61s-1.19,9,1.27,9.93c2.95,1.15,9.35-.91,12.47-1.29-1.45,2.21-1.19,3-4.05,3.27-2,.18-6.84-.61-8.17,1.27-1.22,1.71.74,6.11,1.28,7.85.9,2.89,2.24,2.09,4.88,1.32,1.8-.53,5.92-2.39,7.7-1.4,3.08,1.72-.79,1.49-2,1.94-2.78,1-6,1.84-8.41,3.57-1.4,1,1.57,7.72,2,9.21,4-1.25,9.24-4.11,13.32-3-1.2,1.9-12.63,4.27-11.95,6.56.55,1.86,1.93,8.39,4,9,2.6.77,8.63-3.33,11-4.41,1,2.53-6.38,4.75-8.14,5.81-3.94,2.37.27,7.11,1.8,10.32L67.13,284c-.57,3.41-2.92,3.93-5.84,5.64-2.13,1.25-4.87,2.22-3.94,5.2.71,2.27,3.94,5.16,6,6.27.57.29,3.1-1.78,4.45-1.57Z"/><path class="b" d="M252.18,306.67c2.72-2.3,3.92-5.49,5.76-8.51,2-3.3,4.65-6.1,7-9.18,2.17-2.9,2.91-6.32,4.58-9.49A83.76,83.76,0,0,0,275,267.33,124,124,0,0,0,280.74,213c-1-7.76-1.61-16.32-4.56-23.63-3.2-7.91-6.08-16.74-10.64-23.94s-9.07-14.78-14.09-21.85-12.14-12.09-18.84-17.67C204.9,102.79,166.26,92.78,131,101.45c-16.5,4-33.09,9.33-47.1,19.24-6.57,4.65-13.54,9.61-19.4,15.13-6.23,5.88-11.38,13.55-16,20.7-11.45,17.64-19.84,37.78-20,59-.09,10.63-.24,20.77,2.18,31.18,1.1,4.73,2.13,9.47,3.19,14.21.59,2.64,1.73,5.13,2.57,7.72,1.4,4.34-.62,1.5-1.57-.11-.05,0,11.94,25.39,13.83,28,3.45,4.71,6.14,10,10.26,14.16,4.78,4.86,10.74,8.17,15.31,13.33,3.87,4.36,9.07,7,14.3,9.41,5.76,2.63,11,6.16,16.82,8.68a177.63,177.63,0,0,0,18.42,7.09c6.62,2,14.08,1.76,20.58,4.21-3.82-.31-7.64-.6-11.47-.92-3.14-.27-7.45.08-10.36-1.2-6.17-2.7-12.54-4.89-18.62-7.81C90.32,337,77.59,330.76,66.77,320.19c-10.3-10.07-18.22-20-25-32.86-7.55-14.2-11.08-28.68-13.66-44.47-2.32-14.11-3.42-29.36.54-43.24,4.26-15,9.07-28,17.17-41.4,7.49-12.38,15.38-22.84,27-31.67C78.55,122.14,84.53,118,90.6,114c5.52-3.66,11.38-5.64,17.05-7.86l-1.22-.42,5.09-2c.49.92-1.46.6-1,1.63,1.9-.59,13.36-3.39,13-4.74-3.34.88-6.78,2.12-10.23,2.45,17.62-5,35.44-8.1,53.89-6.35a142.79,142.79,0,0,1,26.21,5.14c9.19,2.68,17.11,7.42,25.34,12.16,29.31,16.88,49.27,45.55,59.07,77,5.46,17.58,7.49,36.31,4.28,54.47-1.5,8.52-3.1,17.34-6.29,25.4-3.57,9-9.1,17.22-14.14,25.44C244,325,212.32,347.51,179,353.59c-5.14.94-10.38.88-15.59,1.05s-12.09,1.62-16.81-1.35c5.15-.25,10.28-.74,15.43-1,5.49-.26,10.78.47,16.22-.68a142.73,142.73,0,0,0,28.35-8.77c9.34-4.19,17.24-9.91,25.3-16.13,7.17-5.53,15.29-12.69,19.69-20.58Z"/><path class="b" d="M122.22,42.29q1.16-5.77,2.33-11.55c1.29.28-1.17,10-1.5,11.73Z"/><path class="b" d="M13.26,246.89c.57,1.26,4.65,9.29,3.88,9.65C16.49,255.16,12.27,247.36,13.26,246.89Z"/><path class="b" d="M228,240.2c2-2.24,3.19-8.29,1-10.76-1,3-3.25.21-5.1,2.33-1.51,1.73-1.15,6.09-2,8.34a190.12,190.12,0,0,1-8.67,20.7c-.9,1.74-1.61,3.31-.13,4.61,1.65,1.45,2.51,4.06,4.3.8,2.08-3.77,4-7.66,5.81-11.55.91-1.92,3.59-10.27,5.17-9.89-7.48,30-31.68,51.18-61.82,57.29a59.87,59.87,0,0,1-24.22.07c-3.69-.74-6.87-2.39-8.52,1.84-.77,2-1.44,4-2.21,6-.39,1-2,.28-1.93-.58.12-2.11,1.77-7.93.42-9.57-2-2.47-6.55-3.91-9.31-5.44-8.15-4.52-13.83-10.53-20.63-16.72C87.66,266.28,82.78,251.29,80.35,235c-2.67-17.78,2.75-34.22,11-49.84a57.74,57.74,0,0,1,15-18.29c6.64-5.37,15.76-10.89,23.88-13.59A94.87,94.87,0,0,1,154,148.16a31.67,31.67,0,0,1,11.71,1.53c3.8,1.11,7,3.38,9-.7,1.28-2.68,2.53-5.38,3.83-8.05,1.88-3.85,2.19,2,2.1,2.59-.34,2.37-1.49,5.69-.84,8.05s4.33,2.95,6.36,3.95c10.54,5.16,18.17,14,25.9,22.61a80.47,80.47,0,0,1,17.23,30.74,63.71,63.71,0,0,1,2,17.39c0,5,.74,13.12-2.63,17.15A9.57,9.57,0,0,0,228,240.2Zm-18.95-53.4,3.39,2.3c-1.63,1.67,2.58,6.59,5.31,5.11,2.23-1.21,3.23-.9,1.75-3.45A74.38,74.38,0,0,0,215,183.9c-5.7-7.71-12.7-14.32-19.8-20.73.07-.26-1.71,4.37-2.06,3.16.82,2.85,2.27,4.27,4.3,6.43,3.51,3.72,11,9,11.61,14.09-3-1.42-4.58-5-6.78-7.57a70.34,70.34,0,0,0-9.74-9.55,99.18,99.18,0,0,0-10.4-6.54c-5.43-3.19-4.35,2.32-4.82,6.7-1,9.69-2,19.38-3.15,29.06-.41,3.57.67,4.61,3.79,2.37,3.67-2.65,5.86-4.45,10.34-4.92l-14.54,20.39c6.61,3.15,14.53,4.37,21.65,6.1,3.36.81,22.14,2.94,21.9,6.7-7.64,2.29-15.5,2.51-23.23,4.36-2.56.62-21.78,2.6-21.67,4.23.13,2,2.62,5.64,3.73,7.33,2.4,3.66,5.06,7.13,7.45,10.79,2.61,4-3.41,2-4.67,1-3.24-2.68-6.45-5.41-9.7-8.08-2.87-2.36-4.4-4.24-6.47-.35A62.47,62.47,0,0,0,158,261c-2.48,8.38-4,17.66-7.75,25.55-1.37-2.08-2-8.61-3.53-9.18l-7.23,13.95c25.45,5.9,56.88-4.83,70.53-27.64,7-11.62,12.61-24.9,11.51-38.65-.51-6.27-.72-13.34-3-19.26-2.54-6.51-7-12.86-10.29-19ZM132.3,302.42c3.27-5,5.32-11,8-16.34,3.44-6.74,7-13.42,10.57-20.09,3.13-5.86,6.27-11.71,9.26-17.63,2.82-5.57,8.35-11.14,8.93-17.31-2.5,1.38-4,3.6-6.32,5-3.26,2-7.1,2.1-10.78,1.59a10,10,0,0,1-7.36-6c-1.24-2.88.37-5.47-.41-8.2-.51-1.76-4.05-1.84-5.29-1.09-1.61,1-.33,9.8-.31,11.77.06,7.42.27,18.16-2.76,25-1.51-3.15,2.5-10.1.24-12.35-1.13-1.13-11,6.51-13.51,6.87.29-6,9.36-12.87,12.6-18.09-8.11-4.42-17.17-7.06-26.07-9.45-3-.82-8.6-3.75-11.76-3.13-4.22.82-1-1.7-2.47-3.13l41.56-4.17-5.64-12c-1-2-6.21-10.92-4.49-12,4,3.47,8,6.91,12.18,10.23q2.61,2.07,5.23,4.13c1.88,1.47,2.68-1.39,3.46-2.62,5.08-8,5.41-19.3,8.14-28.32.7-2.33,2.2-11.43,4.52-11.41L160.92,179c2.57-3,3.82-7.59,5.4-11.17q1.8-4.06,3.57-8.14c.69-1.6-4.82-1.6-5.27-1.65-11.43-1.31-22.56-1.16-33.4,3.15-9.22,3.66-19.72,9.89-25.54,18.09-6.05,8.52-11.82,19.29-14.48,29.43-2.8,10.69-3.76,22.35-1.4,33.2,2.1,9.7,7.38,17.64,13.14,25.41a53.8,53.8,0,0,0,9.57,10c4,3.24,6.67,6.9,11.39,9.22,1.66.81,5.25,3.4,7.13,3.18,1.53-.18,1.2-4.78,1.28-5.71.46-5.19.91-10.34,1.58-15.49C134.73,279.8,133.07,291.11,132.3,302.42ZM139,220c5.64.43,4.88-1.32,8.83-4.55,3.32-2.72,8.51-2.85,12.18-.82a14.5,14.5,0,0,1,7.22,11.16c.13,1.53.35,3.85,2.73,2.76,1.5-.67.93-4.52,1-5.68.61-13,1.39-25.94,2.86-38.92,1.36-12,3.3-24,4.25-36-4.32,2.42-6.68,13-8.68,17.39-3,6.59-5.64,13.47-9.08,19.84-6.5,12.06-14.25,23.2-21.3,34.83ZM96.51,184.82c-5.94-1.62-8.08,8.56-9.86,13a70.26,70.26,0,0,0-4.81,21.78c4.62,1,5.07-.46,6.16-4.17,1-3.4,2.21-6.73,3.25-10.12.54-1.75,3.23-7.26.73-6.2l.93-2.15.91,1.37,4.84-13.17c-.82.09-2,.68-2.15-.3Zm56.2,116.31c7,.55,14.75-1.13,21.44-3.1,3.45-1,8.39-2.06,11.21-4.38,2.48-2-1.75-5.2-3.91-4.58-7.11,2-13.46,4.75-21,5.38-1.89.17-9.56-1-10.72.5-1.51,1.94.75,5.89,3,6.17Zm-36.89-18.26c-1.86-2.66-5.08-4.36-7.44-6.63a70.37,70.37,0,0,1-7.75-9c-2.89-3.92-5.94-14.23-11.42-8.75-2,2,9.93,16.25,11.64,18.2a104.48,104.48,0,0,0,9.28,8.82c3.32,2.94,3.75.4,5.69-2.69ZM160.5,150.94c-5.85-2.59-14.27-.95-20.28.63-3.29.86-18.67,4.46-16,8.56,1.79,2.71,3.82.44,6.54-.39,3.87-1.19,7.69-2.54,11.63-3.48s7.87-.63,11.93-.81c4.47-.2,5-.86,6.93-4.71Zm-23.37,81.38c.21-1.77,1-4.78,0-6.54-1.07-1.91-8.28-1.45-10.29-1.72-8.35-1.12-16.63-1.56-25-2.22C101.6,223.12,133.6,231.32,137.13,232.32Zm17.32-.75c7.38-.1,7.92-9.63,1.19-11.88-8.47-2.82-9.74,11-1.19,11.88Zm40.08-6.21c0,.17-22.65-10.11-22.18-3,.42,6.36,17.41,3.09,22.18,3Zm-47.87,3.94c1,8.62,16.62,7.53,18.46,0,1.52-6.22-9.25-20.23-14.56-11.78,7.2-.86,14.18,2.15,11.52,10.5C159.29,236.79,151.89,234.65,146.66,229.3Zm10-52.72L151.92,194c5,1.3,5.08-14.67,4.73-17.43Zm19,73c.9-.64-3.69-11.93-6-11.46-4.94,1,4.64,9.77,6,11.46Zm-38.49-38c-.84.54,2.37,2.75,2.77,3.08.73-2.28,1.67-2.66-.23-4.57s-3.71-3.39-5.57-5.08c.44,3,1.2,4.18,3,6.58Zm14.28,66.57,4.1-14.47c-3.11,1.84-5.68,11.79-4.11,14.47Zm70.34-70.75,1.08,2.08a9.45,9.45,0,0,0-.57-5.36c.38,1.22.16,2.1-.67,2.62l-1.53-5.14c-1.31.45.37,5,.64,6.34Zm-139,25.5-.86.19c.48,1.88,1.47,9.45,3.33,9l-2.48-9.2Zm114.52,48.86-.48-.84c-1.47.94-6.83,3.37-5.86,4.91Zm-70.94,13.11.33-.78c-1.44-.59-8-4-8.58-2.78l8.24,3.56Zm10.86-52.65-.7-.86-5,4.52c.86,1,4.69-2.86,5.7-3.66Zm57.21,45-.61-.83c-.69.53-4.72,3.15-4.24,3.79s4.14-2.45,4.85-3Z"/><path class="b" d="M134.28,268.24c0-.58,0-9.69,1.78-8.32C137.22,260.82,135.56,268.21,134.28,268.24Z"/></svg>