<svg xmlns="http://www.w3.org/2000/svg" viewBox="0 0 371 383"><defs><style>.a{fill:#63494b;}</style></defs><title>Unbenannt-4</title><path class="a" d="M43,364.73c-1.09,3.42-3.66,5.81-6,8.37a51.11,51.11,0,0,1-4.38,4.2,6.36,6.36,0,0,1-7,1.2,55.46,55.46,0,0,1-9.26-4.6A15.35,15.35,0,0,1,9.62,365a7.39,7.39,0,0,1-.1-4.58c2-5.74,4-11.42,9.14-15.41,3.69-2.87,6.19-6.9,8.92-10.65,14.58-20,28.87-40.28,43.79-60.05,14.2-18.82,28.12-37.87,43.13-56.07,3.17-3.86,6-8,9.08-12a6.67,6.67,0,0,0,1.54-4.28c-.19-8.36,2.59-15.9,6.62-23a30.35,30.35,0,0,0,2.59-6.23c2.87-9.33,8.47-16.4,17.31-20.78a22.86,22.86,0,0,1,11.68-2.75,3.53,3.53,0,0,0,3.52-1.85q7.51-11.52,15.06-23a6.21,6.21,0,0,0,1-3.72c-.17-5.24,1.36-10.12,3.19-14.91,3.1-8.13,6.57-16.07,11.64-23.25,2.67-3.78,4.74-8,7.16-11.94s3.64-8.52,4.76-13c.69-2.77,1.31-5.55,2.27-8.25.88-2.49.15-3.64-2.52-3.8a31.94,31.94,0,0,0-12,1.18,10.1,10.1,0,0,0-4.37,3c-1.87,2.07-4,2.55-6.71,2.47-12-.33-24.06-.45-36.09-.18-10.83.23-21.63,1-32.44,1.77-4.63.33-9.28.21-13.93.33-2.34.06-3.73-1.11-4.63-3.19C97.37,46.53,96.3,42,94.85,37.6c-2.18-6.67-4.2-13.39-6.31-20.08-1.46-4.66-.21-7.33,4.44-8.83a30.85,30.85,0,0,1,7-1.5c9.37-.73,18.71-2.06,28.15-1.62a15.77,15.77,0,0,1,1.57.26c-4.64.52-8.74,1-12.84,1.43q-8.52.9-17,1.72c-3.47.33-4.72,1.44-5,4.81a14.15,14.15,0,0,0,.92,6.66c2.84,6.84,6.6,13.2,10.21,19.63,1.44,2.56,3.67,3.17,6.33,3.13,7.62-.1,15.24-.27,22.87-.23,13.58.07,27.13-1.19,40.71-1a50.93,50.93,0,0,1,6.42.11c5.89.9,11.35-.47,16.67-2.77,2.52-1.08,5-2.28,7.8-2.38.59,0,1.26-.11,1.32-.89a1.25,1.25,0,0,0-1-1.28c-1.95-.55-3.9-1.11-5.87-1.52-8.27-1.72-16.56-3.34-24.82-5.09-3.43-.73-6.82-1.67-10.66-2.62a4.72,4.72,0,0,1,3.53-.41c10.4,1.26,20.7,3.08,30.95,5.25,6.16,1.31,12.44,2.07,18.48,3.94,2.62.81,5.19,1.75,7.8,2.56,1,.3,2.07.95,3,0s.26-2.23-.06-3.33c-1.28-4.48-3.7-7.33-8.87-7.77-6-.52-12-1.83-18-2.7a49.57,49.57,0,0,1-5.92-1.05c.76-.06,1.2-.07,1.64-.14.71-.1,1.49-.21,1.71-1,.27-1-.51-1.52-1.26-1.89-7.56-3.78-15.05-7.74-23.45-9.4a117.36,117.36,0,0,0-14.78-2.43c-2-.13-4-.1-6.07,0-1.27,0-2.6.39-3.85-.3,0-.94.78-.75,1.28-.76a120,120,0,0,1,34.6,4.25,20.89,20.89,0,0,1,7.36,3.53c.75.58,1.62,1,2.34,1.63,5.13,4.34,11.19,6.09,17.77,6.58,2.72.2,5.42.72,8.12,1.17a13.41,13.41,0,0,0,7-.78c1.9-.7,3.82-1.33,5.74-2a8.36,8.36,0,0,0,4.67-3.1A5.39,5.39,0,0,1,244.67,15a25.33,25.33,0,0,1,6,.85c8.72,2.71,16.94,6.37,23.75,12.67a29.9,29.9,0,0,0,2.72,2.31c3.33,2.39,5.22,5.45,4.91,9.7a5,5,0,0,0,3.12,5.16c9.43,4.44,17.06,11.2,24.36,18.46,8.62,8.56,17.44,16.91,25.59,25.94a108.79,108.79,0,0,1,10.33,13.2c2.95,4.48,6,8.89,9.18,13.2A76.69,76.69,0,0,1,368,147.37,108.65,108.65,0,0,1,370.29,160c.12,1.48.79,3.68-.79,4.23-1.89.66-2.1-1.8-2.83-3a69.55,69.55,0,0,1-3.68-6.93c-5.27-11-13.77-19.66-21.29-29a118,118,0,0,0-35.92-29.53,67.41,67.41,0,0,1-6.41-3.88c-5.72-4-12.17-6.51-18.43-9.38-4.57-2.1-9.62-2.63-14.48-3.76-1.51-.35-3.07-.48-4.56-.9A6,6,0,0,0,255.22,80c-1.24,1.45-2.52,2.86-3.75,4.32a15.56,15.56,0,0,1-6.08,4.84,3.18,3.18,0,0,0-2.2,2.94,11.52,11.52,0,0,1-1.59,4.69,18.67,18.67,0,0,0-1.95,9.29c0,7.49.88,15,.33,22.46a93.4,93.4,0,0,1-3.19,19.3c-1.76,6.13-5.86,10.65-10.49,14.55a41.47,41.47,0,0,1-23.44,9.47c-2.6.24-5.12.88-7.72,0a5.08,5.08,0,0,0-2.48.09c-5.8,1.2-11.35-.3-16.87-1.7-1.53-.39-2.4-.3-3.28,1-5.81,8.72-12,17.14-18.32,25.54-1.61,2.17-2.28,4.31-1.44,6.93.57,1.81.82,3.73,1.41,5.53,2.34,7.2,3.1,14.69,3.48,22.14.32,6.26,1.75,12.55.36,18.86-1.73,7.88-3,15.9-6.68,23.2-.27.53-.72,1.14-.65,1.64.58,3.78-.32,7.52-.26,11.31.09,5.16,1.25,10.12,1.88,15.18,1.11,9,2.36,17.9,2.6,27,.13,5.19-2.32,9.09-5.65,12.66a22.64,22.64,0,0,1-2,2c-3.22,2.7-4.58,6.33-5,10.33a29.17,29.17,0,0,1-.9,4.54,7.5,7.5,0,0,1-8.94,5.7,7.39,7.39,0,0,1-2.33-.95,60.41,60.41,0,0,1-6.5-4.36,23.62,23.62,0,0,1-9.51-18.4c-.17-5.34-2.28-9.8-4.11-14.59-3.59-9.33-5.5-18.95-1.36-28.77a21.62,21.62,0,0,1,5.32-7.95,130.94,130.94,0,0,1,12.92-10.58,37.37,37.37,0,0,0,4.87-4.71,2.13,2.13,0,0,0,.32-2.62c-.52-1.2-.88-2.49-1.48-3.64-3.46-6.59-2.75-13.32-.82-20.12,1-3.55,2-7.11,1.82-10.85,0-.68.17-1.44-.5-2-.23,0-.58,0-.66.09-6.41,9.17-13.87,17.57-19.84,27.07q-14.73,23.44-29.68,46.75c-8.2,12.85-16.38,25.71-24.72,38.47-3.65,5.57-7.66,10.92-11.52,16.36a4.64,4.64,0,0,1-1.71,1.78c-1-1.77-1-1.77-4.06,0,.57-.73.84-1.07,1.1-1.42,5.34-6.86,10.74-13.67,15.44-21q28.27-44,56.6-88c5.36-8.3,11-16.39,16.57-24.57a5.69,5.69,0,0,0,1.25-4.55c-.55-3.33-2-6.3-2.88-9.49-1.41-5.15-1.47-5.14-5.5-1.36-.26.24-.51.5-.78.73-.95.84-1.63,1.76-1,3.1.75,1.52-.08,2.47-1.18,3.34q-2.94,2.34-5.85,4.69c-1.11.9-2.34,1.74-1.67,3.52.49,1.3-.5,2-1.3,2.67-1.44,1.25-2.92,2.45-4.36,3.69a2.55,2.55,0,0,0-1,2.79c.5,2.28-.36,3.27-2.68,3-.9-.09-1.42-.24-1.39.76,0,1.18-.77,1.66-1.51,2.24s-1.83,1.14-1.9,2c-.24,3.15-2.71,4.26-4.83,5.73-1,.68-2.25,1.46-1.81,2.78.83,2.45-.74,3.16-2.38,4-1,.48-2.26.83-2.72,1.64-1.78,3.07-3.9,6.11-4.87,9.43-.57,1.95-.72,2.92-2.81,2.9-1.14,0-2.63.64-2,1.75,1.18,2.12-.31,3.1-1.21,4.34Q54.6,306.3,35,332.89c-3.81,5.16-7.43,10.52-12.66,14.44-5.9,4.41-6.51,11.12-4,17.69a9,9,0,0,0,6.35,5.76c.8.22,1.61.43,2.39.72.62.22,1.52-.1,2.1.84-3.13.07-6-1.45-9-.07,4.3,4.39,10.13,4.71,14.42.77C37.49,370.38,40.17,367.51,43,364.73Zm159.66-274c-1.34-.14-2.7-.3-3.12,1.48-.26,1.09-.79,1.61-2,1.39s-1.78,1-2.37,1.83c-1.71,2.46-2.69,5.29-3.9,8-2.12,4.75-3.12,9.51-.34,14.37.45.79.62,1.63-.24,2.23-2,1.39-1,2.84-.2,4.34.42.82,1.39,1.35,1.34,2.43-3.31.54-6.56,1.09-7.35,5.2-.14.72-.88,1.08-1.44,1.53s-1.16.76-1,1.37c.46,1.83-.89,2.56-1.94,3.43-2.17,1.82-4.72,3.26-5.32,6.42-.11.59-.86,1.15-1.43,1.54a6.16,6.16,0,0,0-2.52,4.14,4.48,4.48,0,0,1-2.23,3.44c-1.53.82-.79,3.42-2.9,3.85.92,1.77-.8,2.15-1.57,3.08-1.36,1.65-3.78,2.59-3.52,5.38.07.7-.86,1.08-1.44,1.47-1.09.73-2.22,1.4-3.33,2.08-.82.5-1.69.9-1.16,2.18.26.64-.34,1.08-.84,1.41a4,4,0,0,0-1.69,2.18,7.83,7.83,0,0,1-3.43,4.32,3.24,3.24,0,0,0-1.69,3.3c.5,4.18,2.06,8,3.53,11.93.38,1,1.17,1.13,1.93.27.4-.44.77-.91,1.14-1.38,4.23-5.46,8.55-10.84,12.64-16.4a43.17,43.17,0,0,0,5.78-9.83,22.16,22.16,0,0,1,3-5.25c6-8.24,12.53-16.19,16.76-25.61.48-1.07.94-1.87,2.36-1.53s2.29-.73,2.61-1.88c.87-3.06,3.09-4.32,5.92-5,7.29-1.78,12.8-6,17.06-12.13a7.63,7.63,0,0,0,1.59-5c-.21-4.16-.45-8.32-1-12.45s-1.66-8.52-1.15-12.71c.45-3.67-1.24-5.59-3.66-7.45-1.33-1-1.94-.77-2.46.93-.74,2.46-3.78,3.33-4.15,6.07,0,.19-.85.4-1.29.39-2.29-.07-2.85,1.26-2.75,3.21a9.72,9.72,0,0,1,0,1.43,1.08,1.08,0,0,1-1.06,1.1h-.08c-.75,0-1-.54-1.08-1.2.67-.79,1.06-1.58-.15-2.2a1,1,0,0,0-.9.18c-.64,1,.39,1.34.9,1.87ZM298.34,64.4c1,.47,2,1,3,1.56q4.19,2.73,8.3,5.57c6,4.15,11.15,9.28,16.69,14,.64.54,1.2,1.58,2.33.84.14-1.33-.8-2-1.5-2.76a165.67,165.67,0,0,0-12.38-12.34,195,195,0,0,0-20.86-16.72c-2.94-2-5.72-4.26-8.57-6.41-3.07-2.33-4.25-1.59-5.85,1.85-.87,1.86-.58,2.72,1.31,3.83,2.56,1.51,5.21,2.87,7.81,4.31a8.09,8.09,0,0,1,3.22,2.51,26.91,26.91,0,0,1-4.73-2.24,30.13,30.13,0,0,0-9-3.41,5.56,5.56,0,0,0-6.21,2.39c-2.26,3.21-4.72,6.28-7.06,9.44-2.11,2.85-1.95,3.6,1.19,5.08q6.13,2.89,12.33,5.64c9.36,4.13,18.69,8.34,27.62,13.34,12.71,7.11,23.35,16.78,33.17,27.37a287.27,287.27,0,0,1,21.23,26c.7,1,1.22,2.28,3,2.46.3-3.15-.93-5.78-1.9-8.38-2.46-6.58-6.42-12.47-8.95-19a36.8,36.8,0,0,0-6.87-11.2q-5.91-6.69-11.79-13.4c-4.26-4.86-9.74-8.38-14.2-13A57.88,57.88,0,0,0,306.86,72a31.33,31.33,0,0,1-8.52-7.58ZM121.61,352.57c1.63-.62,1.87-1.61,1.38-3.11a20.09,20.09,0,0,1-.29-10.9,16.78,16.78,0,0,0,.11-5.34c-.2-2.12-.76-4.21-.87-6.33A22.75,22.75,0,0,0,118.13,316,14.83,14.83,0,0,1,117,302.28,19.05,19.05,0,0,1,127,291.54c5.95-2.75,10.74-7,15.79-10.93a24.76,24.76,0,0,0,7.86-9.54c3.17-7.34,5.58-14.86,6.1-22.95.21-3.24-.25-6.41-.27-9.61a110.36,110.36,0,0,0-1.85-18.41A164.32,164.32,0,0,0,146.38,191c-3.66-9.74-1.42-17.65,5.63-24.7,1.09-1.1,2.29-2.09,3.39-3.17,2.42-2.37,6.13-8,6.79-10.13-.1-.06-.21-.17-.31-.16q-.7,0-1.41.15c-6.17.9-10.64,4.85-15.46,8.32a11.93,11.93,0,0,0-5.11,10.09,57.84,57.84,0,0,1-1.36,11.87c-.58,2.49.51,5.25-.36,7.85a.69.69,0,0,0,.24.63c1.65.9,1.47,2.19.92,3.66a1.88,1.88,0,0,0,.34,2c1.56,1.65,2.28,4,4.27,5.25a1.49,1.49,0,0,1,.6,2s-.05.09-.07.13c-1.16,2.31-.49,4.3.87,6.24a4.51,4.51,0,0,1,.71,1.6c1,4.95.65,10,1,15,.14,2,.41,3.37,2,4.46,1.31.88,1.58,1.94,1.28,3.6a33.92,33.92,0,0,0,0,6.53c0,1.23.16,2.3-.54,3.31a11.67,11.67,0,0,0-1.88,5.69,9.61,9.61,0,0,1-1.82,4.51c-.5.75-1.63,1.36-1.09,2.44.66,1.29,0,2.06-.82,2.78a6.25,6.25,0,0,0-2.12,4.95c.2,1.44.08,2.22-.86,2.94a20.32,20.32,0,0,0-4.49,5.41,6.73,6.73,0,0,1-2.26,2.21A62.76,62.76,0,0,0,122,285.92c-3.7,3.7-8,6.79-9.21,12.43-.65,3.12-2.58,5.8-2.58,9.3a8.41,8.41,0,0,0,.87,4.49,9.24,9.24,0,0,1,1.43,4.56c.11,3.11,1,6.14,3.52,8.3a2,2,0,0,1,.9,1.75c0,4.4.44,8.78,0,13.19-.14,1.5-.23,3.35.5,4.51C119.06,347,120.07,349.94,121.61,352.57Zm60.13-189.94c1.31,1.17,3,.05,4.12,1.1-1.35,3.48-4.85-.27-6.42,2-.21,1.53,2.25.83,1.78,2.24-.31,1-.24,1.14.73,1.35a27.44,27.44,0,0,0,15.47-.6c15.8-5.73,26.87-16.36,32.49-32.34a51.74,51.74,0,0,0,2.37-14c.18-3,.77-5.92.33-8.9-.65-4.47-1.43-8.92-2.08-13.39a26.84,26.84,0,0,1,1.39-13c.57-1.67,1.58-3.22.52-5.08-.32-.55,0-1.15.46-1.61,1.76-1.85,1.48-4.83,3.83-6.51.9-.64,1-2.54,1.23-3.91.11-.74-.11-2.11-1-2.06-2.25.15-4.37-3.29-6.71-.22-.62.8-1.56.08-2.35,0-1.62-.12-4.66,2.33-4,3.07,1.76,1.93-.47,3.13-.5,4.71.52,0,.86,0,1.19,0s.7-.06.91.39c0,1-1,1.49-1.58,2.2-1.46,1.82-1.47,1.81.88,2.87-.27,1.33-2.14,1.83-2,3.22.37,3.37,1.32,6.65,2,10,.3,1.39.94,2.66,0,4-.51.75-.6,1.56.44,2.08.43.21.94.72.68,1.11-1.24,2-.28,4.1-.68,6s.76,3.3.13,4.74c-1,2.3-.37,4.63-.22,6.84a25,25,0,0,1-2.37,11.85c-.5,1.18-2.11,2.19.27,3.22.8.35.07,1.26-.4,1.78a13.48,13.48,0,0,0-2.44,4.24,11.79,11.79,0,0,1-3.34,4.81c-2.73,2.14-4.9,5.16-8.56,6a2.33,2.33,0,0,0-1.49.9c-1,2.32-3.25,2.47-5.25,3.13a10.62,10.62,0,0,0-4.36,2.08c-1.3,1.2-3.26,1.95-4.95,2.83a15,15,0,0,0-3.1,1.44,4.47,4.47,0,0,1-4.36.86C183.91,161.72,182.82,161.35,181.74,162.63Zm39.41-89.92c1-3.83,3.16-6.83,4.19-10.19,1-3.15,3-4.68,5.66-5.9,3.29-1.51,6.79-1.24,10.19-.91a18.58,18.58,0,0,1,10.65,4.58c3.08,2.72,3,6.74-.4,9.09a10.43,10.43,0,0,1-3.88,1.72,5,5,0,0,0-3,1.76c-2.16,2.69-4.39,5.31-6.56,8-.8,1-2.1,2-1.4,3.39s2.42,1.23,3.84,1.2a8,8,0,0,0,2.77-.6,18.48,18.48,0,0,0,6.38-4.47c5.62-5.52,10.32-11.82,15.35-17.85,1.75-2.1,3.56-4.16,5.21-6.34,1.83-2.43,1.3-3.62-1.68-3.89a29,29,0,0,1-11.2-3.3c-6.79-3.64-14.12-6.36-19.82-11.84-.59-.56-1.38-1.15-2.21-.48-.67.53-.37,1.34-.12,2,.68,1.72,0,3-1.22,4.13-2,1.86-4,3.74-6,5.57a6.17,6.17,0,0,1-3.1,1.7c-2.66.41-4.1,2.19-5.33,4.31a28.84,28.84,0,0,0-2.87,7.27C215.4,66.12,216.64,69.46,221.15,72.71ZM123.74,343.52a15.35,15.35,0,0,0,.84,5.62c.44,1.28,1,2.48,2.69,2.37s1.74-1.4,2-2.54c.36-1.36.34-2.81,1.27-4,1.95-2.54,3.56-5.38,6.07-7.44,4.08-3.35,4.63-7.82,4-12.6-1-8.13-2.12-16.24-2.53-24.44a80.41,80.41,0,0,0-1.32-9.52c-.22-1.24-1-1.88-2.33-1-3.07,2-6.56,3.3-9.54,5.55-6.18,4.67-9.59,13.47-3.9,21.35a11.29,11.29,0,0,1,2.45,6.21c.08,2,.35,4,.61,6,.56,4.1,1,8.23-.26,12.32a8.92,8.92,0,0,0-.14,2.13Zm8.53-158.09c-1.74,3.27-2.84,6.12-2.67,9s-.3,6.08.43,9c.6,2.38.43,4.8,1,7.2.74,3.06,2.28,6.08,1.49,9.4-.12.49-.18,1.08.31,1.24,2.92,1,.75,4.17,2.42,5.68-.66,3,1,6.3-1.12,9.15a1.38,1.38,0,0,0-.23,1c.89,4-1.74,7.45-1.51,11.36.06,1.07-.3,2.08.63,2.88,1.4,1.22,1.24,2.67.75,4.24-.64,2.05-1.18,4.14-.25,6.23.77,1.72,1.1,4.32,3,4.59s2.53-2.19,3.33-3.69a43.86,43.86,0,0,0,5.21-23.68c-.12-2.27-.77-4.45-.8-6.69a52.33,52.33,0,0,0-2.19-13c-2.9-10.76-7.93-20.92-9.12-32.18A11.63,11.63,0,0,0,132.27,185.43ZM139,357.83c1.35-1.14,1.28-2.61,1.37-3.82.42-5.85,3.19-10.19,7.6-14a14.42,14.42,0,0,0,5.3-10.51c.32-6-.8-11.84-1.22-17.75-.6-8.3-2.7-16.42-3.06-24.76,0-.3-.31-.58-.54-1-2,1.52-3.47,3.55-6,4.24-1.33.37-1.39,2.28-.11,3.39.64.55,1,.9.68,1.7a4.31,4.31,0,0,0-.13,2.44c.25,1.46,1.82,2.32,1.94,3.54.14,1.41-.93,2.75-.86,4.42.1,2.27,1,4.44.72,6.69-.16,1.33.22,1.3,1.27,1,.74-.22,1,.33.92,1.07-.74,5.11-1.91,10.17-1.73,15.4a4.07,4.07,0,0,1-.8,2.69,2.34,2.34,0,0,0-.65,1.57,10.34,10.34,0,0,1-2.19,5.22c-2.2,1.89-2.89,4.82-4.94,6.86-1,1-.76,2.94-1.77,4.2-.35.44,0,.85.45,1.14a1.33,1.33,0,0,1,.65,1.53c-.82,2.75.88,3.85,3.1,4.72ZM159.09,43.48c-1.31,0-2.62,0-3.92,0-5.7.13-11.46-.14-17.1.49-8.63,1-17.24,1.9-25.92,2.11a7.85,7.85,0,0,0-2.1.31c-1.67.51-3.09,2.33-2.92,3.63s1.42,2,3.79,1.67c6.37-.84,12.79-1,19.18-1.55,10-.78,19.94-.88,29.93-.87,2.13,0,4.25.7,6.38.32,3.67-.64,7.35-.42,11-.5,2.74-.05,5.47-.06,8.2-.1a4,4,0,0,0,3.49-1.43c.62-.82,1.63-1.61,1-2.8-.51-1-1.56-.9-2.53-.89-2.5,0-5,.19-7.48,0a163.83,163.83,0,0,0-21-.37ZM185,154.05c14.38,2.9,35.74-17.45,34.62-32.1-1.76,1.2-3.33,2.45-5.05,3.42a63.09,63.09,0,0,1-9.93,4,8.29,8.29,0,0,0-5.1,4.15,33.33,33.33,0,0,1-3.86,5.57c-3.26,4.24-6.46,8.54-9.65,12.84-.47.62-1.19,1.19-1,2.14ZM247.2,18.42c-.74,0-1.81-.16-2.35.8s.35,1.75.93,2.46a8,8,0,0,0,1,1,105.36,105.36,0,0,0,13,9.37c1.19.74,2.79.19,3.61,1.13,3.2,3.69,7.82,2.91,11.84,3.9,1.72.43,2.5-1.2,1.49-2.81a9.31,9.31,0,0,0-2.82-2.7c-4.13-2.82-8.23-5.7-12.44-8.39a32.55,32.55,0,0,0-14.31-4.77Zm25.46,30a7.53,7.53,0,0,0,5.66-2.9c.38-.49.68-1.05.3-1.62a1.42,1.42,0,0,0-1.59-.52,15.26,15.26,0,0,0-2.39.71,7.48,7.48,0,0,1-4.55.41c-4.4-1-9.09-1.19-13.07-3.34-7.57-4.09-15.46-8-19.19-16.56a1.49,1.49,0,0,0-.18-.3c-.49-.64-.89-1.58-1.92-1.09s-.89,1.32-.76,2.18a8.21,8.21,0,0,0,2.39,4.28,58.49,58.49,0,0,0,26.75,17c2.86.84,5.8,1.19,8.55,1.79ZM104.84,47a8.8,8.8,0,0,0-.75-3.39c-3.39-8.48-6.73-17-10.2-25.43-.43-1-.6-3-2.37-2.47-1.61.52-1,2.15-.69,3.41,0,.11.08.22.11.34,2.53,8.53,5.28,17,8.64,25.22a22.7,22.7,0,0,0,2.11,4.1c.82,1.22,2.13,1,2.76-.36a7.12,7.12,0,0,0,.39-1.42Zm118.3-1.12a4.07,4.07,0,0,0,3.48-1.59c1.58-1.81,1.14-3.5-1.24-3.83-6.47-.9-13-1.84-19.51-1.07a22.7,22.7,0,0,0-9,3.07c-1,.59-2.34,1.53-1.81,2.74.68,1.55,2,.34,3.06,0l.33-.14c7.36-3,14.72-3.46,22.08,0a8,8,0,0,0,2.65.8Zm11.6,83.55c-.27.18-.42.23-.46.32a4.19,4.19,0,0,0-.33,1,74,74,0,0,1-8.15,25.87c-1.43,2.62-3.45,4.25-6.21,4.46-.75.06-.9.61-1.14,1.15-.32.73-.67,2.11-1.43,1.72-1.75-.89-2,.47-2.76,1.28-.45.5-.89,1.34-1.7.9-1.84-1-2.54.68-3.6,1.42s-3,.24-3.47,2c.7.49,1.41.2,2.09.13,9.75-1,16.51-6.74,21.77-14.41,3.33-4.83,4.56-10.64,6.3-16.18.2-.64.64-1.63-.07-2-1.9-.9-1.18-2.24-.88-3.57a10.18,10.18,0,0,0,0-4.15Zm9.81-102.62a2.54,2.54,0,0,0,.59,3,14.6,14.6,0,0,0,3.64,3.37c3.54,2.15,7.05,4.37,10.69,6.36a40.17,40.17,0,0,0,11.08,3.75c2,.42,3.74-.3,3.54-1.32-.36-1.78-2-1.4-3.19-1.43a22.55,22.55,0,0,1-12.56-4.41c-3.39-2.39-6.74-4.84-10.13-7.23-1.05-.74-1.9-1.81-3.66-2.12Zm-11.17,71.7a36,36,0,0,0,4.71-5.87A1.37,1.37,0,0,0,238,91c-.88-1-2.17-.9-3.31-.91s-1.62,1-1.74,1.94a13.56,13.56,0,0,0,.43,6.51Zm-117.16,123a1.37,1.37,0,0,0,1.18-1.09c.1-.56-.33-.82-.84-.68a1.28,1.28,0,0,0-1,1.19C115.52,221.32,115.84,221.51,116.22,221.53ZM144,214.59c-.11-.36-.36-.61-.72-.54a.59.59,0,0,0-.4.71s0,0,0,.06c.08.31.21.68.66.53a.66.66,0,0,0,.44-.76Z"/><path class="a" d="M179.46,20.25c-2.39,1-4.85.5-7.33,0Z"/><path class="a" d="M186.22,20.84l6.55.42v.31h-6.49Z"/></svg>