<svg xmlns="http://www.w3.org/2000/svg" viewBox="0 0 490 378"><defs><style>.a{fill:#fff;}.b{fill:#63494b;}</style></defs><title>Unbenannt-4</title><path class="a" d="M484,261.08c-.66.38,4.47,14.25,4.92,16.12.54,2.24,2.34,5.7-.63,6.84-2.65,1-5.7.84-8.49,1.07-14.62,1.19-29.2,2.84-43.8,4.37-14.34,1.52-28.73,2.71-43,4.43s-28.54,2.37-42.71,4.54c-6.44,1-11.8,4.8-17.4,7.86-6.35,3.47-12.67,7-19.07,10.41C301,323.43,288,329.46,275.2,336.24s-26.65,12.82-38.91,20.65c-2.37,1.5-4.54,3.65-7.52,3.64-3.14,0-6.12.66-9.28.78-6.81.25-13.67,1.09-20.45,1.84-14.16,1.55-28.16,4.54-42.34,5.81-14,1.26-28,1.62-42,3q-10.28,1-20.54,2c-1.47.14-5.26,2-6.34.63-2.06-2.61-2.68-7.71-3.59-10.87-3.92-13.67-7.18-27.5-11-41.2-3.94-14.15-9.12-27.9-13.07-42-3.74-13.36-7.72-26.63-11.51-40-7.62-26.88-18-53.08-24.77-80.19-3.47-13.9-6.45-27.91-10.49-41.65-1.94-6.61-4-13.19-6-19.77-.32-1-2.86-6.71-1.62-7.4,1-.58,2.36-.13,3.45-.25,2.39-.26,4.76-.56,7.14-.85,14.65-1.74,29.34-2.11,44-4.15,14.15-2,28.36-3.56,42.55-5.2,13.57-1.57,27-1.62,40.54-4.1,6.91-1.27,11.92-4.14,18-7.51,6.3-3.5,12.8-6.73,19.22-10,25.6-13.13,50.12-28.35,76.09-40.71,12.74-6.06,27.81-4.36,41.62-5.55,3.51-.29,41.61-3.72,41.61-3.6s4.05-1.09,4.21-.48c-.88-.08-1.21.18-1,.77.85-.09,5-.13,5-.93L345.8,9c0-.49,9.57-1.15,10.82-1.31.92-.11,4.4-1.05,4.39,0,1.14,0,5.52-.5,1.6-.35,0,.24,14.47-1.71,16.16-1.94C385.42,4.5,392.3,3,399,2.93a71.49,71.49,0,0,1,8.66,0c2,.22,2,2.26,2.32,3.78.75,3.32,1.43,6.65,2.27,10,1,3.81,2.92,7.4,3.65,11.25C418.31,40.52,422.69,53,426,65.45c3.47,13.21,7.27,26.4,11.2,39.48,7.74,25.8,15.3,51.69,23.59,77.33,4.4,13.59,8.85,27.17,12.48,41,1.61,6.17,2.88,12.36,4.61,18.5C479.52,247.59,480.35,256.24,484,261.08Z"/><path class="b" d="M484,261.08c-.66.38,4.47,14.25,4.92,16.12.54,2.24,2.34,5.7-.63,6.84-2.65,1-5.7.84-8.49,1.07-14.62,1.19-29.2,2.84-43.8,4.37-14.34,1.52-28.73,2.71-43,4.43s-28.54,2.37-42.71,4.54c-6.44,1-11.8,4.8-17.4,7.86-6.35,3.47-12.67,7-19.07,10.41C301,323.43,288,329.46,275.2,336.24s-26.65,12.82-38.91,20.65c-2.37,1.5-4.54,3.65-7.52,3.64-3.14,0-6.12.66-9.28.78-6.81.25-13.67,1.09-20.45,1.84-14.16,1.55-28.16,4.54-42.34,5.81-14,1.26-28,1.62-42,3q-10.28,1-20.54,2c-1.47.14-5.26,2-6.34.63-2.06-2.61-2.68-7.71-3.59-10.87-3.92-13.67-7.18-27.5-11-41.2-3.94-14.15-9.12-27.9-13.07-42-3.74-13.36-7.72-26.63-11.51-40-7.62-26.88-18-53.08-24.77-80.19-3.47-13.9-6.45-27.91-10.49-41.65-1.94-6.61-4-13.19-6-19.77-.32-1-2.86-6.71-1.62-7.4,1-.58,2.36-.13,3.45-.25,2.39-.26,4.76-.56,7.14-.85,14.65-1.74,29.34-2.11,44-4.15,14.15-2,28.36-3.56,42.55-5.2,13.57-1.57,27-1.62,40.54-4.1,6.91-1.27,11.92-4.14,18-7.51,6.3-3.5,12.8-6.73,19.22-10,25.6-13.13,50.12-28.35,76.09-40.71,12.74-6.06,27.81-4.36,41.62-5.55,3.51-.29,41.61-3.72,41.61-3.6s4.05-1.09,4.21-.48c-.88-.08-1.21.18-1,.77.85-.09,5-.13,5-.93L345.8,9c0-.49,9.57-1.15,10.82-1.31.92-.11,4.4-1.05,4.39,0,1.14,0,5.52-.5,1.6-.35,0,.24,14.47-1.71,16.16-1.94C385.42,4.5,392.3,3,399,2.93a71.49,71.49,0,0,1,8.66,0c2,.22,2,2.26,2.32,3.78.75,3.32,1.43,6.65,2.27,10,1,3.81,2.92,7.4,3.65,11.25C418.31,40.52,422.69,53,426,65.45c3.47,13.21,7.27,26.4,11.2,39.48,7.74,25.8,15.3,51.69,23.59,77.33,4.4,13.59,8.85,27.17,12.48,41,1.61,6.17,2.88,12.36,4.61,18.5C479.52,247.59,480.35,256.24,484,261.08Zm-419.15-160,7.56-.55c-.19-1.42-6.07.3-7.57.57-1.52.06-9.43-.14-9.35,1Q60.19,101.65,64.87,101.11Zm288.36,173.3a5,5,0,0,0-4.63-1.08c-.15,0-3.18.68-2.77,1.55s.23,2.32,1.33,2.63c1.52.44,4.2-.72,5.67-1.05l-2.3,1.75c.93-.1,3.67.13,3.82-.91l-1.75-.53c1.29-.85.87-1,.62-2.37l2.73,1.93c-4.28,1.23,2.11,1.43,3.48,1.54-1.43-1.89-1.17-2.54-1.57-4.81-.16-.9-2.27-.53-2.83-.48C353.22,272.75,353.62,272.87,353.23,274.41ZM159.66,131.09l2-.47c-1.15-4-2.27-8-3.47-11.93-.54-1.81-.41-3.59-2.53-3.82-1.78-.19-1.22.75-.79,2.3,1,3.64,2,7.26,3.08,10.88.45,1.55,1.89,2.45,1.57,4.08-.26,1.29,3.19,1.81,4.17,2.14C162.82,131.35,162.21,131.69,159.66,131.09ZM48.32,209.45c-2.12.51-4.41.37-3.58,3,.65,2,.24,3,2.59,2.63l4.85-.66c-1.82,1.12-4.32,1.52-6.31,2.26l2.21,7.69c-1.53-.22-1.54-2.75-1.85-3.89-.63-2.29-.91-3.22-2.69-4.7.66,3.62,1.29,10.58,4.27,13,.92-1.51,1-2.49,2.9-2.8,1-.16,3.36.17,4.11-.8.54-.69-.51-3.34-.85-4-.72-1.39-2.38-1.17-3.65-1.2-.13-1.78,5.49-1,5.8-1.55-1.56-1.41,0-3.84-3-4.08,1.59-.56,1.65-.08,1.08-2.07-.24-.84-.4-2.94-1.32-3.2,0,.83,0,1.67,0,2.5-1.76-2.31-1.29-2.27-4.58-2.1,1.72-.49,4-.39,3.12-2.75-.64-1.83-3.26-1.1-4.59-.87-1.68.28-4.5.06-3.31,2.6C44.22,209.91,47,209.39,48.32,209.45ZM283.21,45.05c-1.12-.3-9-.44-8.85.34.62,2.68,7.92,1.48,8.86-.36,2.2,1,3.8.85,6.22.72-.23.1-8.17,2.26-5,3.83,2.21,1.09,7.49-.54,9.92-.81-2.33.85-9.54.27-10.12,3.3-2.23-2.08-5.41.07-8,1.15-.39.16.06,2,.55,2.13,1,.39,2.91-.33,3.94-.52,6.65-1.22,13.34-2,20.05-2.84-.9-3.13-.86-9.47-4.93-8.83C292.33,43.71,286,43,283.21,45.05Zm150.44,87.82c-6.11.09-2.57,4.78-1.45,8.67q1.2,4.14,2.38,8.27.71,2.43,1.4,4.86c.7,2.44,1.59,1.5,3.85,1.29-2.91,2.07-3.63.67-2.36,5,.88,3,1.84,6,2.69,9,.74,2.58,1.43,5.36,2.21,8.09l1.41,4.89c.77,2.66.45,3.21,3.24,3.22,0,.8-1.24.55-1.88.62.95,3.31,2.58,6.58,3.37,9.91.52,2.23.62,4.38,3.61,3.91l-2.29.66c1.21,1.93.3,5.48,3.32,5.85-1.35,2.33-.21,4.39.61,6.84,1,2.89,5.06,1.62,7.45,1.6,0,.65-5.64.69-6.55.75,1.22,4.27,2.2,8.73,3.89,12.84,1.45,3.55.26,4.78,4.24,5.44-3.67,1.73-1.22,5.88-.34,9.31.63,2.48.56,7.71,4.3,6.88l-2.35.36c1,3.38,2.35,14.09,6.17,15.28-1.12,2.2,3.48,5.45.88,6.27-4.61,0-9.13.65-13.71,1.13-10.3,1.06-20.44,2.38-30.67,3.89-9.56,1.42-19.23,2.75-28.88,3.36-4.15.26-9.33-.78-7.58,4.71,1,3.19,7.67-.69,10.45.63-3.39,1.76-9.31,1.39-13.17,1.82a165.17,165.17,0,0,1-16.63,1.36c0-.92,17.26-2.18,19.35-2.39-.41-1.07-1.11-4.83-2.43-5.08-1.66-.32-3.48.2-5.14.3-4.92.31-9.83.6-14.72,1.26-4.35.58-8.81.8-13.08,1.82a28.79,28.79,0,0,0-5.71,2.37c-2.35-.27-2.38-.75-4.48-1.59.23,1,.5,4.51,1.57,4.95,1.59.65,4.7-.68,6.3-1,2.56-.48,5.13-.89,7.67-1.46,1.34-.3,4.45-2.49,5-1.25l-3.07.71c0,.78.62.88,1.75.3-3.48,1.49-7.74,1.73-11.43,2.47-1.59.32-4.34.34-5.6,1.46-.95.86.95,3.35,1.38,4.23.32-1.52.74-2.09-.31-3.24l18.63-1.5c.06.82-15.58,3.2-17.41,3.54.24,1.16,22.61-1.78,25.28-2,1.63-.17,10.82-.48,10.76-1.69l-12.76.27c0-1.34,6.81-.93,8.32-1l5-.17c1.84-.06,3.51-1.1,3.16,1.23l7.6-.82-.31-.57L484,282.43c-1.53-2.38-1.92-2.13-4.76-2l-8.69.28c1.81-1.73,8.21-.72,10.6-.74,1.91,0,5,1.84,6.37,1.14-.93-.77-1.42-.65-2.57-.68.91-1.49,2.89.75,1.92-2.15S485,272.62,484,269.8c-1.89-5.62-3.86-11.24-5.49-16.94-3.18-11.13-5.39-22.56-9-33.58-7.17-22.11-13.83-45.47-20.51-68.18q-10.5-35.68-21-71.38Q423,62.31,417.84,44.9c-.5-1.67-4.82-15.61-4.29-15.75q-1.16-4-2.3-8c-.69-2.37-.66-6.38-3.39-6.44,2.59-.91.5-4-.16-6.29-1.09-3.74-1.23-3.48-5.14-3.24-7.51.46-14.84,1.87-22.31,2.6-14.18,1.38-28.31,3.19-42.49,4.67-13.65,1.42-27.56,1-41.12,3.08-7,1.09-14.29,1.13-21.39,1.57-1.46.09-5.75-.68-5,1.63.83,2.67,2.3,2.23,4.6,3-.56.05-3.51-.23-3.45.94.12,2.12,4.18,1.27,5.63,1.31-.66-1.61-.39-1.87-2.21-2.26,3.25-1,3,2.29,3.88,4.22.73,1.62,8.74,0,10.74.09-3,.86-7.7.73-10.15,2.47,2.31,2.17,11.31.83,14.36-.28.85-.19.91-.74.18-1.64-.75-2.29-1-.2-.58-2.83.35-2.18,6-1.18,8.13-1.18-.51,1.16-5.56,1-7,1.66a16.56,16.56,0,0,1,2.36,1.14l-1.68.48c.44.72.17,2,1.18,2.27,1.65.47,4.19-.34,5.87-.48a115.76,115.76,0,0,0,12.87-1.35c-.54-.78-1.39-1.3-.77-2.12,1.69,1.78,1.25,1.95,3.77,1.73,3.2-.27,6.42-.48,9.63-.7,6.81-.48,13.64-.92,20.42-1.78s13.45-1.74,20.24-2.21c.59-.05,8.21-.46,7.69-1.4-1.6-2.91-4.4-2-7.42-2,0-.63,4.18-.61,4.93-.66,2.33-.16,1.64-1.09,1.73-3.19a16.08,16.08,0,0,1,1.34,4.84c.14,2.21,1.38,1.66,3.23,1.45,3.7-.4,7.37-.91,11.05-1.46a10.4,10.4,0,0,1,5.05.13c1.23.36,4,1.89,4.57.58-1.65-1.76,0-4.76-3.43-5,2.91-.16.2-5.33-1-5.46,0-.58,3.29-.68,3.33-.28-1.85.37,0,3.61.44,5.11a69.68,69.68,0,0,1,2,7.79c.31,1.85,1.1,3.24,1.08,5.15s.54,2.93,2.54,2.86c-2.81,2.13-.13,7.64.58,10.79-.8-.87-.74-2.23-1.58-3a1.26,1.26,0,0,0-1.79.21,1.22,1.22,0,0,0-.28.73c.25,2.8,2.66,3.24,4.89,3.57-3.62.35-3,2-1.61,5,1.23,2.69,4.31,1.56,6.73,1.43-.93.31-5.81,0-5.73,1.45.15,2.42,2.14,5.76,3.13,7.94,2.67,5.93,3.54,12.51,5.27,18.51L421.23,98l2.89,10c0,1.54.06,7,2.65,6.44a6,6,0,0,0,.34,6.94c1.51,1.56,8.86.38,11.06.47,0,.59-10,.48-11.22.5,1.26,2.5,0,5.84,4,5.91-1.4.49-2.32,1.17-1.74,2.72C429.81,132.76,433.38,131.94,433.65,132.87ZM332.75,215.3c1.87-.63,5.19-.71,4.82-3.07A4.15,4.15,0,0,0,335,208.7c1.87-.37,1-1.24.65-2.87a19.69,19.69,0,0,1,2.46,6.81c.38,2.38,2.65.07,3.18,1.35-2.2.7-2.62.29-1.6,3.13,1.36,3.77,1.35,4.9,5.44,4.16.21,1-2.5,1.23-3.29,1.46,1.19.89,3.44-.14,4.81,0,2.76.2,5.52.4,8.27.62,5.23.42,10.9,1.6,16.11.6,12.31-2.36,14.43-14.48,9.32-24.31-5-9.63-13.74-19.36-14.17-30.64-.19-5-.46-10.75,1.11-15.56,1.63-5,5-9.38,7.86-13.75l-3,.17c3.38-.79,4.69-1.7,7.08-4.37,2.64-2.94,2.41-3.89,1.11-7.53.92-.3,1.59,3,1.9,3.84,1.41.48,2.81-2.76,3.6-3.89s8-10.74,7.43-11.24l-.59,2.36c4.31-6.1,4.27-15-1.05-20.54-2.5-2.59-5.08-5.28-8.81-5.81-4-.57-8.23-.12-12.25,0,0,.23.05.45.08.68-5.37-1.42-10.35-2.53-16-4.22.15.91.29,1.83.43,2.74-.87-.61-.24-1.84-1-2.58-1-.93-3.07-.88-4.36-1.13-3-.59-5.37.29-8.18,1.3-6.51,2.34-10,8.77-17.63,9-4.25.16-1.68,4.62-.95,7.52.87,3.44,1.81,6.84,2.79,10.24-.06,0,2.38,8.81,2.67,9.81.46,1.6,3.43,9.57,2.18,10-1.79-2.54-2.42-7.21-3.19-10.24-.84-3.31-2.2-6.44-3-9.74-.9-3.66-1.64-7.35-2.43-11-.38-1.73-.44-5.86-2.57-6.56-3-1-6.62-1.46-9.72-2.14A31.91,31.91,0,0,0,298.87,96a45.9,45.9,0,0,0-8.31,1.62c-1.91.61-2.29,3.87-.73,4.6-.94,2.13.77,5.11,1.62,7.13,1.39,3.27,2.12,6.91,3.1,10.32,1-.09,9.07-.25,9-1.51-.06-1.55-.94-2.17-.1-3.54l5.45.19c-3.19,1.2-7.55.53-2.47,4-3.41.51-.54,3.24.69,4.67-1.19.89-1,.8-.76,2.29.43,2.51,3.4,1.41,5.25,1.29.07.58-3.95,1.1-4.59,1.24.63,2.15,1.37,4.27,1.83,6.47s1.47,1.53,3.26,1.58c-2.2,1.61-2.93,1.52-.79,4.4,1.17,1.57-.69,1.48-.06,3.29.41,1.19,1.3,2.38.9,3.7l12.07-1.51-1.75-7.49c-1.31.66-3,2-4.55,1.79-2.3-.3-.66-2.87.27-3.44,1.56-.95,4.48-3.24,6.41-2.71,1.67.46,1.87,1.94.37,3-3.72,2.56.94,6.54.54,9.58-.33,2.57,1.11,9,4.39,9.08l-2.25.45c.56,1.94.89,4.14,2,5.88s.13.94.55,2.45c.54,2-.2,4.63,2.88,4.13-2.33,2.44-.29,5.79.58,8.83q2.23,7.78,4.49,15.58c-1.64.47-2.72-6.12-3.2-7.81l-2.82-9.78c-.57-2-1.52-11.64-4.8-11.82,2.07-1.93.1-5.09-.62-7.6-1.2.1-8,.27-7.95,1.15l2.05.14c-1.19.21-10.07,1.11-9.71,2.55,1.07,4.29,7.4,1.57,10.54,1.08-2.15,2.39-7.11.57-9,3.08,3.32.79,8.39-1,11.86-1.29-3.39,1.49-7.83,1.78-11.45,2.82.21.74,1.38.56,2.06.64l-2.06.92c1.24,1.44,1.35,2.5,3.53,2.19,2.5-.35,5-.8,7.48-1.08-2,.64-10.65.75-9,4.12,1.23,2.55,1.49,3.53,4.59,2.94a52.42,52.42,0,0,1,8.09-1.18c-3.07.92-6.22,1.55-9.36,2.2-2.55.53-.74,2.74-.61,4.63s1.08,3.66,3.22,3.51c3.23-.23,1.35-3.91.82-5.75,1,1.17,1.4,4.57,2.67,5.17.84.39,3.6-1,3.79,0l-2.5.71c-2.16.63-.93,1.71-.41,3.53.94,3.27,1.18,3.68,4.51,3.2-2,2.34-3.5.27-1.71,4.39,1,2.2,2.21,1.17,4.13,1.7-2.37.68-5.73.37-7.81,1.45-1.92,1,.54,2.63-.11,4-1.32-2.65-2-4.52-5.37-2.49-1.41.85,2,8.64,2.64,9.64,1.06,1.76,4.07-1.6,5.28,1.28.44,1,.2,3.21,1.32,3.83s3.42-.08,4.54-.13c-2.17.55-5.55,1.33-3.77,4.39,1,1.77,5.79,0,7.42-.22.1.73-6,1.63-6.95,1.84.5,1.11-.26,2.56,1.65,2.31,2.83-.36,5.66-.44,8.39-1.32,2.1-.67.06-4.29-.5-6.16C338.11,213.16,335.28,214.85,332.75,215.3ZM32.18,113.53c-1.48.32-3.84.07-3,2.22.72,1.88.58,5.38,2.79,5.36-1.53,1.18-.44,1.82.18,3.52.52,1.43.23,3,1.92,3.06-1,2.56-.16,3.5,1,5.93-.93,1.6.81,4,1.36,5.66.83,2.54,1.08,10.68,5.16,9.69-.43.14-2.26.61-2.15,1.46a2,2,0,0,0,1.3,1.15,4.36,4.36,0,0,0,.15,2.74c.69,2.05.75,6.25,3,7.21-1.19,1.2-.5,5.4,1.89,5-1.34,4.57,1.75,10.78,3.07,15.36,3.45,0,3-1,2.3-4.12-.8-3.78-1.61-7.55-2.37-11.34,2.75-.53,2.14,14.89,4.68,15.34-1.37.44-.12,2.13.18,3.21.55,1.92.9,3.88,1.3,5.84-2.11,0-4.76-.86-2.91,1.86-.55.06,1.48,6.45,1.77,7.45.44,1.52.87,3,1.31,4.54a2.77,2.77,0,0,0,0,2.58c.85,2.42.29,5.56,3.38,6.47-2.59.3-1,4.75.54,4.86s12.44-.27,13-2c2.65-7.64-6.71-19.48,1-25.88,3-2.48,5.87-2.86,9.46-3.44,4.79-.77,4.06-6.86,5.44-10.41a19.14,19.14,0,0,1,8.54-10.08c4.63-2.4,9.69-.63,14.52.13-3.76-13-7.48-26-10.58-39.22,2.11,1.47,2.74,8.86,3.4,11.31,1.12,4.16,2.42,8.26,3.47,12.44,1.15,4.54,2.28,9.08,3.47,13.6.89,3.38,6.25.61,7.64-1,4.34-5.08,5.89-13.55,7.54-19.84.88-3.39,2.17-7.28,4.7-9.83s7-2.32,10.38-3.05c-.18-.69-.24-3-1.25-2.8-.84.12-2.24.67-2.39-.44,2-.59,2.77,0,2.21-2.39-.37-1.55-.74-3.1-1.1-4.65.85,1.71,1,4.23,2,5.75.84,1.19,4.08.33,5.29.23-.4-1.69-.13-3.46-2.57-3.08,2.35-.67,1.49-1.28.84-3.5-.52-1.81-2.27-4.31,0-4.82-1.11,2.88,1,4.61,3.88,4.47-.93.76-4.13.42-2.62,2.44,1.06,1.41,4.92.51,6.33.41-1.24,1.17-5.8-.39-5.58,2.21.27,3,6.83,1.5,8.68,1.41,0,.87-6.81.84-8,.91a9.65,9.65,0,0,0,.23,2.21c.54,1.46,2.55,0,2.08,1.45l8.39-.53a37.8,37.8,0,0,0-1.06-4.32c-.86-2.85-1.29-2.67-3.95-3,2.92-1,3-.72,2-4.34-.78-2.94-1.61-1.93-3.85-2.71,2.47-.94,2.44-.09,2.54-2.87.88.63,2.11.52,3.16.64.14-3.8-1.48-7.77-2.37-11.45-.84-3.48-.74-6.84-5.08-5.84,1.45,2.18-.3,5.51,3.78,5a26.43,26.43,0,0,1-7.69.16c2.89-.83,4.77-.2,3.35-3.74s-12,1.41-11.59-1.44L134,97c.79-1.18,4.69-.58,5.93-.61,2.43,0,5.6.42,7.83-.58-.56-1.11-.34-2.53-2.1-2.27-2.5.37-5,.63-7.54.94-4.92.63-5.15,1.09-3.92,6.23,1.32,5.47,2.54,11,3.71,16.46-2.09-1.42-2.54-9.31-3.11-11.74s-1.08-4.58-1.64-6.86c-.41-1.7-1.6-1.29.12-2.42-3.18-1.2-6.15-.31-9.5-.06-3.9.3-7.81.55-11.72.87-2.79.22-8.21-.37-10.42,1.56-1,.84,1.57,6.83,1.87,8.28-2.15-1.71,0-5.76-4.07-5.54a9.4,9.4,0,0,0,1.9-.82c-.18-.34-.67-2.17-1.21-2.17q-3.52.15-7,.64c1.67,3.31,3.21,1.31,6.36,2.36-3.39.46-5.54-.06-4.8,3.79-1.11-.41-.48-2.12-1.47-2.78-1.33-.89-4.13.2-5.8-.32,1.41-.51,6.67.07,4.78-2.35-.8-1-2.56-.46-3.65-.36-1.27.1-5.08,1.37-4-.43l-3,.31,1.68.57-3.05.46L82,99l-3.11.38c.09.58,1.37.44,1.8.48-5.08.9-10,1.25-15.36,1.8L55,102.78c-4,.44-4.32.55-3.53,4.55-.87-1-.53-3.31-1.87-3.87-2-.8-5.88.43-8,.65-4.49.46-10.81,0-14.88,2,1.1,2.27-.42,5.34,3.19,6.33-.65.19-1.58.11-1.57.88C28.73,113.3,32.15,113.42,32.18,113.53Zm346,77.64c.37,4,4,9.29,7.83,10.43-3.19.56-1.59,2.7-.85,5.38s1.32,5,.5,7.72c-1.78,5.85-6.71,8.07-11.69,10.65-3.86,2,.81,9.84,1.81,12.81.86,2.57,1.64,5.14,2.37,7.73.47,1.68,6,.09,7.2-.09-2.11,1.37-7,.49-6,4,1.18,4,1.07,4.44,5.07,4.55-1.81,1.12-3.47.79-2.69,3.38.92,3.08,2,3.35,5,3-2.79.6-4,2-2.43,4.74-1.27-1.12-.82-3.44-3-3.25-2.36.22-4.75.75-7.12,1,2.9-1.13,8.61-.21,7.47-4-1.05-3.49-1.08-3.13-4.32-3.59,3.1-1.39,2.65-1.18,1.75-4.3-1.07-3.76-1.5-3.61-5.52-3.43,1-.57,4.2-.57,3.69-2.17-.76-2.38-1.38-4.8-2.12-7.19-.82-2.68-1.65-5.35-2.51-8-1-2.94-1-4.16-4.3-4.18a118.07,118.07,0,0,1-16.81-1,20.06,20.06,0,0,0-8,.23c-1.62.4-7.24,3.34-2.58,3.42-1.25.55-4.56,2.29-.75,1.43L346.6,229c.3,1.49-5.73,1.71-7.24,2.33a2.11,2.11,0,0,0-1.4,1.43c-.4,1.81.49,1.6,1.93,1.6-3.45.18-1.49,3.6-3.39,5.25l7.08-1.25c-2.15.8-8.9,1.45-9.06,4.52-.17,3.35,7.05.3,9.05-.18-1,.94-9.53,3.86-10.25,2.41,1.56-.45.84-2.89-.47-2.47-2,.64-.11,4,.24,5.19.18.64.54,4.18,1.8,4,2.93-.53,5.87-1.07,8.77-1.82.5-.13.1-2.64-.2-2.95-.79-.8-5.4,1.17-6.49,1.45a27.6,27.6,0,0,1-3,.43c-.25-1.75,1.59-1.26,3-1.51,1.59-.27,6.31-.28,6.21-2l4.12.57c-1.36,0-3.65.61-2.85,2.46.85,2,4.08.75,5.63.66-.72-1.58-1.71-7.64-4.27-6.45l1.65-1.41-1.64-1.77,3.05-.87c-1.77,1.14-1.78,2.39.05,3.45-1,.64-.43,2.24.67,2.58,1.79.56,5.05-.63,6.88-.9a44.65,44.65,0,0,1-5.68,1.46c-2.49.61-.07,4.36.46,5.56.33.75,12.77-1.66,14.16-1.83-2.18,2.24-9.78,2.1-12.87,2.76-1.33.29-.68,2.82.51,3,2.21.26,4.94-.52,7.15-.75-2.26,1.12-7.66.09-6.84,3.51.44,1.8.49,3.21,2.54,2.89,1.73-.27,3.47-.45,5.23-.58-2.21.84-7.19.33-5.92,3.8.27.74.63,2.27,1.4,2.67,1.21.63,3.44-.1,3.17-1.47l13.59-1.6c-4.22,1.2-9.23,1.41-13.18,2.93-1.33.51-3.66.42-3.39,2.38.34,2.41.88,1.7,2.68,1.77-.23.82-1.24.22-1.14,1.13l3.56-.26c-1.67,2.35-5.1-.65-2.91,4,1.79,3.78,4,2.5,7.86,2.14.15,2.39-7.22-.26-5.81,3.2,1.17,2.87,4.44,1.62,6.92,1.34,6.74-.76,13.47-1.51,20.23-2.12a62.41,62.41,0,0,1-4-14.18,58.85,58.85,0,0,1,2.68,7.51c.88,3.23,3.34,2,6.3,1.83,6.81-.36,13.53-1.61,20.33-2-3.69,2.42-10.83,1.76-15.13,2.17-1.92.18-11.16-.33-10.06,2.59,1.29,3.42,6.85,1.48,10.14,1.17,5.74-.55,11.46-1.23,17.19-2,10.5-1.35,20.87-3,31.28-4.89,4.75-.85,9.57-1.18,14.35-1.74.89-.1,6-.06,6.43-.91,1.11-2.29-1.79-2.22-3-2.13,1.57-1.37,2.61-.4,1.59-3.25-1.23-3.42-3.86-2.22-7-2-6.72.49-13.58,1.47-20.31,1.05,1.29-.7,3.94-.35,5.36-.47l6.79-.6c4.27-.36,8.55-.59,12.81-1,1.4-.13-.9-8.53-2-9.26-2.23-1.48-6.65,1.54-8.45-.71,2-1,5.42-.17,7.62-.14,1,0-.16-4.51-.25-5-.71-3.59-1.5-7.75-3.55-10.78l.59-.17a34.43,34.43,0,0,0-2.31-6.4c-.57-1-3.35-.08-3.56-.88l3.42-.18c-.79-2.75-1.56-5.5-2.39-8.24-1-3.27-2.86-2.5-5.84-2.13-2.36.29-4.73.57-7.11.81-1.56.15-4.44-.68-1.52-1.84.23,2,1.32,1.11,3,1l4.74-.4c4.17-.36,6.14.37,5-4.2-.4-1.5-.62-5-2.93-4.57a73.38,73.38,0,0,1-9.71.71c0-.63,9.5-1.12,10.76-1.23-1-7.21-5.25-5.33-11.22-4.72-.1-1,8-1.62,9.36-1.81-2.72-7-5.14-14.21-7.3-21.45-.74-2.49-1.19-5.47-2.58-7.68-1-1.68-1-4.12-1.66-6.13-.84-2.58-1.28-9.23-5.22-8.14,2-.83,2.49-.3,2-2.91-.6-3.33-1.23-6.65-2.11-9.91-.73-2.67-1.54-5.31-2.33-7.95-1-3.22-1.48-2.93-4.63-2.75,1.14-1.08,3.4-.51,3.12-2.3-.34-2.25-.64-2.59-3.19-2.43-1.09.07-5.63,1-5.65-.36l8.14-.25c-.28-1.34-.33-4-1.29-5-1.15-1.22-5.39-.08-6.89,0,2-.75,4.27-.29,6.07-1.56,1-.74-1.15-7.29-1.46-8.59-.66-2.82-2-5.93-2.21-8.81-.13-1.76-.1-3.49-2.39-3.52,1.67.19,2-.47.92-2-.49-1.72-1-3.43-1.48-5.15-.82-2.86-1.66-5.71-2.46-8.57s-1.65-5.78-2.65-8.61c-.68-1.92-.18-4.35-2.68-5,1.46-.65.9-2.15.23-3.58-.59-1.23-2.67-.59-3.6-.48a97.78,97.78,0,0,1-13.25.79c2.13-1.3,15.75.19,16.14-2.18.45-2.78-2.24-8-3.12-10.73-.7-2.13-7-.33-8.5-.14l2.15,7.48c-.79-1.55-1.43-6.21-3-6.93-1.89-.87-3.76,1-5.63,0,1-.76.91-.68,2.46-.9l3.17-.41c-.48-.91-.39-1.39.25-1.45,1.1,2.59,6,1,8.58.77A60.57,60.57,0,0,1,403,46.32a6,6,0,0,0-1.18-3c-.42-.45-2.67-1-2.69-1.11l1.93-.34c-.68-2.35-.82-4.31-3.67-4.16-1.13.06-6.47,1.13-6.58.14l8.75-.82-3.94-10.77C395.2,25,395,21.66,393,21.64c-1.13,0-9.57-.37-9.1,1.53.76,3,6.77,2,9.25,2-2.38.56-4.84.59-7.24,1-2,.34-.63,2-1.66,3.08,1.29-3.65-2.34-1.5-3.09-3.71,4.25-1.22.93-4-2.22-3.33-2.8.61-.69,3.32-.89,5.09-.47-.88-.95-4.36-2.34-4.31-2.8.11-5.59.4-8.39.55-5.67.3-11.25,1.34-16.9,1.89-11.57,1.11-23.12,2-34.69,3,.36,1.26.62,3.9,1.88,4.67,1,.61,4.38-.13,5.66-.15-3.4,1.66-6.62.18-5,5.15,1.48,4.55,6.2.4,9.52,2-2.21.17-5.42-.16-7.49.66-1.47.58-.19,3.75,0,4.76-1.53-2.4-.71-4.6-4.06-4.34-2.59.2-5.17.5-7.75.76,1.72-1,3.75-.89,5.72-1.09,3.73-.38,4.31-.13,3.25-3.86-.59-2.08-.07-2.91-2.47-2.72l-4.89.38-9.6.74c1.13-2.09,9.18-1.51,11.39-1.71.82-.07,4.12.25,4.39-1A3.21,3.21,0,0,0,313.94,29c-3.79-.94-9.42.47-13.32.75-2,.14-4.14-.43-4.09,1.81.06,2.4.72,2.57,2.64,3.47-2.21,2.43-1.09,4,0,7,.4,1.14,8-.25,9.25-.31-3.59,1.08-9.86-.61-8.4,5,.39,1.47.21,4.67,2,5.25,1.57.48,4.27-.36,6-.3,0,.9-16.38,2.29-18.55,2.7-3.53.66-7,1.44-10.59,1.95-3.2.46-1.75,2.48.19,3.57a6.68,6.68,0,0,0,.63-2.71c.38,3,2.48,2.41,4.71,2.14-1,.86-6.83,1.24-6.35,2.51s7.07-.54,8.24-.72c-.66,1.48-5.07,1.78-6.5,2.24-1.21.39-.82,1.35-.33,2,1.17,1.53,2.69.91,4.4.72s3.12-.39,4.68-.59c1.24-.17,5.56-.11,1.74.54l-10.71,1.83c1.74,2.86,2.35,2.28,5.16,2.07l10.84-.83c-2.41,1.64-7,1.54-9.85,1.85-1.57.18-1.27,1.13-1,2.24.52,1.9,5.11.36,6.28.19-2.2,1.15-6,.76-5.07,4.07,1.09,4,2,3,5.84,2.48l-1.1-3.81c.56.7,1.42,3.77,2.55,3.67a72.46,72.46,0,0,0,9.1-1.91A41.69,41.69,0,0,1,295,80.06c-2.62.5-6,.18-7.23,2.69a46.77,46.77,0,0,0,10.51.4c-.81,2-9.95-.39-9.87,1.64.19,4.79,2.4,6.12,6.55,5.89-2.11.84-4.36.91-6.51,1.53-1-.08-1.35.23-1.15.92.27,1.36,2.31.2,3.32,0,5-1,10.74.12,15.72.82,1.5.21,13.35,3,13.44,2.13.21-2.15-1.39-5.3-2-7.36-.87-3.07-1.69-6.13-2.43-9.22,2.1.58,3.52,10.62,4.11,12.74.19.66.71,4.77,2.17,4.39,2.35-.6,5.14-1.12,7.22-2.42a95.36,95.36,0,0,1,11.84-6.64c1.84-.82,12.82-2.5,13-.31.59-1.32,8.18,1.79,9.45,2.14,3,.83,6.53.65,9.67.61,7.47-.1,14.77.3,20.14,6.2A19.08,19.08,0,0,1,395.9,118c-1.87,3.76-4.84,7.05-7.46,10.3-2.22,2.75-5.54,5.37-4.44,9.16-.65.21-1.13-2-1.31-2.44-6.5,7.75-13.14,14.8-14.27,25.21-.58,5.39-.9,11.28,1.54,16.29C372.25,181.25,374.79,187.17,378.22,191.17Zm-83.83-35a12.87,12.87,0,0,1-5.47,3.15c-.66-3.05.25-3.89,2.82-5.91,3.45-2.72-.89-11.63-1.92-15.2-1.36,1.09-2.09,2.73-3.47,3.87-1.86,1.54-4.05,2.4-6.12,3.57a53.07,53.07,0,0,0-4.69,2.54c-1.45,1.09-2.58,3.58-3.66,5,2,.73-2.88,4.38-3.5,5.66-1.2,2.47.39,5,1.07,7.36-.95.25-2-5.19-2.34-6.29a22.46,22.46,0,0,1-13.06,2.84l1.42,6.07c-1.22-1.74-1.22-4.14-2.48-5.83s-6.56-2.43-8.46-3a22.28,22.28,0,0,0-9.66-.9c-3.05.49-1.91,2.6-1.24,4.92-.75-.94-.73-2.26-1.56-3.11-.63-.64-3.84.11-4.23.84-.54,1,1,4.3,1.33,5.37a56.2,56.2,0,0,1,1.49,6.41c-.87-2.48-1.73-10.27-4.13-11.55-1.35-.72-3.59,0-5,0a9,9,0,0,1-5.91-1.89c-8.75-6.57-8.82-15.76-9.6-25.72-.33-4.08-.6-8.62-2.67-12.27-1.49-2.62-6-6.6-9.42-5.34S200,142.2,201,145.61c-1.73.46-1.91-3.22-2.34-4.69q-1.19-4.11-2.36-8.22-2.15-7.42-4.28-14.84c-2.09.6-5.62,3.56-6.77,5.47-1,1.62,2,7.61.8,8l-1.83-6.34c-4.18,4.28-8,9.8-14.2,11.2-.94.21-2.75-.08-3.39.74-.81,1,.47,4.37.72,5.58.75,3.59,2.23,6.46,3.37,9.86,4.62,13.72,7.49,28.05,11.75,41.89,1.95,6.35,3.79,13.43,6.74,19.38,1,2.07,3.66,2.09,5.31,3.61,1,.89-3.29,1.76-3.2,1.67q2.91,10.09,6,20.13c1.19,3.84,2.2,7.73,3.4,11.55.81,2.57,1.42,6.15,4.16,7.38l-1.29.47c2.47,5.84,2.79,12.66,4.34,19.16q1.52,6.42,3.14,12.83c1.11,4.37,2.75,3.69,7,3.84-.08-.62-.91-5.77-.6-5.85.74,2.54,2.15,5.5,1.92,8.14-2.35-1.84-3.59-2-6.65-1.85-1.09.05.64,6.09.85,6.93,1.43,5.74,5.86,8.8,10.11,12.46l-1.81-7.74c1.78,1.63.94,7,3.1,7.87,3.52,1.36,6.87,3.07,10.74,2.83a33.7,33.7,0,0,0,10.85-2.36c2-.91-.28-5.63-.63-6.92q-3.62-13.39-6.3-27C238,272,234.78,263.59,233,254.84c2,3.91,2.75,8.83,4,13,1.44,4.8,2.62,9.64,3.65,14.55C242.93,293,245,303.67,248.47,314a27.81,27.81,0,0,0,6.85-5.2c2.16-2.2,4.79-3.89,6.91-6s3.27-5.46,4.62-8c1.79-3.34,3.53-6.71,5.34-10a180.9,180.9,0,0,1,11.41-18.5c2-2.87,4-6.37,6.46-8.85a13,13,0,0,0,1.84-1.87c.44-.68.09-2.73.29-2.83l.63,2.18c3.71-2.73,7.46-6.62,11.63-8.6s8.79-2.23,13.16-2.73L303,192.58c1.56-.44,2.15,4.37,2.57,5.84.9,3.07,2,6.1,2.78,9.2,1.47,5.83,2.63,11.45,4.74,17.11a77.3,77.3,0,0,1,2.44,8.43c.68,2.73.82,7.31,2.41,9.63.76,1.11,4.93.07,6.05-.12,1.89-.33-.41-5.53-.68-6.49,1.27,1.14,1.18,5.95,3.31,5.86,5.19-.23,1.08-7.64.22-10.42-3.54-11.47-7.68-22.74-11.29-34.18-1.69-5.35-3.15-10.76-5-16-.74-2.07-.64-4.37-1.6-6.37-1.18-2.46-1.65-2-1.79-4.88-.24-5-2.92-10.77-4.45-15.55-1.67-5.24-3.35-10.44-4.77-15.75-2.95-11-6.05-22-9.15-33-.75-2.69-1.52-5.37-2.28-8-.41-1.42-3,2-3.21,2.29-3.13,4-1.28,9.56.29,13.74,4.07,10.88,6.14,22,9.15,33.13.45,1.67.55,4.53,2.67,5,1.63.35-.09,3.52,0,4.14,1,5.12,2.41,10.18,3.56,15.28-.46.09-4.13-13.77-4.55-15.23ZM180.76,202.9c2.91-.48,3.21.17,2.2-3.14s-2.09-6.75-3.09-10.14c-2-6.88-3.77-13.83-5.69-20.74-1.86-6.73-3.89-13.42-5.9-20.11l-3-10c-.92-3.06-2.39-2.43-5.41-2.74l1.48,1.13c-2.24,1,.55,5.31,1.44,6.25-1.51.11-1,.54-1,1.85l1.86-.34-3,2.19c3,.16,2.64.91,3.33,3.85-1.74.28-3.87-.65-5.73-.53-2.55.16-5.09.54-7.63.87-.12-1.09,10.46-1.73,12.16-1.92-1-2.79-5.53.18-5.66-1.75.64-.18,6.76-3,3.28-3.86-.93-.24-8.91.73-8.61-.58.17-.79,7.81-.07,8.86,0-.22-1.32-.43-2.65-.66-4-.36-2.15-1.32-1.59-3.29-1.56-2.6,0-6.18,1.54-8.27,0l10.89-.75c-.14-1.71-6.09-2.4-7.22-2.6-2-.37-9.56-2.11-9.64.52-2.5-2-8-.81-10.32,1.45-3.25,3.22-3.63,8.29-5,12.44a139.86,139.86,0,0,1-5.12,13.88,15.18,15.18,0,0,1-4.53,5.22c-1.41,1.14-5.15,1.7-5.24,3.06-5.18-3.56-13.27-4-18,.46-4.5,4.21-4.6,10-7.09,15.23-2.63,5.5-10.7,2.26-13.82,7.12a9.85,9.85,0,0,0-1.07,6.45c.31,3.15.24,4.38,2.74,6.26-2.23.27-1.43,2.76-1.35,4.42.16,3.46-.55,6.49,3.64,5.65-.6,1.9-3.16.5-3.68,3.25s-1.82,6.35.09,8.43H72c.91,3.16,1.27,6,3.58,8.57s5.21,3.4,8,5.12c6.32,3.82,4.12,12.61,5,18.61.32,2.18,0,4.38.21,6.62.35,3.29,3,6,5.52,7.93,5,3.91,11.59,4.41,16.33,8.48l-8.44-29.3c1.54.23,3.13,8.76,3.59,10.3q2,6.6,4,13.2c.86,2.86,1.41,6.7,5,7.26,1.83.29,4.35,5.53,5.9,6.88L119.57,288a26.17,26.17,0,0,0,5.29,10.09c1.36,1.68,4.19,5.7,5.93,5.77-.64,1.23,4.3,3.21,5.53,3.89l7.41,4.12.18-1.3c2.3,2.64,6.43,3.53,10,3.68,3.06.12.12-6.31-.24-7.64q-.93-3.42-1.89-6.83c-.21-.74-1.69-3.4-1.4-3.86,1.07-1.7-2.18-8.86-2.72-10.75,2.07-.05,7,23.12,7.93,26.33.68,2.32.9,2.4,3.1,1.35q4-1.92,8-4c2.1-1.08-1.07-10-1.5-12.08.82-.17,2.94,8.78,3.3,10,5.94-5.8,11.79-11.66,18-17.18,1.95-1.74.85-3.85.2-6.05-.58-2-1.17-4-1.7-6s-1.63-1.43-3.15-2c.31-.91,4.87-.49,5.92-.51-.27,1.19-1.27.21-2,.9-.88.84.71,4,.94,4.94.85,3.33.39,5.34,3.92,5.65-.47.74-1.39.89-2.17,1.21.55,1.18,3.12-.12,2.81-1.09,2.47.33,5.35-.56,7.83-.88-.59-2.07-.35-2.41-2.5-2.35.44-.85,1.34-.76,1.7-1.54s-.22-2-.3-2.82c-.27-2.73-4.1-.88-1.1-4a4.29,4.29,0,0,0-3.15-.13c1.1-2,4.1-3.8,1.18-6.45-1.14-1-5.29-.27-6.78-.25-2.44,0-4.88,0-7.31,0,0-1.84,12.16.31,12.19-1l-1.6-.41c1.28-.79,3.49-.74,3.26-2.42-.28-2.14-3.32-.77-5-1.29.84-.43,7.36-2.87,3-4.2-2.82-.87-7.76.68-10.69,1,3-.8,7.8-.71,10.33-2.45.85-.59.15-2.74-.78-3.06-1.42-.49-2.94.42-4.43.07,1.53-.83,5,0,4.81-2.15-1.61.46-2.4.94-3.88.18,2.18-1.9,7.12-1.73,9.95-2.19l-1-3.33c-.64-2.23-1-1.67-3-1.79,0-.57,2-.35,2.45-.36-1.21-4.22-.86-7.13-5.81-6.65-2.35.22-9.9,2.56-10.92-.21l14.41-.74c-.56-1.93-1.11-3.86-1.67-5.78-.67-2.33-3.52-.62-5.55-.17l-6.79,1.52-3.38.76c-.34-1.49,1.64-1.35,2.76-1.58,2.4-.49,10.5-.84,11.84-2.91.76-1.18-.44-3.56-.82-4.74-.82-2.49-2-2.13-4.37-2,1.52-1.82,4.19-.1,2.77-3.19-.87-1.89-5.19-2-2.52-4.59,1.6-1.53-.91-6.88-1.53-9a4.41,4.41,0,0,0-1.18-2.22C182.85,202.76,181.15,203.51,180.76,202.9Zm95.38-57.85c2.19-.05,4.63-2.26,6.51-3.33a9.67,9.67,0,0,0,4.59-6.95c.45-2.94-.79-5.45-1.49-8.23-1-3.79-1.67-7.77-3.2-11.39-2.14-5-4.77-10.61-1.51-15.84.72-1.16,4.27-3.4,4.17-4.74-.3-3.63-2.39-7.57-3.59-11-4.9-14-8.95-28.51-12.6-42.93-.37-1.43-.93-7-3-6.08-3.07,1.4-2.39,2.2-1.61,5.65,1.7,7.49,3.52,14.93,5.64,22.31A87.85,87.85,0,0,1,265.91,49c-.37-1.49-2.48-12.86-4.25-12.06-3.28,1.49-7.33,2.83-10.24,5-2.23,1.64,2,10.3,2.68,12.48,6.2,19.95,10.31,40.62,15,61-3.35-6.76-4.24-15.78-6-23.11-2-8.27-3.74-16.63-5.85-24.88-2-8-4.5-15.86-7-23.7-.52-1.62-8.68,3.9-9.75,4.51-3.74,2.13-7.61,4-11.4,6.07q-23.27,12.49-47,24.1c-1.31.64-9,3.3-8.41,5.18,1.37,4.32,2.83,8.55,4.43,12.79,3.06,8.16,4.15,17,5.94,25.48,2.08-1.82,8-5.33,7.17-8l-3.06-10.64c2.1,2.61,2.68,7.58,3.73,10.77.47,1.43,2.32,1.1,3.49,1.16a10.8,10.8,0,0,1,6,2c7.34,5,6.67,16,7.38,23.94.68,7.53,3.24,17.25,12,19a11.15,11.15,0,0,0,5.07-.25c1.36-.37-.78-5.25-1-6q-2-6.76-4-13.54c2.32.36,4.63,13.25,5.32,15.61.94,3.24.56,3.43,4,2.8,2.24-.4.3-4.31,0-5.5.66,1.1,1.14,4,2.27,4.61s4.53-1,6.1-.81a89.54,89.54,0,0,1,14,3.2l-3-10.31c1.65.06,2.56,6.59,2.93,8,1,3.7,4.14,2.78,7.23,2.47,1.49-.15,5.44-.15,6.34-1.77s-1.11-5.67-1.59-7.33c.44-.13,2.43,5.84,2.7,6.56A48.11,48.11,0,0,1,276.14,145.05ZM85.52,250.52c-1.78-2.8-1.93-6.42-5.3-8-2.92-1.35-5.65-3.57-9.07-2.59l3.93-.44c-1.74-2.6-3.49-4.84-4.31-7.93-.57-2.12.07-3.05-2.43-2.64-.72.12-4.89,1.1-5,.51L65,229l-1.7-.38c2.24-.54,6.87.18,7.5-2.93.52-2.56,1-4.93,1.37-7.67q-3.18.36-6.37.58c-1.62.11-5.44-.31-6.72.72-.76.61.53,4.88,1.62,4.9a63.85,63.85,0,0,0,7.42-.74c.08.75-7,1.62-8.09,1.81.37.81,1.13,3.63,2.06,3.27-.26,1.08.06.86,1,1.25-2.44.88-.89,3.78,1.11,4.47a3.66,3.66,0,0,0,0-2.72c.66,3.7,3.4,2.36,6.06,2.37-1.64,1.6-5.2-.45-4.11,3.36A6.34,6.34,0,0,0,63.76,235c-.56,2.73.82,4.86,1.71,7.35.82,2.28.43,5.32,3.59,5.66-1.48,1.52-.44,6.59,1.37,7.89a1.57,1.57,0,0,0,.33-1.6c.88.2,1.38,2.68,2.32,1.18l8.15-.72c-1,.3-7,.54-6.91,2.17.27,4.34,1.08,5.57,5.31,4.75,5.14-1-3.7,1.8-3.59,2.35.17.8.6,4.32,1.66,4.34,1.49,0,3-.21,4.52-.32,0,.87-4,1.07-4.9,1.22-.07,1.46,2.83,1,4.07,1.05l-3.42,1c.41,2.64,2.68-.12,3.52,1.42-2.88.36-3,1.66-2.24,4.29.9,3.07,4.3,1.46,6.86,1.13-4.23,1.57-6.26.44-4.78,5.57-1.6.45-.57-2.88-2.31-3.4-2.28-.68-1.41,2.31-.71,3.51.89,1.52,2.87.13,3.49,1.17,1.13,1.92,2.4,1.31,4.77,1.15-1.18.55-3.23.21-4.2.88-.5.35.14,2.57.2,3.12-.54.07-2.51-3.41-1.19-4.14-2.62-1.78-1.89,1-1.38,2.75.65,2.27.45,3.88.78,6.15.38,2.66,1.14,3.64,4,3.4.95-.08,2.74,0,3.45-.76s3.19.09,4.23.25c-2.38.55-2.61,1.49-2.21,3.58.47,2.42,4.55,1.05,6.22.9.09,1-4.15,1.26-5.12,1.44.62,1.81,1,4.47,2,6.08.87,1.39,5.73-.05,7-.2-1.88.72-3.79.6-5.7,1.05s0,4.12.31,5.17c.86,2.9,1.69,5.81,2.51,8.72.51,1.85,1,1.06,2.49,1.36-1.89,1.37-1.46,1.74-.8,4a50.14,50.14,0,0,1,1.51,5.75c-.65-.68-.8-1.72-1.55-2.31-.93-.73-3.66.19-4.72.4-1.91.38,1.41,6.27,2.43,6.91L96.28,338a39.1,39.1,0,0,1,2.93,5.68c1.11,2.46,2,2.22,4.51,1.94.09.72-3,1-3.69,1.09,2.08,5,2.54,4.71,7.88,4.2-.33,1.11-4,1.33-5.16,2,2.78,3.21,3.35,2.34,7.5,2,5.33-.45,10.66-.84,16-1.24,10.7-.8,21.4-1.49,32.07-2.78,19.42-2.35,39-3.47,58.35-6.42-1.21-2.11-1-3.11-1.53-5.4-.29-1.2-6,.44-6.7.57.56-1.7,6.47-1.37,6.14-2.58-.62-2.24-.43-3.7-3-3.37l-6.9.88c2.59-1.19,5.64-1.4,8.37-2.16-1.51-1.83.35-5.28-3-5.69,1.07-1.3.9-5.33-1-6.16-2.19-1-6.46,1.05-8-.94l8.09.14c-.23-1-.77-6.56-2.26-6.47a98.88,98.88,0,0,0-10.85,1.33L199,329.72c-2.06-.78-2.9-10.38-3.38-12.53q-.94-4.17-1.82-8.36c-.48-2.27-2-1.74-3.85-1.9.56-.34,2.94-.35,2.87-1.2s-3.2-.2-3.76-.14c.65-.73,2.5-1.15,3.36-1.59a10.09,10.09,0,0,0-5.2-1.11c0-1.91,4.88.58,3.91-3-.89-3.25-1.27-2.32-4.35-1.43-.33-1.13,1.33-1.15,2.19-1.7,1.05-.68.23-3.55,0-4.5-.67-2.85-7.67,4.34-8.28,4.94l7.71-1c-3.53,1.77-7.5,1.05-10.65,3.78-2.62,2.27-6.45,5.47-8.19,8.5-1.33,2.29,2.13,9.72,2.86,12.15.65,2.18.57,2.27,2.82,1.89,2.62-.45,5.23-.93,7.85-1.35.09.82-8.34,2.13-9.6,2.39.92,3.21,1.47,7,3,10,1.11,2.22,6.66.59,8.51.46.06.92-6.76,1.19-7.95,1.32,1.31,4.56,1.22,6.11,6.24,5.47,4.18-.54,8.34-.87,12.53-1.18-3.3,1-6.93,1.09-10.34,1.52-1.65.2-3.3.41-5,.6s-.87,1.44-1,2.56c-2.18-2.2-2-2.41-5.45-2.07-3.74.37-7.47.83-11.21,1.24,3.13-2.62,15.89,1.13,14.21-5.1-1.08-4-4.78-2.77-8.11-2.57-4.33.25-8.66.54-13,.72.53-1.42,8-1,9.51-1.13,2.11-.15,8.81.52,9.9-1.53.82-1.54-1.67-7-2.38-8.58-1.19-2.59-7.72,0-10,.39-.07-.58,8-2.51,9-2.8l-3.65-12.69-7.2,4.05-4.27,2.4.81,3.48c-.87-1.39-.66-4.08-2.82-4.13-3-.06-6-.5-9-.79q1.63,5.7,3.28,11.39c-1.58.44-2.56-10.4-5-11.76-1.95-1.09-4.45-1.44-6.5-2.42-.65-.31-6.83-2.51-6.61-1.59l2.14-.62L125,303.07c1.77,6.17,3.62,12.28,5.67,18.36,1.57,4.66,2.57,14.44,7.23,16.6-.81,1-3.42.65-4.66.72,1.36-2.36,2.5,0,1.26-3.81q-1.34-4.08-2.65-8.16c-1.66-5.17-3-10.64-5.41-15.49,1.52-.76-.51-3.71-1.06-5.11a68.83,68.83,0,0,0-3.38-7.61c-2.23-4.08-4.66-8.06-8.62-10.67,1.07,3.2,2.22,6.37,3.21,9.59s2,1.38,4.2,2.42c-3.88,0-2.26,2-2.32,4.43-1.51-1,.09-4.46-2.68-3.82,1.23-3.29-1.3-7.84-2.43-11.11-1.29-3.72-2.91-3.12-6.07-4l2.45-.43c-5.28-3.1-11.74-4.16-17.31-7a8.92,8.92,0,0,1-4.74-6.81c-.52-3.57-5.55-.06-5.8-1.34l2.62-.45c2.12-.36,2.82.32,2.44-2.16s.22-4.69-2.39-5l1.87-.41c-.91-1.12,0-13.21-1.07-13.18Zm188.67,68.67c2.81,0,6.12-2.57,8.66-3.8,4.07-2,8.14-3.94,12.19-5.95,7.58-3.77,15-7.83,22.58-11.57l-.66.88c3.57-1.62,7.34-4.3,10.82-6.28a142.8,142.8,0,0,0,13.1-8.05c2.77-2-.36-7-1.23-9.89-1.49-4.88-3-9.77-4.49-14.64-1.35-4.35-2.71-8.69-3.94-13.08-.25-.9-.49-3.31-1.91-3.34-.7,0-3.05.65-2.79,1.72,2.37,9.7,5,19.26,6.68,29.11-1.69-2.18-1.83-5.42-2.35-8-.64-3.27-1.29-6.54-2.1-9.77s-1.77-6.59-2.68-9.88c-1-3.6-4-1.75-7.14-1.29l7.17,29.36c-2.41-1.11-2.83-8.68-3.41-11.08q-1.62-6.66-3.57-13.23c-1.53-5.18-2.85-4.83-7.93-3.81-4.82,1-6.1,1.08-5.27,6.05-.64.15-1.36-3.53-1.55-4.21-11.12,6.17-19.61,17.27-24.37,28.8l-.8-1c-4.06,9.47-9.87,18.31-15.26,27.08-2.44,4-5.67,5.43-9.12,8.41a39.33,39.33,0,0,1-4.73,3.7c-1.61,1-.42,2.66-.35,4.2-1-.81-.54-3.16-2.18-3.11-2.26.07-4.79,1.54-7,2.13-5.51,1.5-9.75.14-15-1.51l.92,2.72c-2.75-3.54-6.31-6-9.93-8.53.75,3.27,8.21,31.62,10.17,31.07,4.92-1.38,9.9-4.82,14.45-7.13,2.18-1.1,4.56-2.87,6.92-3.48,1.79-.47,4.1-.41,3.93-2.93,3.24,1.29,8.12-2.39,11.15-3.83,3.66-1.75,7.86-3.19,11-5.83ZM261.23,29c1-.21.88,5.11,3.16,3.86,2.83-1.55,2.08-2.71,1.34-5.84-.59-2.48-.68-6-1.92-8.2-.94-1.7-5.88,1.8-6.89,2.32C243.09,28.27,229.36,35.62,215.68,43,202.83,50,189.94,56.68,177,63.46c-6.47,3.4-12.9,6.9-19.36,10.33-3.37,1.8-12.1,4.22-6.8,8.47-2.19.83-.08,4.2.39,6.22s2,2.32,3.57,1.16-.22-4.9-.45-6.45c-.31-2.15.25-1.85.72.18l1.19,5.12c5.07-1.46,10.14-4.44,14.9-6.7a5.6,5.6,0,0,0,1.5-1.88c-1-.86-2.62.67-3.64,1.19L159.6,86c-.6-1.18,3.24-2.41,4.31-3l7.71-3.91L177.78,76c1.41-.72,5.8-3.82,6.57-2.37l-11.44,5.55.73,1.51c5.32-3.21,11.12-5.51,16.64-8.37,6.91-3.57,13.8-7.18,20.74-10.69s13.62-7,20.32-10.66c6-3.3,12.73-6.28,18.11-10.47-.54-.78-4.1,1.59-5,2-.39-.77,10-6.92,10.49-6.24l-5.27,3.48c1.36,1.29,8.88-3.48,10.55-4.46,2.36-1.38,1.27-4,1-6.28ZM10.14,96.59c1.2.55,1.93,2.27,3.39,2.23s4.66-.28,5.11-2.08c1.76,1.51.9,1.39,1.29,3.33s1.62,2.81,3.61,2.3c-1.95.79-3.89,1.87-2.17,4.45,1.17,1.76.93,3.33,1,5.54-.34-1.18-.49-2.91-1.44-3.8-.67-.62-5.17.61-5.09,1.08.23,1.46.27,3,.39,4.47-1.09.23-1.57-3.49-2.17-4.53-.81,1.12-.87.82-.33,2.41.7,2.05.3,2.67,2.67,2.51l10.16-.72c-.71-2.46-1.67-5-2.24-7.44-.65-2.85,2.67-2.66,4.62-3,6.73-1.25,13.52-1.71,20.27-2.89L48,94.13c.71-.18,1.63,4.05,1.7,4.74.26,2.49,2.06,1.47,4.1,1.21,5.44-.69,10.89-1.43,16.36-2,3.34-.32,29.49-.94,29.57-3.12,5.93,1.12,12.78-.27,18.78-.71,3.45-.25,6.89-.52,10.34-.8s2.25-1.49.16-3.06c3-.87.38-2.51-1.17-3.63l1.63-.77c-.37-1.35-6.21,1.28-6.35-.22l4.44-.42c1.9-.18,1.4-.27,1.43-1.86,4,1,7.88-1.77,11.89-1-1.71.29-10.49,1.08-10.36,2.54,3,1.78,6.37,0,9.57.36l-5.82,1.07c-3.1.56-3,.43-3,3.58l10.24-1.16c-2.94,1.16-5.77,1.46-8.9,2.32-.89.24-.56,1.93.25,1.84q4.08-.43,8.15-1c1.11-.14,4.66,0,5.3-1s-.42-4.32-1.24-5.17c-1.4-1.46,1-4.67-2.65-3.67,1.57-.71,1.86-.84,3.46-.2-1,1.5-.38,4,.67,5.33s-.22,4,2.29,3.48c2.84-.55.16-5.29-.37-6.89l-1.68-5-6,1c.08.71,1.93.63,2.5.72l-13.85,1.57q1.56-1.94-1.1-1c-1.68.14-3.36.28-5,.4-2.48.18-5,.23-7.46.39-5.8.35-11.6,1.14-17.36,1.84-11.34,1.38-22.68,2.71-34,4.31S41.79,90.83,30.4,91.34c-5.66.25-11.3.9-16.95,1.45-.93.1-8.08.76-4,2,2.46.73,5-.47,7.49.34l-8.09,1c.72,2.5,1.78,10,4,11.24s.29-2.39,0-3.12Zm207.5,252.6c-5.18-.58-11.77,2.19-16.69,3.62,2.05-2.26,5.34-2.24,8.29-2.81.94-.18,7.93-.87,8.13-1.72.81-3.42-10.82.56-12.45.94-2.41.57-3.09-.87-5.26-.49-2.68.47-5.44,1-8.16,1.19-7.35.54-14.7,1.15-22.06,1.71-13.39,1-26.77,2.71-40.13,4-6.65.66-13.28,1.41-19.92,2.11-1.74.18-8.34,0-7.93,1.93s3.18.71,4.52,1.18c-3.82.6-7.62,1.27-11.44,1.89-4.66.76-5.07.23-3.76,4.81-1.92-1.25-.82-4.76-4.09-3.75l1.09,3.76c.62,2.18,1.81,1.27,3.82,1.12,1.32-.09,8.59-.1,8.57-1.12l-7.25-.09c0-1.13,30.84-2.69,34.12-2.94-.46,2.67-14.19,1.55-16.6,1.82-2.79.31-5.52,1.48-8.31,1.94-3.28.54-6.58.95-9.88,1.38-1.25.16-3.71-.4-3.28,1.46.21.94,1.1.94,1.87.77a87.92,87.92,0,0,1,10.34-1.64c7.45-.73,14.9-1.44,22.39-1.45a301.36,301.36,0,0,0,43-3.54c13.84-2,27.59-3.85,41.49-5.43-1.78-1.11-4.23-.81-6.22-.86,7.63-3.23,16-3,24.09-2.67-5.45,2.07-12.62-1-17.06,3.6l11.92-1.1,6.65-.61c3.56-.33.88-1.43-.7-2.21,2.25-1,.54-3-.15-5-1-2.82-.8-2.92-3.77-2.65-1.11.1-3.49-.12-3.68,1.5-.26,2.3.67,2.2,2.53,2.23,0,.85-11.13,1.67-12.6,1.85.12.87,7,.09,8.15,0,.06.87-12.37,1.71-14.08,1.88,3-2.33,5.55-2.89,9.26-3.17C215.14,352.47,218.72,352.92,217.64,349.19Zm11,2.78c1.58-.49.33,6.75,3.77,4.69,4.79-2.88,9.43-6,14.43-8.5,9.94-5,19.58-10.49,29.39-15.75,9.64-5.17,19.55-9.42,29.43-14.08s19.62-10.28,29.36-15.54c2.53-1.37,5.08-2.68,7.63-4s3.85-1.34,3-4.36c-.39-1.43-1-6.41-2.41-7-1.23-.56-5.11,2.71-6.23,3.41-9.22,5.76-18.84,10.67-28.23,16.12a55.53,55.53,0,0,1-7,3.86c-1.8.72-2.85-.87-4.85.08-4.85,2.3-9.68,4.67-14.52,7-9.88,4.73-20.22,9.13-29.69,14.58-.61-.86-14.13,6.64-16.21,7.68-2.52,1.27-5,2.63-7.51,3.88C225.44,345.75,227.66,348.73,228.59,352ZM158.46,114.46q2.22,6.39,4.46,12.78,1.08,3.11,2.18,6.2c.5,1.42,4,.07,4.91-.17,4-1,8.53-4.77,11.28-7.74,3.28-3.55,1.38-8,.54-12.13-2-9.85-4.33-19.82-8.37-29.08-1.24-2.84-9.66,2.74-11.63,3.67-4.13,1.94-4.94,2.07-4.36,6.39l-1.88-3.09c-2.93,2.8-2.94,4.08,1,5.12h-2.91c1.61,5.59,3.17,11.19,4.93,16.74.32,1,3.27,1,2.76-.93-.66-2.55-1.43-5.07-2.16-7.6,1.12-.32,1.6,3.41,1.9,4.44.85,3,.47,4.66,3.72,4.81C164.59,114.9,159.39,114.43,158.46,114.46ZM33.29,183.54c1.14-.31-1.71-7.41-1.86-8.86,2,1,4.45.08,6.61-.17,1.33-.16,4.54.36,5.59-.72s-.22-4.26-.68-5.19c-.85-1.72-3.65-1-5.1-.93,0-.74,2.22-.72,2.81-.82,2.53-.43,1.09-2,.47-4-.9-2.93-1.48-7.82-3.42-10.22-.6-.74-1.35-.27-1.79.34,1.23,1.23,1.39,3,1.57,4.63a6.81,6.81,0,0,0,.94,3.32c1.1,1.53.52,2.59.18,4.54-.43-2.23-1.15-4.43-3.63-2.47-1.55-4-4.47-8.65-4.16-12.52.6,2.82,2.33,1.43,4.28,1.56-.28-1.56.1-1.47-1.71-1.85,2.44-1.36-2.07-16.43-2.7-18.69-.7-2.56-1.42-7.63-3.33-9.2-1.16-1-8.74.07-9.81,1.09-.57.54.35,2.66.53,3.27.59,2,.73,1.43,2.46,1.3-1.19,2.46,1.05,1.09,2.73.9l5-.59c.19,2.22-9.41.21-9.13,3.33s2.65,3.58,5.27,2.75c-2.75,1.48-4.27,1.5-3.29,5.07.35,1.29.8,2.52,1.26,3.77,1.41-.46-.35-4-.71-5.23,1.36.44,1.54,1.76,1.75,3,.27,1.5,1.63,1.33,1.93,2.38-2.5.06-1.23,1.27-.67,3.14a28.59,28.59,0,0,1,1,3.62,3.57,3.57,0,0,0,1.14,2.5c.94.65,2.42-.25,3,.5l-5,1.06Q29.06,168.83,33.29,183.54ZM192.22,303c1.63,1.24,3.06,1.3,1.28,2.93,5,1.24,11.88-1,17.08-1.26-1,1.68-9.19,1.45-11.12,1.65-3.39.34-5.75-.25-4.86,3.72,1.26,5.63,8.6,2.74,12.86,2.34l-1.76-6.12c1.17-.32,1.58,3.77,2.3,4.88,1.31,2,3.33.5,5.11,1.36-2.71,1.65-5.13-.47-3.75,4,1.09,3.54,2.65,2.82,5.79,2.9-1.24.95-4.84-.21-4.26,2.46.22,1,.59,2.14.89,3.14.49,1.68,1.67.61,2.78,1.09-2.52,1.37-1.65,2.13-.77,4.84.82,2.53.4,5.75,3.26,7-1.06.73-1.24,2.8.26,3.33,1.29.45,2.68-.31,4,.1a27.9,27.9,0,0,1-3.4.64c-1.21.23-.23,2.16.41,2,5.59-1.26,5.11-2.18,3.51-7.25-2.7-8.56-5.11-17.22-8-25.72-1.83-5.39-5.06-16.84-12.23-15.41-2.13.42-9.76.35-9.9,3.1-.24,4.81,5.66,1.23,6.19,3.24ZM49.88,229.87c.75,2.15,1.51,4.3,2.26,6.46,1,2.82.83,4.68,3.91,5.14-.47.46-1.8.66-1.83,1.26-.08,1.45,1.24,3.92,1.65,5.33-4.45-4.46-2.68-14.54-7.83-18.32l8.52,29.59c2-.61-1.3-7-1.1-9.16,3.86,1.66,2.24,11.55,3,14.06,1.6-1.27.57.88,1.95.81s3.39-.81,5-1c1-.09,4.64.13,4.27-1.88a17.86,17.86,0,0,0-2.2-5.76c1.39-1.1-1.42-7.09-4-4.82-.64.57.93,3.41,1.21,4.14.68,1.73.88,1.54.9,3.91-.89-2.19-1.83-4.36-2.66-6.58-.71-1.91-2.16-1.36-3.89-1.46.1-.88,2.24-.65,3-.73-.58-2-2.86-.57-4.08-1.69a11,11,0,0,1,4-.33c-.54-1.87-.85-4.38-1.7-6.1-.73-1.51-2.79-.68-4.07-1,.23-.8,2.88-.6,3.68-.67-.54-3.1-1.59-6-2.35-9.09a5,5,0,0,0-.89-2.19c-.87-1-2.26.1-2.79-.68l2.65-.47c-1-4-4-2.25-7.27-1.5.07,3,2.62,1.27,4.34,2.15Zm43,111.76c.09-2.16.05-4.7-1.15-6.61-.84-1.35-3.77-.45-5-.37,0-.68,3.79-.9,4.49-1-.57-1.59-1.07-5.54-3.42-5.51-1.7,0-5.14-.12-6.68.54s-.48,3-.14,4c.85,2.6,2.87,1.87,5.1,1.87.05.75-3.72.55-4.49.59.4,1.64.64,6.33,2.35,7.1,1.91.85,5.26-.43,7.23-.76-2.31,1.08-8.44.89-6.75,4.16.47.91,1,2.84,2,2.68l5.67-.84c-1.21.58-6.37.93-6.37,2.67,0,2.57,1.83,6,2.63,8.43,1,3,1.28,4.29,4.64,3.88,2.75-.34,6-.2,7.77-2.41-2.71-1.5-3.74-2.34-7-1.55-1.57.38-4.63,1.87-4.15-.72,1.59.6,9.17.36,8.35-2.42-1.23-4.18-7.51-.71-10.86-1.8,1.25-.27,9.91-.81,9.51-2.11a19.23,19.23,0,0,0-.7-2.93c-.79-1.65-2.19-.37-3.28-1.06.89-.31,2.76-.45,2.52-1.83C94.93,344.55,94.34,341.34,92.88,341.63ZM68.47,288c-.9-3.17,9.92.18,7.67-5.49-1.64-4.15-8,.23-10.85-1.66,1.64-1.67,6.48-.51,8.74-1,1.8-.39,0-5.24-1-5.85-1.63-1-7.12.67-9,1.17-2.75.73.83,4.55-.54,5.08l-1.73-4.59c-1.15.33.34,3.75.61,4.81a127,127,0,0,0,3.94,12.37c.87-.35.06-2.87,0-3.66,1.5.43.6,2.67,1.92,3.3,1.14.53,9.1-.23,9.74-1.2.52-.79-.49-3.33-1.5-3.47A21.53,21.53,0,0,0,68.47,288ZM78,292.15c-1.82.23-8.22,0-9.37,1.38-1.32,1.58,1.76,8,2.29,9.68.77,2.48.79,7,2.58,8.93.7.76,2.91.13,3.78,0,1.44-.14,5,.22,5-1.42,3,1.83.3-3.86-.21-5.15s-6.91.55-8.15-.31c1.94-1.92,9,1.48,7.31-3-2-5.08-6-.73-9.93-2.57,2.28-1.38,5.08-.72,7.69-.77,1.72,0-.7-6-.94-6.85Zm-2.7,24.16.85-.27q1.75,6.09,3.5,12.18c1.72-.15,10.16.47,8.9-2.61s-.93-6.56-5.09-5.58c-.68.16-4.37,1.59-4.7.37-.4-1.48,3-.92,3.66-.95,3.73-.2,1.84-5.16-.26-6.8-1.14-.89-3.94,0-5.21.23-2.77.5-3.27,1-2.87,3.88.7,5.07,2.4,10.2,3.78,15.13C78.43,334,79,336,79.63,338.1c.78,2.66.5,4.49,3.36,4.93Zm21.87,9.8c.21-3-2-7.1-2.84-10s-1.26-5.65-4.92-4.9c-3.27.66-2.86,1-2,3.83.64,2.13,1,4.15,3.84,3.29-3.14,1.15-2,1.71-1.21,4.64.42,1.62.51,4.26,2.8,3.92-1.35,1.07-1,4-.08,5.17,1.36,1.84,4.56.77,6.44.78A47.66,47.66,0,0,0,98,327.7c-.64-1.87-3.33-.72-4.68-.47-.15-.87,3-1,3.85-1.12ZM321.31,151.27c.1.85-4.54.83-5.61,1.15-1.81.53-.06,2.2-.84,3-1.23-.68-2.95-2-4.44-2-2.41,0-.46,3.51.49,4.32s1.73-.35,2.44-.79c1.21-.76,2.69-.56,4.07-.64,1.88-.11,7.47.49,8.71-1,1.05-1.26-1-5.67-1.45-7.12-.88-3-4.3-.84-6.89-.23-1.61.38-5.92.71-4,3.27C314.78,152.55,319.86,151.38,321.31,151.27ZM296.61,35.63c-4.57.12-10.82-.27-14.95,1.84,1.65,1.65,3.18,1.22,5.46,1.2-1.84.61-5.43,0-4.85,2.67.39,1.74,4.75.73,6,.68,0,.66-3,.64-3.57.7-1.62-.43-2.18,0-1.68,1.27l3.35-.33,11.86-1.17c-.55-2.28-1.09-4.57-1.64-6.86ZM45.88,182c.55-.23-.25-8.34-2.79-7.43-3.06,1.1-7.35,1.08-10.64,1.64.74,2.16,1.45,4.33,2.26,6.46.5,1.32,4.52.19,5.49.1s4.85.31,4.61-1.36c-.19-1.28-2.88-5.62-1.61-6.13Zm288.88,71.42c.09,2.4,1.95,11.41,5.62,9.35-1.16-2.75-3.63-5.38.48-5.85,1.31-.15,3.7.17,4.78-.8s-.43-2,.28-2.71c.21,3.63,6.45,2.88,5.23-.66-.74-2.11-7.63-.27-9.44-.25,1-.41,3.1-.7,2.8-1.88ZM306.59,147.75c-1.13,1.06-2.13,2.19-3.8,1.39-.51,2.65,2,7.23,2.82,9.85.91,3.1,1.36,9.1,3.9,11.33a2.37,2.37,0,0,0,2.92,0c1.3-.78.58-1.23.3-2.5-.46-2-5.94-1.9-.87-3-.6-.55-2.07-.46-2.74-.54,3.05-2.76,1.55-4.07-1.77-5.2,2.29-.69,2.29-1.7,1.44-3.58s-3.65,0-4.1-1.91c4.18.23,2.65-3.27,1.9-5.88Zm-259,43.07c-.49-2.11-.62-5.91-2.4-7.42s-7.49.65-9.58,1c.75,2.62,1.5,5.23,2.26,7.85Zm25,80.75c.89-2.27-9-.27-10.71-1.11.72-.08,10.27-.86,10-1.87s-.89-3.84-2.35-3.73a34.13,34.13,0,0,0-6.43,1c-2.86.8-2.48.93-1.67,3.72.34,1.17.49,3.29,1.24,4.29.94,1.24,9.84-.16,10.51-1.14l-2.24-.42c0-.83.57-1.08,1.68-.73ZM300,134.69c-.11-2.43,7.14.33,7.3-2.43.35-6-5.4-2.93-8.88-2-2.2.6-.23,3.76.2,5,1,3,2.41,2.4,5.33,2.07,1.83-.2,5.29.07,3.63-2.61-1.05-1.71-5.85-.26-7.58-.1ZM191.44,296.75c2.76-1.65,5.57-1.53,8.76-1.77,4.91-.36,4.16-1.41.41-3.71-1.74-1.07-6-1.54-8.06-1.28a14.57,14.57,0,0,0-3.32,1.17ZM284.65,32.31c.21,1.16-3.49,0-3.72,1.58l5.19.32c-1.79.41-3.48,0-4.92,1.15,3.48,2.08,11.25-.12,15.17-.5-.72-4.13-1.38-4.57-5.54-4.18-1.38.13-9.95.51-9.88,1.59ZM210.57,294c-1.07-5.8-3.13-11.53-4.69-17.22-.38-1.41-.51-5-2.76-4.1-1.84.75,0,2.57,1.16,2.86-2.18,2.89.51,7.83,1.41,11.17S206.23,294.76,210.57,294Zm-194.84-176c.45-2.59,2.07.91,2.07,1.93,0,2.77,3.5.89,5,.46.18.69-1.4.89-1.92,1.08a27.68,27.68,0,0,0,5.61-.13c1.72-.19-.08-4.22-.31-5-1.06-3.63-8.12-.65-10.9-.07.16.58.33,1.15.49,1.72Zm29.15,83.86c.92-.21,5.21-.57,5.12-1.89-.15-2-1.73-2.47-3.44-2.1-2.28.49-8.87,1.39-4.45,4.5,0,1.36-.23,3.22,1.69,3.11s6.86.39,6.68-1.7c-.31-3.64-3.31-1.68-5.6-1.92Zm298.76,70.52c-.6-1.74-1.59-8.54-4.28-8.08-2,.34-.2,3.32.2,4.71q1.05,3.68,2.15,7.33c.58,1.95,1.19,3.91,1.85,5.84.6,1.77,4.4,1.12,2.79-1.54-1.24-2.05-1.36-1.22-1-3.34.32-1.95-1.16-2.75-2.54-3.63Zm59-242.94c-.44-2-1.5-12.12-5.82-8.73-1.62,1.28,1.33,4.66,3.1,4.32-3.8-.27-.65,4.45,0,6.27,1.07,2.88,1,6.52,4.62,5.25-2.33-2.35.62-6.72-4.35-6.79ZM200.49,257.58c-1.73-3.47-1.8-3.69-5.67-3.62,1.3-.78,2.59-.72,3.83-1.65-2-1.51-4.19-.53-6.59-.12l2.17,1.82c-1.87,1.81-.37,3.88,2.15,3.31a3.26,3.26,0,0,0-1.93,3c.27,2.69,3.25,1.27,5.1,1s2.25-2.27.39-2.91c-1.05-.36-2.2,0-3.26-.28ZM322.6,197.39c.81.94,4.23,1.29,5.09.29.7-.79-.92-3.13-1.39-3.73-1.25-1.58-2.51-.81-4.25-.34-2.74.74-7.31.84-4.95,4.45,1.34,2.06,5.43,2,5.51-.67Zm-14-54.95-5.62,1.21c.57-.28,7-2.33,6.72-2.93-1.4-2.63-1.62-3.39-4.88-2.69-1.1.23-5.25.14-5,2,.33,2.45,1.56,5.19,2.25,7.59.67-3,4-3.8,6.54-5.22ZM39.87,197.87c1.54-.16,9.52.12,9.12-2.26-.12-.74-.7-4.48-2-4.2-2.91.63-5.8,1.34-8.7,2Zm286.89,17.78c-.19-.67-1-5.21-2.42-4.67-2.34.89-2.41.86-1.52,3.67s2.31,13.49,6.05,8a5.54,5.54,0,0,0-2.45-.7c-.19-.8,1.43-1,2-1.27-1.48-2-.51-4.19-4-3.62Zm-20.6-88.21c-.41-1.4-.35-4.14-2.35-3.79-2.33.41-5.05.4-7.24,1.37-1.5.67,0,3.61.82,4.32,1.36,1.2,7.12-1.43,8.76-1.9ZM85.07,305.08c-2.18,5.13,2.62,6.75,6.62,5.54,1.41-.42.24-2.67,0-3.49-1.16-3.45-2.13-2.52-5.45-2.13l.77-.5C86.65,303.9,85.51,304.86,85.07,305.08Zm115.57-32.79-.56-2.66c.73,1.08,1.55,2.64,3.12,2.19,1.84-.51.38-4.33-.86-5.25-1.05-.78-5.09-.55-5.91.5s.41,4.75.62,6Zm113.12-84.91c1.17,4,1.64,8.5,6.78,5.67,1.07-.59-.71-4.06-1-4.82-1.1-3.07-3.26-1.58-5.8-.85Zm18.45,48.08c-1.34-2.06-.32-4.35-3.84-4,.67-.38,2.89-1.4,2.35-2.57-.1-.23-1.13-3.18-1.15-3.18-5.32-.73-1.75,5.44-.87,8.2.28.88,1.13,6.12,2.46,6.34,2.92.48,1.89-4.29-.94-4.08ZM304.75,123.09c-.23-1-.37-3.94-2.11-3.73-2.73.31-5.43.79-8.15,1.21.43,2.16-.15,3.65,2.37,3.38Zm8.75,63.22c2.05-.36,5.19,0,4.36-2.83-1.11-3.72-3-.45-4.52-2.81.27-.15,3.1-.59,3.07-.83-.14-1-.22-2.6-1.62-2.26-2.08.49-3.75.16-3.07,2.56.6,2.06,1.19,4.11,1.78,6.17Zm38.22,84.58c-.59,0-.74-2.31-1.56-2.06-2.05.61-4.05,1.39-6.06,2.13,1.25,2.26,1.31,2.07,4,1.4,2.05-.51,4.1-.91,6.15-1.38.14,0,2.29-.55,2.23-.77s-.47-2.66-1.07-2.69a9.28,9.28,0,0,0-3.76,1,21.19,21.19,0,0,0,.05,2.39ZM355.18,281c.61-4.13-7.64-1.83-7.66-1.91.44,1.67.55,4.62,2.75,4.41s4.55-.59,6.81-.9l-1.9-1.6Zm-6.94-19.46c-1.39-3.86-2-5.35-6.34-3.62-1.59.63-1.77,2.2-1.07,3.59,1.17,2.32,5.39.42,7.42,0ZM90.21,303c-.21-.73-.77-4.27-1.51-4.53-1.53-.52-4.61.51-6.21.72.8,5.58,2.73,4.66,7.73,3.81ZM319.64,185.94c.92,3.2.95,8.12,5.34,6.31,1.3-.53-.59-4.27-.87-5.07-.92-2.71-2-2-4.46-1.24ZM195.71,286.56l-.06.6c2.44,0,4.64,1.48,7.11,1.25,3.33-.31,1.86-1.75,1.65-4-.24-2.59-2.53-2-4.26-1.2-3.06,1.46,1.85,2.43,2.25,2.54A16.34,16.34,0,0,1,195.71,286.56ZM32,153.27c.74,2.15,1.5,4.3,2.34,6.41,1,2.46,3.53,2.72,2.85-.39C36.39,155.6,36.43,151.71,32,153.27Zm20.34,29c-1,.06-3.54-.26-3.17,1.57.26,1.28.6,5.55,2,6.07C55.7,191.65,52.77,184.19,52.34,182.32Zm263.39-5.65c-.64-1.69-1.4-6.7-4.06-5.12-1.63,1-2,.64-1.53,2.79l.75,3.3Zm38,84.35c-1.41.49-4.74.85-4.32,2.43s1,3,3,2.91l-1.78.72c1.33.88,3-.07,4.41-.57,1-.33-1.1-4.9-1.31-5.49Zm-6.57-4.2c.26,1.08.86,4.46,2.32,4.63s2.72-.64,4-1c-.31-.9-.57-1.81-.83-2.73-.86-3-3.05-1.67-5.49-.88Zm-4.23,10.07a28.2,28.2,0,0,0,5.57-.62c1.55-.47.55-4.08-.85-3.84-3.09.52-7,.61-4.73,4.46Zm-1.45-44.08c-1.34.24-12.59,1.82-10.47,4,.82.83,4.22-.05,5.28-.28a7.92,7.92,0,0,0,5.19-3.68ZM274.86,49.32c.56,2.56,7.07,2,8.13.18C285.22,45.64,276.07,48.42,274.86,49.32ZM14.11,104c.29.8.46,3.51,1.49,3.81,1.69.49,3.48-.12,5.17-.26-.22-1.06-.24-3.12-1-4s-4.66.28-5.67.41ZM273.35,40.58c-.08,1.05-.1,2.66,1.32,2.76,1.27.1,6-.35,6.91-1.27,3-3.17-7.43-1.58-8.23-1.49ZM35.13,186.73c.43-.15-2-3.15-1.1-1.92.11,3.35,1.52,6.63,2.49,9.82.72,2.34,1.14,6.78,3.33,8,.52-2-.73-4.13-1.38-6Q36.81,191.65,35.13,186.73Zm273.81-37.26c-.16-1,1.89-1.08,2.7-1.31-.25-1.17-.49-2.34-.74-3.52l-2.43,2.1,2.1-.07c-.55.71-2.73.66-2.9,1.59a3.55,3.55,0,0,0,1.3,3.58C312.45,154.29,314.63,148.93,308.94,149.47ZM85.54,351.73c-.05,0-1.65-1.76-2-2.07-.11,4,1.71,8.46,2.87,12.33.7,2.35,2-.23,1.53-1.9C87.16,357.29,86.34,354.51,85.54,351.73Zm117.23-86.24c-.25-.56-.87-3.44-1.68-3.49-2.11-.12-4.21.57-6.27.93.92,1.51.9,2.7,2.86,2.76C199.38,265.74,201.07,265.55,202.77,265.49Zm.64,16.06c-.48-1.69-.54-5-2.52-4.88-.66.05-1.75,0-2,.83C197.54,281.43,200.43,282.05,203.41,281.55ZM18.91,99.42c-2.26-1.84-8.48,1.5-4.71,3C17.16,103.68,19.78,102.88,18.91,99.42ZM280.43,35.94c-.76-1.69-4.56-.94-6.27-1,.86,4.18,1.25,4.62,5.83,3.92,1.39-.21.84-2.13-.51-2.2s-2.38.57-3.41-.28C277.16,35.45,279,35.92,280.43,35.94Zm8.9,55c-.92-3.2-.73-5.77-4.08-6.64-.31,2.53.38,8.08,4.08,6.64ZM39.65,203.21l2.29,8c.58,2,.35,4.89,2.7,4.22C44.47,212.53,42.27,204.23,39.65,203.21ZM72.34,259c-.72.24-1.29-1.88-1.55-2.43a18.17,18.17,0,0,0,1,5.76c.42,1.21,3,.92,2.81-.55-.12-1.06-.28-4.75-1.35-5.25C71.65,255.77,72.24,258.34,72.34,259Zm264-24.13-.64-4.75c-2,.9-3.93.81-3.5,3.48.29,1.83,2.87,1.36,4.14,1.27ZM62.87,241.38c-2.15,1.15-1.61,1.56-1,3.94.75,2.91.71,3,3.45,3.29Zm83.9-112.48c-1.93-1.89-7.91-.19-5,2.06,1.46,1.12,5.45.13,5-2.06ZM277.12,24.45a44.55,44.55,0,0,0-5.42.16c.72,3.1,3.9,2.82,6.21,1.75C277.65,25.72,277.39,25.08,277.12,24.45ZM225.77,347.53c-2.07-2.67-4.36-1.58-7.55-1.24.37,1.68-.12,2.17,1.81,1.94ZM286.23,79.46c-.46-1.17-1.48-5.08-3.13-2.89-1.51,2,1.63,5.57,3.13,2.89Zm71.33,201c-2.23,2.25.66,1.87,2.53,1.69-.49-2.77-1.25-4.39-4.32-2.81,1.05,1.18.7,1.13,1.78,1.11Zm-20.13-53.23c-1.05-.46-8.4,1.07-5.65,2.61,1.73,1,5.2-.75,5.65-2.62ZM75.78,273.74c.55,2.33.38,4.51,2.7,5.44C79.06,276.88,78.81,272.53,75.78,273.74ZM24.87,153.16c1.54-.92-1.32-9.27-2.93-10.16C22.49,146.36,22.92,150.35,24.87,153.16ZM76.53,268.91c-.49-1.72-.49-5.38-2.89-4.64-1.21.38-.25,2,0,2.9.61,1.83,1.21,1.43,2.84,1.74ZM34.48,142.15c1.24-1.64-2.77-11-3.4-13.16C29.56,130.5,33.11,140.74,34.48,142.15Zm238-113c.71,2.15,4.75.75,6.1-.26C276.85,27.19,274.39,27.79,272.5,29.19Zm71.3,240c.59.71,6-.3,6.29-1.39.44-1.71-6-.1-6.79,0,.83,1.63.46-.16,1.48.62ZM152.29,93.55c-1.12-.16-5.47-.87-3.63,1.79S151.81,95,152.29,93.55ZM84.18,348.76c.24-2.5-1.14-5-2.88-5.14C80.93,345.64,82.52,348.49,84.18,348.76ZM57.37,224.59c0-3.7-1.08-5.4-2.77-4.54C54.6,222.81,55.92,225,57.37,224.59ZM287.83,97.26c1.53-.28,10.75-1.44,10.58-2.6C295,95.18,290.44,95,287.83,97.26ZM208.06,295l3.46,5.11C212,295.89,210.69,294,208.06,295Zm-110,51.89c-.17,2.4,1.41,5,2.77,4.59C100.9,348.78,99.6,346.58,98.07,346.93Zm99.44-73.06c-.44,2.38,2.65,2.14,4.12,1.64-1-2.6-1.4-2.11-4.12-1.64ZM61.05,241.49c1.45-1.22,1.65-.77.92-2.83-.67-1.86-.4-3.25-2.58-2.95C59.94,237.63,60.5,239.56,61.05,241.49Zm38,105c.93-1.43-1.14-4.74-2.5-5.53A5,5,0,0,0,99,346.45ZM34.48,142.17c-1.09.88.74,6.38,1.76,7.39C37.05,147.48,35.93,143.83,34.48,142.17Zm298.86,97.42c1.84.37,1.91-2.22,2.46-3.76C332.93,235.87,333.49,236.79,333.34,239.59ZM283.48,71c-2.32.88-2.63,1.11-1.31,3.73.1.21,1.6-.08,1.6-.2A34.75,34.75,0,0,0,283.48,71Zm66.88,178.85c-.48-.6-4.52-.24-4.95.66-.94,2,4.28,0,4.95-.67Zm-247,106c-.6-3-1.92-4.11-3.39-2.88C100.75,354.27,100.8,356.44,103.31,355.88ZM269.91,20.8c-2.06-7.17-4.22.44,0,0C269.61,19.75,268,21,269.91,20.8ZM206.32,276.27c.49-.1-2.13-10.08-2.84-9.89Zm-3.36,13,3.4,3.53C206.84,289.49,205.62,288.22,203,289.22Zm-3.88-37.86,2.71,9.4c-.37-2.5-.33-8.21-2.7-9.39ZM59,230.27c-.45.08-.35-1.83-1-.49-1,1.81,1.21,4.24,2.67,4.77Zm136.72,9.23c-.4.09,2.63,10.31,3.88,11.24Q197.67,245.12,195.72,239.5Zm87.07,92.27c-.33-.63-11.53,5.25-11.15,6ZM157.94,131.29l-4.51.26c0,1.13,3.78,1.28,4.82,1.48C158.15,132.45,158,131.87,157.94,131.29ZM270.71,24.09c-.3.28-3.3,3.83-.55,3.39C271.79,27.21,270.88,25.29,270.71,24.09Zm3.64,14.78c-.43-1.49-.44-3-2.45-3,.56,2,.16,3.46,2.45,3ZM26.75,114.38c-.88.5,1.37,5.59,1.79,6.73C29.08,120.56,27,115.28,26.75,114.38ZM60,268.24c-1.38.49.8,5.24,1.37,6.35A29.32,29.32,0,0,0,60,268.23Zm213.6-234c.69,0,6.36.11,6.18-.81C279.58,32.27,274.42,33.62,273.64,34.27Zm10.22,47.4c1.19,3.07,5.19.81,0,0C284.19,82.53,285,81.86,283.86,81.67ZM85.48,318.22c.16,0-1.43-5.37-1.6-6C82.59,312.74,85,317,85.48,318.22ZM65.6,250.79l.27-1.16c-1.58-.27-2.07-.61-3.13.57Zm-7-21.77c-.14-.69-.16-3.16-1.18-3.32-2.07-.31.63,2.93,1.18,3.32Zm209-205.7c3.92.72,2.32-2.44,0,0C268.76,23.53,268.38,22.55,267.65,23.32Z"/><path class="b" d="M429.44,211.68c-.95.27-4.65.67-4.18,2.55.68,2.66,1.41,5.31,2.14,8,1.11,4,3,8.41,3.05,12.55-1.74-4.48-2.87-8.77-4.18-13.35-.65-2.27-1-5.36-2.08-7.42-.67-1.25-2.64-.43-3.71-.28,1.39-.63,3.6-.31,3.13-2.37-.57-2.43-1.1-7.28-2.74-9.19-1.25-1.46-6.37.33-7.82.57-2,.32-9.75,2.79-11.13,1.21l12.2-2c1.76-.29,12.1-2.58,12.29-1.39-.64.09-5.34.14-4.9,1.57.82,2.62,1.89,5.16,2.62,7.81C425.29,214.09,426.51,210.91,429.44,211.68Z"/><path class="b" d="M397.05,178l1.82-.23c-3,2.16.28,8.08.12,11.17-.68-2.39-1.25-8.51-3.13-10-.27-1.62-.23-4.1-.93-5.58-.58-1.23-2.37-.22-3.35-.46,2.47-.2,2.81-1.42,2.11-3.52-1-2.88-1-7.55-3.33-9.53,1.27-1.06,2-.44,1.82.92-.21,2.09,1.07,4.73,1.64,6.72.29,1,.58,2,.86,3,.68,2.33,1.44,1.35,3.54,1s4.57.16,4.51-2.37c1.26,2.42,3.21.68,5.18,1-1.12,1.49-3.74-.19-4.29,2.07-1.44-1.65-5.09-.24-6.9.22C394.55,173,396.7,176.81,397.05,178Z"/><path class="b" d="M414.32,181.12l-2.14-7.45c-.27-1-.27-3-1.47-3.35-.42-.12-1.44-.15-1.79-.54,3.13,0,1.05-4.2.56-5.81-1.37-4.41-1.48-4.83-5.89-5.4,3.93-.57,4.16-.64,3-4.45-1-3.17-1.74-6.46-3.5-9.29,1.54-.71-.16-3.74-.57-5.18-.23-.77-1.67-7.3-.4-4.06,1.14,2.9.62,9.08,4.75,9.21-4.71-.15,1.11,11.62,2.71,13.39-2.3.8,0,2.56.18,3.89.32,2,1,7.63,3.23,7.11C411.07,171.29,415.59,180.83,414.32,181.12Z"/><path class="b" d="M423.75,273.27c-.78-2-1.4-6.74-4.13-6.69-1.79,0-7.09,1.8-8-.17l9.23-.37c-1-3.57-2.62-7.3-3.14-11-.47-3.25-5.47-1.25-7.66-1.55,1.75-.31,3.52-.58,5.27-.93s1.43-1,1.31-2.74l2.32,2.83c-2.43,1.16,1.06,7.88,1.67,9.65,1.77,5.13,3.69,1.7,7.88,3.1-1,.16-5.83.15-6.14,1.45C422.05,268,424.68,272.81,423.75,273.27Z"/><path class="b" d="M409.35,230.32c2.59-1.57,1.35-3.82.51-6.49-.44-1.39-1.3-5.58-2.88-6.21,1.58-.93,0-3.79-.52-5.36-.83-2.46-2.51-2-4.76-1.33.76-1.91,4,0,4-2.69,1.72,2.6,4.37-.7,6.55.52-2.54.49-5.93.38-4.94,3.83.91,3.2,1.34,5,4.86,4-.52,1-2.56.69-2.8,2.07-.31,1.82,1.15,4.45,1.53,6.19,1.06,5,2.94,9.86,3.34,15C412.84,237.4,413.36,229.88,409.35,230.32Z"/><path class="b" d="M385.21,245.71c1.27-.23,9.31-.63,8.77-2.63-1-3.71-3.38-7-4.15-10.77,2.23,2.38,2.72,10.75,5.62,11.76,3.4,1.19,9.1-3.58,12.3-1.14l-12,1.56c.57,2,3.65,15.07,4.95,14.76l-1.13,1.09c-1.31-4.54-2.78-9-4.33-13.48s-6.66-.26-10.14-.57C385.14,246.1,385.17,245.9,385.21,245.71Z"/><path class="b" d="M425.66,168.08q1.89,6.58,3.69,13.2c.38,1.38.59,4.86,1.85,5.75,1,.74,2.47-.58,3.2.46l-2.9.54q1.72,6,3.47,12.05c-2.26-1.53-2.42-5.85-3.3-8.56-1-3.15-1.27-3.15-4.35-3.35.51-.8,2.08-.16,2.51-1.15.51-1.14-.7-3.61-1-4.64C428.43,180.73,425.09,168.2,425.66,168.08Z"/><path class="b" d="M373.22,29.23c-3.56.41-7.1.82-10.67,1.11-2.19.19-10.15,2-11.51.27,2.5-1.65,8.85-.88,11.88-1.09C364.48,29.41,373.11,28,373.22,29.23Z"/><path class="b" d="M384.42,37.53l-1.14.63c1.12,1.3,3.69,0,3.38-1.74-.37-2.1-2.45-5-1.48-6.48,1.15,1.7,1.16,3.42,1.67,5.4.73,2.82,1.81,1.57,3.51,3-3.15.53-7.49,2.33-10.19.41A9.77,9.77,0,0,1,384.42,37.53Z"/><path class="b" d="M386.53,268.56l10.87-.86c1.65-.13,9-1.4,9.11.07C404.16,267.93,386.64,269.71,386.53,268.56Z"/><path class="b" d="M330.56,78.2c2.39-.4,4.78-.89,7.19-1.1,2.67-.23,3.12-.22,4-2.51-.18,3.67,3.41.3,4.9,2-5.7.15-3.19,2.7-3.12,7.17-.36-1.68-.72-3.35-1.09-5-.56-2.61-1.34-1.58-3.64-1.25C337.54,77.7,330.78,79.15,330.56,78.2Z"/><path class="b" d="M426.29,196.2c-1.29-4.49-3.83-9.88-3.66-14.55C423.63,182.75,427,196,426.29,196.2Z"/><path class="b" d="M417.58,261.63l-15.66,3.19c-.31-1.58,5.29-1.83,6.84-2.11C410.06,262.48,417.47,260.72,417.58,261.63Z"/><path class="b" d="M395.29,42.82c-3.51.6-6.42,1.76-9.73.69C387,42.66,395.08,41.5,395.29,42.82Z"/><path class="b" d="M378.8,30.76l4.31.64-18.3,2C364.67,32.13,377.5,32.34,378.8,30.76Z"/><path class="b" d="M400.19,71.7l-6.6.74c-1.41.16-6.54,1.41-6.69,0C388.74,72.25,400,70.49,400.19,71.7Z"/><path class="b" d="M406.25,86.05c-1.35-1.77-1.29-2.93-3.71-2.55-1.13.18-4.76.36-4.51,1.62l-1.51-.67c1.84-2.22,8-1.82,10.89-2.19C405,82.64,405.13,84.29,406.25,86.05Z"/><path class="b" d="M416.46,101.06l-10.95.69c0-1.91,3.08-1.07,4.69-1.08C411.22,100.66,416.5,100.23,416.46,101.06Z"/><path class="b" d="M409.36,230.3c-2.19.5-10.55,3.59-12.34,1.93C400.16,231.32,406.22,229.21,409.36,230.3Z"/><path class="b" d="M401.77,49.42l-12,.86c.12-2.08,3.54-1,5.23-1.05C395.81,49.23,401.74,48.94,401.77,49.42Z"/><path class="b" d="M369.24,88.83l-3-12.83q1.83,6.34,3.65,12.67Z"/><path class="b" d="M294.21,85.81c1.6-.1,10.09-1.26,10.19,0C302.72,85.89,294.31,87.14,294.21,85.81Z"/><path class="b" d="M429.46,211.7c0-.43.08-2.66.09-3.07l1.89,6.56c.38,1.34,2.15,4.7.61,5.15C431.22,217.45,430.32,214.51,429.46,211.7Z"/><path class="b" d="M326.14,62.37c-.64-1.6-5.62-12.93-4.8-13.26C322,50.72,327,62,326.14,62.37Z"/><path class="b" d="M429.56,208.63a56.09,56.09,0,0,1-2.92-11c.33,2.14,1.91,2.22,3.64,1.62-.44,1.22-2.68.25-2.45,2.4S429.06,206.39,429.56,208.63Z"/><path class="b" d="M386,201.06l10.37-1.87c.19,1.07-8.75,2.16-10.27,2.44C386,201.44,386,201.25,386,201.06Z"/><path class="b" d="M408,72.19c-1.59.21-10.92,2-11.06.91C398.39,72.91,407.84,71.28,408,72.19Z"/><path class="b" d="M397.12,199c1.45-.29,9.68-2.42,9.9-1.4l-9.79,2Z"/><path class="b" d="M452.5,269.65l-8,1.47c-.22-1.27,6.45-1.83,7.9-2.09C452.43,269.24,452.47,269.44,452.5,269.65Z"/><path class="b" d="M372.31,276.42c1.48-.19,8.35-1.64,8.53-.38C379.39,276.22,372.54,277.64,372.31,276.42Z"/><path class="b" d="M397.71,61.14c-1.8.22-5.77,1.51-7.19.33C391.62,60.76,397.91,59.8,397.71,61.14Z"/><path class="b" d="M435.34,253.2c-.33-1.18-3-9.3-2.36-9.49C433.32,244.88,436,253,435.34,253.2Z"/><path class="b" d="M376.63,35.55c-1.55,0-6.86.76-6.85-.83C371.05,34.76,376.66,34.37,376.63,35.55Z"/><path class="b" d="M382.82,44.65c.36,1.27,3.16,9.73,2.44,9.94C384.9,53.32,382.05,44.93,382.82,44.65Z"/><path class="b" d="M333.58,40.59A14.07,14.07,0,0,0,327.2,40c1.83-1,5.12.45,5.48-2.49C333.77,38.82,334,38.94,333.58,40.59Z"/><path class="b" d="M438,243.62l5.9-.37c.09,1.42-4.49,1.06-5.84,1.16Z"/><path class="b" d="M313.29,71c.27.92,2.47,7.58,2,7.75C315,77.82,312.8,71.16,313.29,71Z"/><path class="b" d="M350,238.59l7.63-1.49C357.81,238.38,350,239.25,350,238.59Z"/><path class="b" d="M378.31,270.92l-6.7,1.13c-.2-1.28,5.27-1.53,6.6-1.75Z"/><path class="b" d="M377.13,34.77c1.19,0,8.27-.53,8.31.3C384.07,35.12,377.22,35.9,377.13,34.77Z"/><path class="b" d="M399.3,89.29c.34.73,4.39-.47,5.52,0l-6.17,1Z"/><path class="b" d="M396.82,117.74c1.25-.17,9.53-1.64,9.64-.91C405.08,117,397,118.68,396.82,117.74Z"/><path class="b" d="M441.73,186.81c-1.24.13-7,1.26-7.08.16C435.87,186.85,441.54,185.75,441.73,186.81Z"/><path class="b" d="M301.6,53.66l1.92,8.16c-.27.07-2.22-7.22-2.46-8Z"/><path class="b" d="M406.67,109.61c-12.31,1.41-.26-1.61,0,0C404.91,109.81,406.65,109.49,406.67,109.61Z"/><path class="b" d="M429.73,270c1.15-.11,6.07-1.1,6.2,0C434.64,270.07,429.89,271.25,429.73,270Z"/><path class="b" d="M350.78,71.55c-.3-1.27-2.58-9.15-1.77-9.36C349.27,63.35,351.47,71.31,350.78,71.55Z"/><path class="b" d="M423.74,228.12l-6.27.93c-.12-.9,5.17-1.37,6.22-1.55C423.7,227.71,423.72,227.91,423.74,228.12Z"/><path class="b" d="M447.9,260.52l5-.36c.1,1.29-3.77,1-4.94,1.13Z"/><path class="b" d="M401.64,196.81q-1.31-3.6-2.63-7.2C399.87,189.3,402.14,196.64,401.64,196.81Z"/><path class="b" d="M427.92,251.56c-1,.15-7.47,1.46-7.59.77C421.56,252.12,427.71,250.56,427.92,251.56Z"/><path class="b" d="M342.61,30.93l3.93-.25c0,1.65-2.55.93-3.94.95Z"/><path class="b" d="M359.23,248.18c-1.08.11-7,1.11-7.13.27C353.16,248.35,359.18,247.4,359.23,248.18Z"/><path class="b" d="M406.91,267l4.28-.54C411.35,267.72,407.13,268.24,406.91,267Z"/><path class="b" d="M402.65,95l4.29-.53c.15,1.33-3.07,1.13-4.23,1.3Z"/><path class="b" d="M394.45,78.93c1-.14,6.32-1.29,6.44-.48C399.85,78.6,394.58,79.79,394.45,78.93Z"/><path class="b" d="M414.37,108.64c-1.11.15-6.88,1.35-7,.44C408.47,108.94,414.26,107.75,414.37,108.64Z"/><path class="b" d="M237.39,197.23c.11.41.66,1.08.12,1.25l-.62-1.64a9.42,9.42,0,0,1-4.13,4.86c-.38-1-1.62-2.51-.39-3.11-.77-.52-1.39-2.68-1.89-2.6l.21,2.17c-3-5,6.77-3.51,4.56-7.35-1.47-2.55-1.86-6.42-2.68-9.25-.71-2.41-2.13-5.28-2-7.8,3.88,6.44,2,16.47,8.63,20.9Z"/><path class="b" d="M211.78,190.34q-2.39-8.26-4.76-16.52a2.1,2.1,0,0,1-3,.21,1.29,1.29,0,0,1-.17-.16c-1-1.41.14-2.65,1-3.74,1.92-2.45-2.66-10.12-.51-11.39l2,9.75c1-.74,4.54-3.58,4.55-.35,0,2.49-2.4,2.34-3.3,4.19-.76,1.58.91,4.66,1.35,6.11,1.17,3.9,2.24,7.82,3.37,11.73Z"/><path class="b" d="M201.36,182c5.42-1.39,4.79,5.45,3.69,8.9C203.17,189.75,197.16,183.08,201.36,182Z"/><path class="b" d="M204.51,219.22c-.25-.9-.51-1.79-.77-2.69,2.65-.6,11.8-3.14,8.87,2.6-1.07,2.11-7.1.66-9.09.53Z"/><path class="b" d="M222.5,214.81c-4.76-1.31-1.76-5.54,1.68-6.65,1.1-.36,5.34-.23,3.44,2A51.46,51.46,0,0,1,222.5,214.81Z"/><path class="b" d="M228.87,168.42c-3.73,3.09-7.5,1.57-9.81-2.41C223,164.9,225.7,165.9,228.87,168.42Z"/><path class="b" d="M281.32,163.33c4.53,1.68-5.14,8.92-6.1,8.11C272.55,169.19,279.61,163.85,281.32,163.33Z"/><path class="b" d="M234.09,181.11c-.71-1.54-2.74-4.29-.35-5.21s3.09,2.36,3.64,4c.18.54,1.29,4.37.05,4.77C235.34,185.39,233.24,181.46,234.09,181.11Z"/><path class="b" d="M215.28,194.27c1.58.44,4.6.58,5.47,2.23,1.49,2.8-2.73,2.1-4.3,1.75s-4.59-.53-4-2.91C212.84,193.89,214,194.16,215.28,194.27Z"/><path class="b" d="M263.49,182.64c-4.84-1.8.35-4.49,2.75-6.1,1.25-.84,2.62-1.29,2.74.8C269.08,179.13,264.75,181.6,263.49,182.64Z"/><path class="b" d="M253.86,185.68l-1.67.48,1.32,2.15c.11-1.1.53-1.58,1.25-1.44-1,3.21-5.81,4.79-8.75,3.93C247.2,188.05,250.68,185.4,253.86,185.68Z"/><path class="b" d="M317.11,219.06c-5-11.81-5.58-24.9-10-36.92,1.61-.41,2.13,5,2.51,6.54l2.49,10.13Z"/><path class="b" d="M242.6,260.18q4.2,16.1,8.39,32.19c-.87.22-4.48-14-5-15.79C245.46,274.48,241.3,260.57,242.6,260.18Z"/><path class="b" d="M189.27,196.86l4.54,13.69c.61,1.84,5.07,13.52,3.95,13.9l-4.56-13.69c-.76-2.28-1.51-4.56-2.27-6.85C190.5,202.63,188.08,197.26,189.27,196.86Z"/><path class="b" d="M286.39,223.91c.62,3,6.28,27.93,5.26,28.15C291.08,249.25,285.77,224,286.39,223.91Z"/><path class="b" d="M242.34,259.56q-3.65-12.69-7.3-25.36C235.84,234,242.89,259.41,242.34,259.56Z"/><path class="b" d="M275.92,230.62q2.54,10.92,5.08,21.83c-1.15.25-2.56-8.41-2.91-10S275,230.81,275.92,230.62Z"/><path class="b" d="M294,205.21q-2.82-9.83-5.65-19.64C288.9,185.42,294.8,204.93,294,205.21Z"/><path class="b" d="M264.94,272.54q-2.06-9.81-4.12-19.63c.83-.17,4.22,17.43,4.69,19.56Z"/><path class="b" d="M193.27,154.17,189,139.25C189.54,139.1,194,153.94,193.27,154.17Z"/><path class="b" d="M204.86,247.13l-4.56-15.84C201.2,231,205.71,246.89,204.86,247.13Z"/><path class="b" d="M246.3,209.63c-.51-1.76-4.92-15.88-4.24-16.08C242.57,195.31,247,209.42,246.3,209.63Z"/><path class="b" d="M209.18,262.92c-.48-1.67-4.56-14.66-3.86-14.86C205.8,249.73,209.88,262.71,209.18,262.92Z"/><path class="b" d="M234.54,229q-1.48-6.65-3-13.3C232.37,215.54,235.15,228.92,234.54,229Z"/><path class="b" d="M231.21,212.13l-3.36-11.69C228.51,200.33,231.2,212.13,231.21,212.13Z"/><path class="b" d="M229.55,234.9c.32,1.57,3,12.83,2.19,13C231.45,246.4,228.88,235,229.55,234.9Z"/><path class="b" d="M300.7,231,298,221.73C298.71,221.56,301,231,300.7,231Z"/><path class="b" d="M319.75,226.36l3.47,9C322.36,235.65,318.94,226.62,319.75,226.36Z"/><path class="b" d="M258.31,222.16c-.24-1.12-2.1-8-1.35-8.13C257.24,215.26,259.23,222,258.31,222.16Z"/><path class="b" d="M240.25,206.33c.36,1.24,2.56,7.06,1.5,7.34C241.58,212.9,239.92,206.43,240.25,206.33Z"/><path class="b" d="M271.21,208.8l-1.56-7.36C270.5,201.27,271.91,208.66,271.21,208.8Z"/><path class="b" d="M275.93,229.85l-2.1-7.26C275.48,222.18,276.11,229.82,275.93,229.85Z"/><path class="b" d="M186.67,187.55c-.25-.89-2.09-6.1-1.44-6.3C185.49,182.16,187.34,187.32,186.67,187.55Z"/><path class="b" d="M295.26,212.49c-.47-2.12-.95-4.23-1.42-6.35.46-.09,1.8,5.45,2,6.21Z"/><path class="b" d="M140.94,247.17l-1.87-.16c.18,3.93-4.47.14-6-.69-1.84-1-4.1,6-4.43,5.4-1.74-2.91,2.25-6.39.45-8.72-1-1.3-9.52-7.29-7.16-9,2.56-1.84,6.69,3.41,8.51,4.85.21.17,2.71-7,3.84-7.56,3.35-1.82.64,6.46.35,7.46C133.39,243,138.54,244.43,140.94,247.17Z"/><path class="b" d="M174.05,215.43,169,213c-1.34-.64-1.19-3.24.61-3.68,2-.49,4.82.89,6.95.82,1.24,0,4.51-1,5.43,0l-3.18.66c1.13.58-.3,3-.66,4.08.57-.05,4.33-.5,4.37-.21-3.38.62-8.68,2.7-12,2C171.57,215.74,172.67,215.72,174.05,215.43Z"/><path class="b" d="M162,244.33c-2.17-3.35-2.57-8.78-3.46-12.69-.3-1.35-.62-4.42-2.14-5.14s-3.16,1.13-4.68.53a31.74,31.74,0,0,1,5-1.31q-1.14-4.87-2.29-9.77c-.26-1.08-.34-2.84-1.21-3.66-1-1-2.56-1.52-1.55-2.79,1.16-1.48,6.07-2.18,7.42-.65,2.86,3.26-3.65,2.91-5.56,3,1.08,3.76,1.64,10.06,4,13.21.9,1.23.77,3.59,1.15,5.11.54,2.21,1,3.9,2.47,5.61C159.43,236.5,161.72,243,162,244.33Z"/><path class="b" d="M167.58,184.78c1.83-.88,6.63-.8,4.45-3.85-1.26-1.77-6.7.52-8.74-.11,1.88-1,7.05.1,8.17-1.63.68-1.05-.25-2.82-.56-3.86-.77-2.54-3-1.1-5.28-.69-3.06.55-5.66-.09-4.81,3.56s2.87,8.22,2.66,12c-1-3.41-1.87-6.82-2.72-10.27-.21-.81-.36-3.24-1.41-3.48s-2.39.1-3.11-.66c4.34-1.25,2.29-3.56,2-7.37,1,3.64,1.64,7.35,6.19,5.63a26.8,26.8,0,0,1,2.67-1.23,7.13,7.13,0,0,1,1.6,0c3.09.16.25-.29,2-.89.72,2.1,1,7.35,3.54,7.88-1.85.8-.51,2.58,0,4.28C173.09,184.28,168,185.7,167.58,184.78Z"/><path class="b" d="M144.24,158.06l4.68-1.35c1.22-.35,5-.69,4.49-2.08l3.31.74c-1.51.52-1.94.08-1.45,1.89.24.88.31,2.71,1.51,2.74a83.23,83.23,0,0,0,8.35-.57l-.84-4.2c.7-.22,3.71,7.06,2.63,7.74-.95-1.41-1-3.16-3.18-2.88-2.41.3-4.85.43-7.27.63.26,3.69,2.22,3.53,5.55,3.37l-3,.88,1.12.32-2.39,1.76c-.2-1.84-3.62.1-4.76-1.7,1.76-.23,4.42,0,3.33-2.5-.83-1.86-2.37-2.22-4.2-1.54-1.49.56-2.39,1.34-4,.95-.1-1.28,5.87-1.79,7.23-2-.84-2.91-.76-4.39-4.14-3.51C150.47,156.89,144.2,158.72,144.24,158.06Z"/><path class="b" d="M141.46,214.48c-1.53.93-3.37,2.72-5.3,2.48-2.32-.3-1.23-2.86.17-4.1,2.66-2.37,7.25-1.88,5.77,2.21Z"/><path class="b" d="M170.42,274.05c-.84-2.48-1.71-5-2.51-7.46-1.08-3.35-.37-4.92-4.28-4.43-5.52.7-11.63,1.95-17.14.92l20-1.81-2.8-9.73c1.24-.35,3.19,8.59,3.66,10.22S171.26,273.79,170.42,274.05Z"/><path class="b" d="M130.07,224.63c-.28.94-.68,4.19-1.74,4.33-.41,0-2.51-.6-2.38-1.2C126.34,226,128.85,219.21,130.07,224.63Z"/><path class="b" d="M179.51,283.25c-.66-2.3-5-23-7.12-22.49.7-.49,3.39-1.52,3.56-.2-1.68.49-1.78-.05-1.26,2a20.48,20.48,0,0,0,1.49,4.52c.69,1.36,3.29.06,4,1.48-5.13-.55-3.62,1.48-2.63,5.74C177.85,275.48,180,283.08,179.51,283.25Z"/><path class="b" d="M140.21,286.86q-2-5.78-3.92-11.56c-.53-1.57-4.61-10.94-3.65-11.81C134.31,265.19,140.84,286.63,140.21,286.86Z"/><path class="b" d="M180.2,202.87l-17.82,2.6c2.2-1.91,5.57-1.56,8.41-1.85S177.47,202.25,180.2,202.87Z"/><path class="b" d="M129.82,288.26c-2.31-7.07-5.46-14.4-6.27-21.84C124.18,268.62,130,288.21,129.82,288.26Z"/><path class="b" d="M143.37,310.2c-.31-1.08-3.74-13.23-4.33-12.94.9-.43,0-2.35-.16-3.15,1-.23,4.56,14,5.11,15.93Z"/><path class="b" d="M149.6,151.21l-15.16,4.36C134.26,154.9,149.54,150.91,149.6,151.21Z"/><path class="b" d="M174.52,247.78a38.54,38.54,0,0,1,10.19-1.35c-1.51,1-3.69,0-4.49,2.08C178.74,246,176.31,249.42,174.52,247.78Z"/><path class="b" d="M86.26,230.36q1.59,6.64,3.19,13.29c-.49.1-3.57-11.79-4-13.09Z"/><path class="b" d="M166.1,169.07c-1.61.21-6.11,1.66-6.63-.06C160.94,168.84,165.89,167.55,166.1,169.07Z"/><path class="b" d="M83.76,220.16l2.13,9.39c-.51,0-2.52-8.28-2.79-9.23Z"/><path class="b" d="M119.39,255.13c1.66,1.36,2.84,7.88,3.81,10.74C122,266.22,119.87,256.81,119.39,255.13Z"/><path class="b" d="M94.16,261.83c-1.17-1.28-1.48-1.43-1.79-3.19-.13-.71-1.22-5.35-.71-5.48Q92.91,257.51,94.16,261.83Z"/><path class="b" d="M184,226.07l-7.37,1.73c-.31-1.56,5.66-2,7.25-2.32Z"/><path class="b" d="M115.21,240.63c.36,1.25,3.56,11.24,3,11.44C117.87,250.83,114.68,240.82,115.21,240.63Z"/><path class="b" d="M182.15,219.45l-6.56,1.06c-.2-1.28,5.18-1.45,6.5-1.64Z"/><path class="b" d="M159.36,275.73,157,267.48C157.44,267.35,159.89,275.55,159.36,275.73Z"/><path class="b" d="M162,244.35q1,3,2.06,5.91C162.83,250.74,162.23,245.34,162,244.35Z"/><path class="b" d="M165.74,198.28c-.29-1-2.45-7.34-1.79-7.53C164.24,191.76,166.35,198.14,165.74,198.28Z"/><path class="b" d="M161.05,165.32l7.4-.36C168.48,165.51,161.08,166.26,161.05,165.32Z"/><path class="b" d="M186.69,287.46c-1.1.11-6,1.08-6.07.06C181.7,287.42,186.59,286.49,186.69,287.46Z"/><path class="b" d="M129.82,288.29c.62,1.76,3,5.64,2.17,7.5C131.8,295.14,129.83,288.28,129.82,288.29Z"/><path class="b" d="M263.48,71.14,271.21,98C270.54,98.15,263.25,71.21,263.48,71.14Z"/><path class="b" d="M271.16,98.82q2.35,10.19,4.7,20.36c-.88.2-4.71-18-5.23-20.24Z"/><path class="b" d="M219,131.32q-2.65-9.18-5.29-18.36C214.24,112.84,219.29,131.23,219,131.32Z"/><path class="b" d="M223.6,128l4.34,15.06C227.29,143.24,223,128.16,223.6,128Z"/><path class="b" d="M246.08,138.75c.53,1.47,4.06,9.8,3,10.16C248.69,147.67,245.49,138.91,246.08,138.75Z"/><path class="b" d="M245.44,137.81l-3-10.51C243.06,127.11,245.91,137.71,245.44,137.81Z"/><path class="b" d="M242.24,126.56c-.3-1-2.54-7.69-1.89-7.88C240.65,119.73,242.9,126.37,242.24,126.56Z"/><path class="b" d="M237.86,109.51l2.37,8.25C239.66,117.9,237.76,109.51,237.86,109.51Z"/><path class="b" d="M51.25,108.42c2.07,1.74.9,1.73,1.2,4.19.45,3.6,3.11,2.06,5.89,2.25l-5.39.85c.73,2.53,1.39,5.08,2.22,7.57,1.06,3.16,3,.32,5.13,2-4.25.41-4.71.29-3.69,4.68.93,3.95,1.86,7.88,2.82,11.81.24,1,.34,3.11,1.15,3.84.57.51.36,3.42.57,4.35.25,1.13.54,4.54,1.66,5.11,1.29.66,3.5-.13,5,.1l-5.16.73,1,5.49c-1.28.32-2.09-6.12-2.29-7.24L60.25,148c-.44-2.46-2.07-1.33-4.24-1,1.83-.85,4.23-.33,3.58-3-1-4-2-7.91-2.94-11.87s-1.92-8-2.87-11.94C52.91,116.41,51,112.21,51.25,108.42Z"/><path class="b" d="M32.17,113.56l1.56-.85c-1.2,3,2,9.24,3.1,11.9.36.86,2,3,1.43,3.36-1.29,1,4.24,9.66,2.79,11.2-1.57-4.16-4-9-4.84-12.89C35.5,122.73,34.75,116.13,32.17,113.56Z"/><path class="b" d="M65.69,137c.89,3.88,1.79,7.76,2.77,11.63.43,1.69.88,3.38,1.33,5.07s1.12.49.06,2.68C69.33,154.21,64.74,137.25,65.69,137Z"/><path class="b" d="M91.31,116.1l-8.72,1.25c-1,.13-8.9,1.51-6.64-.11C77.4,116.19,91.3,115.82,91.31,116.1Z"/><path class="b" d="M109.23,128.35c-2.2.43-5.36,2-7.36.91C102.82,128.44,109.36,127.2,109.23,128.35Z"/><path class="b" d="M71.13,159.29l2.66,13.47C73,172.9,70.35,159.44,71.13,159.29Z"/><path class="b" d="M150.11,116.52l-4.61.45c.76-1.24.66-.92-.44-1.31,1.19-.18,7.4-1.6,7.56-.62-1,.12-5.82.28-5.77,1.1C147.76,116.1,149.88,115.42,150.11,116.52Z"/><path class="b" d="M55.52,192.33c.43,1.5,2.78,7.06,1.31,7.52l-2.16-7.52Z"/><path class="b" d="M145,102l-7.24,1c-.16-1.51,5.65-1.44,7.2-1.61Z"/><path class="b" d="M43.55,149c-.08-3.16-1.24-6-1.74-9.15C42.32,141.35,45.63,148.66,43.55,149Z"/><path class="b" d="M62.43,207.88c1.23-.16,7.33-1.48,7.49-.48C68.61,207.59,62.6,209,62.43,207.88Z"/><path class="b" d="M87.07,109.2l6.7,0c0,1.15-5.46.57-6.71.56C87.07,109.59,87.07,109.4,87.07,109.2Z"/><path class="b" d="M64.82,170.13c-.22-1.13-1.91-7.93-1.14-8.1C64,163.31,65.83,169.9,64.82,170.13Z"/><path class="b" d="M65.85,124.19c-2.26.65-3,.31-2.52,2.75l-2.07-2.32C62.71,123.85,64.23,124.15,65.85,124.19Z"/><path class="b" d="M120,126.67c-1.17.17-7.87,1.51-8,.68C113.17,127.2,119.91,125.91,120,126.67Z"/><path class="b" d="M143.17,111.59l5.42-.55C148.68,111.89,143.41,112.91,143.17,111.59Z"/><path class="b" d="M143.6,107.55l-5.38.92C138.05,107.3,143.5,106.81,143.6,107.55Z"/><path class="b" d="M392.22,108.77c-1.17,1.35-3.28,3.59-5.26,2.38a6,6,0,0,1-1.75-7.46c1.28-2,4.5-2.23,6.41-1.08C395,104.6,392.65,106.13,392.22,108.77Z"/><path class="b" d="M358.2,141l-.7.73c1,.51.2,2.34-.57,3.08-1.4,1.32-1.95-.93-2.58-1.72-1.39-1.76-3.91-4.23-1-6.25-2.18.07-4.33,3.23-4.47-1.14-.05-1.43,5-5.4,6.26-4.81,2.34,1.06.09,3-1,3.86C352,136.61,356.59,140.42,358.2,141Z"/><path class="b" d="M372.86,102c.5,1.49,1.5,7.58,3.26,8.23s8.46-1.37,8.69-.48l-2.87.59c1.9,2.56-2.24,4.36-3.82,5.78-.95.85-.07,3.17.73,3.89,1.06,1,3.29-.65,4,.34-5,.79-3.56,2.44-2.34,6.65-2.09-1.54-.59-5.31-3.51-6.1,2-1.9-1.57-4.44-1.86-6.89-.07-.59.57-2.74-.28-2.86-1.62-.22-3.24.25-4.86,0l4.9-.66C374.6,109.38,372.17,102.27,372.86,102Zm6.37,9.11c-.31-1-2.8-.24-3.76-.14C376.83,112.54,377.31,111.85,379.23,111.13Z"/><path class="b" d="M367.13,127.08a5.09,5.09,0,0,1-4.51-1.37c-1.19-1.44,1.43-3.28,2.3-3.94C371,117.08,371.69,125.93,367.13,127.08Z"/><path class="b" d="M356.3,161.47c-1.57-2.42-.95-3.71-.15-6.49.39-1.36.68-4.09,2.77-3.8,2.33.33,1.21,3.27.91,4.63C359.2,158.8,358.47,159.54,356.3,161.47Z"/><path class="b" d="M351.92,142.23l-8.83,1.11c2.83,1.43.76,3.91.19,6.09-.2.73-.24,2.81-1.27,3.16a2.31,2.31,0,0,1-2.68-1.49c-.34-1.55,2.07-7,3.37-7.87S351.8,141.44,351.92,142.23Z"/><path class="b" d="M349.71,163.09l-.57,1.8q.92-1,1.14.09c-3.25,1.41-6.56.82-8.43-2.63C339.17,157.42,348.64,162.57,349.71,163.09Z"/><path class="b" d="M342,133.25l.69-.73c1.14,3.52-6.7,2.38-8.22,1.45-.63-.38-.48-2.58.31-2.65,1.47-.15,6.51-1,7.39.22h-1.66Z"/><path class="b" d="M365,205c-2.36-3.27-1.25-8.59-5.15-10.8,3.53-.88-3.21-12.62-2.28-15.39q1.13,3.91,2.27,7.83c.38,1.29,1,6,2.32,6.56,2.34,1,11.11-3.39,12.44-1.25-1.91.28-11.71.61-12.31,2.52C361.49,197.13,364.6,202.12,365,205Z"/><path class="b" d="M354.27,218c-3.17-7-6.89-13.74-8.17-21.39Z"/><path class="b" d="M301.24,107c1,2.82,1.64,6.06,5.42,4.2a15.59,15.59,0,0,1-8.26,1.46c.69-.24,3-.54,3.31-1.23C302.34,110,299.81,108.06,301.24,107Z"/><path class="b" d="M324.71,127.93c-2,.44-13.69,4.18-14.32,2.49C312,130.1,324.58,127.29,324.71,127.93Z"/><path class="b" d="M293.41,103.87c1.34-.07,11.36-.91,11.41-.26l-11.36,1.12Z"/><path class="b" d="M301.39,115.79l-7.73,1C294.61,115.39,301.29,114.46,301.39,115.79Z"/><path class="b" d="M354.4,219.17c.22-.59,1.44.17,1.84.32l-7.89,1.6C348.14,220.2,353.39,219.41,354.4,219.17Z"/><path class="b" d="M323.27,165c-1.35.27-8,2.17-8.25,1.07C316.18,165.83,323.1,164.17,323.27,165Z"/><path class="b" d="M327.39,207.13c-.49.21-5.85,3-5.56,1.52C322,207.9,327.3,206.82,327.39,207.13Z"/><path class="b" d="M107.62,353.05,140,349.34c.11,1.07-12.45,2.05-14.31,2.28l-18,2.13Z"/><path class="b" d="M102.29,348.14l27-2.29C120.28,346.78,111.44,349.7,102.29,348.14Z"/><path class="b" d="M214.13,342.11c-2.95.44-5.94.72-8.86,1.33-2.45.5-3.85,3-6.29.79-2.57-.58,4-1.36,4.59-1.43C205.17,342.6,213.94,340.92,214.13,342.11Z"/><path class="b" d="M70.25,248c-.3-1.07-.84-4.92-1.46-1.68-1-1-.75-2.64-1.16-3.88A2.07,2.07,0,0,0,66.29,241l.37-3.21.75,2.11c1.81-.44-1.54-3.44.36-3.73.24,2.11.43,2.75,1.91,4.24-1.15,1.63-.45,3.38.33,5.2a24.63,24.63,0,0,1,2.16,5.81A25.77,25.77,0,0,0,70.25,248Z"/><path class="b" d="M151.75,336.2c-.38-1.33-3-8.52-2-8.84.66,2.32,1.24,4.68,1.95,7s2.05,1.2,3.56,2.28c-4,.8-1.23,3.5-1.14,6.77-.48-1.66-.7-4.83-2.25-5.89s-5-.13-7-.44Z"/><path class="b" d="M193.48,342l18.07-1.92c.11,1.07-15.83,2.32-18,2.56Z"/><path class="b" d="M141,349.36l16.65-1c.06,1.13-6.91,1-8.29,1.05S141,350.28,141,349.36Z"/><path class="b" d="M172.19,348.55l-11.43.37c0-1.06,9.81-1,11.41-1.05C172.18,348.1,172.19,348.32,172.19,348.55Z"/><path class="b" d="M209.4,327l-5.19,1.15c-1.38.31-3.29,1.61-3.65-.16C201.89,327.77,209.21,326,209.4,327Z"/><path class="b" d="M202.1,332.68l-11.22,1.18C190.8,333,202,331.91,202.1,332.68Z"/><path class="b" d="M172.71,348c1.5-.17,9.4-1.56,9.52-.42C180.88,347.75,172.79,349,172.71,348Z"/><path class="b" d="M101.07,339.81c0-1.3-.1-2.6-.14-3.9q1.29,3.73,2.6,7.47C102.76,343.64,101.48,340.53,101.07,339.81Z"/><path class="b" d="M115.8,313.33l-8.3,1.46C107.32,313.72,115.68,312.5,115.8,313.33Z"/><path class="b" d="M83.25,294.75l-1.41-3.9,2.79-.14C81,291.11,84.68,293.4,83.25,294.75Z"/><path class="b" d="M116.69,340.51c1.09-.16,5.26-1.39,5.43-.25C121.05,340.42,116.86,341.64,116.69,340.51Z"/><path class="b" d="M412.93,41.33c0,1.63,2.76,8.49,1.14,8.9-1.21-4.17-2.48-8.07-3.64-12.08-.68-2.38-.17-7.91-3.56-8.62,3.25-1-.47-10-1.11-12.26a5.27,5.27,0,0,0-1.71-2.9c.52-.15.38-1.34.36-1.64-.31-3.3-1.48-3.13-3.92-4.32,1.55-.16,1.9.31,2.09-1.44,1.62,1.21,2.31,1.12,4.17,1.61l-2.65.21c.8,2.25,1,4.41,3,5.84-1.91.91.11,5.31.47,6.73.62,2.5.67,7,3.32,7.75-1.22,2.27-.59,3.61.16,6C411.71,37.37,411.3,39.61,412.93,41.33Z"/><path class="b" d="M335.69,21.87c1,0,2-.48,2.09.69l-14.47.63c-1.79.08-12.64,1.1-12.7-.09,2.83-.11,5.67-.22,8.5-.35,1.53-.07,8.55.21,8.54-1.14l-14.28.17c0-1,10.39-1,11.59-1,2.05,0,4.05.23,6.1.11,1.72-.09,5.2-1,6.69-.19C337.05,21.57,335.82,20.76,335.69,21.87Z"/><path class="b" d="M401.06,286.33c4.94-.75,50.62-5.56,50.89-3.48-8.42.92-16.91,1.3-25.36,1.87l-13.52.93C409.48,285.91,404.54,287.23,401.06,286.33Z"/><path class="b" d="M469.2,229.52l-2.33-2.6c2.14-.5-1.61-8.88-2.06-10.45A182,182,0,0,0,458.94,199c1.05-.43,3.36,6.88,3.88,8.25.28.73,3.24,8.47,3.13,8.52C464.6,216.46,468.66,227.62,469.2,229.52Z"/><path class="b" d="M447.61,155.81q1.67,6.84,3.32,13.67c.42,1.73,3.46,11.82,2.29,12.12q-1.73-6.81-3.43-13.64l-1.71-6.82C447.73,159.76,446,156.22,447.61,155.81Z"/><path class="b" d="M392.26,12.53l-14.13,1c-1.9.13-14.09,1.54-14.18.38l28.27-2C392.24,12.09,392.25,12.31,392.26,12.53Z"/><path class="b" d="M476.52,260.74l-2.24.26c.79,2.78,1.59,5.55,2.39,8.33l-4.45.05c3.14-.84,3.41-.49,2.48-4-.51-1.94-.77-5-3.45-4.68a10.2,10.2,0,0,1,1.91-.25c-.46-1.31-4-10-3.18-10.33.83,2.1,1.62,4.2,2.37,6.32.39,1.14.68,2.94,1.88,3.54C474.77,260.25,476.49,260.37,476.52,260.74Z"/><path class="b" d="M339.46,20.22c2.54-.23,23.65-2.59,23.76-1.64l-23.7,2.47Z"/><path class="b" d="M450.92,277.2l19.52-1.73C464,276.09,457.89,279.35,450.92,277.2Z"/><path class="b" d="M396.18,14.61c-2.86.33-5.73.53-8.57,1-2.56.45-5.33,2.08-7.88,1.48,1-3,4.61-1.95,7.11-2.12C387.73,15,396.31,14.14,396.18,14.61Z"/><path class="b" d="M448.83,186l1.44-.22-.72-3.21c.59-.13,2.07,6.34,2.26,7.24.7,3.38.88,3.05,3.82,3.65-4.88-.43-1.36,5.38.62,6.84l-2,1.54c-.18-.64-.08-.82-.77-1,.33.1-.22-3.57-.26-3.72C452.27,193.38,451.91,188.32,448.83,186Z"/><path class="b" d="M467.94,245.43c-.31-1.05-3-11.61-4-11.27.85-.28-2.27-6.83-2.2-8.23.4.16,2.85,1.45,3.18,1.28-.6.32-2-.41-2,.82,0,1.55,1,3.33,1.52,4.75S469,245.13,467.94,245.43Z"/><path class="b" d="M362,14.68l-21.71,2.63c-.11-.91,19.27-2.91,21.64-3.2C361.91,14.3,361.93,14.49,362,14.68Z"/><path class="b" d="M339.46,17.27l-18,1.06c-.05-1.19,5.85-1,7.16-1l10.79-.63Z"/><path class="b" d="M478.55,260.83c-.71-1.91-6.3-15.75-5.35-16.11l3,7.94C476.67,254,479.66,260.41,478.55,260.83Z"/><path class="b" d="M391.13,9.45l-14.05,1.67c-.17-1.62,5.38-1.35,6.95-1.49C385.15,9.52,391,8.54,391.13,9.45Z"/><path class="b" d="M416.65,57.3c.34,1.91,2.39,7.52,1.47,9.23S417,64.11,417,64a55.22,55.22,0,0,0-1.08-6.53Z"/><path class="b" d="M440.69,146.76c-1.51-2.25-.37-5.6-3-7.26,2-.49.15-3.62-.34-5.31.58-.16,3.5,11,3.9,12.41Z"/><path class="b" d="M373.1,286.31c1.56-.15,12.62-1.59,12.7-.77C384.29,285.68,373.18,287.05,373.1,286.31Z"/><path class="b" d="M433.65,132.87c3-.74,6.49-1.5,9.45-.32Z"/><path class="b" d="M432,113.83c.23.79,1.86,5.4,1.29,5.59C433,118.63,431.4,114,432,113.83Z"/><path class="b" d="M226.76,320.69c.7,1.78,5.69,13.08,4.63,13.49C230.76,332.53,225.92,321,226.76,320.69Z"/><path class="b" d="M308,265.63l-1.35-8.6c.83-.13,1.7,7.32,1.91,8.54Z"/><path class="b" d="M195.22,67,222.75,53c.73,1.45-3.22,2.55-4.5,3.18l-8.11,4.05L202,64.33C200.79,64.94,195.8,68.12,195.22,67Z"/><path class="b" d="M232.8,43.38,248,34.47c.7,1.26-4.49,3.46-5.75,4.19L233.1,44Z"/><path class="b" d="M171.67,76.31l-5.9,3.18c-1.3.7-5.56,3.8-6.28,2.48C161.11,81.13,171.09,75.3,171.67,76.31Z"/><path class="b" d="M204.86,58.18l-14.33,8C190,65.22,204.62,57.73,204.86,58.18Z"/><path class="b" d="M184.21,72.53,192.74,68c.68,1.29-6.68,4.4-8.2,5.2Z"/><path class="b" d="M178.07,72c1.36-.69,11.39-6.18,11.72-5.54C188.33,67.19,178.49,72.78,178.07,72Z"/><path class="b" d="M205.46,57.46c1.09-.5,7.61-3.93,8-3.21C212.29,54.78,205.82,58.26,205.46,57.46Z"/><path class="b" d="M239,44.31c.95-.37,4.74-2.38,5.16-1.46l-4.85,2.25Z"/><path class="b" d="M241.51,32.45l-7.34,4.12c-.35-.62,6.14-4,7.12-4.62Z"/><path class="b" d="M102.41,87.31c2.31-.17,19.72-1.94,19.79-.9C120,86.56,102.45,88.1,102.41,87.31Z"/><path class="b" d="M106.56,85.59c1.6-.18,10.35-1.7,10.48-.52C115.56,85.22,106.67,86.58,106.56,85.59Z"/><path class="b" d="M112.88,89.18c1.68-.27,14.27-2.69,14.4-1.9C125.63,87.54,113,89.93,112.88,89.18Z"/><path class="b" d="M73.19,90.59c1.53-.32,12.09-3,12.27-2.15C83.91,88.77,73.38,91.46,73.19,90.59Z"/><path class="b" d="M65.86,93l-6.78,1C59,93.08,65.79,92.31,65.86,93Z"/><path class="b" d="M190.78,360.58c-9.86.9-19.7,2.06-29.6,2.5-5,.22-10,.72-14.92,1.39-2.58.34-5.17.66-7.74,1.11-.18,0-5.19.26-3.72-.6,1.11-.65,3.82-.38,5.11-.5,2.51-.23,5-.4,7.56-.61,4.67-.39,9.29-1.23,14-1.67s9.51-.73,14.25-1.16C177.59,360.86,190.78,359.2,190.78,360.58Z"/><path class="b" d="M163.63,358.15c-8.59,1-17.22,0-25.82.86-4.4.47-8.76,1.26-13.15,1.83-2.78.37-8.06,2.11-10.71,1.06,3.21-2.07,7.88-1.85,11.64-2.28,4.4-.49,8.8-1,13.21-1.35C147.06,357.57,155.37,358.29,163.63,358.15Z"/><path class="b" d="M163.62,358.17c4.31-.81,10.69-1.89,14.94-.72C174.28,357.75,167.61,359.48,163.62,358.17Z"/><path class="b" d="M232.25,354.1c2.42-1.46,23.68-14.77,24.12-14.06l-23.63,14.85Z"/><path class="b" d="M328.63,304.38l-12,6.47c-.7-1.38,4.42-3.14,5.77-3.82C323.32,306.54,328.39,303.62,328.63,304.38Z"/><path class="b" d="M273.66,329.17c1.62-.84,11.47-6.51,12-5.41C284.07,324.58,274.21,330.19,273.66,329.17Z"/><path class="b" d="M299.47,316.86c-1.51.7-13,6.48-13.34,5.8l13-6.45C299.26,316.42,299.36,316.64,299.47,316.86Z"/><path class="b" d="M252,338.23c1.87-.31,1.53-3.11,1.58-4.43.94,2.13,1,2,3.28,1.82Z"/><path class="b" d="M282.05,322c.95-.52,7.54-4.41,7.84-3.88C288.79,318.76,282.48,322.78,282.05,322Z"/><path class="b" d="M267,333.74l-5.82,3C260.64,335.71,266.82,333.26,267,333.74Z"/><path class="b" d="M269.55,329l-6.5,3.34C262.79,331.81,269.15,328.18,269.55,329Z"/><path class="b" d="M35.67,163.41c.57,1.63,1.14,3.25,1.7,4.88L33,168.15c-2.27-.08-2.88-.72-3.23,1.6-.24-.86-1.72-4.36-.94-4.8,1.34,2.37,3.31,2,5.92,2.35C38.39,167.74,34.44,163.8,35.67,163.41Z"/><path class="b" d="M34.13,162.74c-1.33.1-4.89,1.1-5-.43l5-.18Z"/><path class="b" d="M40.18,172.74l-1-4.3C40.41,168.16,41.23,172.51,40.18,172.74Z"/><path class="b" d="M203.84,301.29c-1.09.09-5.21,1-5.3-.19l5.28-.35C203.83,300.93,203.84,301.11,203.84,301.29Z"/></svg>