<svg xmlns="http://www.w3.org/2000/svg" viewBox="0 0 441 2251"><defs><style>.a{fill:none;stroke:#63494b;stroke-width:4px;stroke-dasharray:20;}.b{fill:#63494b;}</style></defs><title>Unbenannt-4</title><path class="a" d="M334.78,49s270,22.52,35,237.68S197,835.23,197,835.23s17.43,152.08,82.45,233,32.67,236.55,32.67,236.55S211.81,1636.31,204.65,1840.1s129.74,404.83,129.74,404.83"/><path class="b" d="M313.43,51c.64.57,1.26,1.18,1.94,1.7s1.63,1.22,2.46,1.8c1,.7,2.06,1.29,3.08,2,.25.17.49.37.75.53a.83.83,0,0,1,.35.86,3.19,3.19,0,0,1-.56,1.52,5.13,5.13,0,0,1-3.18,1.89c-1.46.34-2.95.45-4.4.82a18.29,18.29,0,0,0-5.51,2.36,4.73,4.73,0,0,1-1.19.54,1.75,1.75,0,0,1-1.27-.15.47.47,0,0,1-.22-.24,2.43,2.43,0,0,1-.24-1.65c.14-.6.26-1.2.38-1.81a10.48,10.48,0,0,0,0-4.1c-.17-.85-.29-1.7-.53-2.52a15.41,15.41,0,0,0-2.06-4.38,7,7,0,0,0-1.92-2,3.58,3.58,0,0,0-1.47-.6,19.27,19.27,0,0,0-4.36-.19,10.16,10.16,0,0,0-3.86,1.07A10.77,10.77,0,0,0,289.37,50c-.49.42-1,.87-1.41,1.34a19.76,19.76,0,0,0-2,2.77,22.69,22.69,0,0,0-1.72,3.41.84.84,0,0,1-1.1.46,2.17,2.17,0,0,1-1.14-.68,6.63,6.63,0,0,1-1.37-3.07,33.91,33.91,0,0,0-1.65-5,14.13,14.13,0,0,0-1.5-2.54,16,16,0,0,0-1.81-2,7.19,7.19,0,0,1-.51-.59,1.32,1.32,0,0,1,.2-1.85,1.4,1.4,0,0,1,.47-.24,5.3,5.3,0,0,1,1.48-.27c1.19-.14,2.37-.31,3.55-.53.78-.15,1.57-.26,2.36-.35a23.34,23.34,0,0,0,2.74-.56l1.84-.46a9.85,9.85,0,0,0,3.59-1.75,9,9,0,0,0,1.88-1.82,5.11,5.11,0,0,0,1.16-3.94,4.49,4.49,0,0,0-.64-2,4.38,4.38,0,0,0-.87-.85,16.79,16.79,0,0,0-2.8-1.74c-1.18-.58-2.43-1-3.63-1.52a5.85,5.85,0,0,1-.56-.28,1.26,1.26,0,0,1-.54-1.7.21.21,0,0,1,0-.06,3.42,3.42,0,0,1,1.93-1.67c1.94-.79,4-1.25,6-1.93a20.52,20.52,0,0,0,5-2.32,5,5,0,0,1,1-.44,8.17,8.17,0,0,0,.79-.38.86.86,0,0,1,1.19.17.82.82,0,0,1,.16.64c0,.57,0,1.14-.08,1.7a45.16,45.16,0,0,0-.09,6.37,15.17,15.17,0,0,0,.93,4.51,7,7,0,0,0,1.2,2,3.66,3.66,0,0,0,3.82,1.22c.3-.06.6-.18.91-.25a4.05,4.05,0,0,0,1.1-.5.45.45,0,0,0,.22-.19c.08-.18.16-.34.43-.23.11,0,.23-.09.34-.16a12.47,12.47,0,0,0,1.7-1.29,27.88,27.88,0,0,0,3.78-4.12c1-1.26,1.84-2.58,2.7-3.92.33-.5.52-1.08.8-1.6a.36.36,0,0,0,0-.09,1.21,1.21,0,0,1,1.87-.62,5.07,5.07,0,0,1,2.05,2.2c.25.45.49.92.72,1.38a2,2,0,0,1,.21.49c.15.86.55,1.65.77,2.5a10.09,10.09,0,0,0,1.21,2.6l1.19,2.05a13.4,13.4,0,0,0,1.19,1.71c.42.49.8,1,1.18,1.54a4.07,4.07,0,0,0,.51.59,4.67,4.67,0,0,1,.44.45.82.82,0,0,1,.21.9.84.84,0,0,1-.81.52,3.14,3.14,0,0,1-1.1-.14,14.5,14.5,0,0,0-5.47-.63c-1.19,0-2.37.09-3.55.19a22.56,22.56,0,0,0-4.39.85,27.38,27.38,0,0,0-3.93,1.39A4.23,4.23,0,0,0,309.05,45a9.85,9.85,0,0,0,1.53,2.9,13.3,13.3,0,0,0,1.36,1.64c.5.49,1,.95,1.52,1.43Zm-31.49-1.35c-.08.27-.29.51-.15.93.12-.37.27-.62.14-.92a.32.32,0,0,0,.12-.48Zm-4.57-5.76c.25-.22.23-.55.34-.82s0-.22-.18-.22a1,1,0,0,0-.34,0c-.16,0-.23.13-.07.25a.52.52,0,0,1,.2.59.19.19,0,0,0,.07.17.23.23,0,0,0-.12.32l0,0a.1.1,0,0,0,.17,0C277.59,44.09,277.5,44,277.37,43.89Zm10.34,4.73c.22-.06.12-.38.35-.43s.07.17.07.26-.09.34.11.37.27-.14.33-.29.12-.3.18-.45l.27-.73c0-.08.11-.18.16-.14s.54-.11.43.33c0,.1.09.13.17.1a2.1,2.1,0,0,0,.3-.15,12,12,0,0,1,1.39-.69,12.81,12.81,0,0,1,4.7-.92A10.11,10.11,0,0,1,301.32,47a9.61,9.61,0,0,1,2,1.42l.42.4c.09.09.18.14.29,0s.32-.09.43.13a1.86,1.86,0,0,1,.25.68c0,.11,0,.21.22.17.33-.07.47,0,.57.31a5,5,0,0,1,.13.67c0,.11,0,.24.19.23.38,0,.4.25.46.5a2.61,2.61,0,0,1,.05.48c0,.19,0,.37.31.28s.19.09.23.19a3,3,0,0,1,.18,1.2c0,.45,0,.9,0,1.36a1.06,1.06,0,0,0,.23.71c.06-.49.09-.87.13-1.26s.07-.67.12-1a.23.23,0,0,1,.25-.24h0a.3.3,0,0,1,.29.22,1.35,1.35,0,0,1,.05.53,13.35,13.35,0,0,1-.23,2,.7.7,0,0,0,0,.38,1.7,1.7,0,0,1,.06,1c0,.15-.1.31.07.46a4.2,4.2,0,0,0,.29-.77.22.22,0,0,1,.21-.17.24.24,0,0,1,.23.22c0,.12-.05.3.06.36.38.19.26.47.2.75s-.1.31.07.4.22.4.17.64a1.68,1.68,0,0,0-.1.77c.13-.22.22-.46.34-.68s.2-.29.39-.2a.29.29,0,0,1,.17.39v0c0,.09-.05.18-.08.28-.16.47-.32.95-.49,1.42a.55.55,0,0,0,0,.47c.24-.12.27-.37.35-.57.17-.49.32-1,.48-1.47s.28-.57.47-.53.22.23.09.69c-.09.28-.19.55-.27.83s-.25.34-.05.47.38,0,.54-.14a.88.88,0,0,0,.28-.38c.09-.2.16-.39.25-.58a1.44,1.44,0,0,1,.41-.54.18.18,0,0,1,.22,0c.08.05.07.13.07.21a.34.34,0,0,1-.13.25c-.14.15-.15.36-.26.52a.2.2,0,0,0,0,.27c.06.06.15,0,.23,0a.39.39,0,0,0,.27-.26c.09-.24.2-.47.29-.72a.65.65,0,0,1,.39-.42A1.24,1.24,0,0,1,313,60c0,.13-.12.26,0,.35s.25,0,.37,0a.51.51,0,0,0,.22-.3,4.19,4.19,0,0,1,.39-.83.22.22,0,0,1,.3-.09c.11.06.05.17,0,.26,0,.25-.27.45-.17.73.57,0,.58,0,.79-.48l.14-.36a.14.14,0,0,1,.15-.09c.1,0,.11.1.09.19a.37.37,0,0,0,0,.14c0,.13-.15.3,0,.4s.31,0,.45-.07a.5.5,0,0,0,.26-.34c.08-.24.17-.48.25-.73a.52.52,0,0,1,.33-.36,3.89,3.89,0,0,1-.18.95c-.05.17,0,.28.22.25l1.55-.27a.42.42,0,0,0,.32-.19,2.08,2.08,0,0,0,.27-1.29c-.16.05-.11.3-.3.24s-.11-.18-.14-.28c-.12-.39-.29-.76-.44-1.13a1.65,1.65,0,0,0-.93-.9,1.49,1.49,0,0,0,.06.51,1.57,1.57,0,0,1,0,.86c0,.09-.06.19-.19.17s-.09-.12-.1-.2a6.47,6.47,0,0,0-.73-2,.48.48,0,0,0-.38-.33c-.07.15,0,.27,0,.4a4.27,4.27,0,0,1,0,1c0,.08,0,.18-.11.2a.2.2,0,0,1-.21-.16,1.06,1.06,0,0,1,0-.19,9.38,9.38,0,0,0-.48-1.78.65.65,0,0,0-.43-.44,2,2,0,0,0,.27.85A2.77,2.77,0,0,1,315,56c0,.07,0,.18-.1.2a.22.22,0,0,1-.23-.14c0-.09-.06-.19-.08-.28-.24-.86-.62-1.67-.89-2.52a.74.74,0,0,0-.44-.47.55.55,0,0,0,0,.45c0,.21.06.42.08.62s.08.39-.12.42-.21-.2-.25-.35c-.18-.57-.34-1.15-.54-1.72a2.19,2.19,0,0,0-.74-.94c-.14-.12-.24-.08-.25.11a3.36,3.36,0,0,1-.08.77c0,.09,0,.21-.15.21s-.17-.12-.18-.24c0-.34,0-.68-.1-1a1.7,1.7,0,0,0-.24-.93,13.32,13.32,0,0,0-.95-1.16c-.16-.16-.25-.13-.29.08a2.26,2.26,0,0,0,0,.82,1,1,0,0,1,0,.49.18.18,0,0,1-.16.15.2.2,0,0,1-.21-.16.34.34,0,0,1,0-.14,4.74,4.74,0,0,1,0-1.55,1,1,0,0,0-.16-.87,9.47,9.47,0,0,1-1.06-2.39,5.52,5.52,0,0,1,.6-4.68,3.87,3.87,0,0,1,.93-1.16,10.77,10.77,0,0,1,1.95-1.18.72.72,0,0,0,.48-.56.19.19,0,0,1,.14-.17c.18,0,.07.35.33.28s.36-.07.45-.24,0-.66.39-.13c0,0,.15,0,.23,0s.4-.11.6-.18.39-.24.39-.59c0-.12-.18-.31,0-.35s.14.22.22.33,0,.13.05.19a.2.2,0,0,0,.22.13.5.5,0,0,0,.52-.48.28.28,0,0,0,0-.09,1.08,1.08,0,0,0,0-.19.11.11,0,0,1,.07-.12.11.11,0,0,1,.15.06h0a2,2,0,0,1,.12.31c.05.22.18.24.36.19a.37.37,0,0,0,.33-.36,3.09,3.09,0,0,1,0-.53c0-.14-.2-.61.29-.29.05,0,.08,0,.11-.07s.19-.21.33-.1.05.2,0,.31a.92.92,0,0,1-.13.36.52.52,0,0,0-.07.45c.58-.08.59-.09.69-.59,0-.22.07-.45.11-.67s0-.32.16-.42a.22.22,0,0,1,.13.26c0,.31,0,.62,0,.92,0,.1,0,.21.11.24a.26.26,0,0,0,.3-.1.47.47,0,0,0,.09-.28,8.08,8.08,0,0,0,.18-1.2c0-.09,0-.17.12-.18a.18.18,0,0,1,.18.13,1,1,0,0,1,0,.53c0,.24-.08.48-.1.72s0,.24.12.27a.25.25,0,0,0,.31-.17,1.29,1.29,0,0,0,.08-.28,8.93,8.93,0,0,0,.22-1.54c0-.1,0-.22.1-.24a.22.22,0,0,1,.24.19h0a1.58,1.58,0,0,1,0,.38,6.25,6.25,0,0,1-.17,1.15c0,.12-.07.25.08.37.22-.58.2-1.19.38-1.75a.28.28,0,0,1,.23.27c0,.23-.06.46-.05.68s-.3.56,0,.75.57,0,.86,0a.29.29,0,0,0,.29-.27,7.28,7.28,0,0,0,.44-2.31c0-.18.07-.26.22-.23s.23.31.48.26a.92.92,0,0,1,.11.44v.15a14.32,14.32,0,0,1-.17,1.45c0,.09-.08.17,0,.28a.15.15,0,0,0,.19.11.09.09,0,0,0,.08-.11.06.06,0,0,0,0,0,1.78,1.78,0,0,1,.13-1,1.58,1.58,0,0,0,.12-.61c-.07-.5.06-.59.54-.42.14-.22.36-.44.25-.7a1.3,1.3,0,0,1,0-.85,10.71,10.71,0,0,0,.23-1.78c0-.15.05-.32-.08-.45s-.13.11-.14.18c-.09.55-.3,1.06-.43,1.6a.59.59,0,0,1-.12.31.09.09,0,0,1-.12,0,.11.11,0,0,1-.06-.07,1,1,0,0,1,0-.29c.08-.41.18-.82.26-1.23,0-.14.1-.28,0-.4s-.21.26-.42.26c-.1-.16,0-.33,0-.49.11-.34.21-.68.33-1a.51.51,0,0,0,0-.42.18.18,0,0,0-.13-.12.15.15,0,0,0-.15.11c-.05.13-.09.27-.13.41s-.07.32-.26.38c-.13-.14-.06-.28,0-.42l.18-1a.56.56,0,0,0,0-.34.16.16,0,0,0-.1-.08c-.06,0-.08,0-.1.08l-.24.73c0,.12-.11.22-.25.16s-.06-.17,0-.25a7.22,7.22,0,0,0,.2-1.54,1.29,1.29,0,0,0-.46-1.05,7.08,7.08,0,0,1-.17.77c-.08.23-.06.5-.28.73a1.3,1.3,0,0,1,0-.78,7.87,7.87,0,0,0,.15-1.2.76.76,0,0,0-.21-.63c-.16.2-.09.43-.19.61s0,.28-.15.25S321,25.13,321,25l0-.2c0-.29.08-.57.09-.86s-.19-.54-.31-.51-.14.29-.17.45,0,.5-.24.74c-.14-.62.14-1.19,0-1.84a1.53,1.53,0,0,0-.61,1.13,5.86,5.86,0,0,1-.31,1.71c0,.14,0,.32-.24.37a.42.42,0,0,1,0-.39c.07-.28.14-.56.2-.85a.18.18,0,0,0-.09-.24h0a14.84,14.84,0,0,0-.92,1.41,1.14,1.14,0,0,0-.2.78,4.85,4.85,0,0,1-.26,1.77c0,.09,0,.23-.19.23s-.06-.26,0-.41c.07-.33.14-.66.19-1,0-.13.07-.28-.1-.4a5.8,5.8,0,0,0-.7.87,1.73,1.73,0,0,0-.35,1.09,2.71,2.71,0,0,1-.51,1.58c0,.06-.08.13-.15.11s-.1-.11-.1-.2.08-.2.11-.31a2,2,0,0,0,.17-1,.68.68,0,0,0-.47.67,3.88,3.88,0,0,1-.48,1.36c0,.07-.1.14-.2.09a.14.14,0,0,1,0-.17,1.19,1.19,0,0,1,.1-.32.6.6,0,0,0,.07-.55c-.23.21-.45.43-.67.66a1,1,0,0,0-.34.91,2.68,2.68,0,0,1-.33,1.69c-.1.17-.17.49-.41.37s0-.33.06-.51a2.06,2.06,0,0,0,.17-1.48,1.37,1.37,0,0,0-.82,1.25,2.36,2.36,0,0,1-.36,1.24.16.16,0,0,1-.19.11c-.11,0-.1-.13-.07-.21a1.7,1.7,0,0,0,.1-.32c0-.3.24-.59,0-.92a.89.89,0,0,0-.58.64,5,5,0,0,1-.5,1.25c-.08.15-.14.42-.34.32s-.06-.31,0-.48.16-.35.24-.53a.28.28,0,0,0,0-.31,1,1,0,0,0-.72.91,2.94,2.94,0,0,1-.35,1c-.06.14-.18.35-.34.28s0-.3,0-.42a3,3,0,0,0,.29-1c-.52.1-.59.16-.77.57a1.92,1.92,0,0,1-.49.82c-.05,0-.1.09-.17,0a.14.14,0,0,1,0-.18c.09-.15.12-.33.22-.48s0-.26-.15-.22-.53.18-.79.24a.82.82,0,0,0-.63.46c-.11.21-.28.39-.38.61a.22.22,0,0,1-.25.16h0a1,1,0,0,1,.15-.54c.06-.12.24-.21.13-.38s-.26-.07-.41-.08-.32.11-.38.34-.06.52-.39.61c-.09-.23,0-.41.06-.6a.32.32,0,0,0-.19-.38h-.11a5.51,5.51,0,0,1-4.09-3l-.18-.29c-.11-.16-.21-.12-.28,0s-.18.41-.28.61a.2.2,0,0,1-.15.1c-.09,0-.11-.1-.11-.19a.74.74,0,0,1,.08-.28,6.39,6.39,0,0,0,.28-.77,1,1,0,0,0-.25-1,20.83,20.83,0,0,0-.55,2c-.26-.19-.2-.41-.15-.63.16-.68.31-1.36.46-2a1.24,1.24,0,0,0-.17-1c-.31.58-.32,1.21-.65,1.79a1.09,1.09,0,0,1,0-.83,20.5,20.5,0,0,0,.46-2,.36.36,0,0,0-.08-.33c-.12.39-.21.73-.33,1.06-.06.16-.06.47-.24.42s-.08-.33,0-.5c.16-.75.33-1.49.49-2.23a.65.65,0,0,0-.1-.63c-.21.27-.19.57-.33.8,0,.06-.08.11-.15.07a.19.19,0,0,1-.07-.12,2.65,2.65,0,0,1,0-.38c.14-.65.3-1.29.44-1.94a10.33,10.33,0,0,0,.1-2.22s0,0-.08-.09c-.24.89-.52,1.76-.84,2.62a.53.53,0,0,1-.06-.53c.2-.73.42-1.46.64-2.19,0-.09,0-.23.12-.25.37-.16.31-.49.34-.78s.08-.67.11-1c0-.13.06-.26-.07-.36a.49.49,0,0,0-.42.42,20.38,20.38,0,0,1-.81,2.84c0,.1,0,.27-.15.27a1.75,1.75,0,0,1-.51,0c-.24,0-.21-.29-.18-.49.06-.36.13-.73.2-1.09a.56.56,0,0,0,0-.36c-.23.29-.1.69-.44.91-.12-.42.11-.79.05-1.18a.67.67,0,0,0-.68.54c-.1.37-.24.73-.36,1.11L296,24c0,.08-.06.15-.15.14a.15.15,0,0,1-.11-.15,1.68,1.68,0,0,1,.05-.67,16.3,16.3,0,0,0,.27-1.68.09.09,0,0,0-.05-.13h0a.12.12,0,0,0-.11.08c-.1.49-.28,1-.34,1.46,0,.1.07.26-.1.27s-.2-.14-.21-.28a.67.67,0,0,1,0-.28c.07-.29.13-.57.18-.86a.17.17,0,0,0-.1-.22h0a.18.18,0,0,0-.19.12.65.65,0,0,0,0,.13,6,6,0,0,0-.38,1.5.29.29,0,0,1-.26.3h-.06c-.19,0-.2-.18-.22-.32a.92.92,0,0,1,0-.29c.07-.3.15-.59.2-.9s0-.28-.24-.24-.37.1-.4.47-.08.77-.13,1.16c0,.08,0,.18-.11.19s-.14-.1-.18-.19,0-.28-.12-.43a4.88,4.88,0,0,0-.37,1c-.07.22-.18.23-.34.08a.44.44,0,0,1-.11-.45,10,10,0,0,1,.3-1.07c0-.1.08-.2,0-.26a.23.23,0,0,0-.3.08,1,1,0,0,0-.12.32c-.22.71-.45,1.42-.67,2.13,0,.09,0,.26-.18.22a.25.25,0,0,1-.19-.26,1.86,1.86,0,0,1,0-.33c.12-.54.25-1.07.37-1.61,0-.13.06-.28-.11-.32a.25.25,0,0,0-.31.17h0a1.53,1.53,0,0,0-.11.47,5.71,5.71,0,0,1-.26,1.28,2.49,2.49,0,0,0-.13.66c0,.28-.09.34-.39.34s-.3-.13-.29-.36a2,2,0,0,1,.08-.43c.11-.52.22-1.05.32-1.57,0-.1.07-.25-.1-.27a.24.24,0,0,0-.3.17h0c0,.07,0,.15-.05.23l-.33,1.27a.57.57,0,0,1-.33.43c-.14-.16-.07-.32-.08-.48s0-.25-.08-.26c-.4,0-.22-.31-.24-.49s.07-.26-.06-.38l-.26.1c-.54.21-1,.47-.88,1.18,0,.24.08.39.3.47.77.3,1.53.62,2.31.9a10.34,10.34,0,0,1,4.13,2.65,6.09,6.09,0,0,1,.72,1c.26.43.49.88.73,1.32a4.51,4.51,0,0,1,.3,4,7.82,7.82,0,0,1-.6,1.1,5.49,5.49,0,0,1-2,2.12,1.69,1.69,0,0,0-.94,1.17c0,.15,0,.32-.2.38l-.06-.05c-.13-.15.23-.42-.08-.49s-.22.28-.34.42-.06.18-.11.27-.11.2-.23.19.11-.36-.15-.38a.59.59,0,0,0-.51.32.73.73,0,0,0-.07.24l-.19.64c0,.08,0,.17-.14.16s-.12-.1-.11-.17,0-.26.05-.39,0-.19-.16-.26c-.09.28-.32.49-.42.79s-.14.38-.36.29-.25,0-.28.18,0,.2-.11.26c-.45-.22.06-.63-.18-.92a7.91,7.91,0,0,1-1.07,1.61c0-.53.49-.89.54-1.45a.55.55,0,0,0-.39.38c-.22.58-.68,1-1,1.57a.1.1,0,0,1-.14,0h0a.12.12,0,0,1,0-.17,4.32,4.32,0,0,1,.3-.56,2,2,0,0,0,.44-1.08c-.41-.06-.57.18-.7.49a2.06,2.06,0,0,1-.91,1.33c-.08,0-.13.15-.18.23s-.09.19-.22.12a2.5,2.5,0,0,1,.11-1.05,2.23,2.23,0,0,0,.12-.51.12.12,0,0,0-.07-.11.1.1,0,0,0-.12,0,1.93,1.93,0,0,0-.25.63c-.12.38-.12.38-.52.16a.79.79,0,0,1,.16-.39c.06-.08.13-.17.07-.26s-.19-.09-.31-.07a.31.31,0,0,0-.27.24,3.28,3.28,0,0,1-.15.51c0,.07-.05.16-.17.11a.13.13,0,0,1-.09-.15c0-.06,0-.13,0-.19s.11-.28-.07-.33-.24.12-.3.25-.06.18-.1.27-.13.41-.27.5a3.16,3.16,0,0,0-.62.53c0,.06-.12.13-.2.07a.15.15,0,0,1,0-.22c.27-.26.37-.65.63-.92.1-.1.17-.28,0-.36a.26.26,0,0,0-.35.09l0,.09a1.19,1.19,0,0,1-.1.32c-.16.29-.19.69-.54.83a1.31,1.31,0,0,0-.58.56c-.08.11-.12.34-.29.24s0-.26,0-.39a.47.47,0,0,1,.09-.12,5,5,0,0,0,.71-1.2c0-.08.13-.16,0-.26a.6.6,0,0,0-.29.3A8.91,8.91,0,0,1,281,44c-.17.22-.17.22-.37,0a.44.44,0,0,0,.11-.09s.09-.11,0-.16-.12,0-.15.08a.14.14,0,0,0,0,.17.31.31,0,0,1-.31.08c-.19-.06-.29,0-.27.22a5.67,5.67,0,0,1-.33,2,.53.53,0,0,0,.15.57c.18.17.25.17.33-.08.16-.42.3-.85.44-1.28.05-.15.09-.28.26-.32.16.14.12.32.09.49a9.3,9.3,0,0,1-.5,1.63.64.64,0,0,0,0,.64c.06.08.07.2.2.19s.14-.11.17-.2c.14-.6.28-1.2.43-1.79,0-.16,0-.44.22-.41s.17.28.17.46a1.21,1.21,0,0,1,0,.19,11.37,11.37,0,0,1-.56,2.21,1,1,0,0,0,.25,1.07,4.88,4.88,0,0,0,.26-1.13c.1-.64.18-1.28.26-1.92,0-.16.08-.31.25-.29s.16.18.16.31a7,7,0,0,1-.06.92,4.32,4.32,0,0,0-.08,1.29,4.6,4.6,0,0,0,.25-.65c.09-.16,0-.43.3-.46a.22.22,0,0,1,.06.19,12.93,12.93,0,0,1-.72,3.26,1.27,1.27,0,0,0,.12,1.15.14.14,0,0,0,.17.07.15.15,0,0,0,.08-.11c0-.22.07-.44.08-.67.06-.68.11-1.36.16-2,0-.09,0-.17.13-.17s.11.09.12.17,0,.36,0,.54,0,.23.21.15.21,0,.22.15a.58.58,0,0,0,.18.43.26.26,0,0,1,.05.28,1.87,1.87,0,0,0,.17,1.29.22.22,0,0,0,.16-.16l.3-1a.57.57,0,0,1,.12-.26c.09-.08.18-.09.23.05a.45.45,0,0,1,0,.28A8.24,8.24,0,0,1,284,53a2.86,2.86,0,0,1-.68,1.21c-.14.11-.08.3,0,.45a.2.2,0,0,0,.2.18c.1,0,.13-.08.16-.16a11,11,0,0,1,.57-1.07c.16-.24.34-.46.17-.78-.06-.12,0-.29.06-.43l.3-1c.11-.39.21-.78.32-1.17a.22.22,0,0,1,.21-.18c.15,0,.15.16.13.27-.07.34-.17.69-.25,1a9.63,9.63,0,0,0-.32,1.2,1.93,1.93,0,0,0,.7-1c.16-.58.32-1.16.49-1.73.06-.17.07-.48.31-.4s0,.31,0,.47a3.29,3.29,0,0,0-.16,1,1.35,1.35,0,0,0,.57-.79c.15-.41.29-.82.43-1.24a.44.44,0,0,1,.29-.3c.08,0,.14.06.21.1a1.68,1.68,0,0,0-.22.85A1,1,0,0,0,287.71,48.62Zm-9.41-4.21c.63-.38.64-1,.84-1.56,0-.1-.06-.13-.14-.14s-.22.09-.26.23a6.44,6.44,0,0,1-.34,1A.75.75,0,0,0,278.3,44.41Zm45.8-9.76c-.09.24-.19.47-.26.71s-.07.31-.31.26-.29.1-.34.31a1.52,1.52,0,0,0,.67,0,.29.29,0,0,0,.25-.26A1.76,1.76,0,0,0,324.1,34.65Zm.9-1.28a.13.13,0,0,0,.16-.1,2.68,2.68,0,0,1,.22-.73.63.63,0,0,0,0-.52.19.19,0,0,0-.13-.13.14.14,0,0,0-.14.12A1.62,1.62,0,0,0,325,33.37Zm-45.07,9.27c-.15-.07-.24,0-.28.07a6.09,6.09,0,0,0-.56,1.72A7.5,7.5,0,0,0,279.93,42.64Zm45.82-6.81a.22.22,0,0,0,.21.1c.32,0,.45-.13.38-.43s-.16-.23-.26-.11S325.78,35.63,325.75,35.83ZM324.69,31h-.1a5.52,5.52,0,0,0-.1.71c0,.22-.23.43,0,.71A3.43,3.43,0,0,0,324.69,31ZM276.52,43.7c0-.23.13-.4.06-.61-.17,0-.34,0-.39.18S276.27,43.59,276.52,43.7Zm9.68-1.51c.24-.16.21-.37.32-.51a.1.1,0,0,0,0-.16.16.16,0,0,0-.21,0,1,1,0,0,0-.08.62Zm1.11-17.81c-.27.15-.34.22-.32.33a.12.12,0,0,0,.14.1c.26,0,.18-.24.21-.4S287.32,24.39,287.31,24.38Zm37.9,11.07a1.6,1.6,0,0,0,0,.21c0,.07-.05.17,0,.2s.17-.06.19-.16v-.23a.08.08,0,0,0-.08-.07h0Zm-35.84,5.77c.29-.13.25-.34.26-.63A.82.82,0,0,0,289.37,41.22Zm37-6.9c.08,0,.13,0,.17,0a.19.19,0,0,0,0-.26.11.11,0,0,0-.15,0l0,0A.24.24,0,0,0,326.35,34.32ZM322.08,36c.28-.14.18-.32.24-.52C322.06,35.63,322.12,35.81,322.08,36Zm-42.92,9.7c0,.05-.07.11,0,.16a.1.1,0,0,0,.16,0c0-.06.11-.13,0-.2S279.21,45.69,279.16,45.73Zm-1.28-1.87s.06,0,.08,0a.08.08,0,0,0,.06-.09v0a.06.06,0,0,0-.06,0h0A.11.11,0,0,0,277.88,43.86Zm21-23.68c0,.05,0,.1,0,.13s.09,0,.12,0,0-.09,0-.12-.08,0-.11,0ZM327,35.9a.09.09,0,0,0,.13,0h0a.08.08,0,0,0,0-.12h0s-.08,0-.11,0S326.92,35.87,327,35.9Zm-1.14-2s-.05.09,0,.12a.08.08,0,0,0,.08,0,.08.08,0,0,0,0-.12c0-.05-.08,0-.11,0Z"/><path class="b" d="M320.8,35.6a.89.89,0,0,1,.07-.6c.07-.25.24-.48,0-.78-.1-.14,0-.32.21-.36a1.28,1.28,0,0,0,.42-.17c.14-.11.23.06.26.18a2.32,2.32,0,0,1-.07.87,4.88,4.88,0,0,1-.18.54c0,.08-.13.18-.17.14C321.11,35.19,321,35.52,320.8,35.6Z"/></svg>