<svg xmlns="http://www.w3.org/2000/svg" viewBox="0 0 441 866"><defs><style>.a{fill:#63494b;}.b{fill:none;stroke:#63494b;stroke-width:4px;stroke-dasharray:20;}</style></defs><title>Unbenannt-4</title><path class="a" d="M404.23,97.92c.25.82.45,1.66.75,2.47s.73,1.89,1.13,2.83c.47,1.12,1.06,2.19,1.57,3.28.13.28.23.57.36.85a.82.82,0,0,1-.15.91,3.25,3.25,0,0,1-1.29,1,5.19,5.19,0,0,1-3.7-.08c-1.41-.48-2.74-1.19-4.16-1.64a18.32,18.32,0,0,0-5.92-.92,4.38,4.38,0,0,1-1.3-.17,1.77,1.77,0,0,1-1-.8.45.45,0,0,1,0-.32,2.4,2.4,0,0,1,.66-1.53c.44-.43.86-.88,1.29-1.33A10.68,10.68,0,0,0,394.59,99c.3-.81.65-1.59.89-2.42a15.26,15.26,0,0,0,.56-4.8A7,7,0,0,0,395.5,89a3.71,3.71,0,0,0-.93-1.29,18.84,18.84,0,0,0-3.6-2.47,9.8,9.8,0,0,0-6.59-1,15.77,15.77,0,0,0-1.91.39,20.45,20.45,0,0,0-3.2,1.26,22.2,22.2,0,0,0-3.26,2,.84.84,0,0,1-1.17-.2,2.14,2.14,0,0,1-.61-1.18,6.54,6.54,0,0,1,.46-3.33,33,33,0,0,0,1.25-5.1,14.56,14.56,0,0,0,.08-3,17.94,17.94,0,0,0-.5-2.63,4.81,4.81,0,0,1-.12-.76,1.32,1.32,0,0,1,1.14-1.47,1.35,1.35,0,0,1,.53,0,4.92,4.92,0,0,1,1.39.55c1.09.51,2.18,1,3.3,1.43.74.29,1.47.61,2.18,1a23.15,23.15,0,0,0,2.63,1l1.8.58a9.9,9.9,0,0,0,4,.42,9.28,9.28,0,0,0,2.56-.54A5.09,5.09,0,0,0,398,72a4.33,4.33,0,0,0,.52-2.05,4,4,0,0,0-.28-1.18,17.27,17.27,0,0,0-1.45-3c-.7-1.12-1.53-2.13-2.28-3.21q-.18-.27-.33-.54a1.26,1.26,0,0,1,.45-1.72l.06,0a3.44,3.44,0,0,1,2.53-.39c2.06.36,4,1,6.07,1.53a20.74,20.74,0,0,0,5.43.64,6.29,6.29,0,0,1,1.06.15,8.58,8.58,0,0,0,.87.1.85.85,0,0,1,.72,1.4c-.31.48-.65.94-1,1.4a46.89,46.89,0,0,0-3.45,5.35,15.5,15.5,0,0,0-1.6,4.32,7,7,0,0,0-.06,2.37,3.67,3.67,0,0,0,2.59,3.06c.29.1.6.16.9.26a4.1,4.1,0,0,0,1.2.17.58.58,0,0,0,.29,0c.16-.11.32-.2.49,0s.24,0,.37,0a13.93,13.93,0,0,0,2.13-.19A27.9,27.9,0,0,0,418.6,79c1.49-.56,2.93-1.21,4.37-1.89.55-.25,1-.64,1.53-.93l.08-.06a1.2,1.2,0,0,1,1.7.12,1.15,1.15,0,0,1,.22.35,5.11,5.11,0,0,1,.57,3c0,.52-.08,1-.12,1.55a1.54,1.54,0,0,1-.09.52c-.32.82-.4,1.7-.66,2.53a9.82,9.82,0,0,0-.36,2.85c0,.79-.06,1.58-.08,2.37a13.12,13.12,0,0,0,.11,2.08c.09.64.13,1.29.18,1.93a4.94,4.94,0,0,0,.12.77,4.29,4.29,0,0,1,.14.62.84.84,0,0,1-.3.87.83.83,0,0,1-1,0,2.91,2.91,0,0,1-.86-.7,14.33,14.33,0,0,0-4.31-3.43c-1-.59-2.06-1.18-3.11-1.72a22.9,22.9,0,0,0-4.17-1.61,28.27,28.27,0,0,0-4.08-.9,4.23,4.23,0,0,0-4.82,3.21,9.7,9.7,0,0,0-.23,3.27,13.53,13.53,0,0,0,.27,2.11c.17.68.36,1.35.54,2Zm-26-17.83c-.21.18-.51.28-.62.71.3-.25.56-.39.61-.71.21,0,.33-.09.36-.34Zm-.82-7.31c.33,0,.49-.34.72-.52s.07-.21,0-.28a.89.89,0,0,0-.29-.15c-.16-.06-.28,0-.2.17a.54.54,0,0,1-.14.61.2.2,0,0,0,0,.18.23.23,0,0,0-.26.21.06.06,0,0,0,0,.06c0,.08.08.1.14.08S377.48,72.93,377.42,72.78Zm6.26,9.49c.22.06.31-.26.53-.18.05.11,0,.18-.08.26s-.26.24-.11.37.3,0,.44-.07.26-.19.39-.28l.61-.48c.07,0,.19-.1.21,0s.52.19.19.5c-.07.07,0,.16.09.18a2,2,0,0,0,.34,0,11.31,11.31,0,0,1,1.54.15,13,13,0,0,1,4.47,1.71,10,10,0,0,1,3.78,3.69,9.3,9.3,0,0,1,1,2.27c.05.19.09.37.14.56s.08.21.23.18.33.1.3.34a1.86,1.86,0,0,1-.14.7c-.06.1-.08.21.09.27s.4.25.32.56-.15.43-.24.64-.1.23,0,.3c.34.17.21.43.13.67a3.42,3.42,0,0,1-.21.43c-.09.17-.18.33.11.4s.11.17.09.28a3,3,0,0,1-.47,1.11c-.24.39-.5.77-.73,1.15a1.05,1.05,0,0,0-.19.73l.78-1c.21-.26.41-.54.63-.8a.26.26,0,0,1,.35-.07h0a.31.31,0,0,1,.12.34,1.34,1.34,0,0,1-.23.48,14.38,14.38,0,0,1-1.24,1.56c-.09.09-.21.18-.22.31a1.88,1.88,0,0,1-.46.84c-.09.12-.25.21-.18.42a4.43,4.43,0,0,0,.65-.49.22.22,0,0,1,.27,0,.24.24,0,0,1,.08.3c0,.12-.21.24-.14.35.22.36,0,.53-.23.75s-.25.2-.15.37,0,.45-.2.62a1.62,1.62,0,0,0-.49.61c.23-.12.43-.27.65-.4s.32-.14.44,0a.3.3,0,0,1-.07.42h0l-.22.19-1.17,1a.55.55,0,0,0-.28.39c.27,0,.43-.18.6-.31.41-.31.79-.66,1.2-1s.53-.33.67-.19.07.31-.29.62l-.67.56c-.12.11-.39.16-.29.38s.33.17.53.17a.9.9,0,0,0,.44-.18c.18-.12.34-.25.52-.36a1.43,1.43,0,0,1,.63-.24.2.2,0,0,1,.2.11c0,.08,0,.15-.06.22a.33.33,0,0,1-.24.14c-.2,0-.32.23-.5.31a.19.19,0,0,0-.11.23c0,.09.12.1.19.12a.38.38,0,0,0,.37-.07c.2-.15.42-.29.63-.45a.68.68,0,0,1,.55-.16c-.06.29-.29.41-.44.58s-.24.15-.16.31.21.14.34.16a.49.49,0,0,0,.34-.15,3.94,3.94,0,0,1,.78-.49.23.23,0,0,1,.3.08c.06.11-.05.17-.11.24s-.47.24-.53.53c.47.33.48.33.92,0a3.55,3.55,0,0,0,.31-.23.15.15,0,0,1,.19,0c.06.07,0,.14,0,.2a.47.47,0,0,0-.1.1c-.08.11-.29.18-.2.35s.26.17.42.19a.54.54,0,0,0,.4-.16l.6-.49a.48.48,0,0,1,.47-.12,3.58,3.58,0,0,1-.65.7c-.14.13-.14.25.06.33l1.45.59a.38.38,0,0,0,.37,0,2,2,0,0,0,.91-.94c-.16,0-.25.18-.38,0s0-.22,0-.32c.1-.39.16-.79.23-1.19a1.69,1.69,0,0,0-.31-1.25,1.15,1.15,0,0,0-.22.46,1.57,1.57,0,0,1-.46.73c-.08.06-.15.14-.25,0s0-.16,0-.22a6.78,6.78,0,0,0,.47-2.12.5.5,0,0,0-.15-.48c-.15.08-.15.22-.21.34a4,4,0,0,1-.53.86c0,.07-.1.15-.19.11a.18.18,0,0,1-.1-.24.75.75,0,0,1,.07-.18,9.76,9.76,0,0,0,.53-1.77.65.65,0,0,0-.13-.6,2,2,0,0,0-.22.86,2.76,2.76,0,0,1-.54,1.34c-.05.06-.1.14-.19.11a.22.22,0,0,1-.12-.24,1.47,1.47,0,0,1,.08-.28c.25-.85.36-1.75.58-2.61a.69.69,0,0,0-.13-.62.55.55,0,0,0-.25.36c-.09.2-.17.39-.26.58s-.13.37-.33.28-.07-.27,0-.43c.15-.57.32-1.15.45-1.74a2.2,2.2,0,0,0-.12-1.19c-.06-.17-.17-.19-.28,0a3.1,3.1,0,0,1-.47.61c-.07.07-.13.17-.24.1s-.08-.19,0-.3c.15-.3.32-.6.46-.91a1.78,1.78,0,0,0,.29-.92c-.07-.5-.08-1-.19-1.49-.05-.21-.15-.24-.29-.08a2.2,2.2,0,0,0-.41.71,1,1,0,0,1-.26.41.18.18,0,0,1-.22,0,.2.2,0,0,1-.09-.25.31.31,0,0,1,.06-.13,4.66,4.66,0,0,1,.85-1.29,1,1,0,0,0,.33-.83,9.54,9.54,0,0,1,.37-2.59,5.55,5.55,0,0,1,3-3.65,4.15,4.15,0,0,1,1.41-.49,10.76,10.76,0,0,1,2.27,0,.75.75,0,0,0,.71-.21.18.18,0,0,1,.21-.07c.15.11-.13.34.13.41s.35.13.51,0,.39-.55.4.09c0,0,.12.09.2.11a6.09,6.09,0,0,0,.61.17c.33.07.45,0,.64-.29.06-.11,0-.37.22-.28s0,.26,0,.4-.05.12-.06.18a.2.2,0,0,0,.12.23.5.5,0,0,0,.7-.14l0-.07a1.34,1.34,0,0,0,.07-.18.11.11,0,0,1,.12-.07.12.12,0,0,1,.1.13h0a3.2,3.2,0,0,1-.07.33c-.08.21,0,.3.21.35a.37.37,0,0,0,.47-.13,2.57,2.57,0,0,1,.29-.44c.1-.1.16-.62.41-.09,0,.06.08,0,.13,0s.26-.08.33.09-.07.2-.13.29a1,1,0,0,1-.31.23.5.5,0,0,0-.29.34c.53.24.55.24.89-.13l.45-.51c.11-.11.2-.25.36-.27a.22.22,0,0,1,0,.29l-.51.77c0,.08-.12.17,0,.27a.27.27,0,0,0,.31.06.55.55,0,0,0,.22-.18,8.73,8.73,0,0,0,.78-.93c.05-.07.11-.13.2-.09a.18.18,0,0,1,.08.21.94.94,0,0,1-.25.47c-.15.18-.32.36-.47.55s-.16.19,0,.29a.24.24,0,0,0,.35,0,1.34,1.34,0,0,0,.21-.2,9.41,9.41,0,0,0,1-1.19c.05-.08.11-.19.22-.15a.21.21,0,0,1,.1.28h0a1.92,1.92,0,0,1-.18.35,5.8,5.8,0,0,1-.75.89c-.08.09-.19.17-.12.36.49-.39.79-.91,1.25-1.3a.29.29,0,0,1,0,.36c-.11.2-.29.36-.4.55s-.56.31-.42.63.46.33.72.46a.29.29,0,0,0,.39-.07,7.52,7.52,0,0,0,1.6-1.73c.08-.15.19-.18.31-.07s0,.38.26.47c0,0-.05.29-.14.43l-.08.13a11.09,11.09,0,0,1-.91,1.14c-.06.06-.16.11-.17.22a.15.15,0,0,0,.1.19.09.09,0,0,0,.13,0s0,0,0,0c.09-.36.39-.54.63-.77a1.71,1.71,0,0,0,.43-.46c.2-.46.36-.47.68-.07.23-.11.54-.19.58-.46a1.32,1.32,0,0,1,.47-.71,10.8,10.8,0,0,0,1.14-1.39c.09-.12.21-.25.17-.42s-.17,0-.22.08c-.36.41-.81.73-1.21,1.12a.59.59,0,0,1-.26.21.11.11,0,0,1-.13,0,.14.14,0,0,1,0-.09,1.43,1.43,0,0,1,.16-.24c.29-.31.59-.61.88-.91.1-.1.23-.19.18-.36s-.32.11-.5,0c0-.2.16-.29.29-.41s.54-.46.82-.68a.49.49,0,0,0,.21-.36.17.17,0,0,0-.05-.18.14.14,0,0,0-.18,0c-.11.08-.22.19-.33.28s-.23.24-.42.18.1-.27.19-.37l.68-.76a.51.51,0,0,0,.17-.29.14.14,0,0,0,0-.12c0-.05-.08,0-.12,0l-.6.5c-.09.07-.21.13-.29,0s0-.17.1-.23a7.18,7.18,0,0,0,1-1.2,1.31,1.31,0,0,0,.17-1.14,7.3,7.3,0,0,1-.55.56c-.19.16-.32.4-.63.48a1.35,1.35,0,0,1,.41-.66,7.7,7.7,0,0,0,.77-.94.76.76,0,0,0,.15-.65c-.24.09-.3.32-.48.42s-.14.24-.27.13,0-.2.08-.28l.13-.15c.18-.23.37-.45.53-.69s.13-.55,0-.59-.27.17-.39.29-.26.42-.59.5c.21-.6.75-.94,1-1.57a1.47,1.47,0,0,0-1.11.63,6.24,6.24,0,0,1-1.17,1.29c-.12.09-.22.24-.41.19a.41.41,0,0,1,.19-.34c.21-.2.42-.41.62-.62a.18.18,0,0,0,.06-.25l0,0c-.53.18-1,.47-1.52.7a1.15,1.15,0,0,0-.59.56A4.68,4.68,0,0,1,420,81.19c-.07.07-.15.19-.29.1s.09-.26.19-.36l.69-.75c.09-.11.21-.21.12-.4a5.79,5.79,0,0,0-1.06.37,1.78,1.78,0,0,0-.87.73A2.68,2.68,0,0,1,417.48,82c-.06,0-.13.06-.18,0s0-.15,0-.22.18-.13.26-.21a2,2,0,0,0,.67-.74.69.69,0,0,0-.76.33,3.91,3.91,0,0,1-1.13.89c-.07,0-.16.07-.22,0a.16.16,0,0,1,.05-.17,1.27,1.27,0,0,1,.25-.22.63.63,0,0,0,.36-.42,9.4,9.4,0,0,0-.92.2,1,1,0,0,0-.77.59,2.72,2.72,0,0,1-1.18,1.26c-.17.09-.4.32-.54.09s.16-.29.32-.4a2,2,0,0,0,.93-1.16,1.36,1.36,0,0,0-1.36.62,2.51,2.51,0,0,1-1,.87.17.17,0,0,1-.22,0c-.07-.08,0-.15,0-.21a1.71,1.71,0,0,0,.26-.21c.19-.23.52-.38.53-.76a.9.9,0,0,0-.84.24,4.75,4.75,0,0,1-1.09.79c-.14.08-.34.28-.45.09s.11-.3.27-.39a5.11,5.11,0,0,0,.48-.33c.09-.07.17-.15.14-.28a1,1,0,0,0-1.1.39,2.79,2.79,0,0,1-.8.61c-.13.09-.34.21-.43.06s.13-.26.25-.33a3,3,0,0,0,.75-.67c-.49-.19-.59-.17-.95.08a2.13,2.13,0,0,1-.86.44c-.06,0-.13,0-.16-.06a.12.12,0,0,1,.08-.16c.15-.08.27-.22.44-.3s.15-.21,0-.26-.53-.13-.79-.22a.83.83,0,0,0-.78.06c-.2.12-.44.18-.65.32a.21.21,0,0,1-.29,0s0,0,0,0a1,1,0,0,1,.41-.37c.12-.07.32-.06.31-.25s-.18-.21-.3-.29-.33-.08-.51.08-.32.41-.65.31c.05-.24.25-.32.37-.47a.31.31,0,0,0,0-.42l-.09-.07a5.56,5.56,0,0,1-1.86-4.75c0-.11,0-.23,0-.34s-.11-.21-.26-.11l-.56.37a.19.19,0,0,1-.18,0c-.08-.06,0-.14,0-.21a.7.7,0,0,1,.22-.2,6.22,6.22,0,0,0,.64-.51.94.94,0,0,0,.32-1,20.85,20.85,0,0,0-1.54,1.43c-.12-.31.06-.46.21-.62l1.47-1.48a1.28,1.28,0,0,0,.37-.92c-.58.33-.92.85-1.5,1.18a1.09,1.09,0,0,1,.4-.73c.51-.48,1-1,1.47-1.48A.35.35,0,0,0,405,71c-.31.26-.57.51-.84.72s-.3.37-.43.23.11-.32.24-.45l1.59-1.63a.61.61,0,0,0,.24-.58c-.31.11-.45.38-.69.51-.06,0-.13,0-.17,0a.15.15,0,0,1,0-.13,2.48,2.48,0,0,1,.25-.3c.46-.48.94-.94,1.4-1.42a10.66,10.66,0,0,0,1.27-1.83s0,0,0-.11a25.36,25.36,0,0,1-2.09,1.77.54.54,0,0,1,.23-.48l1.7-1.52c.07-.06.17-.16.24-.15.39.07.52-.24.7-.47s.42-.53.63-.81c.07-.1.18-.18.13-.34a.48.48,0,0,0-.57.14,21.63,21.63,0,0,1-2.2,2c-.09.07-.16.22-.28.16a2.21,2.21,0,0,1-.44-.26c-.18-.16,0-.35.11-.5l.75-.83a.56.56,0,0,0,.17-.32c-.35.12-.46.54-.86.54.12-.42.51-.61.66-1a.66.66,0,0,0-.85.1c-.29.27-.59.5-.9.75l-1.26,1.06c-.07.06-.14.1-.21,0a.15.15,0,0,1,0-.18,1.81,1.81,0,0,1,.4-.55c.39-.4.77-.83,1.12-1.27a.1.1,0,0,0,0-.14s0,0,0,0a.11.11,0,0,0-.13,0c-.35.36-.75.67-1.06,1.06-.07.08-.08.26-.23.17s-.09-.22,0-.34a.83.83,0,0,1,.19-.23c.21-.2.4-.42.6-.63a.16.16,0,0,0,0-.24l0,0a.18.18,0,0,0-.22,0l-.11.09a6.31,6.31,0,0,0-1.12,1.07.27.27,0,0,1-.37.12l0,0c-.16-.12-.08-.27,0-.4a1.3,1.3,0,0,1,.18-.23c.22-.22.44-.42.65-.65s.15-.24-.08-.34-.36-.11-.59.19-.48.61-.72.92c-.05.06-.11.14-.2.1s-.07-.16-.05-.26.18-.22.13-.42a4.92,4.92,0,0,0-.83.61c-.17.15-.27.11-.32-.11a.43.43,0,0,1,.14-.44,8.39,8.39,0,0,1,.83-.75c.07-.07.16-.13.09-.24a.24.24,0,0,0-.3-.09.75.75,0,0,0-.26.21l-1.7,1.44c-.08.07-.14.22-.27.1a.24.24,0,0,1,0-.32,2.75,2.75,0,0,1,.22-.26l1.16-1.17c.1-.09.2-.2.08-.33a.25.25,0,0,0-.35,0h0a1.88,1.88,0,0,0-.35.34,5.73,5.73,0,0,1-.89,1,2.42,2.42,0,0,0-.47.49c-.14.23-.25.24-.5.08a.28.28,0,0,1-.06-.46,3,3,0,0,1,.29-.32c.37-.39.75-.77,1.11-1.16.07-.08.19-.17.06-.29a.25.25,0,0,0-.35,0h0l-.17.18-.95.9a.56.56,0,0,1-.51.19c0-.21.11-.31.19-.45s.13-.21.07-.26c-.32-.23,0-.38.06-.55s.19-.17.14-.35l-.27-.05c-.57-.11-1.07-.12-1.37.53-.1.22-.14.37,0,.56.5.66,1,1.34,1.49,2A10.19,10.19,0,0,1,399.84,69a5.49,5.49,0,0,1,.1,1.21c0,.5-.05,1-.08,1.5A4.51,4.51,0,0,1,398,75.23a7.9,7.9,0,0,1-1.09.63,5.51,5.51,0,0,1-2.84.72,1.65,1.65,0,0,0-1.41.5c-.1.11-.2.26-.38.22,0,0,0,0,0-.08,0-.2.42-.24.19-.46s-.33.12-.51.17-.15.13-.24.17-.19.12-.29.05.29-.25.07-.4a.54.54,0,0,0-.6,0,.69.69,0,0,0-.18.16l-.51.44c-.06.06-.12.13-.2.07s-.05-.15,0-.21l.25-.3a.23.23,0,0,0,0-.31c-.23.19-.54.25-.78.45s-.31.25-.45.06-.23-.12-.34,0-.08.18-.23.16c-.27-.42.38-.5.33-.87a8.65,8.65,0,0,1-1.75.8c.3-.43.89-.5,1.22-1a.54.54,0,0,0-.53.12c-.5.37-1.11.5-1.64.82a.1.1,0,0,1-.15,0s0,0,0,0,0-.12.08-.15a3.6,3.6,0,0,1,.54-.31,2.07,2.07,0,0,0,1-.69c-.32-.27-.59-.15-.86,0a2.07,2.07,0,0,1-1.48.65c-.08,0-.18.06-.27.1s-.18.12-.25,0a2.26,2.26,0,0,1,.65-.82,3.32,3.32,0,0,0,.38-.37.17.17,0,0,0,0-.14.09.09,0,0,0-.12,0,2.42,2.42,0,0,0-.55.4c-.3.27-.31.26-.53-.13a.81.81,0,0,1,.35-.25c.09,0,.2-.07.2-.18s-.12-.18-.23-.23a.29.29,0,0,0-.35.07l-.4.35c-.06,0-.13.11-.2,0a.17.17,0,0,1,0-.19s.1-.08.13-.13.24-.18.12-.32-.27,0-.39,0-.14.13-.22.18-.34.28-.5.27a3.7,3.7,0,0,0-.81.13c-.08,0-.17,0-.2-.05s0-.15.12-.17c.37-.09.65-.36,1-.45.14,0,.29-.15.19-.32a.26.26,0,0,0-.35-.1.13.13,0,0,0-.07.06,1.88,1.88,0,0,1-.26.22c-.29.16-.53.47-.9.41a1.29,1.29,0,0,0-.79.17c-.12,0-.27.23-.37,0s.13-.23.25-.31a.29.29,0,0,1,.13,0,5.2,5.2,0,0,0,1.24-.64c.08,0,.2-.07.15-.22a.56.56,0,0,0-.4.1,11.92,11.92,0,0,1-1.4.66c-.26.09-.27.09-.31-.23l.15,0c.06,0,.13-.05.09-.13s-.11,0-.17,0a.13.13,0,0,0-.05.17c-.12,0-.22,0-.31-.1s-.26-.12-.35,0A5.52,5.52,0,0,1,378.21,76a.54.54,0,0,0-.18.57c.07.24.12.27.33.1s.7-.56,1.05-.85c.12-.1.22-.19.39-.14.06.21-.07.34-.19.47a9,9,0,0,1-1.28,1.11.64.64,0,0,0-.33.56c0,.09-.05.2.06.26s.18,0,.25-.08c.44-.43.87-.87,1.32-1.29.12-.11.21-.38.4-.23s0,.33-.1.48a.58.58,0,0,1-.11.15,11.66,11.66,0,0,1-1.64,1.58,1,1,0,0,0-.36,1,4.84,4.84,0,0,0,.82-.81c.42-.49.83-1,1.24-1.5.1-.12.23-.22.37-.11s0,.24,0,.35a6.46,6.46,0,0,1-.54.75,4.36,4.36,0,0,0-.75,1,5.84,5.84,0,0,0,.56-.42c.16-.09.25-.36.5-.24a.21.21,0,0,1-.05.2,12.56,12.56,0,0,1-2.34,2.38,1.24,1.24,0,0,0-.5,1,.12.12,0,0,0,.22.09,5.52,5.52,0,0,0,.43-.53c.41-.54.81-1.09,1.21-1.63.05-.07.11-.14.2-.08s.05.14,0,.21-.18.31-.26.47-.1.22.09.24.17.11.11.24a.67.67,0,0,0-.08.46.26.26,0,0,1-.1.26,1.9,1.9,0,0,0-.54,1.18.21.21,0,0,0,.22-.05l.77-.66a.56.56,0,0,1,.24-.16c.12,0,.2,0,.17.17a.48.48,0,0,1-.17.23,8.43,8.43,0,0,1-1.37,1.15,2.72,2.72,0,0,1-1.21.66c-.18,0-.23.21-.27.37a.21.21,0,0,0,.07.26c.09,0,.16,0,.23,0a7.72,7.72,0,0,1,1.05-.6c.26-.12.53-.21.56-.58,0-.13.16-.23.27-.33l.8-.71.89-.82a.21.21,0,0,1,.27,0c.12.09,0,.22,0,.29-.24.26-.51.5-.76.75a10.51,10.51,0,0,0-.91.85,1.86,1.86,0,0,0,1.14-.5c.44-.41.88-.81,1.34-1.2.13-.12.3-.37.46-.19s-.13.29-.23.42-.51.42-.67.77a1.35,1.35,0,0,0,.9-.37l1-.82a.45.45,0,0,1,.4-.11c.09,0,.09.13.12.2a1.61,1.61,0,0,0-.63.61A1,1,0,0,0,383.68,82.27Zm-5.75-8.55c.74,0,1.08-.54,1.55-.88.08-.07,0-.15-.06-.2s-.23,0-.34.06a6.82,6.82,0,0,1-.79.63A.76.76,0,0,0,377.93,73.72Zm44,16c-.2.15-.41.3-.6.46s-.22.22-.4.06-.3-.07-.46.08a1.48,1.48,0,0,0,.56.37.29.29,0,0,0,.35-.08A1.81,1.81,0,0,0,422,89.71Zm1.44-.61a.14.14,0,0,0,.19,0,2.54,2.54,0,0,1,.57-.51.64.64,0,0,0,.24-.46.18.18,0,0,0-.05-.18.16.16,0,0,0-.18,0C423.81,88.28,423.42,88.57,423.39,89.1Zm-43.14-16c-.09-.14-.19-.14-.27-.09a6.45,6.45,0,0,0-1.39,1.16A7.25,7.25,0,0,0,380.25,73.08Zm42.47,18.5a.23.23,0,0,0,.13.2c.25.18.44.12.55-.16s0-.28-.17-.24S422.85,91.42,422.72,91.58Zm1.66-4.66-.08,0a6.19,6.19,0,0,0-.47.55c-.12.18-.42.24-.37.6A3.49,3.49,0,0,0,424.38,86.92ZM376.8,72.17c.15-.17.32-.27.37-.49-.13-.11-.27-.2-.42-.05S376.64,72,376.8,72.17Zm9,3.85c.29,0,.38-.2.54-.26s.1-.09.06-.15a.14.14,0,0,0-.2-.07,1,1,0,0,0-.4.48Zm10.38-14.51c-.31,0-.41,0-.45.1a.13.13,0,0,0,.07.16c.24.11.28-.1.39-.22S396.19,61.52,396.19,61.51ZM422.46,91l-.15.15c-.05.06-.13.12-.06.2s.17,0,.24,0l.12-.2a.08.08,0,0,0,0-.1h-.13ZM389,76.87c.32,0,.39-.15.56-.39A.87.87,0,0,0,389,76.87Zm35,13.75c0,.08.11.07.17,0s.17-.1.15-.22a.12.12,0,0,0-.12-.09h0A.23.23,0,0,0,424,90.62Zm-4.54-.81c.32,0,.33-.18.49-.31C419.69,89.46,419.65,89.64,419.49,89.81ZM378,75.29c-.06,0-.12,0-.11.12a.09.09,0,0,0,.14.07c.07,0,.17,0,.14-.15S378,75.28,378,75.29ZM377.87,73s0,.06.05.06a.07.07,0,0,0,.1,0h0a0,0,0,0,0,0-.06h0A.1.1,0,0,0,377.87,73Zm30.32-9c-.05,0-.08,0-.06.1a.08.08,0,0,0,.12,0,.08.08,0,0,0,.06-.1c0-.06-.07-.06-.12,0ZM423.7,92.28a.1.1,0,0,0,.1.08h0a.08.08,0,0,0,.07-.1h0a.08.08,0,0,0-.11,0S423.69,92.24,423.7,92.28Zm.08-2.28c-.06,0-.09,0-.07.1a.12.12,0,0,0,.08,0,.09.09,0,0,0,.08-.09c0-.06-.06,0-.1,0Z"/><path class="a" d="M418.64,88.76a.92.92,0,0,1,.38-.47c.19-.17.46-.28.45-.63,0-.18.2-.26.36-.21a1,1,0,0,0,.45.08c.18,0,.17.18.12.3a2.17,2.17,0,0,1-.51.7,3.94,3.94,0,0,1-.45.36c-.06,0-.2.09-.21,0C419.12,88.59,418.87,88.81,418.64,88.76Z"/><path class="b" d="M413.64,98.57s38.5,58.69-10.1,93.39-151.37,5.4-220.23,99.32,245.6,480.38,141,531.05S-.17,836.6-.17,836.6"/></svg>