<svg xmlns="http://www.w3.org/2000/svg" viewBox="0 0 1619.76 1988.17"><defs><style>.a{fill:none;stroke:#63494b;stroke-width:4px;stroke-dasharray:20;}.b{fill:#63494b;}</style></defs><title>p+epsilon</title><path class="a" d="M1523.91,87.54s313.63,342.36-250,556.65-177.6,417.63-92.27,526.3,145.63,320.23-477.73,495.58S-93.25,1582.91,71.52,1376s425.7-119,723.92,144.51,266.82,467.66,266.82,467.66"/><path class="b" d="M1522.46,45.7c1.52-.21,3.06-.33,4.56-.63,1.78-.37,3.56-.77,5.32-1.21,2.11-.52,4.14-1.26,6.22-1.86.53-.15,1.07-.23,1.6-.39a1.5,1.5,0,0,1,1.56.52,5.64,5.64,0,0,1,1.39,2.56,9.16,9.16,0,0,1-1.16,6.49c-1.25,2.36-2.86,4.5-4,6.88a32.67,32.67,0,0,0-3.27,10.19,8.34,8.34,0,0,1-.65,2.24,3.28,3.28,0,0,1-1.7,1.54.88.88,0,0,1-.6,0,4.35,4.35,0,0,1-2.5-1.6c-.65-.89-1.31-1.76-2-2.63a18.72,18.72,0,0,0-5.53-4.8c-1.33-.77-2.63-1.6-4-2.24a27,27,0,0,0-8.31-2.34,12.48,12.48,0,0,0-5,.2,6.5,6.5,0,0,0-2.53,1.27,33.86,33.86,0,0,0-5.36,5.67,18.42,18.42,0,0,0-3.09,6.45,19.11,19.11,0,0,0-.48,4.89,33.26,33.26,0,0,0,.16,3.46,36.11,36.11,0,0,0,1.33,6,38.86,38.86,0,0,0,2.6,6.3,1.51,1.51,0,0,1-.67,2,3.92,3.92,0,0,1-2.26.75,11.83,11.83,0,0,1-5.75-1.75,58.82,58.82,0,0,0-8.64-3.61,25.39,25.39,0,0,0-5.19-1,30.26,30.26,0,0,0-4.76.15,10.59,10.59,0,0,1-1.38,0c-1.85-.22-2.56-1.6-2-3.35a8.83,8.83,0,0,1,1.36-2.31c1.19-1.77,2.36-3.56,3.44-5.41.71-1.23,1.48-2.42,2.29-3.58a39.2,39.2,0,0,0,2.49-4.36c.52-1,1-2,1.54-3a18,18,0,0,0,1.85-6.89,16.93,16.93,0,0,0-.26-4.66,9.07,9.07,0,0,0-4-6.18,7.79,7.79,0,0,0-3.47-1.48,7.39,7.39,0,0,0-2.15.17,30.06,30.06,0,0,0-5.63,1.74c-2.16.91-4.18,2.1-6.29,3.11a9.63,9.63,0,0,1-1,.43,2.25,2.25,0,0,1-2.91-1.26s0-.09,0-.13a6.12,6.12,0,0,1,0-4.55c1.2-3.55,3-6.84,4.38-10.3a36.89,36.89,0,0,0,2.65-9.39,10.59,10.59,0,0,1,.55-1.82,12.82,12.82,0,0,0,.42-1.5,1.51,1.51,0,0,1,1.62-1.41,1.55,1.55,0,0,1,1.06.53c.76.67,1.47,1.4,2.18,2.11a81.14,81.14,0,0,0,8.48,7.57,27.09,27.09,0,0,0,7.17,4,12.26,12.26,0,0,0,4.16.77,6.54,6.54,0,0,0,6.11-3.71c.26-.49.45-1,.72-1.52a7.26,7.26,0,0,0,.62-2.07.89.89,0,0,0,0-.51c-.15-.33-.27-.63.19-.86.2-.1.16-.42.19-.64a24.31,24.31,0,0,0,.25-3.81,50.85,50.85,0,0,0-1.13-9.91c-.58-2.77-1.33-5.51-2.12-8.23-.3-1-.85-2-1.23-3a.71.71,0,0,0-.08-.15,2.16,2.16,0,0,1,.69-3,2.13,2.13,0,0,1,.68-.28,9,9,0,0,1,5.37-.19c.9.19,1.8.42,2.69.64a3.4,3.4,0,0,1,.9.3c1.35.81,2.88,1.18,4.28,1.89a18.22,18.22,0,0,0,4.9,1.41l4.17.8a22.87,22.87,0,0,0,3.69.39c1.16,0,2.31.13,3.46.22a9.08,9.08,0,0,0,1.38,0,10.92,10.92,0,0,1,1.13-.08,1.46,1.46,0,0,1,1.21,2.47,5.53,5.53,0,0,1-1.48,1.33,25.52,25.52,0,0,0-7.24,6.65c-1.32,1.65-2.66,3.28-3.9,5a41.29,41.29,0,0,0-4,6.9,50.49,50.49,0,0,0-2.73,6.94,7.54,7.54,0,0,0,4.32,9.38,17,17,0,0,0,5.7,1.33,24.26,24.26,0,0,0,3.81.11c1.24-.11,2.47-.26,3.71-.39Zm-38.67,40.85c.26.43.35,1,1.08,1.29-.36-.6-.53-1.09-1.09-1.27.06-.36-.06-.6-.5-.73ZM1470.67,86c0-.59-.46-.95-.71-1.41-.11-.21-.35-.18-.51,0a2.09,2.09,0,0,0-.35.49c-.15.26-.1.48.25.4a.94.94,0,0,1,1,.41.32.32,0,0,0,.31.11.43.43,0,0,0,.3.54h.1c.15,0,.2-.12.18-.23-.07-.36-.32-.36-.6-.3Zm18.47-8.39c.18-.37-.36-.61-.16-1,.21-.06.31.11.44.21s.34.52.62.3.14-.52,0-.79-.25-.51-.39-.77-.44-.81-.67-1.21c-.08-.14-.12-.36,0-.38.32,0,.47-.85.94-.2.1.15.28,0,.34-.1a3.9,3.9,0,0,0,.14-.59,18.88,18.88,0,0,1,.71-2.68,22.64,22.64,0,0,1,4.25-7.41,18,18,0,0,1,7.55-5.64,17,17,0,0,1,4.27-1.07c.35,0,.69-.06,1-.09s.39-.08.38-.36c0-.53.25-.54.68-.44a3.51,3.51,0,0,1,1.2.46c.16.12.34.19.49-.09.3-.53.56-.63,1.09-.41a10.93,10.93,0,0,1,1,.6c.18.1.38.23.54,0,.4-.54.82-.24,1.21,0a7,7,0,0,1,.72.49c.27.2.52.4.73-.09.1-.25.33-.15.53-.08a5.51,5.51,0,0,1,1.82,1.15c.61.52,1.21,1.08,1.82,1.61a1.87,1.87,0,0,0,1.24.53l-1.55-1.65c-.42-.44-.83-.88-1.23-1.34a.45.45,0,0,1,0-.63h0a.53.53,0,0,1,.64-.12,2.48,2.48,0,0,1,.78.54,23.83,23.83,0,0,1,2.39,2.63c.15.17.27.41.49.47a3.25,3.25,0,0,1,1.36,1c.18.2.31.5.69.45a7.69,7.69,0,0,0-.69-1.3.4.4,0,0,1,0-.49.44.44,0,0,1,.56,0c.2.1.36.42.57.34.69-.29.93.2,1.25.61.15.19.29.49.61.37.56-.21.79.17,1,.52a3.2,3.2,0,0,0,.93,1c-.14-.44-.35-.84-.51-1.26s-.16-.6.18-.76a.54.54,0,0,1,.72.23l0,0c.08.15.19.29.27.44.46.77.91,1.55,1.36,2.32.14.25.25.52.6.6.11-.47-.19-.8-.37-1.14-.45-.81-1-1.58-1.42-2.38s-.44-1-.15-1.25.57,0,1,.68c.28.44.53.9.81,1.34.16.24.18.74.59.62s.39-.55.43-.89a1.49,1.49,0,0,0-.18-.83c-.16-.34-.35-.67-.49-1a2.41,2.41,0,0,1-.24-1.18.33.33,0,0,1,.23-.33.41.41,0,0,1,.38.16.66.66,0,0,1,.18.48c0,.36.32.61.41.95a.36.36,0,0,0,.39.28c.16,0,.21-.19.27-.32a.67.67,0,0,0,0-.66c-.22-.41-.41-.83-.63-1.23a1.23,1.23,0,0,1-.13-1c.49.18.65.61.9.94s.21.46.51.37.3-.34.36-.56a.88.88,0,0,0-.15-.65,7,7,0,0,1-.65-1.51.38.38,0,0,1,.22-.5c.22-.08.29.13.4.25.3.34.3.9.78,1.1.71-.75.72-.77.28-1.63-.1-.21-.22-.4-.32-.61a.26.26,0,0,1,.06-.32c.15-.1.27,0,.35.11a1.07,1.07,0,0,0,.15.22c.17.17.22.55.56.44s.37-.42.44-.7a.94.94,0,0,0-.16-.74c-.24-.39-.45-.8-.7-1.19a.9.9,0,0,1-.08-.87,6.27,6.27,0,0,1,1,1.35c.19.27.42.32.61,0l1.42-2.39a.7.7,0,0,0,.13-.65,3.68,3.68,0,0,0-1.42-1.87c-.13.27.26.49,0,.68s-.38-.06-.55-.14c-.67-.28-1.36-.5-2-.73a2.91,2.91,0,0,0-2.29.2,2.1,2.1,0,0,0,.75.5,3,3,0,0,1,1.16,1c.09.16.2.32,0,.46s-.27,0-.38-.09a11.82,11.82,0,0,0-3.61-1.42.89.89,0,0,0-.89.13c.11.28.36.33.54.45a8.62,8.62,0,0,1,1.39,1.17c.09.11.22.23.13.38a.35.35,0,0,1-.46.11,1.83,1.83,0,0,1-.3-.18,17.17,17.17,0,0,0-3-1.43,1.16,1.16,0,0,0-1.1.07,3.53,3.53,0,0,0,1.45.62,5,5,0,0,1,2.21,1.32c.1.11.23.23.16.37a.37.37,0,0,1-.46.15,3.48,3.48,0,0,1-.48-.21c-1.44-.69-3-1.12-4.43-1.75a1.24,1.24,0,0,0-1.14,0c.11.33.36.41.58.55s.63.4.93.63.62.32.42.64-.51,0-.77-.07c-1-.45-1.94-.89-2.94-1.28a3.86,3.86,0,0,0-2.13-.12c-.32.06-.38.24-.15.47a6.5,6.5,0,0,1,1,1c.09.14.26.28.11.45s-.37.08-.55,0c-.49-.35-1-.72-1.48-1.06a3.17,3.17,0,0,0-1.53-.76,26.85,26.85,0,0,0-2.69-.08c-.39,0-.46.19-.22.49a4.28,4.28,0,0,0,1.15.92,2.18,2.18,0,0,1,.65.56.34.34,0,0,1-.45.5,1,1,0,0,1-.22-.14,8.84,8.84,0,0,1-2-1.87,1.85,1.85,0,0,0-1.36-.81,17,17,0,0,1-4.47-1.37,9.89,9.89,0,0,1-5.59-6.28,7.07,7.07,0,0,1-.47-2.62,18.81,18.81,0,0,1,.68-4,1.3,1.3,0,0,0-.18-1.31.32.32,0,0,1-.06-.38c.23-.22.56.32.76-.11a1.2,1.2,0,0,0,.21-.9c-.12-.33-.86-.83.26-.67.08,0,.21-.19.27-.32.16-.34.31-.68.45-1,.23-.57.14-.8-.33-1.2-.16-.15-.64-.13-.43-.48s.46.07.7.09a1.53,1.53,0,0,1,.31.16.35.35,0,0,0,.45-.15.89.89,0,0,0-.06-1.26l-.13-.1A2.82,2.82,0,0,0,1505,26a.17.17,0,0,1-.08-.22.21.21,0,0,1,.26-.14h0a3.54,3.54,0,0,1,.57.22c.35.19.53,0,.68-.28a.65.65,0,0,0-.12-.86,7.07,7.07,0,0,1-.69-.65c-.15-.2-1-.45,0-.74.09,0,0-.15,0-.23,0-.23-.07-.49.24-.56s.33.18.47.32a1.54,1.54,0,0,1,.33.6,1,1,0,0,0,.52.62c.57-.88.57-.91,0-1.63-.26-.31-.52-.62-.77-.94s-.39-.41-.38-.7a.4.4,0,0,1,.51.12c.41.36.81.74,1.23,1.11.13.11.26.25.45.14a.47.47,0,0,0,.2-.53.83.83,0,0,0-.26-.44,14.78,14.78,0,0,0-1.42-1.64c-.11-.1-.2-.23-.1-.37a.34.34,0,0,1,.4-.09,1.9,1.9,0,0,1,.75.57c.29.33.55.67.84,1,.13.14.29.33.51.14a.45.45,0,0,0,.14-.62,4,4,0,0,0-.29-.43,18,18,0,0,0-1.82-2.09c-.13-.11-.31-.24-.2-.42a.37.37,0,0,1,.53-.1h0a3.17,3.17,0,0,1,.56.4,10.15,10.15,0,0,1,1.36,1.57c.14.17.25.38.6.32-.54-1-1.37-1.66-1.93-2.56a.49.49,0,0,1,.64,0c.33.24.55.61.85.85s.41,1.07,1,.92.71-.73,1-1.14a.53.53,0,0,0,0-.71,13,13,0,0,0-2.61-3.3c-.24-.19-.27-.39,0-.57s.67.06.9-.34c0-.06.51.18.73.37.06.06.13.11.19.18a21.19,21.19,0,0,1,1.75,1.92c.1.14.15.31.34.37a.3.3,0,0,0,.38-.12.18.18,0,0,0-.06-.25l0,0c-.61-.26-.84-.84-1.19-1.33a2.8,2.8,0,0,0-.69-.87c-.75-.49-.73-.78.07-1.24-.14-.43-.18-1-.65-1.14a2.34,2.34,0,0,1-1.12-1,20.1,20.1,0,0,0-2.13-2.39c-.19-.2-.38-.44-.7-.42-.11.18,0,.3.08.4.63.76,1.08,1.65,1.65,2.45a1.12,1.12,0,0,1,.29.52.18.18,0,0,1-.27.2,1.75,1.75,0,0,1-.38-.34c-.46-.59-.9-1.2-1.36-1.8-.15-.2-.26-.46-.58-.41-.18.27.09.58-.14.87-.35-.06-.48-.35-.64-.62-.32-.54-.66-1.08-1-1.64a.94.94,0,0,0-.58-.47.29.29,0,0,0-.32,0,.24.24,0,0,0,0,.32c.13.23.27.45.41.67s.35.46.2.78c-.33,0-.45-.24-.61-.44-.38-.46-.76-.94-1.14-1.41a1,1,0,0,0-.46-.39.34.34,0,0,0-.24,0c-.08.05-.05.14,0,.22l.7,1.19c.11.19.17.41-.07.53s-.3-.12-.39-.25A12.52,12.52,0,0,0,1500.06,5a2.38,2.38,0,0,0-2-.61,11.3,11.3,0,0,1,.83,1.13c.23.38.62.67.68,1.24a2.46,2.46,0,0,1-1.06-.91,12.85,12.85,0,0,0-1.44-1.61,1.31,1.31,0,0,0-1.1-.45c.08.44.48.62.61,1,.07.17.38.31.16.5s-.35-.08-.49-.22-.15-.17-.23-.26c-.35-.38-.68-.78-1.07-1.13s-.93-.38-1-.18c-.18.39.22.53.4.76s.67.58.73,1.18c-1-.54-1.45-1.58-2.5-2.13a2.67,2.67,0,0,0,.79,2.14,11.24,11.24,0,0,1,2,2.43c.12.22.35.44.21.76a.75.75,0,0,1-.55-.43c-.29-.43-.6-.84-.91-1.27a.34.34,0,0,0-.44-.16.05.05,0,0,1,0,0c.18,1,.57,1.92.83,2.89a2,2,0,0,0,.81,1.18,8.76,8.76,0,0,1,2.09,2.41c.1.16.28.32.08.54-.31,0-.42-.23-.58-.43-.37-.48-.74-1-1.12-1.43-.16-.19-.31-.43-.66-.32a9.08,9.08,0,0,0,.35,1.94,3.08,3.08,0,0,0,1.06,1.75,4.81,4.81,0,0,1,1.53,2.54c0,.12.08.24,0,.31s-.27,0-.39-.08-.18-.36-.29-.53a3.59,3.59,0,0,0-1.12-1.38,1.24,1.24,0,0,0,.36,1.43,6.71,6.71,0,0,1,1.26,2.24c0,.13.08.3-.11.37a.26.26,0,0,1-.29-.13,2.14,2.14,0,0,1-.32-.52,1.08,1.08,0,0,0-.64-.74,15.43,15.43,0,0,0,.1,1.67,1.76,1.76,0,0,0,.83,1.53,4.85,4.85,0,0,1,1.89,2.41c.11.34.45.8,0,1s-.47-.36-.62-.68a3.6,3.6,0,0,0-1.8-2,2.43,2.43,0,0,0,.74,2.57,4.43,4.43,0,0,1,1.25,1.93.29.29,0,0,1-.09.39c-.17.09-.27,0-.36-.14a3.35,3.35,0,0,0-.3-.52c-.36-.41-.53-1-1.19-1.15a1.58,1.58,0,0,0,.18,1.53,9.1,9.1,0,0,1,1.1,2.15c.11.27.39.67,0,.82s-.49-.28-.62-.59-.28-.63-.44-.93a.47.47,0,0,0-.46-.33,1.77,1.77,0,0,0,.38,2,5,5,0,0,1,.87,1.59c.12.24.27.65,0,.77s-.43-.32-.53-.53a5.15,5.15,0,0,0-1-1.52c-.47.82-.46,1-.13,1.7a3.62,3.62,0,0,1,.54,1.63c0,.11,0,.25-.15.27a.23.23,0,0,1-.26-.18c-.1-.3-.3-.55-.39-.86s-.33-.33-.48-.05-.37.91-.6,1.34a1.52,1.52,0,0,0-.12,1.39c.16.38.2.83.39,1.23a.38.38,0,0,1-.08.52l-.05,0a2,2,0,0,1-.55-.84c-.09-.23,0-.58-.35-.62s-.41.27-.59.46-.23.56,0,.91.64.69.37,1.23c-.41-.15-.51-.52-.74-.77a.53.53,0,0,0-.73-.18.41.41,0,0,0-.14.12,9.85,9.85,0,0,1-8.9,2,5.59,5.59,0,0,0-.59-.11c-.35,0-.41.15-.27.43s.34.73.49,1.1a.37.37,0,0,1,0,.32c-.12.11-.26,0-.38-.08a1.19,1.19,0,0,1-.28-.42,13.63,13.63,0,0,0-.72-1.29,1.7,1.7,0,0,0-1.62-.82,36.41,36.41,0,0,0,2.09,3.14c-.58.13-.8-.22-1-.54l-2.2-3a2.23,2.23,0,0,0-1.52-.91c.42,1.1,1.26,1.85,1.66,3a1.92,1.92,0,0,1-1.16-.91c-.7-1-1.41-2.05-2.2-3a.59.59,0,0,0-.54-.28c.38.61.74,1.13,1,1.69.14.25.56.62.27.8s-.52-.27-.71-.53c-.82-1.08-1.62-2.17-2.43-3.26a1.12,1.12,0,0,0-1-.6c.1.59.53.91.69,1.37,0,.12,0,.24-.09.29a.3.3,0,0,1-.23,0,4.5,4.5,0,0,1-.46-.52c-.7-.95-1.39-1.91-2.11-2.86a18.21,18.21,0,0,0-2.87-2.75s-.1,0-.21,0c.76,1.43,1.89,2.62,2.55,4.19a1,1,0,0,1-.79-.54c-.75-1.13-1.47-2.28-2.2-3.42-.09-.14-.24-.34-.2-.46.23-.68-.29-1-.64-1.37s-.82-.9-1.25-1.33c-.15-.16-.28-.38-.57-.33a.87.87,0,0,0,.09,1.05A36.73,36.73,0,0,1,1467,32.6c.1.17.33.35.2.54a3.8,3.8,0,0,1-.57.7c-.35.27-.64-.06-.87-.33-.42-.51-.84-1-1.25-1.55a.94.94,0,0,0-.51-.39c.12.65.82,1,.72,1.67-.71-.33-.93-1.08-1.54-1.45a1.18,1.18,0,0,0-.07,1.54c.39.57.72,1.18,1.08,1.78.5.84,1,1.68,1.51,2.52.08.14.14.27,0,.38a.27.27,0,0,1-.33,0,3.13,3.13,0,0,1-.85-.85,28.73,28.73,0,0,0-1.93-2.33.18.18,0,0,0-.25-.07s0,0,0,0a.18.18,0,0,0,0,.24c.53.71,1,1.51,1.56,2.17.12.14.44.21.25.45s-.42.1-.63,0a1.38,1.38,0,0,1-.34-.38c-.3-.42-.63-.83-.94-1.24a.3.3,0,0,0-.41-.12s0,0,0,0a.31.31,0,0,0-.06.39.76.76,0,0,0,.13.23,11.71,11.71,0,0,0,1.57,2.26.49.49,0,0,1,.09.7l-.06.07c-.24.24-.5.06-.7-.08a1.57,1.57,0,0,1-.35-.38c-.33-.44-.64-.89-1-1.32s-.38-.34-.62,0-.3.61.17,1.09.95,1,1.41,1.53c.1.1.23.23.13.37s-.3.08-.47,0-.34-.38-.71-.34a8.34,8.34,0,0,0,.85,1.62c.21.35.11.52-.29.55a.81.81,0,0,1-.74-.37c-.39-.54-.75-1.09-1.09-1.67-.09-.14-.17-.33-.39-.24a.41.41,0,0,0-.24.5,1.44,1.44,0,0,0,.29.53l2.07,3.4c.09.16.35.31.09.5a.44.44,0,0,1-.57,0,3.31,3.31,0,0,1-.39-.45c-.59-.79-1.16-1.59-1.74-2.38-.14-.19-.3-.41-.56-.23a.44.44,0,0,0-.13.61,2.9,2.9,0,0,0,.49.71,9.77,9.77,0,0,1,1.43,1.84,4.56,4.56,0,0,0,.74,1c.37.31.35.52,0,.9s-.52.27-.82,0a4.85,4.85,0,0,1-.49-.61c-.57-.76-1.14-1.52-1.73-2.28-.11-.14-.25-.38-.49-.18a.44.44,0,0,0-.11.61h0c.08.12.18.22.26.34.45.64.89,1.29,1.32,1.93a1,1,0,0,1,.19,1c-.38,0-.52-.3-.74-.47s-.34-.29-.44-.19c-.5.49-.68-.08-1-.27s-.26-.4-.58-.35c-.06.15-.12.31-.17.47-.35,1-.51,1.84.55,2.55.37.24.62.35,1,.15,1.3-.68,2.62-1.34,3.91-2.06a18.15,18.15,0,0,1,8.4-2.45,9.74,9.74,0,0,1,2.16.15c.88.16,1.75.37,2.63.56a8.08,8.08,0,0,1,5.77,4.31,15.73,15.73,0,0,1,.79,2.11,9.58,9.58,0,0,1,.49,5.19,3,3,0,0,0,.49,2.64c.16.2.39.41.27.72l-.13,0c-.36,0-.32-.8-.76-.46s.12.62.16.95c0,.16.18.3.23.46s.15.38,0,.53c-.38.22-.36-.58-.69-.25a1.07,1.07,0,0,0-.17,1.07,1.69,1.69,0,0,0,.23.36l.66,1c.08.12.18.24,0,.38s-.27,0-.37-.06-.31-.34-.46-.52-.25-.23-.54-.08c.27.45.27,1,.57,1.48.15.24.35.63,0,.83s-.28.35-.1.58.3.2.24.46c-.82.35-.78-.81-1.45-.83a15.09,15.09,0,0,1,.91,3.3c-.67-.66-.63-1.7-1.33-2.42a1,1,0,0,0,.07,1c.52,1,.57,2.1,1,3.11a.2.2,0,0,1-.09.26h0c-.15,0-.21-.08-.25-.18a7.88,7.88,0,0,1-.41-1.05,3.66,3.66,0,0,0-.94-1.88c-.56.49-.43,1-.16,1.52.44.87,1,1.71.72,2.79,0,.15.06.34.1.51s.16.33-.1.44a4.16,4.16,0,0,1-1.26-1.38,6.05,6.05,0,0,0-.56-.77.31.31,0,0,0-.23,0,.17.17,0,0,0-.09.21,3.67,3.67,0,0,0,.55,1.08c.39.6.38.61-.38.89a1.58,1.58,0,0,1-.35-.68c0-.17-.07-.38-.27-.41s-.34.16-.45.34a.51.51,0,0,0,0,.64,8.33,8.33,0,0,1,.51.8c.07.12.15.27,0,.36a.29.29,0,0,1-.32,0,3.4,3.4,0,0,0-.21-.28c-.17-.12-.25-.47-.53-.29s-.12.46,0,.7.18.29.25.44c.13.32.39.67.34,1a5.94,5.94,0,0,0,0,1.46c0,.14,0,.31-.15.34s-.27-.1-.28-.26c0-.67-.45-1.25-.5-1.93,0-.26-.19-.56-.51-.41a.45.45,0,0,0-.28.58.64.64,0,0,0,.08.14,3,3,0,0,1,.32.52c.21.55.69,1.06.48,1.7a2.37,2.37,0,0,0,.08,1.44c0,.23.32.55,0,.66s-.37-.28-.48-.51a.75.75,0,0,1-.05-.26,9,9,0,0,0-.78-2.36c-.06-.15-.06-.37-.34-.32a1.11,1.11,0,0,0,0,.74,16.1,16.1,0,0,1,.77,2.65c.1.49.09.49-.49.47a1.14,1.14,0,0,0,0-.26c0-.11-.06-.25-.2-.2s-.13.18-.08.29a.26.26,0,0,0,.28.15c0,.19,0,.39-.26.51s-.28.43,0,.62a10.07,10.07,0,0,1,2.31,2.77.94.94,0,0,0,1,.47c.44-.05.5-.13.28-.53-.39-.71-.8-1.41-1.22-2.1-.14-.23-.27-.44-.12-.73.37,0,.56.22.76.47a17.56,17.56,0,0,1,1.61,2.57c.19.36.4.7.88.74.16,0,.34.13.48,0s0-.32-.08-.47c-.63-.89-1.28-1.78-1.9-2.68-.15-.23-.61-.47-.29-.77s.58.1.82.31a1.42,1.42,0,0,1,.24.25,19.88,19.88,0,0,1,2.33,3.33,1.72,1.72,0,0,0,1.72.91,8.21,8.21,0,0,0-1.21-1.66c-.75-.88-1.52-1.74-2.29-2.61-.19-.21-.33-.47-.1-.68s.43,0,.61.16a12.7,12.7,0,0,1,1.16,1.16,8,8,0,0,0,1.65,1.63,8.33,8.33,0,0,0-.58-1.11c-.12-.3-.57-.54-.29-1a.37.37,0,0,1,.33.15A22.74,22.74,0,0,1,1485.9,88a2.2,2.2,0,0,0,1.69,1.18.23.23,0,0,0,.29-.13.27.27,0,0,0-.05-.23c-.26-.31-.53-.62-.81-.91-.84-.87-1.7-1.73-2.55-2.59-.11-.11-.21-.23-.08-.37s.26,0,.38,0l.75.59c.18.14.35.23.44-.09s.26-.28.46-.14a1.11,1.11,0,0,0,.79.29.49.49,0,0,1,.44.24,3.37,3.37,0,0,0,1.94,1.29.4.4,0,0,0,0-.41c-.32-.51-.63-1-1-1.55a.86.86,0,0,1-.22-.46c0-.21.1-.34.33-.24a.89.89,0,0,1,.37.35,16.12,16.12,0,0,1,1.65,2.73,5.14,5.14,0,0,1,.82,2.33c0,.32.31.46.58.58a.37.37,0,0,0,.47-.06c.11-.14.05-.28,0-.41a15.86,15.86,0,0,1-.77-2c-.14-.49-.23-1-.86-1.15-.23-.06-.37-.35-.51-.57-.33-.54-.68-1.07-1-1.6s-.8-1.2-1.19-1.8a.38.38,0,0,1,0-.49c.19-.18.4,0,.51.13.39.51.73,1,1.11,1.55A15.38,15.38,0,0,0,1491.1,86a3.47,3.47,0,0,0-.57-2.15c-.6-.89-1.18-1.78-1.76-2.68-.17-.28-.57-.64-.19-.89s.46.31.66.53c.39.43.6,1,1.18,1.4a2.49,2.49,0,0,0-.4-1.7c-.38-.68-.78-1.35-1.16-2a.8.8,0,0,1-.09-.75c.07-.14.25-.12.39-.16a3,3,0,0,0,.88,1.29,1.69,1.69,0,0,0-.9-1.26Zm-16.67,7.75c.23-1.29-.64-2-1.12-3-.08-.17-.25-.07-.36,0s-.13.4,0,.61a12.24,12.24,0,0,1,.9,1.57,1.26,1.26,0,0,0,.58.74Zm40.45-73.14c.21.4.41.8.65,1.19s.32.45,0,.72-.19.5,0,.82a2.73,2.73,0,0,0,.8-.89.5.5,0,0,0-.05-.64,3.14,3.14,0,0,0-1.42-1.2Zm-.67-2.71a.26.26,0,0,0,0-.34,4.62,4.62,0,0,1-.74-1.15,1.14,1.14,0,0,0-.75-.55.31.31,0,0,0-.32,0,.27.27,0,0,0,0,.33c.44.71.85,1.47,1.77,1.68ZM1472,81.05c-.28.12-.3.3-.24.46a11.58,11.58,0,0,0,1.66,2.76,12.69,12.69,0,0,0-1.42-3.22Zm44.44-69.72a.4.4,0,0,0,.39-.16c.39-.41.34-.75-.13-1-.26-.14-.5,0-.47.23s0,.69.21.95Zm-7.74-4.21-.11.13a11,11,0,0,0,.84,1c.28.26.31.82.95.83a5.88,5.88,0,0,0-1.68-1.93Zm-39.27,79.77c-.24-.32-.38-.64-.74-.78-.23.2-.43.41-.22.72s.53.27,1,.06Zm9.31-14.81c0-.51-.26-.72-.31-1,0-.11-.13-.21-.25-.16a.27.27,0,0,0-.18.34,1.86,1.86,0,0,0,.73.84ZM1456,49.74c-.13.54-.12.72.06.82a.22.22,0,0,0,.3-.07c.26-.38-.11-.54-.29-.75,0,0,0,0-.08,0Zm59.26-38.11a3.46,3.46,0,0,0,.22.31c.08.1.17.26.33.16s.12-.29,0-.42a1.64,1.64,0,0,0-.31-.28.14.14,0,0,0-.19,0l0,0a.58.58,0,0,0,0,.19Zm-34.17,55c.17-.54-.17-.73-.54-1.09a1.5,1.5,0,0,0,.54,1.09Zm34-57.91c.16,0,.15-.16.13-.28s-.12-.32-.33-.32a.2.2,0,0,0-.2.19v0a.41.41,0,0,0,.39.37Zm-2.69,7.77c.13-.55-.22-.62-.41-.94-.14.49.16.62.41.94Zm-37.16,69.18c0,.12.06.23.19.23s.18-.11.16-.23,0-.3-.23-.28-.12.16-.12.28Zm-4-.46s.12,0,.14-.07a.16.16,0,0,0-.06-.2h0a.1.1,0,0,0-.12,0s0,0,0,0a.18.18,0,0,0,.08.21Zm-7.36-56a.16.16,0,0,0,.17.14c.09,0,.11-.11.09-.19s-.07-.16-.16-.14a.13.13,0,0,0-.1.18Zm54.06-19.48a.17.17,0,0,0,.16-.17v0a.17.17,0,0,0-.16-.15h0c-.1,0-.12.1-.11.18S1517.86,9.81,1517.93,9.81Zm-4-.77c0,.11.06.18.16.14a.19.19,0,0,0,.09-.12.16.16,0,0,0-.13-.17h0c-.11,0-.11.09-.11.15Z"/><path class="b" d="M1510.33,17.74a1.54,1.54,0,0,1-.72-.79c-.25-.39-.37-.9-1-1-.31,0-.4-.43-.26-.71a1.78,1.78,0,0,0,.27-.77c0-.31.35-.24.55-.12a3.77,3.77,0,0,1,1.09,1.09,7.14,7.14,0,0,1,.52.89c.07.13.09.38,0,.4C1510.15,16.84,1510.48,17.35,1510.33,17.74Z"/></svg>