<svg xmlns="http://www.w3.org/2000/svg" viewBox="0 0 1561 865"><defs><style>.a{fill:none;stroke:#63494b;stroke-width:4px;stroke-dasharray:20;}.b{fill:#63494b;}</style></defs><title>Peak Website_assets</title><path class="a" d="M-103.36,433.67C74,421.58,156.54,451.6,156.54,451.6S323,489.36,242.44,590.92,274.1,731.23,400.62,727s211.19,44.1,211.19,44.1l97.85,58S914.77,901.75,935.29,727s133.5-471.42,312.47-507.8,271.75-9.06,289.63,49.46-87.85,118.8-146.15,54.43,59.19-210.93,59.19-210.93"/><path class="b" d="M1493.15,110.75c1.32,1.72,2.56,3.51,4,5.13,1.7,1.92,3.45,3.81,5.23,5.67,2.13,2.2,4.47,4.18,6.67,6.3.55.54,1,1.14,1.6,1.68a2.1,2.1,0,0,1,.47,2.29,8,8,0,0,1-2.15,3.5,13,13,0,0,1-8.77,3.16c-3.77.14-7.53-.31-11.28-.09a46,46,0,0,0-14.78,3.19,11.87,11.87,0,0,1-3.21.78,4.57,4.57,0,0,1-3.09-1,1.21,1.21,0,0,1-.42-.73,6,6,0,0,1,.2-4.19c.63-1.42,1.23-2.86,1.81-4.3a26.5,26.5,0,0,0,2-10.17c0-2.17.1-4.34-.1-6.51a38.45,38.45,0,0,0-3-11.82,17.55,17.55,0,0,0-3.77-6,9.17,9.17,0,0,0-3.35-2.2,48,48,0,0,0-10.71-2.56,26.16,26.16,0,0,0-10.08.77,27.17,27.17,0,0,0-6.33,2.87,48.15,48.15,0,0,0-4.13,2.64,50.72,50.72,0,0,0-6.39,5.87,56.33,56.33,0,0,0-5.89,7.62,2.12,2.12,0,0,1-2.94.61,5.49,5.49,0,0,1-2.5-2.24c-1.54-2.57-1.83-5.41-1.93-8.27a82.73,82.73,0,0,0-1.67-13.13,36.27,36.27,0,0,0-2.49-7c-.9-2.11-2.37-3.82-3.54-5.73a13.58,13.58,0,0,1-1-1.69c-1-2.41.15-4.26,2.66-4.86a12.35,12.35,0,0,1,3.79,0c3,.21,6,.37,9.06.38,2,0,4,.11,6,.28a56.07,56.07,0,0,0,7.1,0c1.59-.07,3.17-.15,4.76-.25a25.25,25.25,0,0,0,9.74-2.61,23.27,23.27,0,0,0,5.53-3.6c2.71-2.46,4.62-5.36,4.77-9.2a11,11,0,0,0-.63-5.3,10.12,10.12,0,0,0-1.73-2.51,42.53,42.53,0,0,0-6.1-5.67c-2.65-2-5.53-3.64-8.26-5.51a13.18,13.18,0,0,1-1.26-1,3.18,3.18,0,0,1-.51-4.46l.12-.14a8.72,8.72,0,0,1,5.59-3.2c5.19-1,10.48-1.18,15.7-1.9a52.84,52.84,0,0,0,13.37-3.39,15.6,15.6,0,0,1,2.62-.62,19.53,19.53,0,0,0,2.13-.54c2-.64,3.37.62,3,2.66-.28,1.4-.66,2.78-1,4.17a115.51,115.51,0,0,0-3.29,15.72,38.69,38.69,0,0,0,.14,11.62,17.19,17.19,0,0,0,2,5.64,9.25,9.25,0,0,0,8.86,4.86c.78,0,1.57-.16,2.38-.19a10.46,10.46,0,0,0,3-.7,1.17,1.17,0,0,0,.62-.37c.3-.41.58-.77,1.19-.36.26.17.62-.11.92-.23a33.93,33.93,0,0,0,4.84-2.38,71.35,71.35,0,0,0,11.33-8.38c3-2.67,5.8-5.52,8.59-8.41,1-1.09,1.8-2.42,2.76-3.59,0-.06.08-.14.13-.21,1.44-1.91,3-2.1,4.93-.62a12.78,12.78,0,0,1,4,6.44c.41,1.24.75,2.5,1.11,3.76a4.51,4.51,0,0,1,.28,1.31c0,2.22.58,4.36.7,6.57a26,26,0,0,0,1.74,7c.66,1.88,1.29,3.78,2,5.66a32.11,32.11,0,0,0,2.12,4.8c.79,1.43,1.48,2.92,2.17,4.39a11,11,0,0,0,1,1.7c.3.44.62.86.88,1.33a2.06,2.06,0,0,1-2.17,3.22,7.62,7.62,0,0,1-2.67-.87c-4.1-2.43-8.62-3.47-13.26-4.18-3-.45-5.89-.93-8.87-1.25a57.35,57.35,0,0,0-11.27,0,67.89,67.89,0,0,0-10.42,1.56,10.66,10.66,0,0,0-8.44,11.91,24.8,24.8,0,0,0,2.4,7.92,34.34,34.34,0,0,0,2.57,4.73c1,1.44,2.06,2.85,3.09,4.27Zm-77.34-18.49c-.34.61-1,1.12-.82,2.23.49-.87,1-1.42.79-2.23.49-.18.69-.51.54-1.13Zm-8.54-16.48c.74-.41.84-1.24,1.24-1.88.17-.28,0-.55-.35-.63a2.93,2.93,0,0,0-.84-.09c-.42,0-.65.22-.31.59a1.34,1.34,0,0,1,.23,1.56.47.47,0,0,0,.07.46.61.61,0,0,0-.43.75.69.69,0,0,0,0,.13c.08.2.29.15.41,0C1407.72,76.38,1407.55,76.07,1407.27,75.78Zm23.33,16.68c.57,0,.48-.87,1.08-.89.22.21.09.45,0,.68s-.39.79.08,1,.73-.21,1-.56.45-.68.67-1c.34-.55.67-1.11,1-1.67.11-.18.36-.4.46-.27.27.37,1.39,0,.9,1-.11.23.16.37.37.33a4.84,4.84,0,0,0,.83-.22,25.77,25.77,0,0,1,3.78-1,32.29,32.29,0,0,1,12.08,0c4.47.87,8.69,2.23,12.22,5.27a23.5,23.5,0,0,1,4.33,4.47c.28.41.57.81.85,1.21s.38.42.71.21c.63-.41.85-.08,1,.52a4.56,4.56,0,0,1,.3,1.79c0,.29,0,.55.45.54.86,0,1.17.24,1.27,1a14.1,14.1,0,0,1,0,1.72c0,.29,0,.63.36.67.95.11.88.82.9,1.46a9.87,9.87,0,0,1-.1,1.22c-.06.48-.12.93.62.84.38,0,.42.3.48.58a7.83,7.83,0,0,1-.12,3c-.21,1.12-.47,2.24-.68,3.37a2.59,2.59,0,0,0,.22,1.89c.36-1.21.63-2.14.92-3.07s.5-1.64.77-2.45a.65.65,0,0,1,.76-.48.75.75,0,0,1,.59.7,3.5,3.5,0,0,1-.11,1.33,34.63,34.63,0,0,1-1.52,4.79,1.63,1.63,0,0,0-.24.94,4.55,4.55,0,0,1-.32,2.39c-.11.37-.39.73,0,1.17a11.6,11.6,0,0,0,1.1-1.77.58.58,0,0,1,.6-.33.62.62,0,0,1,.45.65c0,.32-.27.74,0,.94.84.64.41,1.28.14,2-.13.32-.41.7,0,1,.65.53.35,1.09.11,1.65a4.33,4.33,0,0,0-.63,1.88c.44-.49.78-1,1.18-1.52.26-.31.62-.62,1.06-.31a.75.75,0,0,1,.24,1l0,0c-.12.22-.22.44-.34.66-.63,1.1-1.25,2.2-1.89,3.29a1.35,1.35,0,0,0-.31,1.16c.66-.2.85-.8,1.13-1.26.68-1.11,1.27-2.28,1.92-3.41s1-1.28,1.42-1.08.44.67-.12,1.73c-.34.65-.73,1.28-1.06,1.93-.18.37-.79.74-.34,1.16s.93.1,1.38-.09a2.2,2.2,0,0,0,.89-.82c.31-.43.58-.89.9-1.31a3.45,3.45,0,0,1,1.27-1.13.47.47,0,0,1,.56.06c.17.17.11.38.07.58a.93.93,0,0,1-.45.56c-.42.29-.53.82-.89,1.16a.51.51,0,0,0,0,.68c.13.17.37.12.57.1a1,1,0,0,0,.79-.49c.34-.56.73-1.08,1.07-1.64a1.73,1.73,0,0,1,1.16-.88,3.13,3.13,0,0,1-.52,1.77c-.12.29-.42.58-.1.88s.63.12.94,0a1.19,1.19,0,0,0,.69-.65,10,10,0,0,1,1.39-1.86.55.55,0,0,1,.77-.08c.25.21,0,.44,0,.67-.19.6-.89,1-.79,1.73,1.42.34,1.45.33,2.2-.81.18-.27.33-.56.52-.82a.36.36,0,0,1,.43-.16c.23.11.22.31.11.51a1.66,1.66,0,0,0-.16.33c-.09.33-.51.66-.15,1s.78.17,1.17,0a1.4,1.4,0,0,0,.8-.71c.31-.58.65-1.13,1-1.7a1.27,1.27,0,0,1,1-.72,9.32,9.32,0,0,1-.91,2.25c-.2.42-.09.72.44.73l3.93.06a1,1,0,0,0,.89-.31,5.11,5.11,0,0,0,1.27-3.06c-.41,0-.4.67-.84.45s-.19-.52-.22-.78c-.13-1-.35-2-.54-3a4.18,4.18,0,0,0-1.87-2.67,3,3,0,0,0-.09,1.27,4,4,0,0,1-.42,2.14c-.13.22-.24.46-.54.34s-.18-.35-.16-.54c.2-1.88-.42-3.63-.81-5.42a1.26,1.26,0,0,0-.79-1c-.26.33-.15.67-.17,1a12,12,0,0,1-.46,2.53c-.06.19-.12.44-.37.43a.49.49,0,0,1-.46-.49,2.68,2.68,0,0,1,0-.49,24,24,0,0,0-.34-4.63,1.65,1.65,0,0,0-.85-1.3,4.79,4.79,0,0,0,.26,2.22,7,7,0,0,1-.06,3.63c-.06.19-.11.44-.35.46a.53.53,0,0,1-.49-.47,4.43,4.43,0,0,1-.09-.72c-.18-2.25-.73-4.44-1-6.67a1.81,1.81,0,0,0-.87-1.36,1.49,1.49,0,0,0-.27,1.09c0,.53,0,1.07-.1,1.59s0,1-.5,1-.41-.59-.45-1c-.14-1.5-.28-3-.51-4.51a5.4,5.4,0,0,0-1.36-2.69c-.3-.35-.56-.3-.68.15a9.36,9.36,0,0,1-.56,1.87c-.11.22-.17.52-.48.45s-.37-.39-.34-.69c.08-.85.2-1.7.25-2.56a4.53,4.53,0,0,0-.15-2.42c-.61-1.11-1.08-2.29-1.8-3.34-.31-.46-.55-.43-.75.08a5.72,5.72,0,0,0-.32,2,2.7,2.7,0,0,1-.24,1.19.47.47,0,0,1-.48.31.49.49,0,0,1-.44-.5,1.53,1.53,0,0,1,0-.37,12.45,12.45,0,0,1,.84-3.81,2.59,2.59,0,0,0,0-2.24,24.6,24.6,0,0,1-1.48-6.44,14,14,0,0,1,3.74-11.28,10,10,0,0,1,2.88-2.43,27.16,27.16,0,0,1,5.38-2,1.85,1.85,0,0,0,1.48-1.14.46.46,0,0,1,.42-.35c.44.12,0,.9.67.85a1.68,1.68,0,0,0,1.26-.38c.32-.38.41-1.63,1-.14,0,.09.38.11.57.1.53,0,1.06-.1,1.59-.17.85-.13,1.08-.4,1.24-1.26,0-.3-.3-.88.28-.87s.24.62.38.93c.06.14,0,.33,0,.49a.49.49,0,0,0,.5.44,1.27,1.27,0,0,0,1.51-1l0-.23c0-.16,0-.32,0-.49a.24.24,0,0,1,.22-.25.28.28,0,0,1,.35.23h0a6.13,6.13,0,0,1,.14.84c0,.57.33.67.81.64a.92.92,0,0,0,1-.74,8.06,8.06,0,0,1,.31-1.31c.13-.33-.19-1.6.87-.56.1.1.21-.06.31-.13.26-.2.55-.42.86-.09s0,.53-.06.8a2.43,2.43,0,0,1-.5.83,1.26,1.26,0,0,0-.39,1.07c1.48.08,1.51.06,2-1.14.21-.53.4-1.07.61-1.6.15-.35.23-.77.59-1a.58.58,0,0,1,.22.71c-.16.76-.34,1.52-.5,2.28,0,.24-.12.5.15.65a.67.67,0,0,0,.79-.12A1.29,1.29,0,0,0,1513,76a23,23,0,0,0,1-2.89c0-.21.13-.41.38-.39a.47.47,0,0,1,.39.43,2.6,2.6,0,0,1-.17,1.32c-.19.58-.43,1.15-.61,1.73-.09.26-.21.58.18.73a.65.65,0,0,0,.86-.27,5,5,0,0,0,.32-.66,23.13,23.13,0,0,0,1.28-3.7c0-.24.07-.55.38-.55a.54.54,0,0,1,.49.57v0a5.34,5.34,0,0,1-.1,1,15.17,15.17,0,0,1-1,2.77c-.12.28-.29.56,0,.95.82-1.34,1.06-2.85,1.78-4.17a.7.7,0,0,1,.44.79c-.07.58-.36,1.1-.45,1.65s-1,1.25-.42,1.87,1.4.35,2.12.45a.77.77,0,0,0,.86-.52A18.8,18.8,0,0,0,1523,71.6c.06-.42.29-.59.67-.45s.4.87,1,.86a2.24,2.24,0,0,1,.06,1.16c0,.12,0,.24-.08.36a30.28,30.28,0,0,1-1.11,3.5c-.1.22-.28.4-.21.68a.39.39,0,0,0,.4.37.26.26,0,0,0,.28-.25s0,0,0-.08a4.31,4.31,0,0,1,.8-2.39,4,4,0,0,0,.57-1.46c.08-1.26.44-1.43,1.56-.78.43-.48,1.09-.92,1-1.61a3.2,3.2,0,0,1,.47-2.09,31.36,31.36,0,0,0,1.42-4.3,1.38,1.38,0,0,0,0-1.16c-.3,0-.38.22-.44.39-.49,1.31-1.26,2.48-1.83,3.74a1.53,1.53,0,0,1-.44.72.26.26,0,0,1-.33,0,.33.33,0,0,1-.11-.21,3.47,3.47,0,0,1,.16-.71c.4-1,.83-2,1.24-2.93.14-.33.38-.65.09-1-.45,0-.64.53-1.16.45-.18-.47.09-.84.31-1.22.43-.79.85-1.58,1.31-2.35a1.3,1.3,0,0,0,.17-1,.41.41,0,0,0-.28-.36.36.36,0,0,0-.41.2c-.19.31-.35.64-.53,1s-.32.76-.82.8c-.26-.39,0-.72.1-1.05.3-.8.62-1.6.92-2.4a1.47,1.47,0,0,0,.15-.83.47.47,0,0,0-.22-.26c-.13-.06-.21,0-.28.16-.31.57-.63,1.14-1,1.7-.15.27-.38.5-.69.28s-.07-.45,0-.65a18.06,18.06,0,0,0,1.24-3.72,3.35,3.35,0,0,0-.63-2.83c-.24.61-.5,1.22-.8,1.81s-.38,1.23-1,1.7a3.3,3.3,0,0,1,.36-1.93,20.65,20.65,0,0,0,1-2.91,1.85,1.85,0,0,0-.23-1.66c-.49.41-.42,1-.75,1.42-.16.2-.11.68-.5.55s-.15-.48-.07-.75.11-.31.16-.46c.21-.7.47-1.4.63-2.11s-.2-1.42-.51-1.39c-.61.06-.49.64-.65,1-.23.55-.24,1.23-.93,1.72,0-1.61.91-2.9.83-4.57a3.82,3.82,0,0,0-2.06,2.48,15.55,15.55,0,0,1-1.58,4.11c-.19.31-.3.75-.8.8a1.08,1.08,0,0,1,.15-1c.32-.66.61-1.33.91-2a.48.48,0,0,0-.11-.66l-.05,0c-1.08.91-1.95,2-3,3a2.87,2.87,0,0,0-.87,1.83,12.42,12.42,0,0,1-1.48,4.26c-.12.23-.19.57-.6.48-.26-.37,0-.68.12-1,.33-.8.65-1.59,1-2.39.13-.33.31-.68-.06-1a13.17,13.17,0,0,0-2.14,1.8A4.36,4.36,0,0,0,1512,57.5a6.91,6.91,0,0,1-2,3.68c-.13.12-.25.26-.4.19s-.2-.33-.18-.54.31-.47.45-.72a5,5,0,0,0,.89-2.35,1.74,1.74,0,0,0-1.49,1.45,9.64,9.64,0,0,1-1.85,3.13c-.13.15-.32.31-.53.12a.36.36,0,0,1,0-.45,3.4,3.4,0,0,1,.41-.75,1.53,1.53,0,0,0,.45-1.31,21.72,21.72,0,0,0-2,1.31,2.46,2.46,0,0,0-1.28,2.08,6.8,6.8,0,0,1-1.63,4c-.33.37-.64,1.12-1.19.71s.11-.83.39-1.24a5,5,0,0,0,1.13-3.58c-1.36.54-2.41,1.18-2.62,2.71a6.2,6.2,0,0,1-1.49,2.9.4.4,0,0,1-.53.16c-.24-.14-.18-.35-.08-.53a5.52,5.52,0,0,0,.42-.75c.25-.72.88-1.36.56-2.26a2.22,2.22,0,0,0-1.74,1.3,12.85,12.85,0,0,1-1.85,2.86c-.26.32-.55.95-1,.62s0-.81.28-1.17.57-.79.83-1.2a.68.68,0,0,0,.08-.8A2.49,2.49,0,0,0,1493.7,69a7.35,7.35,0,0,1-1.33,2.19c-.22.31-.6.79-1,.53s.09-.75.28-1a7.23,7.23,0,0,0,1.18-2.25c-1.33,0-1.54.13-2.18,1a5,5,0,0,1-1.61,1.8c-.14.08-.3.18-.44,0a.33.33,0,0,1,0-.44c.3-.34.46-.76.78-1.1s.17-.63-.27-.61c-.7,0-1.38.18-2.07.21a2.14,2.14,0,0,0-1.79.83c-.36.47-.88.83-1.23,1.34a.52.52,0,0,1-.69.27l-.07,0a2.64,2.64,0,0,1,.63-1.26c.21-.27.71-.41.52-.86s-.63-.32-1-.4c-.58-.13-.85.11-1.12.65s-.4,1.26-1.25,1.31c-.1-.6.28-1,.42-1.44a.75.75,0,0,0-.29-1,.68.68,0,0,0-.25-.09c-4.56-1.63-7.21-5-8.68-9.5a5.57,5.57,0,0,0-.29-.81c-.2-.44-.46-.39-.71,0s-.64.94-1,1.38a.55.55,0,0,1-.43.18c-.22-.08-.22-.3-.17-.52a1.72,1.72,0,0,1,.32-.65,17.85,17.85,0,0,0,1.07-1.78,2.41,2.41,0,0,0-.14-2.57,49.46,49.46,0,0,0-2.38,4.78c-.56-.62-.29-1.14-.06-1.66l2.11-4.81a3.15,3.15,0,0,0,0-2.5c-1,1.29-1.38,2.85-2.46,4.13a2.68,2.68,0,0,1,.29-2.07,50.32,50.32,0,0,0,2.12-4.82.81.81,0,0,0,0-.85c-.47.9-.86,1.71-1.32,2.47-.22.36-.37,1.12-.8.91s0-.84.15-1.25q1.13-2.64,2.27-5.28a1.58,1.58,0,0,0,.06-1.6c-.65.55-.74,1.3-1.19,1.82-.11.13-.26.23-.41.09a.35.35,0,0,1-.11-.32,6.17,6.17,0,0,1,.3-.92c.67-1.54,1.37-3.06,2-4.6a26.42,26.42,0,0,0,1.35-5.46s-.08-.12-.17-.25c-1.22,1.94-1.87,4.17-3.34,6.09a1.43,1.43,0,0,1,.11-1.36c.86-1.71,1.75-3.41,2.63-5.1.12-.22.25-.54.43-.58,1-.2,1-1,1.22-1.74s.52-1.64.75-2.47c.09-.29.28-.61,0-.92a1.21,1.21,0,0,0-1.22.84,52.37,52.37,0,0,1-3.39,6.63c-.13.24-.18.67-.51.62a5,5,0,0,1-1.27-.2c-.58-.23-.37-.82-.2-1.29.33-.88.66-1.76,1-2.63a1.37,1.37,0,0,0,.1-.89c-.7.59-.58,1.67-1.53,2.06-.1-1.11.66-1.91.69-2.92a1.67,1.67,0,0,0-1.93,1c-.43.88-1,1.71-1.42,2.57-.68,1.21-1.36,2.42-2,3.63-.11.21-.23.37-.46.28a.38.38,0,0,1-.2-.42,4.27,4.27,0,0,1,.45-1.64c.56-1.31,1.06-2.65,1.49-4a.25.25,0,0,0-.09-.35l-.07,0a.25.25,0,0,0-.3.15,36.8,36.8,0,0,0-1.56,3.45c-.08.25,0,.68-.38.62s-.42-.44-.4-.79a2,2,0,0,1,.23-.69c.3-.68.58-1.36.86-2a.42.42,0,0,0-.15-.58.09.09,0,0,0-.06,0,.44.44,0,0,0-.53.2,1.29,1.29,0,0,0-.19.32c-.53,1.18-1.4,2.2-1.65,3.52a.7.7,0,0,1-.78.61.58.58,0,0,1-.14,0c-.48-.12-.43-.56-.4-.92a2.2,2.2,0,0,1,.22-.7c.3-.71.63-1.41.92-2.12s.14-.71-.49-.73c-.88,0-1,.06-1.21,1s-.58,1.87-.88,2.8c-.06.19-.12.45-.36.42s-.32-.31-.37-.55.24-.69-.08-1.12a12.14,12.14,0,0,0-1.38,2.18c-.28.51-.56.5-.88,0a1.17,1.17,0,0,1-.06-1.17,25.66,25.66,0,0,1,1.27-2.51c.1-.21.27-.45,0-.66a.58.58,0,0,0-.78.07,1.84,1.84,0,0,0-.44.72l-2.7,4.94c-.12.23-.12.65-.55.46a.6.6,0,0,1-.34-.72,4.71,4.71,0,0,1,.27-.8c.56-1.28,1.12-2.55,1.69-3.81.13-.31.28-.66-.11-.85a.63.63,0,0,0-.85.28,4.11,4.11,0,0,0-.52,1.1,13.78,13.78,0,0,1-1.25,3A6.58,6.58,0,0,0,1449,36c-.12.67-.39.79-1.11.64-.5-.11-.71-.45-.56-1a7.44,7.44,0,0,1,.4-1c.53-1.25,1.06-2.48,1.57-3.73.09-.24.28-.58-.13-.73a.62.62,0,0,0-.83.29h0c-.1.18-.15.38-.24.57-.47,1-.94,2-1.43,3a1.41,1.41,0,0,1-1,.92c-.27-.47,0-.85,0-1.23s.12-.63-.07-.69c-1-.26-.39-.88-.35-1.35,0-.31.31-.6,0-1l-.69.12c-1.43.25-2.62.69-2.73,2.49,0,.62,0,1,.51,1.32,1.76,1.11,3.49,2.27,5.28,3.33a25.8,25.8,0,0,1,8.94,8.56,14.66,14.66,0,0,1,1.34,2.76c.43,1.18.78,2.4,1.16,3.61a11.39,11.39,0,0,1-1.2,10.11,21.46,21.46,0,0,1-2,2.45,13.54,13.54,0,0,1-6,4.26,4.21,4.21,0,0,0-2.88,2.47c-.14.34-.24.77-.7.84l-.12-.15c-.24-.44.76-.95,0-1.25-.57-.24-.68.57-1,.86-.18.14-.25.43-.41.61s-.36.45-.64.37c-.54-.31.45-.85-.19-1a1.47,1.47,0,0,0-1.43.55,2.31,2.31,0,0,0-.28.54c-.26.5-.53,1-.78,1.51-.09.19-.17.41-.43.34s-.24-.3-.19-.5.21-.61.31-.92.11-.48-.28-.73c-.36.66-1,1-1.41,1.74-.2.36-.52.89-1,.57s-.64-.09-.79.3c-.09.21,0,.5-.39.6-1-.75.44-1.52,0-2.35-1.18,1.13-2,2.6-3.4,3.45.33-1.29,1.64-2,2-3.34a1.4,1.4,0,0,0-1.14.77c-.83,1.33-2.18,2.18-3.11,3.42a.26.26,0,0,1-.37.07.1.1,0,0,1,0,0c-.14-.15-.06-.31,0-.44a11.68,11.68,0,0,1,1-1.23,5,5,0,0,0,1.63-2.48c-1-.34-1.5.17-2,.88-.75,1.15-1.37,2.47-2.9,2.85-.21,0-.38.31-.56.47s-.29.44-.6.2a6,6,0,0,1,.79-2.53,7,7,0,0,0,.55-1.22.37.37,0,0,0-.13-.31.24.24,0,0,0-.32,0,5.36,5.36,0,0,0-.93,1.42c-.46.91-.48.9-1.36.17a2.21,2.21,0,0,1,.59-.91c.19-.17.42-.35.31-.61s-.44-.31-.74-.32a.73.73,0,0,0-.77.47c-.18.41-.4.8-.62,1.19-.1.17-.22.38-.47.2a.38.38,0,0,1-.16-.43c0-.16.16-.29.18-.45s.41-.64,0-.86-.65.19-.86.48-.23.43-.38.62c-.28.39-.52,1-.91,1.1a8.92,8.92,0,0,0-1.8,1c-.16.11-.35.28-.52.06a.36.36,0,0,1,.12-.53c.8-.53,1.22-1.43,2-2,.31-.21.55-.62.15-.92a.65.65,0,0,0-.91.07.82.82,0,0,0-.12.2,4.15,4.15,0,0,1-.4.75c-.54.65-.82,1.6-1.75,1.79a3.43,3.43,0,0,0-1.71,1.11c-.24.23-.44.78-.83.44s.1-.65.3-.94a1.22,1.22,0,0,1,.27-.24,13.06,13.06,0,0,0,2.35-2.63c.14-.18.4-.33.15-.65a1.52,1.52,0,0,0-.87.6,25.48,25.48,0,0,1-2.69,2.81c-.54.46-.54.45-.93-.27a1.37,1.37,0,0,0,.32-.16c.13-.09.27-.24.11-.39s-.31,0-.41.11a.36.36,0,0,0,0,.45.83.83,0,0,1-.81,0c-.43-.26-.72,0-.77.41a13.92,13.92,0,0,1-1.77,4.79,1.33,1.33,0,0,0,.1,1.49c.37.51.52.53.86,0,.59-1,1.15-2,1.71-3,.18-.34.35-.65.8-.67.31.43.12.84,0,1.27a24.33,24.33,0,0,1-2,3.77,1.58,1.58,0,0,0-.28,1.6c.1.22.08.52.38.57s.42-.2.52-.43c.65-1.4,1.28-2.82,1.95-4.22.17-.36.14-1.09.73-.9s.29.77.2,1.21a2.52,2.52,0,0,1-.13.47,28.43,28.43,0,0,1-2.44,5.21,2.46,2.46,0,0,0,.1,2.76,11.26,11.26,0,0,0,1.19-2.65c.55-1.54,1.06-3.09,1.58-4.64.12-.38.33-.74.76-.61s.3.55.24.86a21.94,21.94,0,0,1-.6,2.25,11.17,11.17,0,0,0-.83,3.16,12.82,12.82,0,0,0,.95-1.48c.28-.36.25-1.08,1-1a.54.54,0,0,1,0,.51,31.9,31.9,0,0,1-3.35,7.72,3.13,3.13,0,0,0-.25,2.91.34.34,0,0,0,.36.25.38.38,0,0,0,.26-.22c.19-.54.38-1.08.54-1.63.47-1.65.92-3.3,1.37-5,.06-.22.13-.42.4-.36s.24.28.21.49c-.07.44-.13.89-.19,1.34s0,.59.43.47.51.12.48.47a1.61,1.61,0,0,0,.22,1.17.68.68,0,0,1,0,.7,4.84,4.84,0,0,0-.21,3.29.55.55,0,0,0,.48-.33c.4-.75.82-1.5,1.22-2.25a1.24,1.24,0,0,1,.42-.59c.26-.14.48-.12.54.23a1.32,1.32,0,0,1-.17.7,23,23,0,0,1-2.19,3.94c-.68,1-1.14,2.08-2.28,2.65-.4.21-.34.72-.29,1.13a.53.53,0,0,0,.41.54c.24,0,.37-.15.48-.31a20.07,20.07,0,0,1,1.93-2.38c.51-.53,1.06-1,.8-1.87-.1-.32.16-.69.34-1,.42-.79.83-1.59,1.24-2.39s.89-1.83,1.36-2.74a.53.53,0,0,1,.59-.34c.37.11.31.47.2.72-.34.83-.75,1.63-1.11,2.45a21.75,21.75,0,0,0-1.38,2.83,4.92,4.92,0,0,0,2.23-2.21c.66-1.36,1.35-2.71,2-4,.22-.41.38-1.15,1-.86s-.05.78-.17,1.18a9,9,0,0,0-.89,2.43,3.42,3.42,0,0,0,1.8-1.69c.56-.94,1.1-1.9,1.66-2.84a1.12,1.12,0,0,1,.85-.64c.22,0,.32.22.47.36a4.18,4.18,0,0,0-1,2A2.43,2.43,0,0,0,1430.6,92.46Zm-21.27-14.94c1.74-.63,2.06-2.23,2.84-3.47.14-.22-.11-.35-.31-.41-.39-.1-.59.12-.76.44a16.6,16.6,0,0,1-1.28,2.2,1.8,1.8,0,0,0-.49,1.25Zm118.12-2.13c-.34.54-.69,1.07-1,1.63-.21.38-.32.72-.9.5-.43-.18-.75.11-1,.61a3.72,3.72,0,0,0,1.64.35A.71.71,0,0,0,1527,78a4.51,4.51,0,0,0,.48-2.58Zm2.85-2.73a.34.34,0,0,0,.44-.18,6.69,6.69,0,0,1,.89-1.72,1.57,1.57,0,0,0,.15-1.3.45.45,0,0,0-.27-.38.36.36,0,0,0-.4.23c-.57,1-1.21,2.08-.81,3.35Zm-116.08,1.25c-.33-.25-.58-.16-.73,0a16.32,16.32,0,0,0-2.21,4,18.14,18.14,0,0,0,2.94-4ZM1531,79.1a.53.53,0,0,0,.47.35c.78.2,1.16-.1,1.15-.87,0-.42-.29-.64-.61-.41s-.85.45-1,.93Zm-.31-12.46-.23,0a12.7,12.7,0,0,0-.6,1.7c-.12.54-.78,1-.35,1.76a8.36,8.36,0,0,0,1.18-3.42ZM1405.25,74.9c.22-.53.52-.92.44-1.47-.41-.14-.81-.23-1,.25S1404.69,74.52,1405.25,74.9Zm24.71.93c.66-.3.7-.82,1-1.11a.26.26,0,0,0,0-.41.37.37,0,0,0-.54,0,2.44,2.44,0,0,0-.51,1.49Zm11.32-43.57c-.75.22-1,.37-1,.66a.31.31,0,0,0,.31.31c.65.05.57-.51.71-.89,0,0,0-.06-.06-.09ZM1529.8,77.9c-.08.16-.16.33-.23.5s-.2.39,0,.52.45-.06.53-.29a2.85,2.85,0,0,0,.12-.58.18.18,0,0,0-.15-.22h0a.79.79,0,0,0-.26.08Zm-91.52-3c.78-.17.77-.72,1-1.42a2.09,2.09,0,0,0-1,1.42Zm94.9.72c.17.16.31.07.43,0a.45.45,0,0,0,.16-.63.27.27,0,0,0-.36-.11l-.06,0A.56.56,0,0,0,1533.18,75.65Zm-11.42,2.2c.77-.23.61-.71.87-1.18-.72.17-.65.64-.87,1.18ZM1410.82,81.2c-.14.1-.24.23-.15.39s.26.15.4,0,.34-.26.18-.47-.29,0-.43,0ZM1408.54,76c.07,0,.13.11.19.11a.2.2,0,0,0,.2-.2v0a.13.13,0,0,0-.13-.13h0a.26.26,0,0,0-.21.25Zm63.33-48.55c-.1.09-.14.21,0,.31s.21.06.3,0a.2.2,0,0,0,.05-.3.2.2,0,0,0-.3,0Zm62,52.46a.23.23,0,0,0,.31.07h0a.22.22,0,0,0,.08-.3h0c-.07-.12-.2-.09-.29,0s-.16.16-.11.25ZM1532,74.43c-.13.1-.18.2-.06.3a.21.21,0,0,0,.2,0,.2.2,0,0,0,.12-.27h0c-.07-.15-.18-.09-.27,0Z"/><path class="b" d="M1518.81,76.15a2.26,2.26,0,0,1,.46-1.44c.3-.59.84-1.09.49-1.91-.18-.41.24-.8.68-.81a2.74,2.74,0,0,0,1.13-.22c.4-.19.54.27.54.58a5.3,5.3,0,0,1-.57,2.11,9.89,9.89,0,0,1-.72,1.27c-.11.18-.4.38-.5.26C1519.78,75.3,1519.39,76.07,1518.81,76.15Z"/></svg>