<svg xmlns="http://www.w3.org/2000/svg" viewBox="0 0 364 380"><defs><style>.a{fill:#63494b;}</style></defs><title>Unbenannt-4</title><path class="a" d="M285.27,180.46c5.76-.77,11.59-1.22,17.27-2.39q10.13-2.07,20.16-4.56c8-2,15.7-4.78,23.58-7,2-.58,4-.9,6-1.48a5.62,5.62,0,0,1,5.94,2,21.84,21.84,0,0,1,5.27,9.68c1.93,8.85-.26,16.76-4.41,24.61-4.73,8.93-10.82,17.05-15.34,26.06a123.12,123.12,0,0,0-12.38,38.61,33.41,33.41,0,0,1-2.49,8.49c-1.23,2.88-3.75,4.5-6.44,5.84a3.15,3.15,0,0,1-2.26,0,16.26,16.26,0,0,1-9.48-6.07c-2.45-3.36-5-6.68-7.54-10a71.19,71.19,0,0,0-21-18.2c-5-2.89-9.94-6-15.23-8.48a102.47,102.47,0,0,0-31.48-8.86c-6.37-.73-12.64-1-18.87.78a24.34,24.34,0,0,0-9.6,4.83c-7.39,6.55-14.55,13.31-20.3,21.46-5.3,7.51-9.66,15.47-11.72,24.44a72.7,72.7,0,0,0-1.83,18.54,131,131,0,0,0,.6,13.13,134.68,134.68,0,0,0,5.08,22.7,149.18,149.18,0,0,0,9.81,23.89c1.4,2.69.56,5.47-2.53,7.66a14.76,14.76,0,0,1-8.55,2.8c-8,.13-15-3-21.8-6.6A222.8,222.8,0,0,0,123,348.6c-6.31-2.15-13-2.82-19.67-3.63-6.08-.74-12,.4-18,.57a35.39,35.39,0,0,1-5.25,0c-7-.81-9.68-6-7.73-12.68,1-3.3,3.3-5.92,5.18-8.74,4.51-6.73,8.94-13.51,13-20.53,2.69-4.64,5.62-9.17,8.69-13.57a151.54,151.54,0,0,0,9.45-16.52c2-3.77,3.91-7.58,5.81-11.4a67.77,67.77,0,0,0,7-26.11,63.46,63.46,0,0,0-1-17.67c-2.09-9.59-6.27-17.9-15-23.41-4.13-2.61-8.12-5.16-13.13-5.62a27.76,27.76,0,0,0-8.18.65,114.56,114.56,0,0,0-21.32,6.58c-8.2,3.47-15.87,8-23.86,11.8a35.76,35.76,0,0,1-4,1.62c-4.93,1.67-9.19-.44-11.2-5.26-2.41-5.8-1.92-11.4.07-17.26,4.57-13.42,11.28-25.91,16.6-39,4.68-11.49,8.51-23.21,10.06-35.59a38.66,38.66,0,0,1,2.06-6.91,55.74,55.74,0,0,0,1.62-5.68c1.12-5.39,5.94-7,10.13-3.33,2.88,2.53,5.57,5.29,8.29,8,10.2,10.15,20.6,20.06,32.12,28.71,8.37,6.27,17.23,11.71,27.17,15.24a46.39,46.39,0,0,0,15.76,3c10.51,0,18.27-4.87,23.16-14.07,1-1.85,1.73-3.87,2.73-5.77a27.69,27.69,0,0,0,2.36-7.85,3.1,3.1,0,0,0,0-1.93c-.56-1.25-1-2.37.73-3.24.76-.39.58-1.6.71-2.45a91.55,91.55,0,0,0,1-14.42,191.07,191.07,0,0,0-4.3-37.54c-2.18-10.54-5-20.89-8-31.22-1.13-3.92-3.22-7.42-4.65-11.21-.07-.21-.22-.38-.3-.59-2.52-5.91-.82-9.9,5.16-12.29C173,6.54,179.85,7,186.68,8.49c3.43.73,6.82,1.6,10.22,2.44a12.89,12.89,0,0,1,3.43,1.12c5.1,3.06,10.9,4.48,16.19,7.16,5.77,2.92,12.21,4.15,18.58,5.34,5.27,1,10.52,2.08,15.79,3a87.74,87.74,0,0,0,14,1.49c4.37.07,8.74.48,13.1.85a30.68,30.68,0,0,0,5.25,0c1.42-.11,2.85-.3,4.27-.28,2.3,0,4.42.74,5.51,2.93a5.62,5.62,0,0,1-.93,6.44,20.57,20.57,0,0,1-5.6,5C275.36,50.3,266.88,59.4,259,69.22c-5,6.26-10,12.46-14.77,18.94a154.35,154.35,0,0,0-15.13,26.15,186.37,186.37,0,0,0-10.35,26.31c-4.3,14.87,1.91,29.32,16.36,35.54a65.79,65.79,0,0,0,21.62,5.05,93.73,93.73,0,0,0,14.41.37c4.7-.39,9.39-1,14.08-1.46ZM138.72,335.3c1,1.62,1.31,3.73,4.08,4.89-1.36-2.28-2-4.16-4.12-4.82.24-1.36-.24-2.28-1.89-2.76ZM89,333.07c0-2.25-1.77-3.6-2.71-5.37-.42-.78-1.32-.68-1.93-.05A8.52,8.52,0,0,0,83,329.48c-.56,1-.36,1.82.95,1.51a3.62,3.62,0,0,1,3.93,1.56,1.22,1.22,0,0,0,1.15.44,1.64,1.64,0,0,0,1.16,2,2.38,2.38,0,0,0,.37.06c.57.09.75-.46.67-.89-.25-1.33-1.21-1.35-2.27-1.1Zm70-31.82c.67-1.38-1.38-2.3-.62-3.7.79-.22,1.17.4,1.66.81.7.59,1.3,1.94,2.37,1.12s.51-2,0-3-1-2-1.49-2.92q-1.24-2.31-2.53-4.59c-.29-.52-.45-1.39,0-1.44,1.21-.13,1.8-3.26,3.57-.75.4.58,1.07.14,1.28-.4a12.89,12.89,0,0,0,.56-2.22A72.75,72.75,0,0,1,166.44,274a86.22,86.22,0,0,1,16.12-28.08c8-9.23,16.82-17.22,28.6-21.35,5.28-1.85,10.57-3.61,16.2-4.06,1.31-.1,2.63-.23,3.94-.35.84-.07,1.48-.31,1.43-1.37-.09-2,1-2.06,2.57-1.65a12.62,12.62,0,0,1,4.56,1.72c.62.45,1.27.74,1.87-.32,1.13-2,2.11-2.41,4.09-1.57a34.23,34.23,0,0,1,4,2.28c.68.39,1.46.87,2.06.06,1.51-2.07,3.08-.93,4.59-.13a23.21,23.21,0,0,1,2.7,1.88c1,.75,2,1.51,2.77-.33.41-.95,1.27-.58,2-.34a20.81,20.81,0,0,1,6.9,4.37c2.33,2,4.57,4.1,6.91,6.08a6.92,6.92,0,0,0,4.7,2c-2.32-2.44-4.12-4.32-5.89-6.23-1.57-1.68-3.15-3.35-4.66-5.09a1.69,1.69,0,0,1-.1-2.39h0a2,2,0,0,1,2.41-.44,9.16,9.16,0,0,1,3,2,92.15,92.15,0,0,1,9.09,10c.56.67,1,1.56,1.85,1.8,2.26.65,3.6,2.4,5.12,4,.71.72,1.19,1.87,2.65,1.67-.54-1.87-1.81-3.28-2.62-4.91a1.55,1.55,0,0,1,0-1.85,1.64,1.64,0,0,1,2.11-.16c.77.4,1.36,1.62,2.17,1.28,2.6-1.08,3.52.76,4.73,2.31.57.73,1.08,1.89,2.32,1.42,2.1-.8,3,.65,4,2s1.82,3.07,3.5,4c-.53-1.67-1.34-3.18-1.93-4.77-.38-1-.61-2.27.7-2.89a2,2,0,0,1,2.72.85l.07.14c.34.56.72,1.09,1.06,1.66,1.71,2.93,3.44,5.85,5.11,8.8.54.95,1,1.95,2.27,2.27.43-1.79-.7-3-1.4-4.31-1.67-3.07-3.58-6-5.35-9-1.54-2.62-1.67-4-.59-4.73s2.15-.12,3.85,2.59c1.05,1.67,2,3.41,3.07,5,.61.92.65,2.82,2.23,2.35,1.3-.38,1.48-2.05,1.64-3.35a5.85,5.85,0,0,0-.71-3.17c-.6-1.28-1.29-2.53-1.85-3.83a9.26,9.26,0,0,1-.92-4.45,1.27,1.27,0,0,1,.91-1.24c.62-.17,1,.25,1.43.61a2.51,2.51,0,0,1,.69,1.8c.13,1.37,1.19,2.33,1.52,3.62a1.32,1.32,0,0,0,1.49,1c.58-.09.78-.69,1-1.2a2.59,2.59,0,0,0-.09-2.5c-.83-1.54-1.53-3.15-2.38-4.67a4.62,4.62,0,0,1-.48-3.87c1.85.71,2.44,2.34,3.41,3.58.52.67.78,1.75,1.91,1.4.93-.29,1.12-1.28,1.39-2.11s-.22-1.66-.6-2.47a27.42,27.42,0,0,1-2.46-5.7,1.48,1.48,0,0,1,.85-1.91c.82-.29,1.08.48,1.51.95,1.15,1.27,1.11,3.4,3,4.16,2.69-2.85,2.7-2.91,1.06-6.19-.39-.78-.86-1.52-1.21-2.32a1,1,0,0,1,.2-1.2c.57-.39,1-.1,1.35.43a4.08,4.08,0,0,0,.54.83c.66.64.86,2.07,2.12,1.68s1.43-1.59,1.69-2.65a3.6,3.6,0,0,0-.6-2.81c-.9-1.5-1.74-3-2.65-4.52a3.36,3.36,0,0,1-.31-3.3,24.74,24.74,0,0,1,4,5.12c.71,1,1.56,1.2,2.3,0l5.39-9a2.69,2.69,0,0,0,.48-2.5c-1.3-2.67-2.47-5.49-5.39-7.05-.47,1,1,1.83-.09,2.56-.81.54-1.45-.25-2.1-.52-2.52-1.07-5.13-1.88-7.71-2.77-3-1-5.69-.58-8.69.76a8.18,8.18,0,0,0,2.84,1.91c1.7,1,3.4,2,4.4,3.83.33.6.74,1.19.05,1.73s-1.05,0-1.47-.35c-4.09-3-9-3.9-13.66-5.37a3.32,3.32,0,0,0-3.36.5c.42,1.05,1.35,1.24,2,1.7a31.6,31.6,0,0,1,5.26,4.46c.37.39.86.86.51,1.43a1.31,1.31,0,0,1-1.75.41,7.63,7.63,0,0,1-1.13-.67A63,63,0,0,0,308,187.42a4.36,4.36,0,0,0-4.16.24c1.72,1.55,3.71,1.77,5.51,2.36a18.83,18.83,0,0,1,8.37,5c.36.4.87.86.58,1.42a1.39,1.39,0,0,1-1.73.53,10.34,10.34,0,0,1-1.8-.79c-5.45-2.59-11.28-4.22-16.8-6.63a4.82,4.82,0,0,0-4.33.17c.41,1.25,1.37,1.59,2.19,2.1,1.2.76,2.42,1.51,3.55,2.37.81.62,2.34,1.25,1.58,2.45s-1.92.17-2.9-.27c-3.69-1.69-7.37-3.38-11.16-4.84a14.53,14.53,0,0,0-8.08-.46c-1.21.22-1.45.91-.57,1.79a23.68,23.68,0,0,1,3.61,3.81c.35.54,1,1.07.41,1.7s-1.41.33-2.06-.13c-1.88-1.33-3.7-2.74-5.62-4s-3.66-2.87-5.82-2.9c-3.39-.06-6.77-.55-10.16-.29-1.49.11-1.75.7-.84,1.84a16.45,16.45,0,0,0,4.33,3.5,7.47,7.47,0,0,1,2.47,2.14,1.25,1.25,0,0,1,.06,1.52,1.31,1.31,0,0,1-1.75.36,3.78,3.78,0,0,1-.83-.53c-2.72-2.2-5.74-4.07-7.74-7.07a7,7,0,0,0-5.15-3.08,64.34,64.34,0,0,1-16.93-5.19c-10.58-4.83-17.73-12.72-21.2-23.79-1-3.18-2-6.37-1.77-9.95a70.75,70.75,0,0,1,2.59-15.15c.51-1.76.58-3.47-.69-5a1.24,1.24,0,0,1-.25-1.44c.89-.86,2.12,1.18,2.89-.43.52-1.08,1.22-2.22.79-3.41s-3.23-3.16,1-2.55c.27,0,.76-.72,1-1.19.63-1.28,1.2-2.59,1.72-3.91.86-2.16.53-3-1.25-4.57-.62-.54-2.44-.47-1.64-1.81.63-1,1.74.26,2.67.37.41,0,.76.42,1.16.58a1.31,1.31,0,0,0,1.7-.56c1.38-1.84,1.15-3.67-.7-5.16-.34-.27-.76-.43-1.12-.67a.65.65,0,0,1-.3-.84.78.78,0,0,1,1-.53l.06,0a12.62,12.62,0,0,1,2.15.8c1.34.74,2,.12,2.57-1a2.49,2.49,0,0,0-.42-3.28,22.66,22.66,0,0,1-2.63-2.46c-.57-.76-3.94-1.7-.13-2.78.37-.11.16-.57.11-.88-.11-.9-.23-1.86.93-2.13.93-.2,1.27.68,1.79,1.21a6.21,6.21,0,0,1,1.27,2.27,3.39,3.39,0,0,0,2,2.35c2.16-3.33,2.17-3.43,0-6.15-.95-1.21-2-2.36-2.9-3.57-.64-.81-1.47-1.55-1.46-2.68a1.56,1.56,0,0,1,1.94.46c1.56,1.38,3.08,2.81,4.62,4.21.49.43,1,1,1.73.53a1.82,1.82,0,0,0,.77-2,3.32,3.32,0,0,0-1-1.66,56.76,56.76,0,0,0-5.38-6.21c-.42-.38-.76-.86-.38-1.42a1.23,1.23,0,0,1,1.5-.31A6.74,6.74,0,0,1,229.83,82c1.09,1.23,2.09,2.54,3.2,3.75.48.53,1.08,1.25,1.93.54a1.72,1.72,0,0,0,.52-2.34,11,11,0,0,0-1.09-1.63c-2.27-2.66-4.18-5.64-6.88-7.93-.51-.43-1.18-.9-.77-1.61a1.44,1.44,0,0,1,2-.38l.06,0A12.42,12.42,0,0,1,230.92,74a39.93,39.93,0,0,1,5.14,6c.51.65.93,1.42,2.26,1.21-2-3.69-5.2-6.29-7.31-9.71a1.88,1.88,0,0,1,2.43,0c1.25.92,2.07,2.32,3.22,3.25,1.38,1.12,1.55,4.06,3.78,3.46,1.84-.48,2.69-2.74,3.89-4.3a2,2,0,0,0-.07-2.68c-2.93-4.48-5.64-9.12-9.91-12.52-.91-.73-1-1.47-.17-2.16s2.56.23,3.42-1.28c.13-.22,1.93.66,2.76,1.4.25.22.5.44.73.67a80.26,80.26,0,0,1,6.64,7.28c.39.51.57,1.18,1.3,1.4a1.08,1.08,0,0,0,1.41-.44.71.71,0,0,0-.21-1,.72.72,0,0,0-.2-.09c-2.31-1-3.17-3.2-4.48-5.06-.81-1.14-1.37-2.47-2.64-3.3-2.82-1.85-2.74-2.93.28-4.67-.52-1.63-.68-3.75-2.46-4.35-2.12-.72-3.12-2.31-4.24-3.89a76.43,76.43,0,0,0-8.09-9.06c-.71-.73-1.43-1.65-2.64-1.59-.42.67,0,1.15.31,1.54,2.38,2.88,4.08,6.23,6.23,9.26a4.16,4.16,0,0,1,1.09,2,.69.69,0,0,1-.39.79.79.79,0,0,1-.62,0,7.45,7.45,0,0,1-1.44-1.31c-1.74-2.25-3.41-4.55-5.14-6.82-.57-.74-1-1.74-2.22-1.55-.68,1,.36,2.2-.51,3.29-1.33-.21-1.83-1.34-2.43-2.34-1.23-2.06-2.51-4.1-3.68-6.2a3.54,3.54,0,0,0-2.22-1.8,1.1,1.1,0,0,0-1.21.16,1,1,0,0,0-.09,1.21c.47.87,1,1.69,1.55,2.53s1.33,1.77.76,3c-1.25.08-1.69-.92-2.3-1.65-1.46-1.77-2.89-3.57-4.34-5.35a4,4,0,0,0-1.74-1.46,1.22,1.22,0,0,0-.89.17c-.31.21-.2.54,0,.85.9,1.5,1.8,3,2.67,4.51.41.71.64,1.54-.27,2s-1.14-.44-1.49-.94a47.72,47.72,0,0,0-7-7.86A9,9,0,0,0,193,24.18a52.93,52.93,0,0,1,3.15,4.28c.85,1.43,2.34,2.53,2.56,4.67-2-.68-2.94-2.12-4-3.42a52,52,0,0,0-5.46-6.12c-1.14-1-2.3-1.94-4.18-1.7.31,1.69,1.81,2.36,2.32,3.65.25.64,1.43,1.17.59,1.9s-1.32-.31-1.83-.83c-.31-.32-.57-.67-.87-1-1.34-1.44-2.61-3-4.05-4.3-1.2-1.1-3.55-1.43-3.91-.67-.69,1.49.84,2,1.51,2.89,1,1.27,2.54,2.19,2.75,4.44-3.81-2-5.5-6-9.5-8a10.19,10.19,0,0,0,3,8.11,42.28,42.28,0,0,1,7.41,9.18c.48.85,1.35,1.69.8,2.91a2.94,2.94,0,0,1-2.08-1.63c-1.1-1.63-2.27-3.22-3.43-4.81a1.25,1.25,0,0,0-1.67-.61l-.14.07c.66,3.73,2.13,7.27,3.12,10.94a7.84,7.84,0,0,0,3.08,4.49c3.33,2.42,5.7,5.72,7.92,9.13.38.59,1.07,1.2.31,2.06-1.19.08-1.6-.89-2.18-1.65q-2.1-2.73-4.28-5.41c-.59-.73-1.14-1.62-2.49-1.24,0,2.58.85,4.94,1.33,7.38a11.59,11.59,0,0,0,4,6.6,18.32,18.32,0,0,1,5.82,9.64c.11.45.28.93-.09,1.19-.52.36-1,0-1.48-.31-.69-.5-.67-1.36-1.08-2-1.21-1.88-2.12-4-4.26-5.24-.58,2.73-.48,3.23,1.37,5.41a25.69,25.69,0,0,1,4.77,8.5c.17.5.31,1.14-.42,1.38a1,1,0,0,1-1.11-.49,9.3,9.3,0,0,1-1.2-2,4.08,4.08,0,0,0-2.44-2.81c-.21,2.31.4,4.32.4,6.35a6.56,6.56,0,0,0,3.13,5.76,18.22,18.22,0,0,1,7.15,9.16c.42,1.28,1.74,3,.06,3.73-1.3.56-1.79-1.38-2.35-2.58-1.44-3.06-3.25-5.85-6.81-7.4-.56,3.87-.48,7.17,2.77,9.71,2.4,1.86,3.66,4.58,4.77,7.34a1.11,1.11,0,0,1-.36,1.46c-.63.35-1-.06-1.34-.54a15.71,15.71,0,0,0-1.17-2c-1.34-1.54-2-3.88-4.49-4.33a6,6,0,0,0,.69,5.79,34.09,34.09,0,0,1,4.15,8.13c.41,1,1.49,2.54.12,3.12-1.11.47-1.87-1.08-2.35-2.22s-1-2.39-1.66-3.55c-.36-.67-.83-1.3-1.75-1.23-1,2.88-.91,5.47,1.43,7.76,1.67,1.64,2.31,3.95,3.3,6,.44.93,1,2.47-.06,2.95-1.36.6-1.63-1.22-2-2a20.1,20.1,0,0,0-3.65-5.76c-1.78,3.1-1.75,3.74-.48,6.46.91,2,2.11,3.86,2,6.17,0,.42,0,.93-.56,1a.85.85,0,0,1-1-.68c-.39-1.14-1.15-2.09-1.51-3.28s-1.25-1.25-1.8-.18c-.84,1.65-1.41,3.45-2.28,5.1a5.68,5.68,0,0,0-.45,5.25c.6,1.47.74,3.16,1.46,4.66a1.41,1.41,0,0,1-.31,2l-.19.12a7.16,7.16,0,0,1-2.07-3.17c-.35-.86,0-2.2-1.33-2.35-1.14-.13-1.57,1-2.22,1.73-1.09,1.17-.9,2.13,0,3.46s2.39,2.63,1.38,4.67c-1.55-.57-1.93-2-2.78-2.91-1.1-1.19-2-1.36-3.33-.24-9.91,8.42-21.35,10-33.7,7.42a21.36,21.36,0,0,0-2.26-.4c-1.31-.12-1.53.53-1,1.62.64,1.38,1.32,2.74,1.88,4.15a1.32,1.32,0,0,1-.16,1.22c-.47.43-1,.1-1.44-.28a5,5,0,0,1-1.08-1.62,46.9,46.9,0,0,0-2.69-4.86,6.49,6.49,0,0,0-6.16-3.14c2.31,4.42,5.3,7.95,7.91,11.92-2.18.48-3-.84-3.92-2.06q-4.19-5.69-8.36-11.36a8.46,8.46,0,0,0-5.74-3.44c1.59,4.18,4.76,7,6.29,11.24a7.16,7.16,0,0,1-4.42-3.45c-2.65-3.89-5.33-7.75-8.35-11.37a2.19,2.19,0,0,0-2-1.05c1.45,2.31,2.81,4.29,4,6.4.54,1,2.11,2.35,1,3.06-1.36.91-2-1.06-2.71-2-3.08-4.1-6.14-8.23-9.21-12.34-.88-1.17-1.79-2.31-3.65-2.28.41,2.23,2,3.45,2.64,5.2.15.43.18.91-.34,1.08a1,1,0,0,1-.89-.17,17,17,0,0,1-1.74-2c-2.68-3.6-5.29-7.25-8-10.83C84,128.84,80,125.76,76.21,122.46c-.1-.09-.37,0-.81.07,2.88,5.41,7.18,9.93,9.66,15.9a3.78,3.78,0,0,1-3-2.1c-2.82-4.29-5.58-8.62-8.33-13-.35-.54-.92-1.3-.77-1.75.85-2.56-1.1-3.72-2.41-5.18-1.54-1.71-3.12-3.39-4.72-5-.57-.6-1-1.45-2.15-1.24a3.3,3.3,0,0,0,.31,4c4.21,5.21,7.46,11,10.88,16.76.37.63,1.29,1.3.76,2a14.34,14.34,0,0,1-2.16,2.68c-1.32,1-2.42-.25-3.27-1.27-1.61-1.93-3.2-3.89-4.75-5.87A3.63,3.63,0,0,0,63.53,127c.44,2.45,3.1,3.59,2.73,6.32-2.7-1.25-3.55-4.1-5.85-5.52a4.47,4.47,0,0,0-.24,5.84c1.45,2.18,2.7,4.5,4,6.76C66.13,143.59,68,146.78,70,150c.32.52.53,1,0,1.44a1,1,0,0,1-1.22-.11,12,12,0,0,1-3.23-3.23c-2.06-3.26-5-5.83-7.33-8.84a.68.68,0,0,0-.94-.27.52.52,0,0,0-.17.13.67.67,0,0,0-.07.9c2,2.71,3.66,5.7,5.93,8.23.46.51,1.65.79.93,1.7s-1.6.4-2.37-.13a5.33,5.33,0,0,1-1.3-1.46c-1.15-1.59-2.37-3.15-3.58-4.71a1.15,1.15,0,0,0-1.56-.44l-.15.1a1.23,1.23,0,0,0-.24,1.51,3.61,3.61,0,0,0,.49.85c2,2.82,3.22,6.21,6,8.56a1.88,1.88,0,0,1,.36,2.64,1.69,1.69,0,0,1-.26.28c-.91.93-1.86.23-2.66-.3a6.07,6.07,0,0,1-1.32-1.45c-1.25-1.66-2.43-3.37-3.71-5-1-1.32-1.44-1.25-2.34.18-1.25,2-1.14,2.31.64,4.12s3.58,3.85,5.34,5.79c.35.39.86.89.49,1.42s-1.15.31-1.78.09c-.87-.29-1.29-1.46-2.71-1.29a33.88,33.88,0,0,0,3.22,6.14c.8,1.31.42,2-1.1,2.08a3.12,3.12,0,0,1-2.78-1.42,71.52,71.52,0,0,1-4.14-6.32c-.35-.53-.67-1.24-1.5-.9a1.57,1.57,0,0,0-.91,1.9,5.47,5.47,0,0,0,1.11,2L55,177c.35.59,1.34,1.16.33,1.89a1.64,1.64,0,0,1-2.14-.16A11.58,11.58,0,0,1,51.66,177c-2.21-3-4.4-6-6.6-9-.53-.73-1.13-1.54-2.12-.88a1.7,1.7,0,0,0-.48,2.35,11.12,11.12,0,0,0,1.87,2.68,38.18,38.18,0,0,1,5.42,7,16.3,16.3,0,0,0,2.78,3.62c1.4,1.19,1.32,2,0,3.45-.91,1-2,1-3.13-.08a18.57,18.57,0,0,1-1.83-2.31c-2.19-2.88-4.35-5.78-6.57-8.63-.42-.54-1-1.44-1.84-.69a1.67,1.67,0,0,0-.46,2.32l0,0c.3.45.69.85,1,1.3,1.68,2.43,3.36,4.86,5,7.31a3.85,3.85,0,0,1,.74,3.63c-1.45,0-2-1.12-2.8-1.76-.53-.41-1.32-1.11-1.69-.74-1.9,1.89-2.57-.28-3.61-1-.68-.47-1-1.51-2.19-1.34-.21.56-.44,1.17-.66,1.78-1.31,3.66-1.9,7,2.12,9.67,1.39.93,2.34,1.34,3.77.59,4.93-2.61,9.94-5.07,14.8-7.82a68.93,68.93,0,0,1,31.86-9.29,38.66,38.66,0,0,1,8.18.57c3.34.59,6.64,1.41,10,2.14,9.75,2.14,17.24,7.3,21.87,16.33a56.84,56.84,0,0,1,3,8c2.16,6.38,3.3,12.88,1.83,19.68-.75,3.48-.56,7,1.87,10,.63.77,1.48,1.57,1,2.74a3,3,0,0,1-.51.08c-1.34,0-1.19-3-2.87-1.74-1.31,1,.43,2.34.61,3.57.09.62.67,1.14.86,1.76s.58,1.44,0,2c-1.44.82-1.36-2.2-2.61-.93a3.93,3.93,0,0,0-.64,4,6.18,6.18,0,0,0,.87,1.38c.83,1.28,1.64,2.57,2.48,3.84.3.47.7.94.21,1.45s-1,.16-1.41-.24c-.61-.62-1.16-1.29-1.73-2s-1-.89-2.08-.33c1,1.72,1.06,3.81,2.16,5.62.57.93,1.36,2.4,0,3.14s-1.08,1.34-.38,2.23c.38.48,1.12.75.89,1.71-3.1,1.33-2.94-3.06-5.49-3.14,1.06,4.26,3.38,8.1,3.46,12.53-2.55-2.51-2.4-6.46-5-9.17a3.76,3.76,0,0,0,.25,3.7c2,3.7,2.15,8,3.77,11.78a.73.73,0,0,1-.32,1l-.17.06c-.54.11-.8-.29-1-.7a31,31,0,0,1-1.53-4,13.72,13.72,0,0,0-3.57-7.13c-2.12,1.86-1.63,3.72-.6,5.75,1.67,3.31,3.9,6.49,2.74,10.57-.16.56.22,1.28.37,1.92s.62,1.26-.37,1.67a16.26,16.26,0,0,1-4.81-5.23,20.6,20.6,0,0,0-2.09-2.91,1,1,0,0,0-.89-.11.63.63,0,0,0-.33.81,14.48,14.48,0,0,0,2.07,4.07c1.49,2.3,1.44,2.33-1.44,3.39a5.85,5.85,0,0,1-1.32-2.6c-.13-.65-.25-1.44-1-1.54s-1.32.62-1.73,1.29a2,2,0,0,0,0,2.43,35.4,35.4,0,0,1,1.94,3c.28.46.59,1-.15,1.35a1.06,1.06,0,0,1-1.23-.19c-.3-.31-.46-.78-.79-1-.62-.48-.94-1.82-2-1.13s-.44,1.77,0,2.65c.27.59.7,1.11.95,1.7.52,1.19,1.51,2.51,1.32,3.61a22.33,22.33,0,0,0,0,5.54c0,.53.16,1.2-.58,1.3s-1-.4-1-1c-.17-2.55-1.71-4.73-1.91-7.3-.07-1-.69-2.12-1.92-1.58a1.73,1.73,0,0,0-1.06,2.21,1.68,1.68,0,0,0,.31.53,11.18,11.18,0,0,1,1.2,2c.79,2.1,2.63,4,1.81,6.45-.67,1.95-.15,3.65.29,5.45.21.88,1.23,2.08-.07,2.52-1,.34-1.4-1.08-1.8-1.94a3.49,3.49,0,0,1-.2-1c-.38-3.19-1.74-6.06-2.94-9-.24-.56-.25-1.37-1.31-1.21a4.06,4.06,0,0,0,.21,2.81,66.52,66.52,0,0,1,2.93,10c.34,1.86.33,1.86-1.86,1.79a5.16,5.16,0,0,0,.06-1c-.06-.42-.21-1-.76-.78s-.5.68-.3,1.11a1,1,0,0,0,1.07.56c-.14.74-.16,1.48-1,1.94-1.19.68-1.09,1.62-.09,2.35,3.81,2.78,6.25,6.69,8.77,10.53a3.54,3.54,0,0,0,3.6,1.76c1.66-.17,1.91-.5,1.06-2-1.48-2.68-3-5.32-4.61-7.95-.52-.87-1-1.68-.47-2.75,1.42-.14,2.12.84,2.88,1.79a63.35,63.35,0,0,1,6.1,9.71c.72,1.37,1.53,2.66,3.33,2.81.63.06,1.31.5,1.82-.14s.1-1.23-.28-1.77c-2.41-3.39-4.85-6.76-7.2-10.19-.59-.87-2.34-1.79-1.1-2.91,1-.89,2.17.39,3.08,1.16a6.28,6.28,0,0,1,.91.95c3.21,4,6.48,8,8.83,12.62,1.3,2.55,3.42,3.4,6.54,3.48a29.34,29.34,0,0,0-4.57-6.32c-2.83-3.34-5.75-6.6-8.65-9.88-.72-.81-1.26-1.76-.39-2.58s1.66,0,2.31.59a61.3,61.3,0,0,1,4.43,4.4c1.86,2,3.32,4.4,6.23,6.18-.6-1.94-1.69-2.94-2.19-4.2s-2.15-2-1.09-3.61a1.41,1.41,0,0,1,1.24.6,84.28,84.28,0,0,1,13.44,18.12,8.42,8.42,0,0,0,6.42,4.46.9.9,0,0,0,1.09-.5,1.12,1.12,0,0,0-.19-.9c-1-1.17-2-2.33-3.06-3.43-3.2-3.29-6.44-6.55-9.67-9.81-.41-.42-.78-.88-.29-1.4s1-.21,1.42.16c.94.76,1.89,1.5,2.85,2.24.68.53,1.34.87,1.67-.36s1-1.05,1.73-.51a4.23,4.23,0,0,0,3,1.07,1.79,1.79,0,0,1,1.65.94c1.7,2.77,4.51,3.83,7.34,4.88a1.43,1.43,0,0,0-.11-1.54c-1.2-2-2.38-3.92-3.59-5.88a3.19,3.19,0,0,1-.81-1.75c0-.79.37-1.28,1.23-.93a3.37,3.37,0,0,1,1.41,1.34,63.18,63.18,0,0,1,6.23,10.35c1.26,2.86,3.29,5.42,3.1,8.84-.06,1.21,1.19,1.76,2.21,2.19a1.42,1.42,0,0,0,1.81-.24c.4-.51.15-1-.08-1.54a53.86,53.86,0,0,1-2.93-7.67c-.55-1.86-.87-3.76-3.28-4.34-.87-.21-1.4-1.31-1.93-2.16-1.26-2.05-2.56-4.07-3.88-6.08-1.5-2.29-3.06-4.53-4.55-6.83a1.45,1.45,0,0,1,0-1.84c.75-.69,1.51-.07,2,.51,1.46,1.91,2.78,3.93,4.2,5.86,1.58,2.15,2.56,4.71,4.73,7a13.35,13.35,0,0,0-2.16-8.15q-3.4-5-6.65-10.16c-.66-1-2.16-2.41-.73-3.35,1.16-.77,1.76,1.17,2.51,2,1.5,1.62,2.27,3.89,4.46,5.3.46-2.56-.46-4.52-1.51-6.42-1.43-2.58-2.93-5.12-4.38-7.69a2.94,2.94,0,0,1-.34-2.81c.27-.55.95-.46,1.46-.61a11.38,11.38,0,0,0,3.36,4.87c-.59-2-1.28-3.9-3.44-4.78ZM95.82,330.64c.87-4.89-2.42-7.79-4.25-11.24-.34-.62-1-.24-1.37.16-.75.77-.52,1.53,0,2.35a46.9,46.9,0,0,1,3.39,5.92,4.87,4.87,0,0,0,2.22,2.81ZM249.09,53.44c.82,1.51,1.57,3.05,2.48,4.5.6,1,1.24,1.71-.06,2.73-1,.78-.74,1.92.1,3.11a10.24,10.24,0,0,0,3-3.35,1.91,1.91,0,0,0-.19-2.42c-1.53-1.77-2.83-3.8-5.36-4.57Zm-2.51-10.28a.94.94,0,0,0,.18-1.26A17.29,17.29,0,0,1,244,37.54a4.25,4.25,0,0,0-2.83-2.1,1.17,1.17,0,0,0-1.23.12.94.94,0,0,0,0,1.22c1.67,2.72,3.2,5.61,6.7,6.38ZM94,314.44c-1,.44-1.14,1.14-.89,1.75a44.41,44.41,0,0,0,6.27,10.46A47.88,47.88,0,0,0,94,314.44ZM262.42,50.23a1.45,1.45,0,0,0,1.46-.63c1.49-1.53,1.31-2.84-.49-3.84-1-.54-1.88-.17-1.76.87C261.76,47.86,261.53,49.22,262.42,50.23Zm-29.33-16-.43.48a39.65,39.65,0,0,0,3.17,3.68c1.08,1,1.19,3.09,3.61,3.15a22.43,22.43,0,0,0-6.35-7.31ZM84.25,336.59c-.94-1.22-1.44-2.44-2.84-3-.86.75-1.61,1.58-.81,2.76S82.62,337.39,84.25,336.59Zm35.26-56.15c.2-1.93-1-2.73-1.19-3.86-.09-.44-.45-.8-.93-.6a1,1,0,0,0-.68,1.27,6.79,6.79,0,0,0,2.8,3.19Zm-86-84.66c-.49,2-.44,2.73.25,3.11a.83.83,0,0,0,1.13-.29c1-1.44-.41-2-1.1-2.84,0,0-.18,0-.28,0ZM258.08,51.35a14.16,14.16,0,0,0,.84,1.19c.33.37.65,1,1.26.6s.47-1.1,0-1.62a7.32,7.32,0,0,0-1.18-1,.51.51,0,0,0-.72.05.33.33,0,0,0-.06.1,2.25,2.25,0,0,0-.18.71ZM128.58,259.94c.65-2.06-.64-2.76-2-4.12a5.69,5.69,0,0,0,2,4.12ZM257.37,40.48c.61-.2.58-.63.51-1.06-.13-.7-.46-1.23-1.26-1.22a.71.71,0,0,0-.73.69.58.58,0,0,0,0,.19A1.55,1.55,0,0,0,257.37,40.48ZM247.19,69.93c.5-2.08-.83-2.36-1.57-3.58C245.06,68.24,246.24,68.7,247.19,69.93ZM106.34,332.09c.06.44.23.87.72.88s.7-.42.61-.87-.15-1.15-.84-1.05c-.47.07-.49.61-.48,1Zm-15.21-1.73c.18-.1.44-.15.51-.29a.54.54,0,0,0-.22-.73l-.09,0a.34.34,0,0,0-.46.13.28.28,0,0,0,0,.12.65.65,0,0,0,.3.81ZM63.21,118.25c.07.35.3.6.65.53s.42-.4.36-.72-.26-.6-.63-.52-.42.39-.38.72Zm204.92-73.8a.6.6,0,0,0,.59-.62s0,0,0-.07a.59.59,0,0,0-.6-.58h0c-.38,0-.47.35-.42.66S267.85,44.44,268.13,44.45ZM253,41.55c.05.42.23.66.62.52a.61.61,0,0,0,.32-.44.56.56,0,0,0-.48-.64h0c-.42,0-.43.32-.44.57Z"/><path class="a" d="M239.29,74.52c-1.57-.69-2-1.92-2.73-3-.95-1.49-1.41-3.41-3.77-3.7-1.2-.14-1.54-1.61-1-2.67a7.15,7.15,0,0,0,1-2.92c.1-1.18,1.34-.89,2.08-.47A14.39,14.39,0,0,1,239,65.92a27,27,0,0,1,2,3.37c.27.49.35,1.44,0,1.5C238.61,71.12,239.88,73,239.29,74.52Z"/></svg>